<svg id="Layer_1" data-name="Layer 1" xmlns="http://www.w3.org/2000/svg" viewBox="0 0 54.15 46.73"><defs><style>.cls-1{fill:#fff;}.cls-2{fill:#d1d3d4;}.cls-3{fill:none;}.cls-4{fill:#fbb040;}.cls-5{fill:#f5fbfb;}.cls-6{fill:#fefbd6;}.cls-7{fill:#bc8430;}.cls-8{fill:#58595b;}</style></defs><title>stevie-bus-only-menu-logo</title><polygon class="cls-1" points="51.23 12.34 51.75 14.73 51.86 16.04 52.1 16.13 52.14 15.93 52.14 15.07 51.94 14 51.48 12.44 51.23 12.34"/><path class="cls-1" d="M38,23.79s-.88.5-.11,1.63a4.45,4.45,0,0,0,1.94.84c.45.09,3.24.64,3.72.75l3.49.74,2,.4,2.46.55,1.34.2A4.68,4.68,0,0,0,54,29c.15-.06.9-.41,1-.71.15-.59.26-1-.53-1.05-2.21-.36-5.41-1-5.41-1l-5.38-1.15L40,24.24Z" transform="translate(-3 -2)"/><path class="cls-1" d="M53.63,21.75a1.63,1.63,0,0,0-1.6.59,1.74,1.74,0,0,0-.29,1.94c.56.53.66.61,1.18.65a1.54,1.54,0,0,0,1.54-1.14c.09-.36.24-1.4-.41-1.78A.66.66,0,0,0,53.63,21.75Z" transform="translate(-3 -2)"/><path class="cls-1" d="M41.08,19.31s1.36.5,1.31,1.29a1.69,1.69,0,0,1,0,1.15c-.32.41-.56.71-.87.77a1.65,1.65,0,0,1-1.36-.26,2.16,2.16,0,0,1-.62-1.4,2.14,2.14,0,0,1,.88-1.4A3.52,3.52,0,0,1,41.08,19.31Z" transform="translate(-3 -2)"/><path class="cls-1" d="M39.45,16.09s.19-.86.68-.89,6,1,6.48,1.12,5.54,1.11,5.54,1.11l3.93,1a.84.84,0,0,1,.25.67,1.76,1.76,0,0,1-.09.48l-2.67-.77L49.68,18l-5.22-1L42,16.51h-.43l-.09.05s-1.56-.29-1.86-.29A.15.15,0,0,1,39.45,16.09Z" transform="translate(-3 -2)"/><path class="cls-1" d="M42.6,11.55a7.34,7.34,0,0,1,3-.67,35.83,35.83,0,0,1,3.89.47s2.91.74,3.33,1a22,22,0,0,1,2,1.3c.18.17.58.69.58.69L54,14l-3.46-1-2.87-.62-5.16-.65Z" transform="translate(-3 -2)"/><polygon class="cls-1" points="37.39 13.11 37.87 12.2 38.52 11.29 39.64 9.86 38.86 10.33 38.12 11.21 37.6 11.96 37.23 12.68 37.13 12.94 37.09 13.2 37.29 13.2 37.39 13.11"/><path class="cls-2" d="M52.6,18.9l.59-.22a6.35,6.35,0,0,0-2,1.31,1.78,1.78,0,0,0-.21-.44C51.52,19.36,52.06,19.12,52.6,18.9Z" transform="translate(-3 -2)"/><path class="cls-3" d="M50.29,17.2c0,.57,0,1.2,0,1.78l-.06,0L50,18.82a6.83,6.83,0,0,0,0-2.21c-.08-.74-.2-1.48-.34-2.21s-.34-1.55-.51-2.32L49,11.62c.1.27.2.54.28.8.23.76.51,1.53.67,2.31A18.65,18.65,0,0,1,50.29,17.2Z" transform="translate(-3 -2)"/><path class="cls-2" d="M56.53,17A2.2,2.2,0,0,1,56,18.61c-.42.48-1.43.79-1.77.07a.35.35,0,0,0-.06-.09,4.67,4.67,0,0,0,.58-.41c.1-.09,0-.23-.12-.21a5.77,5.77,0,0,0-.82.2.88.88,0,0,1,0-.17,1.8,1.8,0,0,1,.21-.56,1.85,1.85,0,0,1,.78-.81C55.28,16.35,56.41,16.17,56.53,17Z" transform="translate(-3 -2)"/><path d="M12.66,37h-.13a10,10,0,0,1-1.36-.4s0,0,0,0a4.4,4.4,0,0,0-.2,2.22s-.05,0-.06,0a3.12,3.12,0,0,1,.19-2.29h0c-.18-.08-.36-.15-.53-.24,0,.24-.05.49-.07.73a9.73,9.73,0,0,0,0,1.08c0,.6-.13,1.53.28,2a1.94,1.94,0,0,0,.86.5,3.1,3.1,0,0,1-.15-1.41s0,0,0,0a2.82,2.82,0,0,0,.29,1.46,2.74,2.74,0,0,0,.39.09,1.86,1.86,0,0,1-.09-1.06s.08,0,.07,0a2,2,0,0,0,.24,1.09l.23,0h.08a.51.51,0,0,0,0-.13,1.1,1.1,0,0,1,0-.51h0a4.77,4.77,0,0,1,.13.51.5.5,0,0,1,0,.13,1.3,1.3,0,0,0,.41-.09l.24-.28a2,2,0,0,0,.19-.42c.09-.34.15-.69.21-1a11.19,11.19,0,0,1,.42-1.73L14,37.28l-1-.19L12.71,37ZM57,16.6a2.59,2.59,0,0,1-.71,2.52c-.69.71-2.2.95-2.67-.14a.53.53,0,0,1,0-.12,5.65,5.65,0,0,0-2.34,1.66,6.42,6.42,0,0,1-.24,1.84c-.35,1.46-.69,2.92-1,4.38l-.06.5c-.18,1.3-.38,2.59-.6,3.89s-.48,2.63-.77,3.95a34.44,34.44,0,0,1-.89,3.74,1,1,0,0,1,.74.64,2.69,2.69,0,0,1-.19,1.63,3,3,0,0,1-1.11,1.46,3.69,3.69,0,0,1-1.92.61,6.21,6.21,0,0,1-.17,1.09,8,8,0,0,1-.43,1.6,4.85,4.85,0,0,1-.26.51,5.94,5.94,0,0,1,1.38-.23.19.19,0,0,1,0,.37l-.44.09h.23l.91,0c.17,0,.32,0,.41.13.17.31-.82.25-.89.25-.4,0-.78,0-1.16,0a10,10,0,0,0,1.45.24c.31,0,.74-.1,1,0,0,0,0,.07,0,.1-.16.19-.48.19-.75.18,1,.2,1.91.42,2.85.69.24.06.2.45-.05.42-3.38-.28-6.73-.86-10.1-1.3q-9-1.17-18.09-1.57c-3-.13-6-.18-9.08-.22-1.52,0-3-.08-4.54-.11l-2.27,0a21.44,21.44,0,0,1-2.27-.06c-.06,0-.09-.11,0-.12a17.21,17.21,0,0,1,2.48-.24l2.65-.18c1.69-.13,3.4-.18,5.1-.18,1.27,0,2.54,0,3.82,0l-.73-.07c-1.14-.08-2.27-.08-3.41-.07a12.94,12.94,0,0,1-3.17-.26s0,0,0,0c2.19.14,4.4-.08,6.58.17,1.32.15,2.64.26,3.95.31-1.43-.24-2.86-.47-4.31-.63a40.22,40.22,0,0,0-5-.2c-.84,0-1.68.07-2.51.15s-1.68.31-2.51.33a.06.06,0,0,1,0-.11,11.45,11.45,0,0,1,2.8-.52c.43-.05.86-.09,1.3-.12a9.3,9.3,0,0,0-1.67,0q-.87,0-1.74.06a5.07,5.07,0,0,1-1.56-.07s0,0,0,0a5.05,5.05,0,0,1,1.65-.11l1.65-.06a12.84,12.84,0,0,1,2.64.18h.52a56.46,56.46,0,0,1,10,.86,14.38,14.38,0,0,0-2.4-.63,6.35,6.35,0,0,1-2-.33s0,0,0,0a12.64,12.64,0,0,0,2.31.12,21,21,0,0,1,2.32.53,10.91,10.91,0,0,0,2.68.31,7.12,7.12,0,0,1,2.48.22l.05.05c.53,0,1.07,0,1.61,0l1.48.07a4.54,4.54,0,0,1,1.33.17s0,0,0,0a5.88,5.88,0,0,1-1.51,0c-.5,0-1,0-1.49,0-.86,0-1.71.07-2.57.14q2.83.2,5.65.45t5.66.6c-.57-.15-1.14-.28-1.72-.41-.06,0,0-.11,0-.12a14.17,14.17,0,0,1,3.05.24,4.48,4.48,0,0,0-1.59-.54.11.11,0,0,1-.09-.08,20.69,20.69,0,0,0-3.05,0,0,0,0,1,1,0,0,14.89,14.89,0,0,1,3.4-.22,12.71,12.71,0,0,1,1.49.31l.57.13a.83.83,0,0,0-.07-.13s0-.07.05,0a1.82,1.82,0,0,0,.37.18,1.24,1.24,0,0,1,.06-.47s0,0,0,0v0c0-.21,0-.42,0-.63a4.56,4.56,0,0,1,.25-1.84c-.84-.22-1.68-.45-2.5-.71l-.45-.09-10-1.93-9.62-1.86-1.92-.37a5.5,5.5,0,0,1-.31,1.86,4.91,4.91,0,0,1-.48,1.17,1.66,1.66,0,0,1-.42.66.75.75,0,0,1-.47.32l-.23.1a3.88,3.88,0,0,1-2.68-.45A2.15,2.15,0,0,1,9.62,39a9.74,9.74,0,0,1,.24-1.62,3.89,3.89,0,0,1,.37-1.2,6.06,6.06,0,0,1-.53-.35,3.36,3.36,0,0,1-1.26-3.6A1.59,1.59,0,0,1,9.19,31,1.13,1.13,0,0,1,9.43,31a36.19,36.19,0,0,1,.66-3.86c.25-1.28.53-2.56.84-3.83s.61-2.48.94-3.7c0-.09,0-.17.05-.25.17-.86.34-1.71.5-2.57s.3-1.47.38-2.22a4.54,4.54,0,0,1,.54-2,6.08,6.08,0,0,0-1.46-2.24l0,0c-.92.86-2.24,0-2.57-1a2.49,2.49,0,0,1,.41-2.52c.89-.81,2.21.11,2.67,1a2.18,2.18,0,0,1,.24,1.5,1.23,1.23,0,0,1-.29.55l.65.61c.48.45,1,.88,1.46,1.31a4.6,4.6,0,0,1,.78-2.06,17,17,0,0,1,1.34-2C17,7,17.45,6.39,18,5.79c.28-.33.57-.65.86-1l.38-.42a.6.6,0,0,1-.28-.24.27.27,0,0,1,0-.33,1.3,1.3,0,0,1,.73-.18h0a4.68,4.68,0,0,1,1.2-.56,15.09,15.09,0,0,1,2-.57A21.47,21.47,0,0,1,26.75,2,25.56,25.56,0,0,1,31,2.27,36.05,36.05,0,0,1,35.16,3a36.3,36.3,0,0,1,4.33,1,25.41,25.41,0,0,1,3.88,1.43,21,21,0,0,1,3.34,2A17,17,0,0,1,48.1,8.62a4.4,4.4,0,0,1,1,1.05l.24.15c.2.11.47.23.37.51s-.23.24-.42.23a15.89,15.89,0,0,1,.53,1.8c.23.83.37,1.68.54,2.52a19,19,0,0,1,.34,2.48,5.85,5.85,0,0,1,0,1.82l.05.05,1.85-.62.91-.33a1.25,1.25,0,0,1,0-.65,2.25,2.25,0,0,1,.91-1.34C55.08,15.75,56.59,15.5,57,16.6Zm-1.09,2A2.2,2.2,0,0,0,56.53,17c-.12-.86-1.25-.68-1.8-.4a1.85,1.85,0,0,0-.78.81,1.8,1.8,0,0,0-.21.56.88.88,0,0,0,0,.17,5.77,5.77,0,0,1,.82-.2c.1,0,.22.12.12.21a4.67,4.67,0,0,1-.58.41.35.35,0,0,1,.06.09C54.52,19.4,55.53,19.09,56,18.61Zm-2.76.07-.59.22c-.54.22-1.08.46-1.63.65a1.78,1.78,0,0,1,.21.44A6.35,6.35,0,0,1,53.19,18.68ZM50.46,21c0-.38.13-1-.16-1.29l0,0a3.33,3.33,0,0,1,.08.52A2.27,2.27,0,0,1,50,21.8s-.05,0,0,0a3,3,0,0,0,.22-1.46,1.89,1.89,0,0,0-.23-.84l-.21-.06c.16.43.27,1-.06,1.26,0,0,0,0,0,0a1.59,1.59,0,0,0-.11-1.27c-.14,0-.29,0-.44-.06l.11.23a1,1,0,0,1,.09.64,0,0,0,0,1-.06,0,1.12,1.12,0,0,0-.18-.66,1.14,1.14,0,0,0-.1-.19l-.48,0a29.88,29.88,0,0,1-3.86-.86c-1.29-.29-2.56-.63-3.84-1l-.55,0a10.86,10.86,0,0,1-4-.73s0,0,0,0a12,12,0,0,0,4.08.65L39.09,17l-.2,0c-.92-.12-1.83-.32-2.74-.5a25.74,25.74,0,0,1-2.64-.55v0a27,27,0,0,1,2.66.48l1.69.31c-1.76-.43-3.52-.86-5.27-1.33-2.35-.34-4.68-.76-7-1.12l-1.33-.2,1.14.23c1.54.29,3.1.53,4.62.93,0,0,0,0,0,0-1.57-.3-3.16-.57-4.73-.87-1-.19-2-.36-3-.63l-3-.5-1.7-.3c-.47-.09-.9-.27-1.36-.38l-.2.13c-.2.16-.38.34-.59.49,0,0,0,0,0,0a4.1,4.1,0,0,1,.61-.65,4.2,4.2,0,0,0-.78-.18,2.49,2.49,0,0,0-1.36,2.1,0,0,0,0,1,0,0,2.83,2.83,0,0,1,.88-2l-.1,0a2.21,2.21,0,0,0-.8.86,9.59,9.59,0,0,0-.69,2.56c0,.06,0,.13,0,.2a14,14,0,0,1-.3,1.57c-.14.64-.27,1.27-.4,1.91-.26,1.29-.51,2.57-.75,3.86s-.49,2.64-.73,4-.36,2.48-.66,3.68l.79.22c.93.24,1.85.51,2.78.71,1.6.35,3.21.68,4.81,1,3.21.7,6.41,1.43,9.62,2.09,1.74.36,3.48.74,5.23,1,1.58.27,3.16.44,4.74.77q2.7.55,5.4,1.14c.43.09.87.2,1.3.27.65.11,1.3.21,1.95.34h0c.2-1.3.6-2.6.89-3.88s.57-2.49.85-3.73.55-2.55.82-3.83c.12-.55.23-1.11.34-1.66.22-1.13.41-2.28.55-3.42C50.4,21.73,50.44,21.34,50.46,21Zm-.14-2c-.06-.58,0-1.21,0-1.78a18.65,18.65,0,0,0-.38-2.47c-.16-.78-.44-1.55-.67-2.31-.08-.26-.18-.53-.28-.8l.11.46c.17.77.35,1.54.51,2.32s.26,1.47.34,2.21a6.83,6.83,0,0,1,0,2.21l.29.13Zm-.65-.27c-.13-.66-.11-1.38-.22-2s-.29-1.54-.47-2.3-.39-1.53-.6-2.29c-.1-.34-.2-.69-.28-1a3.24,3.24,0,0,1-.16-.8l-.7-.22C45.16,9.35,43.06,8.74,41,8.14c-1.09-.31-2.19-.62-3.29-.9s-2.17-.5-3.23-.87c-1.34-.1-2.66-.38-4-.57s-2.74-.39-4.12-.54-2.65-.34-4-.48L20.5,4.6a2.81,2.81,0,0,1-.47.69c-.22.29-.44.56-.67.84-.51.62-1,1.24-1.53,1.88s-1,1.33-1.47,2c-.34.53-.61,1.16-1,1.69l.65.08c.58.06,1.17,0,1.74.15l1.6.29c2.23.41,4.44.88,6.65,1.38s4.42,1,6.61,1.52c3.23.51,6.43,1.17,9.63,1.77,1.39.27,2.76.57,4.13.89a18.58,18.58,0,0,1,2.23.54C49,18.49,49.33,18.59,49.67,18.71Zm-1.83,22a1.74,1.74,0,0,0,.07-1c-.14-.46-1.44-.45-1.85-.51-.83-.12-1.68-.21-2.52-.36l-1.44-.29A72.74,72.74,0,0,1,34.79,37l-.39-.12c-.08.62-.17,1.24-.26,1.85a6,6,0,0,1-.42,2l0,0,3.71.81c1,.14,2,.44,3,.62.71.12,1.41.18,2.12.24a3.53,3.53,0,0,1,1.65.31l0,0H45a.12.12,0,0,1,.16,0,3,3,0,0,0,2.15-1,3.39,3.39,0,0,0,.46-.81A29.62,29.62,0,0,1,42,40.17c-2.1-.41-4.21-.81-6.29-1.29,0,0,0-.05,0,0C39.73,39.51,43.74,40.76,47.84,40.7ZM47.69,9.43l.24.07-.42-.23c-.54-.29-1.09-.56-1.65-.8a36.77,36.77,0,0,0-3.55-1.31,77.82,77.82,0,0,0-7.66-1.89C32.12,4.76,29.59,4.27,27,4a37.64,37.64,0,0,0-3.83-.2c-.65,0-1.31,0-2,.09l-.42,0,.34,0c.64.1,1.29.2,1.94.28,1.23.16,2.46.31,3.69.5s2.53.37,3.8.59a24.92,24.92,0,0,1,3.9.86,25.13,25.13,0,0,1,3.85.73c1.25.3,2.49.63,3.74.95s2.51.7,3.77,1C46.45,9.12,47.07,9.27,47.69,9.43ZM47.84,9a.46.46,0,0,1-.07-.07c-.64-.39-1.23-.82-1.91-1.16s-1.4-.64-2.09-1a0,0,0,0,1,0,0,19.52,19.52,0,0,1,2.15.91q.36.17.72.36c-.24-.16-.49-.32-.75-.46-.57-.3-1.15-.56-1.73-.83-1.26-.6-2.63-.83-3.91-1.38,0,0,0,0,0,0a24.92,24.92,0,0,1,4,1.27l.85.38a20.9,20.9,0,0,0-2-1,33.44,33.44,0,0,0-4-1.41C37.71,4.2,36.34,4,35,3.6s-2.62-.51-4-.69a35.51,35.51,0,0,0-4.12-.3h-.84l.52,0c.7.09,1.4.21,2.09.32a22,22,0,0,0,2.43.24s0,.07,0,.07a25.53,25.53,0,0,1-4.36-.4A10.45,10.45,0,0,0,24.08,3c.85,0,1.69.11,2.54.14,0,0,0,0,0,0-.93,0-1.86,0-2.79,0a9.42,9.42,0,0,0-2.49.36l1.29-.1a29.66,29.66,0,0,1,4.11.1c1.35.12,2.69.31,4,.53s2.66.48,4,.76h.06a73.89,73.89,0,0,1,7.36,1.82A29.66,29.66,0,0,1,47.84,9Zm-3.22,34.7c.06-.17.1-.34.16-.51-.23,0-.45,0-.68,0h0a1.23,1.23,0,0,1-.09.65,2.66,2.66,0,0,1-.31.66c0,.06-.13,0-.09-.05a2.79,2.79,0,0,0,.31-.68,2.81,2.81,0,0,1,.13-.59h0l-.23,0a2.09,2.09,0,0,1-.36.08.63.63,0,0,1-.07.4c0,.1-.1.25-.21.29s0,0,0,0a3.55,3.55,0,0,0,.22-.65,4.64,4.64,0,0,1-.53,0,.93.93,0,0,1-.21.53,0,0,0,0,1,0,0c0-.17.08-.35.13-.52l-.27,0a13.94,13.94,0,0,1-1.81-.41A4.34,4.34,0,0,1,40.57,44a1.18,1.18,0,0,0,.11-.43,0,0,0,0,1,0,0,1.39,1.39,0,0,1-.12.63,1,1,0,0,1-.07.15v0c0,.12,0,.25,0,.37a.36.36,0,0,1,0,.23,2,2,0,0,0,0,.65,1.45,1.45,0,0,0,.22.47l.21.12c0-.22,0-.45.05-.65a0,0,0,0,1,.06,0,5.62,5.62,0,0,1,0,.72,4.56,4.56,0,0,0,.44.14,2.62,2.62,0,0,1,.28-1s.07,0,.06,0a4.44,4.44,0,0,0-.16.6c0,.14,0,.29-.06.43a3,3,0,0,0,.5.07c.1-.31.22-.63.32-.94h0a1.24,1.24,0,0,1-.08.63l-.12.32h.32c.11-.16.25-.31.36-.48a2.22,2.22,0,0,0,.38-.77s0,0,0,0a2.33,2.33,0,0,1-.55,1.22,1,1,0,0,0,.48-.18,4.06,4.06,0,0,0,.93-1.66A7.54,7.54,0,0,0,44.62,43.68ZM33.49,38.59c.16-.62.32-1.25.49-1.87-1.33-.35-2.71-.6-4-.87-1.58-.32-3.16-.66-4.74-1l-.28-.06-3-.56a5.52,5.52,0,0,1-.22,1.15A23.35,23.35,0,0,1,21,38l2.66.58,6.76,1.47,2.66.58s0-.05,0-.08A6.1,6.1,0,0,1,33.49,38.59Zm-12-4a1.38,1.38,0,0,1,.12-.36c-1.69-.32-3.39-.63-5.08-1s-3.53-.71-5.3-1.14c-.36-.09-1.5-.55-1.77-.2a1.7,1.7,0,0,0-.23.74.83.83,0,0,0,.28.31,3.26,3.26,0,0,0,.68.25c.47.16.94.3,1.42.43.93.26,1.86.49,2.79.71,1.9.45,3.84.74,5.77,1,.05,0,0,.1,0,.1a60.76,60.76,0,0,1-6.6-1.18c-1.12-.26-2.22-.57-3.33-.86a3.48,3.48,0,0,1-1-.4,2.46,2.46,0,0,0,.18,1c.56,1.28,2.14,1.8,3.38,2.14.36.1.73.16,1.09.24l6.8,1.48a19.84,19.84,0,0,1,.53-2.15C21.24,35.36,21.33,35,21.45,34.56ZM18.73,5.85l.32-.42c-.21.21-.42.41-.6.62-.56.61-1.15,1.2-1.65,1.86a16.64,16.64,0,0,0-1.3,2,20.08,20.08,0,0,1-.92,1.86,2.36,2.36,0,0,1,.46,0A6.75,6.75,0,0,1,15.87,10a23.34,23.34,0,0,1,1.36-2.09C17.72,7.18,18.23,6.52,18.73,5.85Zm-5.06,6.29a1.72,1.72,0,0,1,.32-.23c-.41-.38-.79-.79-1.19-1.2l-.42-.4a6.57,6.57,0,0,1,1.27,1.85ZM12,9.58A1.09,1.09,0,0,0,12.15,9a1.84,1.84,0,0,0-.24-1c-.3-.52-1.32-1.35-1.88-.7A2,2,0,0,0,9.81,9c.15.61.95,1.53,1.6.95a.33.33,0,0,1,.13-.07,4.08,4.08,0,0,1-.36-.61.12.12,0,0,1,.17-.16A5.12,5.12,0,0,1,12,9.58Z" transform="translate(-3 -2)"/><path class="cls-4" d="M50.08,21.72,50,21.8s-.05,0,0,0l0-.07c-.6-.16-1.19-.35-1.78-.53s-1.4-.43-2.12-.61a.82.82,0,0,1,.29.64c0,.65.09,1.51-.43,2a2.64,2.64,0,0,1-2,.39,22.28,22.28,0,0,1-2.82-.41c-2.61-.5-5.23-1-7.83-1.52l-8.22-1.78c-1.37-.3-2.75-.58-4.12-.91a13.54,13.54,0,0,1-3.17-1c-.88-.48-.88-1.42-.61-2.3a1.73,1.73,0,0,1,.35-.72l-1.44-.27c-.72-.13-1.45-.2-2.17-.28a0,0,0,0,1,0,0h0l-.42,0c-.11.48-.17,1-.29,1.46,0,.06,0,.13,0,.2a14,14,0,0,1-.3,1.57c-.14.64-.27,1.27-.4,1.91-.26,1.29-.51,2.57-.75,3.86s-.49,2.64-.73,4-.36,2.48-.66,3.68l.79.22c.93.24,1.85.51,2.78.71,1.6.35,3.21.68,4.81,1,3.21.7,6.41,1.43,9.62,2.09,1.74.36,3.48.74,5.23,1,1.58.27,3.16.44,4.74.77q2.7.55,5.4,1.14c.43.09.87.2,1.3.27.65.11,1.3.21,1.95.34h0c.2-1.3.6-2.6.89-3.88s.57-2.49.85-3.73.55-2.55.82-3.83c.12-.55.23-1.11.34-1.66.22-1.13.41-2.28.55-3.42l0-.31Zm-1.61,6.82c-.12.69-.19,1.38-.28,2.07a7.84,7.84,0,0,1-1.3,3.88c-1.41,1.81-4.39,1.14-6.32.79-1.75-.31-3.51-.55-5.26-.84s-3.7-.76-5.53-1.19c-3.71-.87-7.41-1.73-11.11-2.62q-2.43-.59-4.79-1.36c-1.2-.41-2.25-1.1-2.18-2.51a10.55,10.55,0,0,1,.48-2.35c.13-.48.27-1,.43-1.44s.24-.72.37-1.08a13.43,13.43,0,0,1,.92-2.18,1.58,1.58,0,0,1,1.18-.82,9.75,9.75,0,0,1,3.28.56l.67.14q10.59,1.66,21,4.06c1.81.42,3.62.8,5.43,1.21,1.15.26,2.78.66,3.1,2A4.15,4.15,0,0,1,48.47,28.54Z" transform="translate(-3 -2)"/><path class="cls-5" d="M49.45,16.67c.11.66.09,1.38.22,2-.34-.12-.7-.22-1-.35a18.58,18.58,0,0,0-2.23-.54c-1.37-.32-2.74-.62-4.13-.89-3.2-.6-6.4-1.26-9.63-1.77-2.19-.56-4.4-1-6.61-1.52s-4.42-1-6.65-1.38L17.78,12c-.57-.1-1.16-.09-1.74-.15l-.65-.08c.36-.53.63-1.16,1-1.69.45-.71,1-1.38,1.47-2s1-1.26,1.53-1.88c.23-.28.45-.55.67-.84a2.81,2.81,0,0,0,.47-.69l1.85.18c1.33.14,2.65.33,4,.48s2.75.33,4.12.54,2.65.47,4,.57c1.06.37,2.15.6,3.23.87s2.2.59,3.29.9c2.1.6,4.2,1.21,6.28,1.88l.7.22a3.24,3.24,0,0,0,.16.8c.08.35.18.7.28,1,.21.76.42,1.52.6,2.29S49.33,15.9,49.45,16.67Zm-1.59-1.94c.06,0,0-.11,0-.1-1.18.08-2.13,1-3.24,1.28,0,0,0,0,0,0C45.75,15.67,46.72,15,47.86,14.73Zm-.58-3.91s0,0,0,0a15.2,15.2,0,0,1-2,.81c-.65.2-1.3.35-1.95.54-1.76.5-3.39,1.36-5.16,1.81,0,0,0,.05,0,.05,1.85-.39,3.53-1.3,5.35-1.79.71-.19,1.43-.36,2.13-.58A4.13,4.13,0,0,0,47.28,10.82Zm-3.14-.42s0-.07,0-.08a4.23,4.23,0,0,0-1.87.46c-.7.3-1.38.62-2.07.91-1.45.6-2.83,1.39-4.32,1.89a0,0,0,0,0,0,.08C38.75,12.87,41.23,11,44.14,10.4Zm-3.78,0s0-.07,0-.06a9.87,9.87,0,0,0-2.76,1.16,0,0,0,0,0,0,.07A15.06,15.06,0,0,1,40.36,10.42Zm-8.68-.3a0,0,0,0,0,0,0,9.34,9.34,0,0,1-2.56,1.24,36.24,36.24,0,0,0-3.45,1.78c-.05,0,0,.11.06.09,1.21-.55,2.37-1.22,3.56-1.81A6.84,6.84,0,0,0,31.68,10.12Zm-2.2-4s0-.05,0-.05a17,17,0,0,0-4.75,1.77,37.56,37.56,0,0,0-4.64,2.38s0,0,0,0a45.91,45.91,0,0,1,4.49-2.11A36.49,36.49,0,0,1,29.48,6.07ZM29,12.51s0-.11-.07-.07a4.55,4.55,0,0,1-1.12.63s0,.08,0,.07A2.8,2.8,0,0,0,29,12.51ZM26.17,8.44s0-.08,0-.06c-.72.27-1.32.92-2.1,1,0,0,0,0,0,0a2.62,2.62,0,0,0,1-.34A7.84,7.84,0,0,0,26.17,8.44Zm-1.6-2.2s0-.06,0,0a5.7,5.7,0,0,1-1.62.85s0,.06,0,0A4,4,0,0,0,24.57,6.24Z" transform="translate(-3 -2)"/><path d="M48.59,26.86a4.15,4.15,0,0,1-.12,1.68c-.12.69-.19,1.38-.28,2.07a7.84,7.84,0,0,1-1.3,3.88c-1.41,1.81-4.39,1.14-6.32.79-1.75-.31-3.51-.55-5.26-.84s-3.7-.76-5.53-1.19c-3.71-.87-7.41-1.73-11.11-2.62q-2.43-.59-4.79-1.36c-1.2-.41-2.25-1.1-2.18-2.51a10.55,10.55,0,0,1,.48-2.35c.13-.48.27-1,.43-1.44l.18.05a19.67,19.67,0,0,0-.57,2.13,4.29,4.29,0,0,0-.09,2.43,2.53,2.53,0,0,0,1.59,1.26,81.94,81.94,0,0,0,9.38,2.48c3.39.8,6.78,1.68,10.18,2.39,1.69.35,3.39.59,5.09.85,1.32.2,2.64.49,4,.65A6.83,6.83,0,0,0,45.7,35c1.23-.5,1.71-1.92,2-3.12s.41-2.62.58-3.93a1.94,1.94,0,0,0-.38-1.68,4.62,4.62,0,0,0-2.13-1.09c-1.61-.45-3.29-.73-4.92-1.1s-3.41-.79-5.12-1.17C30.17,21.68,24.57,20.79,19,19.79l0-.2q10.59,1.66,21,4.06c1.81.42,3.62.8,5.43,1.21C46.64,25.12,48.27,25.52,48.59,26.86Z" transform="translate(-3 -2)"/><path class="cls-4" d="M47.87,26.27A1.94,1.94,0,0,1,48.25,28c-.17,1.31-.29,2.65-.58,3.93s-.74,2.62-2,3.12a6.83,6.83,0,0,1-3.36.21c-1.33-.16-2.65-.45-4-.65-1.7-.26-3.4-.5-5.09-.85-3.4-.71-6.79-1.59-10.18-2.39a81.94,81.94,0,0,1-9.38-2.48,2.53,2.53,0,0,1-1.59-1.26,4.29,4.29,0,0,1,.09-2.43A19.67,19.67,0,0,1,12.79,23a28.16,28.16,0,0,1,1-2.63c.32-.69.69-1.21,1.5-1.25h.16l3.5.65c5.58,1,11.18,1.89,16.71,3.12,1.71.38,3.41.78,5.12,1.17s3.31.65,4.92,1.1A4.62,4.62,0,0,1,47.87,26.27Zm-.71,4.05a3.6,3.6,0,0,0-1-3,2.66,2.66,0,0,0-.72-.58,2.61,2.61,0,0,0-1.59-.34,2.53,2.53,0,0,0-1.44.33A4.56,4.56,0,0,0,41,27.83a4.13,4.13,0,0,0-1,3.23,3.47,3.47,0,0,0,1.76,2.62,3.1,3.1,0,0,0,2.67.22A3.88,3.88,0,0,0,47.16,30.32ZM34.47,28.86A4.76,4.76,0,0,0,30.8,23a4.61,4.61,0,0,0-3.33.62l-.08,0a4.74,4.74,0,0,0-2.19,2.79,4.79,4.79,0,1,0,9.27,2.4Zm-14.9-1.74A4.13,4.13,0,0,0,20,23.81a4.63,4.63,0,0,0-.82-1.55A2.6,2.6,0,0,0,18,21.35,2.66,2.66,0,0,0,17,21a2.86,2.86,0,0,0-1.53.23,3.15,3.15,0,0,0-1.73,1.43c-1,1.65-1,4,.6,5.25a3,3,0,0,0,2.55.88A3.43,3.43,0,0,0,19.57,27.12Z" transform="translate(-3 -2)"/><path d="M47.85,14.63c.06,0,.07.09,0,.1-1.14.25-2.11.94-3.24,1.19,0,0,0,0,0,0C45.72,15.59,46.67,14.71,47.85,14.63Z" transform="translate(-3 -2)"/><path d="M47.25,10.79s0,0,0,0a4.13,4.13,0,0,1-1.67.81c-.7.22-1.42.39-2.13.58-1.82.49-3.5,1.4-5.35,1.79,0,0,0,0,0-.05,1.77-.45,3.4-1.31,5.16-1.81.65-.19,1.3-.34,1.95-.54A15.2,15.2,0,0,0,47.25,10.79Z" transform="translate(-3 -2)"/><path d="M46.32,31.7a4.39,4.39,0,0,0,.41-1.27,4.15,4.15,0,0,0-.06-1.49,2.44,2.44,0,0,0-4.52-.77,2.39,2.39,0,0,1,3.06-.8,2.24,2.24,0,0,1,.66.53,3,3,0,0,1,.83,2.29A3.74,3.74,0,0,1,46.32,31.7Zm-.19-4.37a3.6,3.6,0,0,1,1,3,3.88,3.88,0,0,1-2.71,3.58,3.1,3.1,0,0,1-2.67-.22A3.47,3.47,0,0,1,40,31.06a4.13,4.13,0,0,1,1-3.23,4.56,4.56,0,0,1,1.38-1.09,2.53,2.53,0,0,1,1.44-.33,2.61,2.61,0,0,1,1.59.34A2.66,2.66,0,0,1,46.13,27.33Zm.18,2.61a2.79,2.79,0,0,0-.17-1,2.17,2.17,0,0,0-.38-.64,1.86,1.86,0,0,0-1.8-.64,3,3,0,0,0-1.59,4.17,1.88,1.88,0,0,0,2,.84,2.08,2.08,0,0,0,.68-.3,2.76,2.76,0,0,0,1.07-1.51A3.93,3.93,0,0,0,46.31,29.94Zm-2.4,3.45a2.76,2.76,0,0,0,2.17-1.29,2.63,2.63,0,0,1-2.43,1.22,2.76,2.76,0,0,1-2.35-2.89A2.7,2.7,0,0,0,43.91,33.39Zm-3.42-2.68a3.25,3.25,0,0,0,1.25,2.49,3.88,3.88,0,0,1-1-3.84,5.63,5.63,0,0,1,.31-.77A3.6,3.6,0,0,0,40.49,30.71Z" transform="translate(-3 -2)"/><path d="M46.4,21.21c0,.65.09,1.51-.43,2a2.64,2.64,0,0,1-2,.39,22.28,22.28,0,0,1-2.82-.41c-2.61-.5-5.23-1-7.83-1.52l-8.22-1.78c-1.37-.3-2.75-.58-4.12-.91a13.54,13.54,0,0,1-3.17-1c-.88-.48-.88-1.42-.61-2.3.11-.35.23-.77.61-.89a1.92,1.92,0,0,1,.86,0,23.49,23.49,0,0,1,2.33.48c2.16.36,4.31.79,6.45,1.19,3.1.59,6.2,1.19,9.29,1.83,1.36.28,2.72.62,4.1.84a30,30,0,0,1,4,.86C45.41,20.18,46.4,20.42,46.4,21.21Zm-.32.27c0-.42,0-.61-.4-.84A6.29,6.29,0,0,0,44,20.1l-3.62-.78c-2.4-.55-4.81-1-7.22-1.5-4.53-.91-9.1-1.63-13.6-2.61A10.43,10.43,0,0,0,18.43,15a2,2,0,0,0-.49,0c-.4.09-.5.55-.59.89a2.4,2.4,0,0,0-.08,1.16,1,1,0,0,0,.63.74,16.61,16.61,0,0,0,3.43.88c2.45.57,4.92,1.08,7.38,1.61s5,1.11,7.46,1.59c2.07.39,4.15.81,6.23,1.15a10,10,0,0,0,2.56.21,1.06,1.06,0,0,0,1-.71A4.25,4.25,0,0,0,46.08,21.48Z" transform="translate(-3 -2)"/><path class="cls-6" d="M46.14,29a2.79,2.79,0,0,1,.17,1,3.93,3.93,0,0,1-.15.93,2.76,2.76,0,0,1-1.07,1.51L45,32.2h0a5.07,5.07,0,0,0,.6-3.71h0l.15-.17A2.17,2.17,0,0,1,46.14,29Z" transform="translate(-3 -2)"/><path class="cls-4" d="M45.68,20.64c.42.23.42.42.4.84A4.25,4.25,0,0,1,46,22.55a1.06,1.06,0,0,1-1,.71,10,10,0,0,1-2.56-.21c-2.08-.34-4.16-.76-6.23-1.15-2.5-.48-5-1-7.46-1.59s-4.93-1-7.38-1.61a16.61,16.61,0,0,1-3.43-.88,1,1,0,0,1-.63-.74,2.4,2.4,0,0,1,.08-1.16c.09-.34.19-.8.59-.89a2,2,0,0,1,.49,0,10.43,10.43,0,0,1,1.12.17c4.5,1,9.07,1.7,13.6,2.61,2.41.48,4.82.95,7.22,1.5L44,20.1A6.29,6.29,0,0,1,45.68,20.64Zm-.12,2.08c.2-.41.48-1.3.13-1.7a1.46,1.46,0,0,0-.72-.31c-.4-.11-.8-.22-1.21-.31s-1.47-.42-1.94-.11-.41.78-.42,1.27a1.46,1.46,0,0,0,0,.51v.06a.07.07,0,0,0,0,.06.62.62,0,0,0,.3.3,4.8,4.8,0,0,0,1.12.26c.42.08.84.15,1.26.2S45.29,23.28,45.56,22.72ZM40,20s.1,0,.07-.06c-.17-.23-.53-.45-.76-.17a1.52,1.52,0,0,0-.21.63c-.07.31-.15.61-.2.92s.25.28.3.08.12-.61.17-.92a1.56,1.56,0,0,1,.07-.44C39.59,19.73,39.77,19.93,40,20Zm-1.91-.33a0,0,0,0,0,.06-.06c-.17-.23-.52-.45-.75-.17a1.39,1.39,0,0,0-.21.63c-.08.31-.15.61-.2.92s.24.28.29.08.13-.61.18-.92a1.56,1.56,0,0,1,.07-.44C37.67,19.4,37.86,19.6,38.06,19.71Zm-1.89-.39s.1,0,.07-.07c-.17-.23-.53-.44-.76-.17a1.61,1.61,0,0,0-.21.64c-.07.3-.15.61-.2.92s.25.27.29.08.13-.62.18-.93a1.62,1.62,0,0,1,.07-.44C35.79,19,36,19.2,36.17,19.32Zm-1.86-.47a0,0,0,0,0,.06-.06c-.16-.23-.52-.45-.75-.17a1.52,1.52,0,0,0-.21.63c-.08.31-.15.61-.2.92s.25.28.29.08a9.35,9.35,0,0,0,.18-.92,1.62,1.62,0,0,1,.07-.44C33.92,18.54,34.11,18.74,34.31,18.85Zm-4.54-.29a1.66,1.66,0,0,0,.05-.7c-.13-.33-.52-.27-.76-.12,0,0,0,.09,0,.09s.46-.13.51.16a1.58,1.58,0,0,1-.1.47c-.08.31-.15.63-.2.95s.25.27.29.08S29.72,18.87,29.77,18.56Zm-1.9-.28a1.51,1.51,0,0,0,.05-.7c-.12-.32-.52-.27-.76-.12-.05,0,0,.1,0,.09s.46-.13.51.17a1.52,1.52,0,0,1-.1.46c-.07.32-.15.63-.2.95s.25.27.3.08S27.83,18.59,27.87,18.28ZM26,17.93a1.46,1.46,0,0,0,0-.69c-.12-.33-.52-.28-.75-.13-.05,0,0,.1,0,.09s.46-.13.51.17a1.52,1.52,0,0,1-.1.46c-.07.32-.14.63-.19,1s.24.28.29.08S25.93,18.25,26,17.93Zm-1.9-.41a1.66,1.66,0,0,0,.05-.7c-.13-.33-.52-.28-.76-.12-.05,0,0,.09,0,.08s.46-.13.51.17a1.65,1.65,0,0,1-.1.47c-.08.31-.15.62-.2.94s.25.28.29.08S24,17.83,24.08,17.52Zm-2.47.25c.19-.41.47-1.3.13-1.7a1.45,1.45,0,0,0-.73-.31q-.59-.16-1.2-.3c-.49-.12-1.47-.43-1.95-.12s-.4.78-.41,1.27a1.25,1.25,0,0,0,0,.51v.06a.08.08,0,0,0,0,.07.61.61,0,0,0,.3.29,4.18,4.18,0,0,0,1.11.26c.42.08.85.15,1.27.2S21.34,18.33,21.61,17.77Z" transform="translate(-3 -2)"/><path class="cls-6" d="M45.76,28.31l-.15.17h0c0,.66,0,1.3-.1,2A8.89,8.89,0,0,1,45,32.17a0,0,0,0,0,0,0l.09.18a2.08,2.08,0,0,1-.68.3,1.88,1.88,0,0,1-2-.84A3,3,0,0,1,44,27.67,1.86,1.86,0,0,1,45.76,28.31Zm-1.14,3.4a2.32,2.32,0,0,0,.51-2.19s0,0,0,0c.18.84-.27,1.41-.53,2.16A0,0,0,0,0,44.62,31.71Zm-.55-.18A2.37,2.37,0,0,0,44.49,30s-.05,0-.05,0A3.45,3.45,0,0,1,44,31.51S44.05,31.57,44.07,31.53Z" transform="translate(-3 -2)"/><path d="M45.69,21c.35.4.07,1.29-.13,1.7-.27.56-.93.3-1.44.23s-.84-.12-1.26-.2a4.8,4.8,0,0,1-1.12-.26.62.62,0,0,1-.3-.3.07.07,0,0,1,0-.06v-.06a1.46,1.46,0,0,1,0-.51c0-.49.08-1.06.42-1.27s1.45,0,1.94.11.81.2,1.21.31A1.46,1.46,0,0,1,45.69,21Zm-.26,1.1a1.68,1.68,0,0,0,.08-.63c-.09-.41-.48-.44-.8-.53a12.49,12.49,0,0,0-1.37-.35c-.5-.1-1.3-.37-1.6.24a2.12,2.12,0,0,0-.1.62,2.76,2.76,0,0,1-.06.4c.12.51.82.5,1.27.58s1,.17,1.49.23a2.32,2.32,0,0,0,.73.07C45.32,22.66,45.38,22.34,45.43,22.12Z" transform="translate(-3 -2)"/><path d="M45.62,28.48a5.07,5.07,0,0,1-.6,3.71h0a0,0,0,0,1,0,0,8.89,8.89,0,0,0,.54-1.73c.1-.66.05-1.3.1-2h0Z" transform="translate(-3 -2)"/><path class="cls-7" d="M45.51,21.49a1.68,1.68,0,0,1-.08.63c0,.22-.11.54-.36.63a2.32,2.32,0,0,1-.73-.07c-.5-.06-1-.14-1.49-.23s-1.15-.07-1.27-.58a2.76,2.76,0,0,0,.06-.4,2.12,2.12,0,0,1,.1-.62c.3-.61,1.1-.34,1.6-.24a12.49,12.49,0,0,1,1.37.35C45,21.05,45.42,21.08,45.51,21.49Z" transform="translate(-3 -2)"/><path d="M45.13,29.52a2.32,2.32,0,0,1-.51,2.19,0,0,0,0,1,0,0c.26-.75.71-1.32.53-2.16C45.1,29.51,45.12,29.5,45.13,29.52Z" transform="translate(-3 -2)"/><path class="cls-8" d="M44.78,43.17c-.06.17-.1.34-.16.51a7.54,7.54,0,0,1-.42,1,4.06,4.06,0,0,1-.93,1.66,1,1,0,0,1-.48.18,2.33,2.33,0,0,0,.55-1.22s0,0,0,0a2.22,2.22,0,0,1-.38.77c-.11.17-.25.32-.36.48h-.32l.12-.32a1.24,1.24,0,0,0,.08-.63h0c-.1.31-.22.63-.32.94a3,3,0,0,1-.5-.07c0-.14,0-.29.06-.43a4.44,4.44,0,0,1,.16-.6s0-.05-.06,0a2.62,2.62,0,0,0-.28,1,4.56,4.56,0,0,1-.44-.14,5.62,5.62,0,0,0,0-.72,0,0,0,1,0-.06,0c0,.2-.05.43-.05.65l-.21-.12a1.45,1.45,0,0,1-.22-.47,2,2,0,0,1,0-.65.36.36,0,0,0,0-.23c0-.12,0-.25,0-.37v0a1,1,0,0,0,.07-.15,1.39,1.39,0,0,0,.12-.63,0,0,0,0,0,0,0,1.18,1.18,0,0,1-.11.43,4.34,4.34,0,0,0,.08-1.29,13.94,13.94,0,0,0,1.81.41l.27,0c0,.17-.09.35-.13.52a0,0,0,0,0,0,0,.93.93,0,0,0,.21-.53,4.64,4.64,0,0,0,.53,0,3.55,3.55,0,0,1-.22.65s0,0,0,0,.16-.19.21-.29a.63.63,0,0,0,.07-.4,2.09,2.09,0,0,0,.36-.08l.23,0h0a2.81,2.81,0,0,0-.13.59,2.79,2.79,0,0,1-.31.68c0,.06.05.11.09.05A2.66,2.66,0,0,0,44,43.8a1.23,1.23,0,0,0,.09-.65h0C44.33,43.16,44.55,43.17,44.78,43.17Z" transform="translate(-3 -2)"/><path d="M44.49,30a2.37,2.37,0,0,1-.42,1.54s-.08,0-.06,0A3.45,3.45,0,0,0,44.44,30S44.48,30,44.49,30Z" transform="translate(-3 -2)"/><path d="M44.13,10.32s0,.07,0,.08c-2.91.63-5.39,2.47-8.25,3.26a0,0,0,0,1,0-.08c1.49-.5,2.87-1.29,4.32-1.89.69-.29,1.37-.61,2.07-.91A4.23,4.23,0,0,1,44.13,10.32Z" transform="translate(-3 -2)"/><path d="M40.34,10.36s0,0,0,.06a15.06,15.06,0,0,0-2.74,1.17,0,0,0,0,1,0-.07A9.87,9.87,0,0,1,40.34,10.36Z" transform="translate(-3 -2)"/><path d="M40,20s0,.09-.07.06c-.2-.11-.38-.31-.56,0a1.56,1.56,0,0,0-.07.44c-.05.31-.1.62-.17.92s-.33.11-.3-.08.13-.61.2-.92a1.52,1.52,0,0,1,.21-.63C39.51,19.53,39.87,19.75,40,20Z" transform="translate(-3 -2)"/><path d="M38.12,19.65a0,0,0,0,1-.06.06c-.2-.11-.39-.31-.56,0a1.56,1.56,0,0,0-.07.44c0,.31-.11.62-.18.92s-.32.11-.29-.08.12-.61.2-.92a1.39,1.39,0,0,1,.21-.63C37.6,19.2,38,19.42,38.12,19.65Z" transform="translate(-3 -2)"/><path d="M36.24,19.25s0,.09-.07.07c-.2-.12-.38-.32-.56,0a1.62,1.62,0,0,0-.07.44c0,.31-.1.62-.18.93s-.32.1-.29-.08.13-.62.2-.92a1.61,1.61,0,0,1,.21-.64C35.71,18.81,36.07,19,36.24,19.25Z" transform="translate(-3 -2)"/><path d="M30.8,23a4.76,4.76,0,0,1,3.67,5.85,4.79,4.79,0,1,1-9.27-2.4,4.74,4.74,0,0,1,2.19-2.79l.08,0A4.61,4.61,0,0,1,30.8,23Zm2.85,5a3.82,3.82,0,0,0-.15-1.4c0,.08,0,.15-.07.23a11.75,11.75,0,0,1-.62,1.62,17.43,17.43,0,0,1-1,1.9l-.6,1A3.9,3.9,0,0,0,33.65,28Zm-.92-1.41c.13-.25.25-.55.41-.81a4.29,4.29,0,0,0-1.09-1.2,8.42,8.42,0,0,1-.42.91c-.27.57-.57,1.12-.87,1.66l-.65,1.14c.09.78.19,1.57.29,2.35.21-.3.43-.61.62-.92.34-.55.65-1.11,1-1.68ZM31,25a7,7,0,0,1,.55-.79,4.17,4.17,0,0,0-1.6-.46,4,4,0,0,0-.49,0,7.06,7.06,0,0,1,.23,1.09c.11.61.19,1.23.27,1.85l0-.05C30.28,26.09,30.61,25.54,31,25ZM29.5,31.54h.06c-.08-.64-.16-1.28-.23-1.91l-1,1.65A3.52,3.52,0,0,0,29.5,31.54Zm-.35-3.49c0-.42-.1-.85-.14-1.28-.07-.62-.13-1.25-.16-1.87a9.14,9.14,0,0,1,0-1,3.13,3.13,0,0,0-.57.18,3.68,3.68,0,0,0-.82.5l-.07.06c0,.26,0,.54.05.8,0,.55.08,1.1.13,1.65s.13,1.32.23,2c.06.35.14.69.21,1ZM27,30.35c-.08-.41-.13-.83-.19-1.23a19.54,19.54,0,0,1-.2-2,9.86,9.86,0,0,1,.07-1.72v-.08a4.07,4.07,0,0,0-.79,2.1A3.88,3.88,0,0,0,27,30.35Z" transform="translate(-3 -2)"/><path d="M34.37,18.79a0,0,0,0,1-.06.06c-.2-.11-.39-.31-.56,0a1.62,1.62,0,0,0-.07.44,9.35,9.35,0,0,1-.18.92c0,.2-.32.11-.29-.08s.12-.61.2-.92a1.52,1.52,0,0,1,.21-.63C33.85,18.34,34.21,18.56,34.37,18.79Z" transform="translate(-3 -2)"/><path class="cls-4" d="M33.5,26.57a3.82,3.82,0,0,1,.15,1.4,3.9,3.9,0,0,1-2.47,3.31l.6-1a17.43,17.43,0,0,0,1-1.9,11.75,11.75,0,0,0,.62-1.62C33.45,26.72,33.48,26.65,33.5,26.57Z" transform="translate(-3 -2)"/><path class="cls-4" d="M33.14,25.75c-.16.26-.28.56-.41.81L32,28c-.31.57-.62,1.13-1,1.68-.19.31-.41.62-.62.92-.1-.78-.2-1.57-.29-2.35l.65-1.14c.3-.54.6-1.09.87-1.66a8.42,8.42,0,0,0,.42-.91A4.29,4.29,0,0,1,33.14,25.75Z" transform="translate(-3 -2)"/><path d="M31.65,10.09a0,0,0,0,1,0,0,6.84,6.84,0,0,1-2.42,1.27c-1.19.59-2.35,1.26-3.56,1.81-.06,0-.11-.06-.06-.09a36.24,36.24,0,0,1,3.45-1.78A9.34,9.34,0,0,0,31.65,10.09Z" transform="translate(-3 -2)"/><path d="M31.37,38.71a.08.08,0,0,1,0,.08c0,.05-.08.13-.23.25a1.85,1.85,0,0,1-.4.23,1.06,1.06,0,0,1-.62.07.54.54,0,0,1-.34-.2.46.46,0,0,1-.08-.19l-.13.09a.65.65,0,0,1-.46.09.46.46,0,0,1-.24-.12l-.07-.1a.47.47,0,0,1,0-.24.49.49,0,0,1,.06-.13l.17-.29,0-.07a1.12,1.12,0,0,1-.37,0h0a2.53,2.53,0,0,1-.51.46l-.23.13a.93.93,0,0,1-.28.08v-.27a.68.68,0,0,0,.26-.11,1.43,1.43,0,0,0,.24-.16,2.06,2.06,0,0,0,.26-.25h0a.6.6,0,0,1-.08-.08.38.38,0,0,1-.08-.32.29.29,0,0,1,.11-.18.36.36,0,0,1,.3-.07.35.35,0,0,1,.16.08.33.33,0,0,1,.08.32.93.93,0,0,1,0,.13,2,2,0,0,0,.39,0l0,0,.15-.24.1-.16a.14.14,0,0,1,.12,0,.12.12,0,0,1,.08,0,.14.14,0,0,1,0,.12,1.18,1.18,0,0,1-.1.19l-.51.84a.4.4,0,0,0-.06.13.08.08,0,0,0,0,.08.19.19,0,0,0,.1,0,.34.34,0,0,0,.24,0l.12-.08a1.51,1.51,0,0,0,.26-.29v0h0l.07-.11A1.6,1.6,0,0,1,30.2,38a.64.64,0,0,1,.52-.17.41.41,0,0,1,.23.13L31,38a.34.34,0,0,1,0,.24h0a.49.49,0,0,1-.16.26.91.91,0,0,1-.19.13,1.66,1.66,0,0,1-.29.09.8.8,0,0,1-.37,0H30v.1a.24.24,0,0,0,.22.22,1,1,0,0,0,.58-.12,1.65,1.65,0,0,0,.39-.29.13.13,0,0,1,.12,0A.14.14,0,0,1,31.37,38.71Zm-.6-.5a.14.14,0,0,0,0-.09.1.1,0,0,0-.07,0c-.09,0-.19,0-.32.13a1.22,1.22,0,0,0-.26.3h.12a1.1,1.1,0,0,0,.42-.14A.3.3,0,0,0,30.77,38.21Zm-2.16-.47c0-.05,0-.08,0-.08a.07.07,0,0,0-.06,0s0,0,0,0,0,0,0,.07l.06.07A.34.34,0,0,0,28.61,37.74Z" transform="translate(-3 -2)"/><path class="cls-4" d="M31.52,24.22A7,7,0,0,0,31,25c-.36.53-.69,1.08-1,1.64l0,.05c-.08-.62-.16-1.24-.27-1.85a7.06,7.06,0,0,0-.23-1.09,4,4,0,0,1,.49,0A4.17,4.17,0,0,1,31.52,24.22Z" transform="translate(-3 -2)"/><path d="M30,37a.12.12,0,0,1,0,.1.09.09,0,0,1,0,.06l-.09.13a.11.11,0,0,1-.11,0,.1.1,0,0,1-.09-.06.12.12,0,0,1,0-.1.09.09,0,0,1,0-.06c0-.06.06-.1.07-.1s0,0,0,0a.12.12,0,0,1,.1,0A.1.1,0,0,1,30,37Z" transform="translate(-3 -2)"/><path d="M29.82,17.86a1.66,1.66,0,0,1-.05.7c-.05.31-.1.62-.17.93s-.32.1-.29-.08.12-.64.2-.95a1.58,1.58,0,0,0,.1-.47c-.05-.29-.34-.19-.51-.16s-.09-.06,0-.09C29.3,17.59,29.69,17.53,29.82,17.86Z" transform="translate(-3 -2)"/><path class="cls-4" d="M29.56,31.54H29.5a3.52,3.52,0,0,1-1.13-.26l1-1.65C29.4,30.26,29.48,30.9,29.56,31.54Z" transform="translate(-3 -2)"/><path d="M29.47,6s0,.05,0,.05a36.49,36.49,0,0,0-4.9,2,45.91,45.91,0,0,0-4.49,2.11s0,0,0,0a37.56,37.56,0,0,1,4.64-2.38A17,17,0,0,1,29.47,6Z" transform="translate(-3 -2)"/><path class="cls-4" d="M29,26.77c0,.43.09.86.14,1.28l-1.17,2c-.07-.35-.15-.69-.21-1-.1-.66-.17-1.32-.23-2s-.09-1.1-.13-1.65c0-.26,0-.54-.05-.8l.07-.06a3.68,3.68,0,0,1,.82-.5,3.13,3.13,0,0,1,.57-.18,9.14,9.14,0,0,0,0,1C28.88,25.52,28.94,26.15,29,26.77Z" transform="translate(-3 -2)"/><path d="M28.94,12.44s.12,0,.07.07a2.8,2.8,0,0,1-1.16.63s-.07-.05,0-.07A4.55,4.55,0,0,0,28.94,12.44Z" transform="translate(-3 -2)"/><path class="cls-2" d="M28.58,37.66s0,0,0,.08a.34.34,0,0,1,0,.1l-.06-.07s0-.05,0-.07,0,0,0,0A.07.07,0,0,1,28.58,37.66Z" transform="translate(-3 -2)"/><path d="M28.11,37.38a.12.12,0,0,1,0,.11.15.15,0,0,1-.06.09,1.16,1.16,0,0,0-.32.37,1.48,1.48,0,0,0-.13.35.59.59,0,0,0,0,.26h0v.27h-.09c-.1,0-.17-.1-.19-.25a1.15,1.15,0,0,1,0-.2,1.22,1.22,0,0,1-.28.14,1.13,1.13,0,0,1-.61.08.56.56,0,0,1-.34-.2.48.48,0,0,1-.08-.18l-.06,0a.67.67,0,0,1-.53.13.42.42,0,0,1-.26-.16.35.35,0,0,1-.07-.29.5.5,0,0,1,.05-.13l.06-.09.47-.83a.55.55,0,0,0-.22,0H25.4a.12.12,0,0,1-.08-.06.11.11,0,0,1,0-.11.14.14,0,0,1,.05-.08l.06,0a1.07,1.07,0,0,1,.35,0l.08,0,.25-.44a.12.12,0,0,1,.06-.06.14.14,0,0,1,.09,0,.16.16,0,0,1,.08.06.12.12,0,0,1,0,.1.14.14,0,0,1,0,.06l-.21.38.11,0h.09a.15.15,0,0,1,.09.06.12.12,0,0,1,0,.1s0,.06-.05.09l-.07,0a.36.36,0,0,1-.14,0L26,37c-.22.39-.4.72-.56,1a.17.17,0,0,0,0,.12.19.19,0,0,0,.1,0,.44.44,0,0,0,.38-.13,1.49,1.49,0,0,0,.22-.26l.1-.16a1.67,1.67,0,0,1,.31-.34.65.65,0,0,1,.53-.16.36.36,0,0,1,.23.13.35.35,0,0,1,.05.08.46.46,0,0,1,0,.23h0a.52.52,0,0,1-.16.26.69.69,0,0,1-.2.13,1.63,1.63,0,0,1-.29.1,1,1,0,0,1-.37,0h0a.25.25,0,0,0,0,.1.25.25,0,0,0,.22.21.91.91,0,0,0,.59-.12,1.37,1.37,0,0,0,.38-.29h0a1.49,1.49,0,0,1,.43-.55.14.14,0,0,1,.2,0Zm-1,.08a.12.12,0,0,0,0-.1l-.08,0a.48.48,0,0,0-.32.13,1.48,1.48,0,0,0-.26.3h.12a1,1,0,0,0,.43-.14A.29.29,0,0,0,27.08,37.46Z" transform="translate(-3 -2)"/><path d="M27.92,17.58a1.51,1.51,0,0,1-.05.7c0,.31-.1.62-.16.93s-.33.11-.3-.08.13-.63.2-.95a1.52,1.52,0,0,0,.1-.46c-.05-.3-.34-.19-.51-.17s-.09-.06,0-.09C27.4,17.31,27.8,17.26,27.92,17.58Z" transform="translate(-3 -2)"/><path class="cls-4" d="M26.81,29.12c.06.4.11.82.19,1.23a3.88,3.88,0,0,1-1.1-2.94,4.07,4.07,0,0,1,.79-2.1v.08a9.86,9.86,0,0,0-.07,1.72A19.54,19.54,0,0,0,26.81,29.12Z" transform="translate(-3 -2)"/><path d="M26.13,8.38s.06,0,0,.06a7.84,7.84,0,0,1-1.12.66,2.62,2.62,0,0,1-1,.34s0,0,0,0C24.81,9.3,25.41,8.65,26.13,8.38Z" transform="translate(-3 -2)"/><path d="M26,17.24a1.46,1.46,0,0,1,0,.69c-.05.32-.1.63-.17.93s-.32.11-.29-.08.12-.63.19-1a1.52,1.52,0,0,0,.1-.46c0-.3-.34-.19-.51-.17s-.08-.05,0-.09C25.5,17,25.9,16.91,26,17.24Z" transform="translate(-3 -2)"/><path d="M25.68,35.25a.53.53,0,0,1,.11.43.5.5,0,0,1-.28.35.73.73,0,0,1-.47,0l-.13,0a.14.14,0,0,1-.05-.08.13.13,0,0,1,0-.06.13.13,0,0,1,.09-.1.08.08,0,0,1,.08,0l.08,0a.41.41,0,0,0,.32,0,.2.2,0,0,0,.09-.13.25.25,0,0,0-.06-.23.65.65,0,0,0-.33-.17.61.61,0,0,0-.33,0,.35.35,0,0,0-.12.07.34.34,0,0,0-.11.19.76.76,0,0,0,.06.46,3.08,3.08,0,0,0,.26.49l.15.3a1.36,1.36,0,0,1,.09.79,1.13,1.13,0,0,1-.47.69,1.27,1.27,0,0,1-.42.18,1.05,1.05,0,0,1-.5,0,1.11,1.11,0,0,1-.57-.29A.68.68,0,0,1,23,38a.91.91,0,0,1-.09-.61,1,1,0,0,1,.2-.42,1.49,1.49,0,0,1,.18-.17.88.88,0,0,1,.66-.14.83.83,0,0,1,.3.14.61.61,0,0,1,.24.43.82.82,0,0,1,0,.27.5.5,0,0,1,0,.13.13.13,0,0,1-.06.07.14.14,0,0,1-.09,0,.13.13,0,0,1-.09-.07.15.15,0,0,1,0-.09.26.26,0,0,0,0-.1.49.49,0,0,0,0-.34.43.43,0,0,0-.28-.17.44.44,0,0,0-.3,0,.58.58,0,0,0-.32.26.85.85,0,0,0-.09.22.77.77,0,0,0,0,.34.57.57,0,0,0,.25.3.72.72,0,0,0,.31.12.85.85,0,0,0,.54-.06.75.75,0,0,0,.2-.11.85.85,0,0,0,.32-.5,1.09,1.09,0,0,0,0-.53,2.38,2.38,0,0,0-.23-.46,2.63,2.63,0,0,1-.24-.48,1,1,0,0,1-.05-.57,1.08,1.08,0,0,1,.07-.18.63.63,0,0,1,.45-.31.87.87,0,0,1,.36,0A.86.86,0,0,1,25.68,35.25Z" transform="translate(-3 -2)"/><path d="M24.55,6.2s.05,0,0,0A4,4,0,0,1,23,7.1s-.05,0,0,0A5.7,5.7,0,0,0,24.55,6.2Z" transform="translate(-3 -2)"/><path d="M24.13,16.82a1.66,1.66,0,0,1-.05.7c0,.31-.1.62-.17.92s-.32.11-.29-.08.12-.63.2-.94a1.65,1.65,0,0,0,.1-.47c-.05-.3-.35-.19-.51-.17s-.09-.05,0-.08C23.61,16.54,24,16.49,24.13,16.82Z" transform="translate(-3 -2)"/><path d="M21.74,16.07c.34.4.06,1.29-.13,1.7s-.93.3-1.44.23-.85-.12-1.27-.2a4.18,4.18,0,0,1-1.11-.26.61.61,0,0,1-.3-.29.08.08,0,0,1,0-.07v-.06a1.25,1.25,0,0,1,0-.51c0-.49.07-1,.41-1.27s1.46,0,1.95.12.81.19,1.2.3A1.45,1.45,0,0,1,21.74,16.07Zm-.26,1.1a1.66,1.66,0,0,0,.08-.63c-.09-.41-.49-.44-.8-.53a12.49,12.49,0,0,0-1.37-.35c-.5-.1-1.31-.36-1.61.25a2.43,2.43,0,0,0-.09.61l-.06.4c.12.51.82.5,1.26.58s1,.17,1.5.23a2.28,2.28,0,0,0,.73.08C21.37,17.71,21.43,17.39,21.48,17.17Z" transform="translate(-3 -2)"/><path class="cls-7" d="M21.56,16.54a1.66,1.66,0,0,1-.08.63c-.05.22-.11.54-.36.64a2.28,2.28,0,0,1-.73-.08c-.5-.06-1-.14-1.5-.23s-1.14-.07-1.26-.58l.06-.4a2.43,2.43,0,0,1,.09-.61c.3-.61,1.11-.35,1.61-.25a12.49,12.49,0,0,1,1.37.35C21.07,16.1,21.47,16.13,21.56,16.54Z" transform="translate(-3 -2)"/><path d="M20,23.81a4.13,4.13,0,0,1-.41,3.31,3.43,3.43,0,0,1-2.66,1.69,3,3,0,0,1-2.55-.88c-1.6-1.23-1.62-3.6-.6-5.25a3.15,3.15,0,0,1,1.73-1.43A2.86,2.86,0,0,1,17,21a2.66,2.66,0,0,1,1,.33,2.6,2.6,0,0,1,1.18.91A4.63,4.63,0,0,1,20,23.81Zm-.77,3a3.63,3.63,0,0,0,.37-2.35,4.57,4.57,0,0,1-.22,1.71A3.68,3.68,0,0,1,17,28.43h0A3.23,3.23,0,0,0,19.21,26.76Zm-2.33-5.08a2.26,2.26,0,0,1,1.62,1.23,2.27,2.27,0,0,0-2.29-1.45,2.74,2.74,0,0,0-2.11,1.39,3.07,3.07,0,0,0-.31.63l0,.08v0l-.06.18a4.18,4.18,0,0,0-.15,1,3.74,3.74,0,0,1,.64-1.85,2.56,2.56,0,0,1,1.3-1.05A2.39,2.39,0,0,1,16.88,21.68ZM17,26.94a2.94,2.94,0,0,0,.36-4.43,1.92,1.92,0,0,0-2.61.25,2.69,2.69,0,0,0-.58.94,3.83,3.83,0,0,0-.19.85,2.57,2.57,0,0,0,.76,2.19A1.87,1.87,0,0,0,17,26.94Zm-1.44.95a2.55,2.55,0,0,0,2.63-1.11,2.62,2.62,0,0,1-3.48.66,2.69,2.69,0,0,1-.84-.91A2.5,2.5,0,0,0,15.59,27.89Z" transform="translate(-3 -2)"/><path class="cls-3" d="M19.05,5.43l-.32.42c-.5.67-1,1.33-1.5,2A23.34,23.34,0,0,0,15.87,10,6.75,6.75,0,0,0,15,11.71a2.36,2.36,0,0,0-.46,0,20.08,20.08,0,0,0,.92-1.86,16.64,16.64,0,0,1,1.3-2c.5-.66,1.09-1.25,1.65-1.86C18.63,5.84,18.84,5.64,19.05,5.43Z" transform="translate(-3 -2)"/><path d="M19,19.59l0,.2-3.5-.65h-.16c-.81,0-1.18.56-1.5,1.25a28.16,28.16,0,0,0-1,2.63L12.61,23c.11-.36.24-.72.37-1.08a13.43,13.43,0,0,1,.92-2.18,1.58,1.58,0,0,1,1.18-.82,9.75,9.75,0,0,1,3.28.56Z" transform="translate(-3 -2)"/><path class="cls-6" d="M17.39,22.51A2.94,2.94,0,0,1,17,26.94a1.87,1.87,0,0,1-2.26-.2A2.57,2.57,0,0,1,14,24.55a3.83,3.83,0,0,1,.19-.85,2.69,2.69,0,0,1,.58-.94A1.92,1.92,0,0,1,17.39,22.51Zm-1.23,2.2s0,0,0,0A3.45,3.45,0,0,0,15.9,26c0,.08.11,0,.12,0C16.07,25.57,16.11,25.14,16.16,24.71ZM15.72,24c0-.08-.07-.15-.11-.07a4.55,4.55,0,0,0-.42,2.52s.07.06.07,0A8.18,8.18,0,0,1,15.72,24Zm-.41-1.09s-.06,0-.06,0c-.21,1.1-1,2.06-.86,3.22,0,0,.07,0,.07,0C14.52,25,15.18,24.05,15.31,22.93Z" transform="translate(-3 -2)"/><path d="M16.12,24.71s0,0,0,0c-.05.43-.09.86-.14,1.29,0,.06-.11.09-.12,0A3.45,3.45,0,0,1,16.12,24.71Z" transform="translate(-3 -2)"/><path d="M15.61,24c0-.08.15,0,.11.07a8.18,8.18,0,0,0-.46,2.46c0,.05-.07,0-.07,0A4.55,4.55,0,0,1,15.61,24Z" transform="translate(-3 -2)"/><path d="M15.62,12.42s0,0,0,0c-.17.12-.35.21-.5.34a1.63,1.63,0,0,0-.38.45,0,0,0,1,1-.06,0A1.39,1.39,0,0,1,15.62,12.42Z" transform="translate(-3 -2)"/><path d="M15.25,22.92s.06,0,.06,0c-.13,1.12-.79,2.06-.85,3.21,0,0-.06,0-.07,0C14.24,25,15,24,15.25,22.92Z" transform="translate(-3 -2)"/><path class="cls-8" d="M12.67,37h0l.31.06,1,.19.33.06a11.19,11.19,0,0,0-.42,1.73c-.06.34-.12.69-.21,1a2,2,0,0,1-.19.42l-.24.28a1.3,1.3,0,0,1-.41.09.5.5,0,0,0,0-.13,4.77,4.77,0,0,0-.13-.51h0a1.1,1.1,0,0,0,0,.51.51.51,0,0,1,0,.13h-.08l-.23,0a2,2,0,0,1-.24-1.09c0-.05-.07-.06-.07,0a1.86,1.86,0,0,0,.09,1.06,2.74,2.74,0,0,1-.39-.09,2.82,2.82,0,0,1-.29-1.46s0,0,0,0a3.1,3.1,0,0,0,.15,1.41,1.94,1.94,0,0,1-.86-.5c-.41-.5-.27-1.43-.28-2a9.73,9.73,0,0,1,0-1.08c0-.24.07-.49.07-.73.17.09.35.16.53.24h0a3.12,3.12,0,0,0-.19,2.29s.06,0,.06,0a4.4,4.4,0,0,1,.2-2.22s0,0,0,0a10,10,0,0,0,1.36.4h.14Zm0,0h0Zm-.49,0s-.05-.05-.07,0a2.23,2.23,0,0,0-.21,1c0,.08.13.08.14,0C12.08,37.67,12.17,37.35,12.21,37Zm-.88,1.12s.05,0,.05,0a5.28,5.28,0,0,1-.07-1s0,0,0,0A2.45,2.45,0,0,0,11.33,38.15Z" transform="translate(-3 -2)"/><path class="cls-2" d="M14,11.91a1.72,1.72,0,0,0-.32.23l0,0a6.57,6.57,0,0,0-1.27-1.85l.42.4C13.2,11.12,13.58,11.53,14,11.91Z" transform="translate(-3 -2)"/><path d="M12.7,37h0Z" transform="translate(-3 -2)"/><path d="M12.14,37s.08,0,.07,0c0,.32-.13.64-.14,1,0,.08-.14.08-.14,0A2.23,2.23,0,0,1,12.14,37Z" transform="translate(-3 -2)"/><path class="cls-2" d="M12.15,9a1.09,1.09,0,0,1-.14.57,5.12,5.12,0,0,0-.66-.49.12.12,0,0,0-.17.16,4.08,4.08,0,0,0,.36.61.33.33,0,0,0-.13.07c-.65.58-1.45-.34-1.6-.95A2,2,0,0,1,10,7.34c.56-.65,1.58.18,1.88.7A1.84,1.84,0,0,1,12.15,9Z" transform="translate(-3 -2)"/><path d="M11.38,38.15s0,0-.05,0a2.45,2.45,0,0,1-.06-1s0,0,0,0A5.28,5.28,0,0,0,11.38,38.15Z" transform="translate(-3 -2)"/></svg>