<svg id="Layer_1" data-name="Layer 1" xmlns="http://www.w3.org/2000/svg" viewBox="0 0 485.03 248.73"><defs><style>.cls-1{fill:#fff;}.cls-2{fill:#d1d3d4;}.cls-3{fill:none;}.cls-4{fill:#fbb040;}.cls-5{fill:#f5fbfb;}.cls-6{fill:#fefbd6;}.cls-7{fill:#bc8430;}.cls-8{fill:#58595b;}</style></defs><title>stevie-the-photo-bus-logo-smaller</title><path d="M72.75,293.09a5.45,5.45,0,0,1-4.55-2.5,7.67,7.67,0,0,1-1.1-4.17,23.55,23.55,0,0,1,2.39-9.06,21.11,21.11,0,0,0,2.2-8q0-4-3.64-4a12.28,12.28,0,0,0-6,2,17.13,17.13,0,0,0-5.72,5.76q-4.1,8.42-8.87,18.69a2.35,2.35,0,0,1-2,1.33,2.24,2.24,0,0,1-1-.23,2.3,2.3,0,0,1-1.25-2,3.84,3.84,0,0,1,.5-1.63,12.63,12.63,0,0,1-7.13,2.46,6.1,6.1,0,0,1-5.42-2.88,10,10,0,0,1-1.37-5.46,18.88,18.88,0,0,1,1.86-8.15l.23-.46q6.26-13.68,13.3-26.8c-.15-.12-.3-.24-.45-.34-1.54-1.16-3.05-2.32-4.51-3.49q-3-2.38-5.8-4.4a35.34,35.34,0,0,0-5.5-3.26,12.56,12.56,0,0,0-5.31-1.25q-4.2,0-8,3.72a2.18,2.18,0,0,1-1.55.64,2.28,2.28,0,0,1-1.63-.68,2.4,2.4,0,0,1-.64-1.59,2.32,2.32,0,0,1,.64-1.59q5.19-5,11-5a16.71,16.71,0,0,1,7,1.56,41,41,0,0,1,6.78,3.94q3.3,2.35,6.45,4.89l3.75,2.92q9.93-17.25,14.37-17.25a2,2,0,0,1,1.71.72A2.43,2.43,0,0,1,64,229a2.36,2.36,0,0,1-.53,1.51,2.39,2.39,0,0,1-1.63.76q-3,1.34-10.76,15.28a26.2,26.2,0,0,0,5,2.39,27.89,27.89,0,0,0,6.56,1.29l1.4-2.77q1.56-3.07,3.38-6.45c1.19-2.24,2.47-4.44,3.86-6.59a47.45,47.45,0,0,1,4.36-5.8,20.3,20.3,0,0,1,4.86-4.17,10.19,10.19,0,0,1,5.34-1.56,7.8,7.8,0,0,1,5.42,2.09,7.67,7.67,0,0,1,2.16,3.68,19.34,19.34,0,0,1,.65,4.92q0,7.66-6.41,13.58a29.12,29.12,0,0,1-10.12,5.64,38.2,38.2,0,0,1-12.17,2l-3.83,7.66A14.93,14.93,0,0,1,68,260.79a8.41,8.41,0,0,1,5.72,2q2.53,2.16,2.54,6.48a25.34,25.34,0,0,1-2.61,9.94,19,19,0,0,0-2,7.2,3,3,0,0,0,.34,1.67,1.11,1.11,0,0,0,.79.49q1.71,0,3.91-2.12a36.52,36.52,0,0,0,4.17-5.08,48.29,48.29,0,0,0,3.33-5.61,2.38,2.38,0,0,1,2-1.26,2.46,2.46,0,0,1,1,.23,2.38,2.38,0,0,1,1.25,2.05,2.22,2.22,0,0,1-.27,1c-.25.53-.72,1.39-1.4,2.58s-1.48,2.47-2.47,3.91A33.83,33.83,0,0,1,81,288.43a17.4,17.4,0,0,1-3.94,3.33A7.93,7.93,0,0,1,72.75,293.09Zm-36-5.91c1.64,0,3.77-1.11,6.37-3.34a34.84,34.84,0,0,0,7.32-8.91,15,15,0,0,0,.94-2l.31-.72,8.79-17.7A30.81,30.81,0,0,1,54,252.94a24.91,24.91,0,0,1-5-2.42q-7.52,14.1-13.2,26.57a16,16,0,0,0-1.44,6.22Q34.31,287.18,36.7,287.18Zm31-37a29.14,29.14,0,0,0,16.91-6.49A14.8,14.8,0,0,0,87,241.15a13,13,0,0,0,1.86-3.37,12.36,12.36,0,0,0,.72-4.28,16,16,0,0,0-.49-3.76,3.11,3.11,0,0,0-.91-1.55,3.49,3.49,0,0,0-2.24-.84q-4.32,0-9.59,7.66a111.22,111.22,0,0,0-7.51,13.08Z" transform="translate(-9.97 -53.27)"/><path d="M94.14,292.22h-.27q-6.6-.27-9.06-6a15.65,15.65,0,0,1-1-5.5,27.56,27.56,0,0,1,2.39-10.88,30.66,30.66,0,0,1,6-9.25q4.29-4.17,8.65-4.17a9.3,9.3,0,0,1,3.37.65,6,6,0,0,1,3,2.5,7.6,7.6,0,0,1,1,4,12.76,12.76,0,0,1-.72,4,18.61,18.61,0,0,1-3.3,5.91,17.79,17.79,0,0,1-5.5,4.36,15.33,15.33,0,0,1-7.16,1.67,18.31,18.31,0,0,1-3.07-.27,14.36,14.36,0,0,0-.08,1.48q0,6.94,5.77,7,4,0,9.06-3.26a22.17,22.17,0,0,0,7.77-8.72,2.36,2.36,0,0,1,2.08-1.33,2,2,0,0,1,1,.23,2.19,2.19,0,0,1,1.1,3,25.91,25.91,0,0,1-9.63,10.73Q99.34,292.22,94.14,292.22ZM91.52,275a10.74,10.74,0,0,0,5.53-1.4,14.43,14.43,0,0,0,4-3.49,11,11,0,0,0,2.62-6.52,3.89,3.89,0,0,0-.26-1.44c-.33-.81-1.18-1.22-2.54-1.22q-2.73,0-5.46,2.85a26.66,26.66,0,0,0-6.11,11A14.94,14.94,0,0,0,91.52,275Z" transform="translate(-9.97 -53.27)"/><path d="M147.48,302l-.5,0a7.64,7.64,0,0,1-3.26-1,10.48,10.48,0,0,1-2.2-1.67,1.41,1.41,0,0,0-.3-.3,4.17,4.17,0,0,1-.57-.69,2.33,2.33,0,0,1-.45-1.36,2.24,2.24,0,0,1,.91-1.78,2.39,2.39,0,0,1,1.36-.46,2.27,2.27,0,0,1,1.78.91l.08.08a6.25,6.25,0,0,0,.64.64,11.3,11.3,0,0,0,1.1.8,2.87,2.87,0,0,0,1.37.34q2.46-.07,5-5,4.22-8.6,9.93-23.42,4.56-11.56,8.5-20.86t7.54-15.88A36.68,36.68,0,0,0,161,242.78,38.06,38.06,0,0,0,154.19,253a26.09,26.09,0,0,0-2.43,10.65v.95a2.28,2.28,0,0,1-.61,1.59,2.55,2.55,0,0,1-1.63.68,2.35,2.35,0,0,1-1.59-.6,2.61,2.61,0,0,1-.72-1.56v-.91a31,31,0,0,1,2.73-12.39,41.5,41.5,0,0,1,7.77-11.76q10.24-10.6,23.81-12.54,4.89-7.55,9.63-7.89h.07a2.13,2.13,0,0,1,1.56.65,2.16,2.16,0,0,1,.72,1.59,2.21,2.21,0,0,1-.61,1.59,2.06,2.06,0,0,1-1.55.72q-1.49,0-4,3.07a18.16,18.16,0,0,1,8.76,2.62,15,15,0,0,1,4.7,4.7,21.09,21.09,0,0,1,2.88,11.11,36.61,36.61,0,0,1-4.4,16.52A39.25,39.25,0,0,1,186,276.64,34.87,34.87,0,0,1,168,282.51a2.22,2.22,0,0,1-1.7-.68,2.29,2.29,0,0,1-.65-1.63,2.09,2.09,0,0,1,.61-1.52,2.76,2.76,0,0,1,1.56-.72,30.42,30.42,0,0,0,15.84-5.15,35.29,35.29,0,0,0,11.6-13.12q3.91-7.77,3.91-14.4a16.7,16.7,0,0,0-2.2-8.69q-3.34-5.22-11-5.23l-1.82,0c-1.13,1.9-2.45,4.31-3.94,7.24q-3.4,6.9-6.79,15.09-2.73,6.52-6.86,17-5.72,15-10.12,23.85-3.6,7-8.49,7.39Z" transform="translate(-9.97 -53.27)"/><path d="M194.22,293.36a2.82,2.82,0,0,1-.95-.19,2.27,2.27,0,0,1-1.4-2.09,2.57,2.57,0,0,1,.15-.87q9.06-21.94,18.84-43.29,2.77-5.88,4.7-9.63c1.29-2.51,2.37-4.46,3.23-5.88a19.8,19.8,0,0,1,2.12-3,4.47,4.47,0,0,1,1.44-1.18,3.58,3.58,0,0,1,1.1-.19,2.21,2.21,0,0,1,1.63.65,2,2,0,0,1,.68,1.59,2.26,2.26,0,0,1-1.48,2.16Q221.6,233.76,209,262a14.51,14.51,0,0,1,6.9-1.93,8.34,8.34,0,0,1,5.38,1.86q2.73,2.24,2.73,6.9a26.36,26.36,0,0,1-2.2,9.44,20.58,20.58,0,0,0-1.67,6.94c0,1.61.41,2.42,1.22,2.42a6.73,6.73,0,0,0,3.82-2.35,33.93,33.93,0,0,0,3.95-5.15,48.26,48.26,0,0,0,3.11-5.77,2.27,2.27,0,0,1,2-1.36,1.86,1.86,0,0,1,.95.23,2.23,2.23,0,0,1,1.33,2,2.43,2.43,0,0,1-.19.91c-.31.71-.89,1.9-1.75,3.57a34.14,34.14,0,0,1-7.77,10.16,9.16,9.16,0,0,1-5.53,2.23,5.38,5.38,0,0,1-4.4-2.27,7.68,7.68,0,0,1-1.33-4.66,24.47,24.47,0,0,1,2-8.61,22.12,22.12,0,0,0,1.86-7.77q0-4.21-3.56-4.21a11.49,11.49,0,0,0-6,2.16,17.37,17.37,0,0,0-5.65,6.1q-3.67,8.61-8,19.07A2.37,2.37,0,0,1,194.22,293.36Z" transform="translate(-9.97 -53.27)"/><path d="M240.7,292.6a8.33,8.33,0,0,1-7-3.57,14.64,14.64,0,0,1-2.42-8.68,21.5,21.5,0,0,1,1-6.67,27.31,27.31,0,0,1,7.39-11.75q5-4.62,10.28-4.63a8.09,8.09,0,0,1,7.31,4.14,14.79,14.79,0,0,1,1.67,7.09,25.5,25.5,0,0,1-1.14,7.35,31.38,31.38,0,0,1-2.91,6.9l-.46.8h.42a5.47,5.47,0,0,0,3.6-1.48,18.25,18.25,0,0,0,3.41-3.79,59.88,59.88,0,0,0,3.22-5.08,2.32,2.32,0,0,1,1.94-1.14,2.36,2.36,0,0,1,1.13.3,2.29,2.29,0,0,1,1.14,2,2.43,2.43,0,0,1-.3,1.14,61.42,61.42,0,0,1-3.83,6,21.1,21.1,0,0,1-4.63,4.74,9.16,9.16,0,0,1-5.68,1.89,8.27,8.27,0,0,1-3.41-.64Q246.49,292.59,240.7,292.6Zm0-4.55c2.58,0,5.05-1.23,7.43-3.68l-.08-.26a5.48,5.48,0,0,1-.38-2.09,7.21,7.21,0,0,1,1.44-4.17,12.37,12.37,0,0,1,4-3.52l.23-.12s.05,0,.08,0l.11-.05a.12.12,0,0,1,.08,0,23.39,23.39,0,0,0,.76-5.57,10.1,10.1,0,0,0-1-4.82,3.47,3.47,0,0,0-3.33-1.9q-3.8,0-7.62,3.83a24,24,0,0,0-5.77,9.41,18,18,0,0,0-.83,5.3,10.89,10.89,0,0,0,1.55,6A4,4,0,0,0,240.7,288.05Z" transform="translate(-9.97 -53.27)"/><path d="M269.05,292.33a6.24,6.24,0,0,1-5.42-2.88,10,10,0,0,1-1.36-5.46,18.65,18.65,0,0,1,1.86-8.11q7.28-15.61,12.39-25.17l-1.4-.08a11.25,11.25,0,0,0-2.62.3,2.06,2.06,0,0,1-.6.08,2.27,2.27,0,0,1-2.16-1.67,2.37,2.37,0,0,1-.08-.57,2.17,2.17,0,0,1,.46-1.36,2.28,2.28,0,0,1,1.21-.84,16.15,16.15,0,0,1,3.75-.45,26.32,26.32,0,0,1,3.79.27q9.9-17.82,14.22-18.85a5.15,5.15,0,0,1,1.18-.19,2.18,2.18,0,0,1,1.59.69,2,2,0,0,1,.68,1.59,2.15,2.15,0,0,1-.61,1.55,2.39,2.39,0,0,1-1.55.72q-.94.22-3.56,3.72a116.78,116.78,0,0,0-7,11.26l.91,0a11.81,11.81,0,0,0,2.84-.35,2.27,2.27,0,0,1,.61-.07,2.27,2.27,0,0,1,2.24,2.24,2.28,2.28,0,0,1-.46,1.36,2.25,2.25,0,0,1-1.25.83,16.88,16.88,0,0,1-4.05.5,28.87,28.87,0,0,1-3.23-.19Q276,261,268.22,277.78a16.21,16.21,0,0,0-1.44,6.25q0,3.8,2.27,3.79,3.65,0,8.27-4.89a38.43,38.43,0,0,0,5.53-7.24,2.36,2.36,0,0,1,2-1.14,2.32,2.32,0,0,1,1.13.31,2.28,2.28,0,0,1,1.1,2,2.54,2.54,0,0,1-.26,1.1,3.65,3.65,0,0,0-.27.41c-.23.38-.59.94-1.1,1.67a32.66,32.66,0,0,1-2.69,3.64,33.9,33.9,0,0,1-3.79,4.06,23.22,23.22,0,0,1-4.66,3.3A11.1,11.1,0,0,1,269.05,292.33Z" transform="translate(-9.97 -53.27)"/><path d="M291.8,292.6a8.31,8.31,0,0,1-7-3.57,14.58,14.58,0,0,1-2.43-8.68,21.5,21.5,0,0,1,1-6.67,27.33,27.33,0,0,1,7.4-11.75q5-4.62,10.27-4.63a8.11,8.11,0,0,1,7.32,4.14,14.9,14.9,0,0,1,1.67,7.09,25.5,25.5,0,0,1-1.14,7.35,31.4,31.4,0,0,1-2.92,6.9l-.46.8h.42a5.45,5.45,0,0,0,3.6-1.48,18,18,0,0,0,3.41-3.79,59.92,59.92,0,0,0,3.23-5.08,2.31,2.31,0,0,1,1.93-1.14,2.43,2.43,0,0,1,1.14.3,2.29,2.29,0,0,1,1.14,2,2.44,2.44,0,0,1-.31,1.14,61.42,61.42,0,0,1-3.83,6,20.85,20.85,0,0,1-4.62,4.74,9.21,9.21,0,0,1-5.69,1.89,8.3,8.3,0,0,1-3.41-.64Q297.6,292.59,291.8,292.6Zm0-4.55q3.87,0,7.43-3.68l-.07-.26a5.3,5.3,0,0,1-.38-2.09,7.21,7.21,0,0,1,1.44-4.17,12.27,12.27,0,0,1,4-3.52,1,1,0,0,1,.23-.12.13.13,0,0,1,.07,0l.11-.05a.12.12,0,0,1,.08,0,22.89,22.89,0,0,0,.76-5.57,10.1,10.1,0,0,0-1-4.82,3.47,3.47,0,0,0-3.34-1.9q-3.79,0-7.62,3.83a24.08,24.08,0,0,0-5.76,9.41,17.7,17.7,0,0,0-.84,5.3,10.81,10.81,0,0,0,1.56,6A3.94,3.94,0,0,0,291.8,288.05Z" transform="translate(-9.97 -53.27)"/><path d="M371.56,294.57c-1.36,0-2.81-.08-4.35-.23a46.32,46.32,0,0,1-7.44-1.29,47.69,47.69,0,0,1-4.66-1.63l-1.17-.45q-2.2,2.88-4.55,2.88l-.8,0a4.5,4.5,0,0,1-3.22-1.33,3.76,3.76,0,0,1-1-2.46,4.73,4.73,0,0,1,1.67-3.42,4.85,4.85,0,0,1,3.3-1.32,11.58,11.58,0,0,1,2.69.34q2.77-4.79,7.77-15.92,4.1-9.13,7.62-15.89a56.21,56.21,0,0,1,6.75-10.54q3.26-3.75,6.6-3.75h.45a2.18,2.18,0,0,1,1.52.72,2.34,2.34,0,0,1,.57,1.55,2,2,0,0,1-.72,1.63,2.17,2.17,0,0,1-1.56.61h-.22q-2.43,0-7.25,8-4.85,8.64-9.63,19.56-4.43,10-7.46,15.47l.38.15c1.18.48,2.59,1,4.2,1.44a46,46,0,0,0,6.6,1.18,37.37,37.37,0,0,0,3.75.19,25.11,25.11,0,0,0,10.69-2.12,15,15,0,0,0,6.87-6.18,12.86,12.86,0,0,0,1.66-6.18,10,10,0,0,0-1.85-5.92,8.6,8.6,0,0,0-7.13-3.26,15.73,15.73,0,0,0-3.45.42,20.55,20.55,0,0,1-4.51.83,1.92,1.92,0,0,1-1.75-.76,2.41,2.41,0,0,1-.56-1.55,2.16,2.16,0,0,1,1.51-2.16,19.63,19.63,0,0,1,3.64-.87,24.29,24.29,0,0,0,11.18-5.2,28.28,28.28,0,0,0,7-8.79,21,21,0,0,0,2.5-9.18,9.1,9.1,0,0,0-1.71-5.8q-1.89-2.31-7.35-2.31a25.39,25.39,0,0,0-8.42,1.52,35.4,35.4,0,0,0-8.49,4.47,41.73,41.73,0,0,0-12.13,13.91,49.44,49.44,0,0,0-5.69,18.88,2.28,2.28,0,0,1-.75,1.48,2.25,2.25,0,0,1-3.15-.15,2.34,2.34,0,0,1-.61-1.55v-.23a55.14,55.14,0,0,1,6.26-20.66,46,46,0,0,1,13.42-15.36,39.83,39.83,0,0,1,9.74-5.08,30,30,0,0,1,9.82-1.74,23.26,23.26,0,0,1,5.19.57,10.29,10.29,0,0,1,6.22,4.13,13.48,13.48,0,0,1,2.16,7.81,26.75,26.75,0,0,1-3.94,13.27A32,32,0,0,1,387.3,263a12.47,12.47,0,0,1,5.08,4,14.73,14.73,0,0,1,2.77,8.68,17.59,17.59,0,0,1-2.24,8.38,19.18,19.18,0,0,1-6.22,6.56Q380.78,294.57,371.56,294.57Z" transform="translate(-9.97 -53.27)"/><path d="M405.91,291.12a7.37,7.37,0,0,1-6.1-3,10,10,0,0,1-1.67-5.92q0-7.62,9-24.6l.27-.53a2.32,2.32,0,0,1,2-1.18,2.41,2.41,0,0,1,1.1.27,2.29,2.29,0,0,1,1.17,2,2.46,2.46,0,0,1-.26,1.06l-.19.38q-2.81,5.31-5.65,11.9t-2.84,10.66a5.28,5.28,0,0,0,.79,3.33,2.81,2.81,0,0,0,2.43,1.1h.34c2.17-.25,4.44-1.52,6.79-3.79a26.87,26.87,0,0,0,5.8-8.3l0,0a97.27,97.27,0,0,1,4.35-10.16q2.4-4.81,3.87-7.32a2.32,2.32,0,0,1,1.94-1.14,2.44,2.44,0,0,1,1.13.31,2.31,2.31,0,0,1,1.14,1.93,2.43,2.43,0,0,1-.3,1.14,119.21,119.21,0,0,0-6.94,14.33q-2.92,7.2-2.92,10.84a2.67,2.67,0,0,0,.49,1.93,1.28,1.28,0,0,0,.91.23q1.26,0,2.88-1.74a27.76,27.76,0,0,0,3.07-4.21,41.6,41.6,0,0,0,2.47-4.81,2.28,2.28,0,0,1,2.05-1.41,2.52,2.52,0,0,1,.91.19,2.26,2.26,0,0,1,1.36,2.09,2.57,2.57,0,0,1-.15.87,47.32,47.32,0,0,1-2.24,4.51,28,28,0,0,1-4.36,6,8.84,8.84,0,0,1-5.95,3.07,5.47,5.47,0,0,1-5-2.61,6.74,6.74,0,0,1-.87-3q-5,5.13-10.12,5.65Z" transform="translate(-9.97 -53.27)"/><path d="M442.5,293.32a10,10,0,0,1-2.32-.27,9.91,9.91,0,0,1-6.56-4.43,3.86,3.86,0,0,1-1-2.39,2,2,0,0,1,.19-.87,2.27,2.27,0,0,1,2.05-1.37,2.33,2.33,0,0,1,2.08,1.33,6.36,6.36,0,0,0,1.67,2.05,7,7,0,0,0,2.65,1.25h.53a5.06,5.06,0,0,0,4.17-2.2,6.6,6.6,0,0,0,.95-3.56,14.79,14.79,0,0,0-1.78-6.45,41.61,41.61,0,0,0-2.39-3.94q-1.93-3-2.88-4.82-3.15,7-6.41,13a2.37,2.37,0,0,1-2,1.14,2.65,2.65,0,0,1-1.06-.26,2.34,2.34,0,0,1-1.17-2,2.19,2.19,0,0,1,.3-1.09l.19-.42c.61-1,1.69-3.15,3.26-6.33s3.07-6.56,4.51-10.2a10.23,10.23,0,0,1-.26-2.31,8.75,8.75,0,0,1,3.26-6.83,2.35,2.35,0,0,1,1.47-.53,2.2,2.2,0,0,1,2.24,2.31v.27a39.8,39.8,0,0,1-2,7.35,36.33,36.33,0,0,0,4.4,8.23c1,1.54,1.84,3,2.58,4.32a19.1,19.1,0,0,1,2.27,8.42v.83a54.31,54.31,0,0,0,6.45-8.26,2.23,2.23,0,0,1,1.89-1.06,2.3,2.3,0,0,1,2.28,2.27,2.48,2.48,0,0,1-.38,1.25,56.36,56.36,0,0,1-7.36,9.33,23.61,23.61,0,0,1-6.4,4.81A13.08,13.08,0,0,1,442.5,293.32Z" transform="translate(-9.97 -53.27)"/><path d="M44.07,219.48q-12.45,0-21.24-6a26.39,26.39,0,0,1-5.62-5A30,30,0,0,1,10,188.41,32.31,32.31,0,0,1,18.76,166q9-9.14,21.16-9.14a25.48,25.48,0,0,1,11.18,2.53A22.08,22.08,0,0,1,62.2,172.1a28.77,28.77,0,0,1,1.48,9.35,27.57,27.57,0,0,1-.35,4.57,4.7,4.7,0,0,1-1.72,2.67,4.6,4.6,0,0,1-2.85,1A4.78,4.78,0,0,1,55,187.91,4.84,4.84,0,0,1,54,185q.21-2.18.21-3.51,0-6.9-3.87-11a14.46,14.46,0,0,0-10.47-4.08,19.86,19.86,0,0,0-10.06,2.81,21.52,21.52,0,0,0-8.92,11,25,25,0,0,0-1.41,8.23,22.34,22.34,0,0,0,3,11.39,20,20,0,0,0,10.34,8.36,32.25,32.25,0,0,0,29.31-3.86A29.66,29.66,0,0,0,75.28,180a36.63,36.63,0,0,0-5-17.72q-2.75-4.71-11-13.92A115.51,115.51,0,0,1,47.93,134a36.22,36.22,0,0,1-5.55-18.77,24.8,24.8,0,0,1,1-6.61q3.09-9.42,13-13.57a31.83,31.83,0,0,1,12.3-2.39q11.19,0,19,6.19,6.68,5.63,6.67,13.71a16.22,16.22,0,0,1-6.89,13.71q-6.18,4.35-15.6,4.36c-2.44,0-3.94-.14-4.5-.43a4.49,4.49,0,0,1-2.53-2.32,4.45,4.45,0,0,1-.5-2A4.86,4.86,0,0,1,69,121.05c1.32.1,2.28.15,2.89.15q7.31,0,10.82-3.31a6.75,6.75,0,0,0,2.11-5.06,8.75,8.75,0,0,0-3.72-7q-4.78-3.66-12.45-3.66a21.17,21.17,0,0,0-10.75,2.67,10.6,10.6,0,0,0-3.73,3.38,11.71,11.71,0,0,0-2.39,7.1q0,7.45,5.13,15.12,2.39,3.79,12.16,14.69A92.59,92.59,0,0,1,76.2,154q8.51,12.43,8.5,26,0,14.84-11,26.65a43.49,43.49,0,0,1-12.86,9.07A38.27,38.27,0,0,1,44.07,219.48Z" transform="translate(-9.97 -53.27)"/><path d="M101.51,205.91a15,15,0,0,1-10.13-3.58,12.65,12.65,0,0,1-4.15-9.49A14,14,0,0,1,88,188.2l1.19-3.38,10.06-31.21a27.42,27.42,0,0,0-7.46,1,8.42,8.42,0,0,1-2.39.49A4.65,4.65,0,0,1,86.32,154a4.82,4.82,0,0,1-1.62-3.59,4.67,4.67,0,0,1,1.2-3.09A5.37,5.37,0,0,1,87.58,146a33.74,33.74,0,0,1,12-2l2.74.15,5.34-16.6a4.7,4.7,0,0,1,1.86-2.53,4.93,4.93,0,0,1,2.71-.84,4.48,4.48,0,0,1,3.31,1.44,4.65,4.65,0,0,1,1.4,3.34,5.77,5.77,0,0,1-.42,2L112,145.31a34.67,34.67,0,0,0,4,.28,12.14,12.14,0,0,0,2.67-.28h.63a4.62,4.62,0,0,1,3.34,1.41,4.44,4.44,0,0,1,1.44,3.3,4.86,4.86,0,0,1-1.26,3.23,6.31,6.31,0,0,1-2,1.27,16.32,16.32,0,0,1-4.92.56,49.72,49.72,0,0,1-6.89-.63q-6.9,21.87-12.09,37a5.31,5.31,0,0,0-.22,1.48,3.22,3.22,0,0,0,1.13,2.53,6.14,6.14,0,0,0,3.66,1.05q6.46,0,11.81-7.17a53.64,53.64,0,0,0,6.32-11.18,5.36,5.36,0,0,1,.92-1.19,4.74,4.74,0,0,1,3.37-1.41,4.84,4.84,0,0,1,3,1.06,4.92,4.92,0,0,1,1.75,3.72q0,2.4-4.92,10.55a42.54,42.54,0,0,1-5.34,7.1Q110.64,205.9,101.51,205.91Z" transform="translate(-9.97 -53.27)"/><path d="M136.66,205.91a19,19,0,0,1-12.73-4.36q-6-5.62-6-14.83,0-5.7,3.37-13.85a57.91,57.91,0,0,1,8.23-13.43q8-9.21,16.52-9.21a14.13,14.13,0,0,1,8.65,2.88,12.18,12.18,0,0,1,2.25,2.32,13,13,0,0,1,2.6,7.74l.07.28a16.9,16.9,0,0,1-3.52,9.91,28.14,28.14,0,0,1-5.69,5.63,58.32,58.32,0,0,1-9.21,5.34,30.5,30.5,0,0,1-12.38,3.16l-1.47-.07a15.78,15.78,0,0,0,.49,3.45q2,5.69,8.79,5.69,8.85,0,19-8a49.61,49.61,0,0,0,11-12.52,4.64,4.64,0,0,1,7.59,0,4.81,4.81,0,0,1,.91,2.75q0,2.52-6.11,9.77a54.45,54.45,0,0,1-12.09,10.61Q146.5,205.91,136.66,205.91Zm-7.24-27.84a17.94,17.94,0,0,0,4.14-.84,33.84,33.84,0,0,0,13.22-7.59q3.45-3.24,3.45-6.26a3.59,3.59,0,0,0-1.41-2.95,4.9,4.9,0,0,0-2.81-.85q-4.37,0-9.84,6.61A44.57,44.57,0,0,0,129.42,178.07Z" transform="translate(-9.97 -53.27)"/><path d="M175.33,206.26q-5.62,0-8.37-7a30.59,30.59,0,0,1-1.69-11.1,54.43,54.43,0,0,1,1.2-11.11q3-13.5,11.11-22.5a5.34,5.34,0,0,1,3.93-2,4.86,4.86,0,0,1,3.1,1.13,4.69,4.69,0,0,1,1.61,3.58,4.76,4.76,0,0,1-1.47,3.45,38.29,38.29,0,0,0-8.09,14.48,42.91,42.91,0,0,0-2,12.94q0,5.84,1.41,8.57,2.88-.48,8.51-5.48a51.57,51.57,0,0,0,6.82-7,78.43,78.43,0,0,0,7.1-10v-.07a17.81,17.81,0,0,1-3.31-2.18q-5-4.5-5-10.34a10.46,10.46,0,0,1,2.6-6.89,12.37,12.37,0,0,1,9.49-4.36,11.16,11.16,0,0,1,6,1.69q5,3.16,5,10.19a22.16,22.16,0,0,1-.49,4.5,55.59,55.59,0,0,0,13.85-4.36,5.49,5.49,0,0,1,1.69-.28,4.42,4.42,0,0,1,3.34,1.48,4.66,4.66,0,0,1,1.37,3.23,4.86,4.86,0,0,1-1.13,3.1,5.39,5.39,0,0,1-2.11,1.4q-11.46,5.2-20.81,5.21l-1-.08A80.84,80.84,0,0,1,194.1,195.3a57.85,57.85,0,0,1-6.82,6Q180.11,206.27,175.33,206.26ZM203.24,166a13.3,13.3,0,0,0,.7-3.73c0-1.59-.54-2.39-1.62-2.39a3.34,3.34,0,0,0-2.11.78,1.88,1.88,0,0,0-.49,1.26,3.54,3.54,0,0,0,1.06,2.15A7.77,7.77,0,0,0,203.24,166Z" transform="translate(-9.97 -53.27)"/><path d="M230.44,205.77a15.55,15.55,0,0,1-8.85-2.53,9.9,9.9,0,0,1-2.75-2.67,12.51,12.51,0,0,1-2.67-7.87A14.73,14.73,0,0,1,217,188l3.86-11.1q3.31-9.28,3.38-9.71s.72-1.94,2-5.83l3.23-9.21a41.08,41.08,0,0,1,2.39-6,4.54,4.54,0,0,1,3.73-1.89,5,5,0,0,1,3,1.05,4.8,4.8,0,0,1,1.76,3.73q0,.92-2.18,7L227.07,187.7a25.19,25.19,0,0,0-1.41,5.07,3.26,3.26,0,0,0,1,2.39,5.37,5.37,0,0,0,3.79,1.19,12.36,12.36,0,0,0,7.88-3,19.36,19.36,0,0,0,3.51-3.59,57.25,57.25,0,0,0,6.61-11.39l.42-.84a4.59,4.59,0,0,1,3.94-2.11,4.77,4.77,0,0,1,3.17,1.2,4.83,4.83,0,0,1,1.61,3.58,5.06,5.06,0,0,1-.63,2.39,66.26,66.26,0,0,1-7.38,12.66,30.2,30.2,0,0,1-4.08,4.43Q238.53,205.77,230.44,205.77Zm9.71-64.33a4.48,4.48,0,0,1-3.31-1.44,4.54,4.54,0,0,1-1.4-3.27,6.17,6.17,0,0,1,.56-2.39c.89-2.29,1.42-3.62,1.58-4a4.74,4.74,0,0,1,.81-1.16,4.82,4.82,0,0,1,3.44-1.41,4.8,4.8,0,0,1,4.71,4.71,5.64,5.64,0,0,1-.56,2.32,25.71,25.71,0,0,1-2.25,5A4.3,4.3,0,0,1,240.15,141.44Z" transform="translate(-9.97 -53.27)"/><path d="M266.16,205.91a19,19,0,0,1-12.73-4.36q-6-5.62-6-14.83,0-5.7,3.37-13.85a58.25,58.25,0,0,1,8.23-13.43q8-9.21,16.52-9.21a14.13,14.13,0,0,1,8.65,2.88,11.89,11.89,0,0,1,2.25,2.32,13,13,0,0,1,2.6,7.74l.07.28a16.9,16.9,0,0,1-3.52,9.91,28.14,28.14,0,0,1-5.69,5.63,58.32,58.32,0,0,1-9.21,5.34,30.5,30.5,0,0,1-12.37,3.16l-1.48-.07a15.78,15.78,0,0,0,.49,3.45q2,5.69,8.79,5.69,8.86,0,19-8a49.61,49.61,0,0,0,11-12.52,4.64,4.64,0,0,1,7.59,0,4.82,4.82,0,0,1,.92,2.75q0,2.52-6.12,9.77a54.45,54.45,0,0,1-12.09,10.61Q276,205.91,266.16,205.91Zm-7.24-27.84a18.09,18.09,0,0,0,4.15-.84,33.87,33.87,0,0,0,13.21-7.59q3.45-3.24,3.45-6.26a3.59,3.59,0,0,0-1.41-2.95,4.9,4.9,0,0,0-2.81-.85q-4.36,0-9.84,6.61A44.57,44.57,0,0,0,258.92,178.07Z" transform="translate(-9.97 -53.27)"/><path class="cls-1" d="M315.66,164.13s-7.5,4.3-.89,13.91c4.27,4,12.55,6.41,16.43,7.14s27.56,5.38,31.66,6.35,29.73,6.26,29.73,6.26l17.07,3.44,20.88,4.63s8.43,1.28,11.4,1.77,8.64,1.2,9.84.73,7.59-3.45,8.37-6.06c1.26-5,2.25-8.31-4.48-8.9-18.84-3.09-46-8.72-46-8.72l-45.73-9.79L332.85,168Z" transform="translate(-9.97 -53.27)"/><path class="cls-1" d="M448.58,146.81s-8.25-2-13.62,5c-2.29,2.73-6.2,9-2.4,16.48,4.75,4.54,5.61,5.21,10,5.49,4.63-.6,10-.94,13.14-9.68.75-3,2-11.84-3.46-15.13A5.87,5.87,0,0,0,448.58,146.81Z" transform="translate(-9.97 -53.27)"/><path class="cls-1" d="M341.84,126.06S353.47,130.33,353,137c.81,1.54,1.14,6.46-.24,9.81-2.75,3.49-4.8,6-7.45,6.54-4.44.51-8.82.46-11.56-2.25-1.67-1.75-5.45-6.6-5.28-11.89.63-4.47,4.18-10.07,7.48-11.9A34.68,34.68,0,0,1,341.84,126.06Z" transform="translate(-9.97 -53.27)"/><path class="cls-1" d="M328,98.69s1.61-7.31,5.76-7.6c4.75.19,51,8.51,55.16,9.57,4.68,1.07,47.11,9.39,47.11,9.39s32.78,8.59,33.35,8.81,2.47,2.88,2.17,5.7a18.47,18.47,0,0,1-.77,4.07L448.05,122l-33-7.18-44.41-8.43-20.83-4.15-3.68-.12-.79.4s-13.28-2.44-15.77-2.42C327.83,100.19,328,98.69,328,98.69Z" transform="translate(-9.97 -53.27)"/><path class="cls-1" d="M354.78,60.08s11.82-5.9,25.41-5.72c13.48.53,33.07,4,33.07,4s24.76,6.36,28.32,8.38,13.6,8.07,17.1,11a68.19,68.19,0,0,1,4.93,5.88l-12.06-3.15-29.38-8.13-24.4-5.29-43.88-5.58Z" transform="translate(-9.97 -53.27)"/><polygon class="cls-1" points="326.04 37.07 330.09 29.29 335.67 21.57 345.17 9.46 338.52 13.44 332.26 20.92 327.84 27.33 324.63 33.39 323.81 35.58 323.44 37.83 325.17 37.83 326.04 37.07"/><path class="cls-2" d="M477.76,117.26c.74-.3,1.47-.58,2.22-.84-2.79,1.34-5.54,2.75-7.6,5a6.2,6.2,0,0,0-.82-1.65C473.67,119,475.69,118.12,477.76,117.26Z" transform="translate(-9.97 -53.27)"/><path class="cls-3" d="M469,110.83c.18,2.16-.08,4.53.12,6.75l-.23-.12c-.35-.18-.72-.34-1.09-.5.61-2.62.11-5.75-.18-8.37-.31-2.81-.76-5.6-1.3-8.38s-1.26-5.85-1.93-8.76L464,89.7c.38,1,.76,2,1.06,3,.88,2.88,1.92,5.77,2.55,8.72A70.13,70.13,0,0,1,469,110.83Z" transform="translate(-9.97 -53.27)"/><path class="cls-2" d="M492.63,110.18a8.21,8.21,0,0,1-2.21,6c-1.58,1.8-5.4,3-6.68.26a1.07,1.07,0,0,0-.23-.34,16.38,16.38,0,0,0,2.18-1.56c.39-.34-.05-.85-.46-.78a22.29,22.29,0,0,0-3.08.75,2.14,2.14,0,0,1-.06-.62,6.18,6.18,0,0,1,.78-2.15,6.73,6.73,0,0,1,2.95-3C487.9,107.61,492.19,107,492.63,110.18Z" transform="translate(-9.97 -53.27)"/><path d="M326.48,185.89h.06l-.28-.06-.25,0a33.19,33.19,0,0,1-5.16-1.51.2.2,0,0,1,0,.15,16.46,16.46,0,0,0-.78,8.41c0,.13-.17.19-.2.05-.49-2.5-1-6.52.71-8.66l0,0c-.69-.27-1.37-.57-2-.9,0,.92-.18,1.85-.25,2.77a37.57,37.57,0,0,0-.05,4.11c.06,2.26-.47,5.77,1.08,7.66a7.21,7.21,0,0,0,3.24,1.9,11.9,11.9,0,0,1-.57-5.32c0-.05.09-.06.08,0a10.86,10.86,0,0,0,1.12,5.51c.49.14,1,.26,1.46.35a7.43,7.43,0,0,1-.35-4c0-.16.3-.12.29,0a7.53,7.53,0,0,0,.9,4.14l.87.1h.32l-.09-.49a4.15,4.15,0,0,1-.1-1.91s.08-.06.1,0a15.31,15.31,0,0,1,.5,1.94l.15.47a5,5,0,0,0,1.56-.33c.28-.35.59-.69.88-1a7.07,7.07,0,0,0,.72-1.61c.36-1.27.56-2.61.82-3.9a40.34,40.34,0,0,1,1.57-6.53l-1.25-.24-3.73-.72-1.19-.23Zm168.08-77.32c1.3,3.14-.49,7.21-2.69,9.52-2.59,2.72-8.34,3.61-10.1-.51a1.32,1.32,0,0,1-.1-.46c-3.27,1.7-6.74,3-8.9,6.28a23.11,23.11,0,0,1-.9,7c-1.31,5.52-2.59,11-3.72,16.6-.08.62-.16,1.25-.25,1.87-.67,4.92-1.44,9.83-2.28,14.73s-1.8,10-2.89,15c-1,4.7-1.83,9.64-3.39,14.19a3.85,3.85,0,0,1,2.82,2.41c.6,1.87-.07,4.42-.72,6.18a11.42,11.42,0,0,1-4.2,5.53,14.09,14.09,0,0,1-7.3,2.32,20.68,20.68,0,0,1-.62,4.13,29.3,29.3,0,0,1-1.66,6.05,14,14,0,0,1-1,1.94,22,22,0,0,1,5.23-.87c.8-.06.95,1.21.19,1.39l-1.67.36.86,0,3.45.06c.64,0,1.22-.12,1.56.51.63,1.15-3.1.94-3.36.95-1.52,0-3,0-4.42.14a41,41,0,0,0,5.52.91c1.15.08,2.79-.37,3.8.19a.24.24,0,0,1,.05.37c-.61.72-1.83.73-2.85.7,3.63.74,7.24,1.59,10.82,2.58.88.24.72,1.71-.22,1.63-12.81-1.09-25.5-3.29-38.24-4.95q-34.11-4.44-68.51-6c-11.46-.5-22.92-.67-34.39-.82-5.73-.07-11.46-.31-17.2-.43-2.86-.06-5.73-.11-8.59-.12a70.31,70.31,0,0,1-8.59-.23c-.24,0-.34-.38-.07-.44a65.35,65.35,0,0,1,9.37-.92c3.35-.21,6.7-.4,10-.66,6.44-.48,12.9-.68,19.35-.69q7.21,0,14.44.16-1.39-.16-2.76-.27c-4.31-.32-8.6-.29-12.92-.28a48.91,48.91,0,0,1-12-1,.08.08,0,0,1,0-.16c8.29.52,16.65-.3,24.91.64,5,.58,10,1,15,1.2-5.41-.94-10.84-1.81-16.32-2.39a148,148,0,0,0-19.06-.77c-3.18.07-6.35.26-9.52.55s-6.34,1.18-9.49,1.25c-.25,0-.25-.32-.06-.4,3.24-1.3,7.16-1.51,10.61-1.95,1.63-.21,3.28-.36,4.93-.47a32.46,32.46,0,0,0-6.31-.15c-2.2.13-4.4.19-6.6.22-1.85,0-4.16.35-5.91-.26,0,0,0,0,0-.05,1.83-.7,4.3-.37,6.26-.42s4.17-.1,6.25-.22a49.15,49.15,0,0,1,10,.7l1.94-.06c12.62-.25,25.28,1.32,37.73,3.26-3-.88-6-2-9.09-2.39-2.68-.3-5.17-.09-7.67-1.23-.05,0,0-.09,0-.08,2.72.9,5.9.08,8.73.44a73.28,73.28,0,0,1,8.77,2,43.32,43.32,0,0,0,10.15,1.18c3.08,0,6.5-.33,9.42.83a.4.4,0,0,1,.17.17c2,0,4.07,0,6.1.09,1.87.09,3.75.16,5.63.28a18.14,18.14,0,0,1,5,.62c.09,0,.11.19,0,.22-1.84.38-3.89,0-5.75-.09s-3.75-.15-5.62-.11c-3.27.07-6.5.24-9.75.53q10.72.72,21.41,1.71t21.42,2.26c-2.15-.55-4.32-1.08-6.49-1.56-.26-.06-.18-.43.06-.44a51.38,51.38,0,0,1,11.55.91,16.88,16.88,0,0,0-6-2.06.36.36,0,0,1-.33-.3c-3.79-.5-7.81,0-11.57.12a.08.08,0,1,1,0-.16c4.29-.46,8.54-1.36,12.89-.85a48.81,48.81,0,0,1,5.62,1.19c.71.18,1.44.36,2.16.51a3.54,3.54,0,0,0-.25-.52.12.12,0,0,1,.19-.15,5.14,5.14,0,0,0,1.39.68,5.68,5.68,0,0,1,.25-1.78.76.76,0,0,1,0-.15V216c0-.81.05-1.61.07-2.41.07-2.29,0-4.81,1-6.93-3.16-.86-6.34-1.73-9.46-2.72l-1.7-.33-37.81-7.31-36.44-7-7.27-1.41a21,21,0,0,1-1.17,7,18.62,18.62,0,0,1-1.8,4.44,6.17,6.17,0,0,1-1.6,2.48,2.83,2.83,0,0,1-1.78,1.23,6.85,6.85,0,0,1-.85.34c-3.24,1-7.23-.25-10.18-1.67-3.48-1.68-4.47-4.79-4.37-8.45a33,33,0,0,1,.92-6.16,14.19,14.19,0,0,1,1.37-4.52,18.92,18.92,0,0,1-2-1.32,12.73,12.73,0,0,1-4.77-13.64c.45-1.72,1.08-3.63,2.82-4.41a4.09,4.09,0,0,1,.92-.28c.39-4.89,1.59-9.83,2.51-14.63s2-9.7,3.15-14.51,2.31-9.37,3.59-14c.07-.32.13-.63.19-.94.61-3.24,1.27-6.47,1.89-9.71.53-2.81,1.1-5.57,1.41-8.43.27-2.5.67-5.32,2.05-7.51-.91-3.41-3.35-5.83-5.5-8.48a1.54,1.54,0,0,1-.17.19c-3.49,3.28-8.48,0-9.75-3.79-1-3-.92-7.32,1.56-9.57,3.38-3.08,8.37.43,10.14,3.6a8.36,8.36,0,0,1,.9,5.67,4.59,4.59,0,0,1-1.12,2.11c.84.77,1.65,1.56,2.47,2.31q2.73,2.52,5.54,5c-.06-2.67,1.69-5.55,2.94-7.81a64.17,64.17,0,0,1,5.08-7.68c1.8-2.37,3.5-4.81,5.42-7.08,1.06-1.25,2.17-2.45,3.27-3.67.47-.52.93-1.08,1.42-1.61a2.22,2.22,0,0,1-1.07-.9,1,1,0,0,1,.16-1.25,5.07,5.07,0,0,1,2.76-.69h.13a16.13,16.13,0,0,1,4.53-2.12,54.9,54.9,0,0,1,7.53-2.18,80.84,80.84,0,0,1,14.54-1.88,98.06,98.06,0,0,1,16.24,1,135.63,135.63,0,0,1,15.61,2.76A135.88,135.88,0,0,1,428.1,61a96.64,96.64,0,0,1,14.7,5.43A78.67,78.67,0,0,1,455.44,74a60.71,60.71,0,0,1,5.27,4.34,16.6,16.6,0,0,1,3.62,4l.94.54c.74.44,1.76.89,1.39,1.95-.24.71-.89.88-1.6.85a58.21,58.21,0,0,1,2,6.83c.88,3.15,1.41,6.35,2.05,9.55a70.81,70.81,0,0,1,1.29,9.4c.14,2.16.42,4.7-.17,6.88.08,0,.15.12.22.17,2.34-.74,4.69-1.52,7-2.34,1.13-.4,2.27-.84,3.42-1.24a5,5,0,0,1-.18-2.46,8.4,8.4,0,0,1,3.46-5.06C487.15,105.35,492.85,104.39,494.56,108.57Zm-4.14,7.6a8.21,8.21,0,0,0,2.21-6c-.44-3.23-4.73-2.57-6.81-1.49a6.73,6.73,0,0,0-2.95,3,6.18,6.18,0,0,0-.78,2.15,2.14,2.14,0,0,0,.06.62,22.29,22.29,0,0,1,3.08-.75c.41-.07.85.44.46.78a16.38,16.38,0,0,1-2.18,1.56,1.07,1.07,0,0,1,.23.34C485,119.17,488.84,118,490.42,116.17Zm-10.44.25c-.75.26-1.48.54-2.22.84-2.07.86-4.09,1.76-6.2,2.48a6.2,6.2,0,0,1,.82,1.65C474.44,119.17,477.19,117.76,480,116.42Zm-10.32,8.65c.07-1.45.5-3.89-.63-4.9l-.11-.08a12.92,12.92,0,0,1,.32,2c.15,1.95.14,4.7-1.28,6.22-.07.08-.17,0-.13-.1a11.28,11.28,0,0,0,.83-5.51,7.31,7.31,0,0,0-.86-3.17,8.16,8.16,0,0,0-.79-.24c.59,1.62,1,3.93-.22,4.75-.07.05-.15,0-.11-.11.79-1.31.17-3.27-.4-4.79-.55-.1-1.11-.17-1.65-.22.14.3.27.59.38.87a3.32,3.32,0,0,1,.34,2.4c-.06.12-.25,0-.22-.1a4.21,4.21,0,0,0-.67-2.5,5,5,0,0,0-.39-.72c-.68,0-1.32-.09-1.81-.14-4.9-.51-9.84-2.14-14.63-3.25s-9.7-2.4-14.53-3.66l-2.07-.11c-5.15-.24-10.51-.61-15.27-2.75-.05,0,0-.1,0-.08,4.82,2,10.25,2.26,15.43,2.46l-4.64-1.18-.76-.1c-3.48-.48-6.94-1.21-10.39-1.89s-6.75-1.13-10-2.12c0,0,0,0,0,0a102.1,102.1,0,0,1,10.07,1.79c2.12.39,4.26.82,6.39,1.2-6.67-1.65-13.34-3.27-20-5-8.88-1.27-17.72-2.86-26.59-4.22l-5.06-.79q2.16.47,4.32.87c5.84,1.12,11.73,2,17.5,3.52.09,0,.05.16,0,.14-6-1.16-11.94-2.18-17.9-3.32-3.66-.7-7.54-1.35-11.25-2.38q-5.64-.9-11.26-1.9c-2.14-.38-4.29-.73-6.43-1.14-1.76-.33-3.42-1-5.17-1.42a8,8,0,0,0-.72.51c-.76.59-1.47,1.27-2.26,1.82,0,0-.07,0,0-.07a18.23,18.23,0,0,1,2.32-2.44,18.13,18.13,0,0,0-2.95-.71c-3,1-4.82,4.95-5.13,8a.06.06,0,0,1-.12,0,10.68,10.68,0,0,1,3.33-7.77,1.76,1.76,0,0,0-.37.17,8.29,8.29,0,0,0-3,3.23c-1.71,2.89-1.8,6.5-2.62,9.69-.07.26-.13.52-.2.78a48.2,48.2,0,0,1-1.13,5.94c-.51,2.41-1,4.82-1.5,7.24-1,4.87-1.94,9.73-2.85,14.61s-1.84,10-2.76,15c-.86,4.62-1.38,9.41-2.5,14,1.06.25,2.09.6,3,.83,3.5.9,7,1.91,10.52,2.68,6.07,1.32,12.15,2.59,18.22,3.92,12.14,2.68,24.26,5.43,36.44,7.95,6.58,1.36,13.16,2.78,19.79,3.92,6,1,12,1.68,17.94,2.9q10.24,2.12,20.47,4.33c1.64.36,3.27.75,4.92,1,2.47.41,4.93.79,7.38,1.27v0c.76-4.92,2.27-9.82,3.38-14.68,1.06-4.71,2.14-9.43,3.2-14.14s2.11-9.66,3.13-14.49q.66-3.14,1.29-6.28c.81-4.3,1.54-8.63,2.05-13C469.43,128,469.59,126.52,469.66,125.07Zm-.56-7.49c-.2-2.22.06-4.59-.12-6.75a70.13,70.13,0,0,0-1.41-9.37c-.63-2.95-1.67-5.84-2.55-8.72-.3-1-.68-2-1.06-3l.41,1.75c.67,2.91,1.35,5.83,1.93,8.76s1,5.57,1.3,8.38c.29,2.62.79,5.75.18,8.37.37.16.74.32,1.09.5Zm-2.43-1c-.51-2.48-.45-5.22-.83-7.7-.46-2.94-1.1-5.84-1.79-8.73s-1.49-5.78-2.29-8.65c-.36-1.32-.73-2.63-1.05-4a11.61,11.61,0,0,1-.59-3c-.89-.27-1.77-.56-2.65-.84-7.89-2.53-15.86-4.84-23.82-7.12-4.13-1.18-8.26-2.33-12.42-3.39S413,71.2,409,69.81c-5.08-.37-10.06-1.42-15.1-2.17s-10.39-1.45-15.61-2c-5-.57-10-1.29-15.07-1.81-2.33-.24-4.67-.44-7-.69a11.72,11.72,0,0,1-1.79,2.62c-.83,1.07-1.68,2.12-2.54,3.17-1.95,2.36-3.9,4.72-5.79,7.13s-3.86,5-5.59,7.72c-1.29,2-2.28,4.41-3.65,6.39l2.47.3c2.19.25,4.41.21,6.57.57s4.05.73,6.07,1.1c8.44,1.55,16.8,3.34,25.17,5.23s16.76,3.64,25.05,5.77c12.21,1.92,24.34,4.41,36.48,6.71,5.23,1,10.42,2.16,15.62,3.35a67.63,67.63,0,0,1,8.45,2.07C464,115.7,465.36,116.08,466.67,116.54Zm-6.93,83.27a6.46,6.46,0,0,0,.24-3.65c-.54-1.77-5.46-1.72-7-1.94-3.18-.47-6.39-.8-9.54-1.38-1.83-.33-3.64-.71-5.46-1.07-9.27-1.81-18.67-3.37-27.7-6.15-.49-.16-1-.29-1.49-.44-.3,2.34-.63,4.68-1,7s-.38,5.58-1.59,7.7a1.47,1.47,0,0,1-.1.13l14.08,3.07c3.83.54,7.62,1.66,11.42,2.33a80.58,80.58,0,0,0,8,.91c2,.15,4.47.06,6.24,1.2a.24.24,0,0,1,.09.08,28.6,28.6,0,0,0,2.93,0,.47.47,0,0,1,.6,0c3.12-.3,6.07-1.3,8.15-3.82a11.47,11.47,0,0,0,1.72-3.05c-7.35,0-14.69-1.4-21.88-2.83-7.94-1.57-15.93-3.08-23.82-4.91-.09,0-.05-.17.05-.15C429,195.34,444.21,200.06,459.74,199.81Zm-.59-118.39.9.24c-.52-.3-1.05-.59-1.58-.88-2-1.09-4.12-2.09-6.24-3a139.41,139.41,0,0,0-13.43-5,292.64,292.64,0,0,0-29-7.14c-9.56-2-19.17-3.81-28.88-4.81a140.75,140.75,0,0,0-14.51-.77c-2.49,0-4.95.11-7.43.33-.53.05-1.07.1-1.6.17l1.29.19c2.45.37,4.9.76,7.36,1.07,4.66.59,9.32,1.15,14,1.86,4.8.74,9.6,1.44,14.38,2.26,5,.85,10,1.59,14.77,3.23A93.21,93.21,0,0,1,423.72,72c4.73,1.13,9.43,2.37,14.14,3.6s9.53,2.63,14.29,4C454.47,80.23,456.81,80.81,459.15,81.42Zm.59-1.73-.28-.24c-2.42-1.49-4.66-3.12-7.22-4.4s-5.33-2.42-7.91-3.8a.05.05,0,0,1,0-.1,80.64,80.64,0,0,1,8.14,3.44c.88.43,1.8.87,2.71,1.35-.93-.6-1.87-1.19-2.86-1.72-2.14-1.13-4.33-2.13-6.52-3.17-4.78-2.26-10-3.13-14.82-5.2,0,0,0,0,0,0,5.11,1.45,10.24,2.51,15.07,4.79,1,.49,2.11,1,3.2,1.47a75,75,0,0,0-7.64-3.74A121.41,121.41,0,0,0,426.47,63c-5.09-1.44-10.29-2.38-15.41-3.7-5-.77-9.94-1.91-15-2.59a127.32,127.32,0,0,0-15.6-1.15c-1.06,0-2.11,0-3.17,0,.66,0,1.32.09,2,.17,2.63.34,5.27.78,7.89,1.22,3.08.5,6.12.69,9.22.91a.12.12,0,0,1,0,.24c-5.54.18-11.07-.7-16.53-1.51-3.4-.51-6.76-.07-10.12.27,3.2.1,6.4.42,9.6.53a0,0,0,0,1,0,.08c-3.53.13-7-.1-10.57,0a37.41,37.41,0,0,0-9.42,1.36c1.63-.14,3.25-.26,4.88-.35a108,108,0,0,1,15.58.36c5.12.47,10.19,1.17,15.25,2s10.09,1.83,15.11,2.86h.09l.13,0h0a281.6,281.6,0,0,1,27.89,6.88A116.45,116.45,0,0,1,459.74,79.69ZM447.55,211.11c.2-.64.36-1.29.58-1.92-.86,0-1.71-.06-2.56-.14l0,0a4.59,4.59,0,0,1-.33,2.47,9.36,9.36,0,0,1-1.2,2.51c-.14.21-.48,0-.34-.2a9.42,9.42,0,0,0,1.18-2.58,13.49,13.49,0,0,1,.49-2.22l0,0-.86-.08a6.6,6.6,0,0,1-1.35.28,2.52,2.52,0,0,1-.28,1.54c-.19.36-.39.93-.79,1.1a.08.08,0,0,1-.12-.11,11.56,11.56,0,0,0,.83-2.49,13.33,13.33,0,0,1-2,0,3.68,3.68,0,0,1-.79,2,.13.13,0,0,1-.21-.12c.19-.64.34-1.3.51-1.95l-1-.13a52.42,52.42,0,0,1-6.84-1.56,16.25,16.25,0,0,1-.3,4.9,4.46,4.46,0,0,0,.42-1.64c0-.07.11-.07.12,0a5.6,5.6,0,0,1-.46,2.39,3.41,3.41,0,0,1-.29.57,1,1,0,0,0,0,.17c-.07.46-.14.93-.2,1.4a1.32,1.32,0,0,1-.08.87,8.19,8.19,0,0,0,.16,2.47,5.46,5.46,0,0,0,.84,1.75,7.28,7.28,0,0,0,.78.46c0-.84.13-1.7.2-2.45a.12.12,0,0,1,.23,0,26.18,26.18,0,0,1,.13,2.71,13,13,0,0,0,1.63.54,10.7,10.7,0,0,1,1.07-3.84c.06-.13.26-.08.22.06a17.45,17.45,0,0,0-.59,2.26c-.09.53-.11,1.09-.21,1.63A13.54,13.54,0,0,0,438,222c.38-1.2.82-2.38,1.19-3.57,0,0,.08,0,.09,0a4.58,4.58,0,0,1-.31,2.39c-.13.41-.28.81-.44,1.2a11.73,11.73,0,0,0,1.19,0c.45-.62,1-1.19,1.39-1.83a9.7,9.7,0,0,0,1.44-2.92c0-.06.12,0,.12,0a9.25,9.25,0,0,1-2.09,4.64,4.31,4.31,0,0,0,1.81-.67c1.81-1.34,2.64-4.33,3.53-6.29A35.38,35.38,0,0,0,447.55,211.11Zm-42.18-19.28c.61-2.36,1.23-4.73,1.87-7.08-5.05-1.34-10.26-2.26-15.35-3.3-6-1.22-12-2.51-17.95-3.66-.35-.08-.71-.14-1.06-.21-3.78-.73-7.56-1.43-11.34-2.14a20.56,20.56,0,0,1-.86,4.37c-.78,3.17-1.29,6.7-2.44,9.78l10.06,2.19,25.61,5.58L404,199.55a1.37,1.37,0,0,1-.07-.29C403.63,197,404.8,194.06,405.37,191.83Zm-45.59-15.26a5.65,5.65,0,0,1,.45-1.37c-6.41-1.2-12.82-2.39-19.21-3.65-6.75-1.32-13.4-2.69-20.08-4.34-1.39-.35-5.71-2.08-6.71-.74a6.42,6.42,0,0,0-.87,2.81,3,3,0,0,0,1.07,1.16,13.47,13.47,0,0,0,2.55.95c1.78.59,3.59,1.11,5.4,1.62q5.25,1.47,10.56,2.71c7.2,1.7,14.52,2.8,21.84,3.82.2,0,.15.37,0,.35a225.45,225.45,0,0,1-25-4.46c-4.24-1-8.41-2.15-12.61-3.26a12.39,12.39,0,0,1-3.88-1.49,8.92,8.92,0,0,0,.67,3.92c2.12,4.83,8.12,6.84,12.81,8.12,1.35.36,2.75.61,4.12.91l25.74,5.6a80.43,80.43,0,0,1,2-8.13C359,179.59,359.33,178.07,359.78,176.57ZM349.49,67.85l1.2-1.59c-.79.79-1.58,1.56-2.27,2.33-2.1,2.33-4.37,4.56-6.26,7.06a65.24,65.24,0,0,0-4.91,7.42c-1.25,2.24-2,5-3.48,7a10.29,10.29,0,0,1,1.76-.06c.48-2.32,2-4.67,3.11-6.65,1.58-2.73,3.32-5.36,5.16-7.92S347.57,70.38,349.49,67.85ZM330.31,91.68a5.83,5.83,0,0,1,1.23-.88c-1.58-1.44-3-3-4.52-4.53-.51-.53-1-1-1.58-1.53a24.73,24.73,0,0,1,4.79,7A.6.6,0,0,1,330.31,91.68ZM324,82a4.31,4.31,0,0,0,.53-2.16,7.31,7.31,0,0,0-.9-3.69c-1.16-2-5-5.09-7.14-2.65-1.37,1.57-1.3,4.31-.84,6.2.56,2.32,3.59,5.81,6.09,3.62a1.07,1.07,0,0,1,.49-.26,16.67,16.67,0,0,1-1.38-2.3c-.19-.39.22-.91.64-.64A21,21,0,0,1,324,82Z" transform="translate(-9.97 -53.27)"/><path class="cls-4" d="M468.21,128a1.81,1.81,0,0,1-.25.3c-.07.08-.17,0-.13-.1s.08-.18.12-.27c-2.27-.59-4.51-1.29-6.75-2-2.64-.82-5.32-1.63-8-2.31a3.1,3.1,0,0,1,1.09,2.4c0,2.47.34,5.73-1.64,7.58s-5.11,1.67-7.63,1.5a89.6,89.6,0,0,1-10.7-1.58c-9.88-1.89-19.79-3.63-29.62-5.76q-15.57-3.37-31.14-6.72c-5.21-1.13-10.42-2.21-15.6-3.46-3.93-1-8.43-1.77-12-3.7-3.35-1.8-3.34-5.37-2.31-8.72a6.86,6.86,0,0,1,1.3-2.72c-1.82-.34-3.63-.69-5.45-1-2.71-.49-5.46-.74-8.2-1.06a.06.06,0,0,1-.11,0h0l-1.6-.2c-.41,1.84-.64,3.75-1.1,5.53-.07.26-.13.52-.2.78a48.2,48.2,0,0,1-1.13,5.94c-.51,2.41-1,4.82-1.5,7.24-1,4.87-1.94,9.73-2.85,14.61s-1.84,10-2.76,15c-.86,4.62-1.38,9.41-2.5,14,1.06.25,2.09.6,3,.83,3.5.9,7,1.91,10.52,2.68,6.07,1.32,12.15,2.59,18.22,3.92,12.14,2.68,24.26,5.43,36.44,7.95,6.58,1.36,13.16,2.78,19.79,3.92,6,1,12,1.68,17.94,2.9q10.24,2.12,20.47,4.33c1.64.36,3.27.75,4.92,1,2.47.41,4.93.79,7.38,1.27v0c.76-4.92,2.27-9.82,3.38-14.68,1.06-4.71,2.14-9.43,3.2-14.14s2.11-9.66,3.13-14.49q.66-3.14,1.29-6.28c.81-4.3,1.54-8.63,2.05-13,.05-.38.09-.77.14-1.16Zm-6.1,25.83c-.46,2.59-.71,5.22-1.06,7.83-.69,5.09-1.67,10.52-4.91,14.67-5.36,6.89-16.65,4.35-24,3-6.62-1.2-13.28-2.1-19.91-3.2-7.06-1.18-14-2.87-21-4.51-14-3.3-28.06-6.54-42.06-9.92-6.12-1.47-12.17-3.17-18.13-5.17-4.56-1.52-8.53-4.15-8.25-9.49a41.81,41.81,0,0,1,1.79-8.9c.51-1.83,1-3.66,1.64-5.47.44-1.36.9-2.71,1.4-4a49.9,49.9,0,0,1,3.5-8.28,5.85,5.85,0,0,1,4.45-3.09c4.24-.59,8.36,1.25,12.42,2.12l2.53.52q40.11,6.33,79.67,15.39c6.84,1.57,13.7,3,20.55,4.56,4.34,1,10.54,2.52,11.73,7.6C463.05,149.55,462.48,151.7,462.11,153.79Z" transform="translate(-9.97 -53.27)"/><path class="cls-5" d="M465.84,108.84c.38,2.48.32,5.22.83,7.7-1.31-.46-2.68-.84-3.95-1.3a67.63,67.63,0,0,0-8.45-2.07c-5.2-1.19-10.39-2.36-15.62-3.35-12.14-2.3-24.27-4.79-36.48-6.71-8.29-2.13-16.69-3.88-25.05-5.77S360.39,93.66,352,92.11c-2-.37-4-.76-6.07-1.1s-4.38-.32-6.57-.57l-2.47-.3c1.37-2,2.36-4.39,3.65-6.39,1.73-2.67,3.64-5.22,5.59-7.72s3.84-4.77,5.79-7.13c.86-1.05,1.71-2.1,2.54-3.17a11.72,11.72,0,0,0,1.79-2.62c2.33.25,4.67.45,7,.69,5,.52,10.05,1.24,15.07,1.81q7.83.87,15.61,2c5,.75,10,1.8,15.1,2.17,4,1.39,8.14,2.27,12.25,3.32s8.29,2.21,12.42,3.39c8,2.28,15.93,4.59,23.82,7.12.88.28,1.76.57,2.65.84a11.61,11.61,0,0,0,.59,3c.32,1.33.69,2.64,1.05,4,.8,2.87,1.59,5.75,2.29,8.65S465.38,105.9,465.84,108.84Zm-6-7.37a.2.2,0,0,0-.05-.39c-4.47.32-8.05,3.67-12.26,4.88,0,0,0,.05,0,0C451.81,105,455.49,102.42,459.81,101.47Zm-2.22-14.79a.07.07,0,0,0-.09-.11,60.24,60.24,0,0,1-7.66,3.06c-2.45.74-4.94,1.34-7.39,2-6.65,1.9-12.83,5.13-19.53,6.87a.08.08,0,0,0,0,.15c7-1.47,13.38-4.89,20.26-6.76,2.69-.73,5.39-1.37,8-2.21C453.39,89,456,88.3,457.59,86.68Zm-11.87-1.61c.16,0,.11-.27,0-.28-2.47-.18-4.85.79-7.09,1.73-2.63,1.11-5.21,2.34-7.84,3.44-5.49,2.29-10.7,5.28-16.36,7.18-.17.06-.1.32.07.27C425.29,94.44,434.71,87.46,445.72,85.07Zm-14.33.07a.11.11,0,0,0-.06-.22,37.5,37.5,0,0,0-10.47,4.4.15.15,0,0,0,.15.26A59.4,59.4,0,0,1,431.39,85.14ZM398.52,84a.07.07,0,0,0-.1-.11c-2.69,2.51-6.46,3.16-9.7,4.7a137.56,137.56,0,0,0-13.05,6.75c-.22.13,0,.42.19.32,4.61-2,9-4.61,13.52-6.83C392.38,87.35,396.26,86.65,398.52,84Zm-8.33-15.31c.11,0,.09-.21,0-.2-6.39.83-12.26,4.05-18,6.71-6,2.79-12,5.43-17.57,9-.05,0,0,.1,0,.07,5.4-3.19,11.32-5.45,17-8C377.76,73.49,383.72,70.53,390.19,68.69Zm-1.77,24.38c.18-.17-.09-.43-.26-.27-1.15,1.09-2.86,1.66-4.24,2.39-.15.07-.05.31.11.27A10.66,10.66,0,0,0,388.42,93.07ZM377.64,77.65a.14.14,0,0,0-.13-.23c-2.72,1-5,3.49-7.95,3.93-.06,0,0,.1,0,.09a10.34,10.34,0,0,0,3.85-1.3A26.58,26.58,0,0,0,377.64,77.65Zm-6-8.33c.09-.07,0-.23-.09-.16a22,22,0,0,1-6.13,3.24.1.1,0,0,0,.06.2A15.78,15.78,0,0,0,371.62,69.32Z" transform="translate(-9.97 -53.27)"/><path d="M462.55,147.43c.5,2.12-.07,4.27-.44,6.36-.46,2.59-.71,5.22-1.06,7.83-.69,5.09-1.67,10.52-4.91,14.67-5.36,6.89-16.65,4.35-24,3-6.62-1.2-13.28-2.1-19.91-3.2-7.06-1.18-14-2.87-21-4.51-14-3.3-28.06-6.54-42.06-9.92-6.12-1.47-12.17-3.17-18.13-5.17-4.56-1.52-8.53-4.15-8.25-9.49a41.81,41.81,0,0,1,1.79-8.9c.51-1.83,1-3.66,1.64-5.47l.69.23a74.25,74.25,0,0,0-2.15,8c-.6,2.93-1.53,6.34-.35,9.22,1,2.54,3.59,3.87,6,4.76,11.46,4.23,23.64,6.61,35.51,9.41,12.84,3,25.65,6.34,38.56,9,6.38,1.34,12.83,2.23,19.27,3.22,5,.77,10,1.84,15,2.45,4.17.5,8.78.84,12.75-.79,4.64-1.9,6.47-7.26,7.47-11.79,1.07-4.88,1.55-9.94,2.18-14.9.28-2.3.23-4.57-1.45-6.36-2-2.19-5.26-3.32-8.07-4.11-6.1-1.72-12.45-2.77-18.62-4.19-6.47-1.48-12.92-3-19.39-4.42-21-4.66-42.16-8-63.28-11.84l.13-.74q40.11,6.33,79.67,15.39c6.84,1.57,13.7,3,20.55,4.56C455.16,140.81,461.36,142.35,462.55,147.43Z" transform="translate(-9.97 -53.27)"/><path class="cls-4" d="M459.83,145.18c1.68,1.79,1.73,4.06,1.45,6.36-.63,5-1.11,10-2.18,14.9-1,4.53-2.83,9.89-7.47,11.79-4,1.63-8.58,1.29-12.75.79-5-.61-10-1.68-15-2.45-6.44-1-12.89-1.88-19.27-3.22-12.91-2.7-25.72-6-38.56-9-11.87-2.8-24.05-5.18-35.51-9.41-2.45-.89-5-2.22-6-4.76-1.18-2.88-.25-6.29.35-9.22a74.25,74.25,0,0,1,2.15-8,97.17,97.17,0,0,1,3.93-10c1.22-2.64,2.63-4.61,5.68-4.75h.61c4.41.85,8.84,1.66,13.26,2.45,21.12,3.8,42.32,7.18,63.28,11.84,6.47,1.44,12.92,2.94,19.39,4.42,6.17,1.42,12.52,2.47,18.62,4.19C454.57,141.86,457.79,143,459.83,145.18Zm-2.68,15.35c.25-4.05-.74-8.59-3.89-11.35a10.57,10.57,0,0,0-2.74-2.2,9.9,9.9,0,0,0-6-1.26c-1.69-.36-4,.49-5.45,1.22a17.35,17.35,0,0,0-5.25,4.15,15.55,15.55,0,0,0-3.68,12.24,13,13,0,0,0,6.66,9.91c2.9,1.57,7,2.35,10.1.84C452.77,172.67,456.77,166.62,457.15,160.53Zm-48-5.53c2.53-9.72-3.81-20.47-13.91-22.18a17.72,17.72,0,0,0-12.62,2.35l-.29.15A18,18,0,0,0,374,145.91,18.13,18.13,0,1,0,409.1,155Zm-56.45-6.59a15.51,15.51,0,0,0,1.56-12.54,18.14,18.14,0,0,0-3.08-5.87,10.06,10.06,0,0,0-4.49-3.46,9.89,9.89,0,0,0-3.62-1.23,10.81,10.81,0,0,0-5.8.84,12.13,12.13,0,0,0-6.56,5.43c-3.88,6.26-3.8,15.22,2.27,19.88,2.22,2.69,6.32,3.65,9.65,3.35A13,13,0,0,0,352.65,148.41Z" transform="translate(-9.97 -53.27)"/><path d="M459.76,101.08a.2.2,0,0,1,.05.39c-4.32,1-8,3.55-12.3,4.53,0,0,0,0,0,0C451.71,104.75,455.29,101.4,459.76,101.08Z" transform="translate(-9.97 -53.27)"/><path d="M457.5,86.57a.07.07,0,0,1,.09.11c-1.63,1.62-4.2,2.36-6.33,3-2.65.84-5.35,1.48-8,2.21C436.34,93.8,430,97.22,423,98.69a.08.08,0,0,1,0-.15c6.7-1.74,12.88-5,19.53-6.87,2.45-.7,4.94-1.3,7.39-2A60.24,60.24,0,0,0,457.5,86.57Z" transform="translate(-9.97 -53.27)"/><path d="M454,165.74a16,16,0,0,0,1.55-4.81,14.76,14.76,0,0,0-.23-5.62,9.86,9.86,0,0,0-7.57-7.48c-3.87-.74-7.23,1.45-9.53,4.55,2.84-3.44,7.18-5.41,11.58-3a8.86,8.86,0,0,1,2.5,2c2.36,2.16,3.21,5.55,3.13,8.69A13.61,13.61,0,0,1,454,165.74Zm-.7-16.56c3.15,2.76,4.14,7.3,3.89,11.35-.38,6.09-4.38,12.14-10.26,13.55-3.1,1.51-7.2.73-10.1-.84a13,13,0,0,1-6.66-9.91,15.55,15.55,0,0,1,3.68-12.24,17.35,17.35,0,0,1,5.25-4.15c1.46-.73,3.76-1.58,5.45-1.22a9.9,9.9,0,0,1,6,1.26A10.57,10.57,0,0,1,453.26,149.18Zm.68,9.9a10.6,10.6,0,0,0-.64-3.77,8.11,8.11,0,0,0-1.45-2.41,7,7,0,0,0-6.83-2.41c-6.19,1.47-9.42,10.62-6,15.77a7.18,7.18,0,0,0,7.73,3.19,8.15,8.15,0,0,0,2.57-1.13,10.35,10.35,0,0,0,4.05-5.7A14.48,14.48,0,0,0,453.94,159.08Zm-9.11,13.06a10.47,10.47,0,0,0,8.25-4.89,9.92,9.92,0,0,1-9.23,4.61c-5.63-.52-8.88-5.72-8.89-10.93C434.77,166.54,438.71,172.43,444.83,172.14ZM431.88,162a12.36,12.36,0,0,0,4.73,9.43c-3.77-3.49-5.16-9.46-3.65-14.54a17.59,17.59,0,0,1,1.17-2.9A13.65,13.65,0,0,0,431.88,162Z" transform="translate(-9.97 -53.27)"/><path d="M454.27,126c0,2.47.34,5.73-1.64,7.58s-5.11,1.67-7.63,1.5a89.6,89.6,0,0,1-10.7-1.58c-9.88-1.89-19.79-3.63-29.62-5.76q-15.57-3.37-31.14-6.72c-5.21-1.13-10.42-2.21-15.6-3.46-3.93-1-8.43-1.77-12-3.7-3.35-1.8-3.34-5.37-2.31-8.72.4-1.3.88-2.9,2.32-3.37a7.81,7.81,0,0,1,3.23,0c3,.36,5.88,1.2,8.82,1.85,8.18,1.36,16.32,3,24.45,4.5,11.74,2.21,23.47,4.49,35.17,6.92,5.16,1.08,10.32,2.34,15.52,3.17a118.06,118.06,0,0,1,15.1,3.27C450.54,122.13,454.28,123,454.27,126Zm-1.22,1c.08-1.6.07-2.32-1.52-3.18a23.57,23.57,0,0,0-6.4-2c-4.57-1-9.13-1.92-13.69-3-9.08-2-18.24-3.83-27.36-5.67-17.13-3.44-34.44-6.18-51.51-9.89a40.34,40.34,0,0,0-4.21-.63,6.25,6.25,0,0,0-1.88,0c-1.49.34-1.88,2.1-2.23,3.38a9.75,9.75,0,0,0-.31,4.39,3.67,3.67,0,0,0,2.38,2.8c4,1.87,8.77,2.35,13,3.34,9.29,2.17,18.64,4.09,28,6.1s18.77,4.2,28.22,6c7.86,1.5,15.72,3.09,23.61,4.37a40.09,40.09,0,0,0,9.71.8c1.77-.16,3.42-.83,4-2.69A17.31,17.31,0,0,0,453.05,127Z" transform="translate(-9.97 -53.27)"/><path class="cls-6" d="M453.3,155.31a10.6,10.6,0,0,1,.64,3.77,14.48,14.48,0,0,1-.59,3.54,10.35,10.35,0,0,1-4.05,5.7l-.34-.7a.12.12,0,0,0,.08,0c2.56-3.49,3.34-9.89,2.28-14,0,0,0,0,0,0l.55-.63A8.11,8.11,0,0,1,453.3,155.31Z" transform="translate(-9.97 -53.27)"/><path class="cls-4" d="M451.53,123.85c1.59.86,1.6,1.58,1.52,3.18a17.31,17.31,0,0,1-.24,4.07c-.56,1.86-2.21,2.53-4,2.69a40.09,40.09,0,0,1-9.71-.8c-7.89-1.28-15.75-2.87-23.61-4.37-9.45-1.8-18.82-4-28.22-6s-18.68-3.93-28-6.1c-4.23-1-9-1.47-13-3.34a3.67,3.67,0,0,1-2.38-2.8,9.75,9.75,0,0,1,.31-4.39c.35-1.28.74-3,2.23-3.38a6.25,6.25,0,0,1,1.88,0,40.34,40.34,0,0,1,4.21.63c17.07,3.71,34.38,6.45,51.51,9.89,9.12,1.84,18.28,3.62,27.36,5.67,4.56,1,9.12,2,13.69,3A23.57,23.57,0,0,1,451.53,123.85Zm-.45,7.89c.75-1.56,1.82-4.92.51-6.45-.65-.77-1.85-.92-2.75-1.16-1.51-.42-3-.83-4.55-1.17-1.88-.42-5.57-1.59-7.38-.44-1.28.82-1.52,3-1.56,4.81a5.28,5.28,0,0,0,0,1.94,1.93,1.93,0,0,1,0,.24.24.24,0,0,0,.16.23,2.22,2.22,0,0,0,1.14,1.12,16.92,16.92,0,0,0,4.23,1c1.58.3,3.18.55,4.78.76C447.57,132.86,450.07,133.86,451.08,131.74Zm-21.16-10.15c.15.09.36-.09.25-.24-.64-.87-2-1.69-2.87-.64a5.92,5.92,0,0,0-.79,2.41c-.28,1.14-.55,2.3-.74,3.47-.12.71.93,1,1.1.31.28-1.15.47-2.33.66-3.5a6.55,6.55,0,0,1,.27-1.67C428.47,120.41,429.17,121.15,429.92,121.59Zm-7.25-1.24c.15.08.37-.1.26-.25-.64-.87-2-1.69-2.87-.64a5.93,5.93,0,0,0-.8,2.41c-.28,1.15-.55,2.31-.74,3.48-.11.71.93,1,1.1.3.28-1.16.48-2.33.67-3.5a6.14,6.14,0,0,1,.27-1.67C421.22,119.16,421.92,119.91,422.67,120.35Zm-7.14-1.51c.15.09.36-.09.25-.24-.64-.87-2-1.69-2.87-.64a5.93,5.93,0,0,0-.8,2.41c-.27,1.14-.55,2.3-.73,3.47-.12.71.92,1,1.1.31.28-1.15.47-2.33.66-3.5a6.7,6.7,0,0,1,.27-1.68C414.07,117.66,414.77,118.4,415.53,118.84Zm-7-1.75c.15.09.36-.1.25-.25-.64-.87-2-1.68-2.87-.64a6,6,0,0,0-.79,2.41c-.28,1.15-.55,2.31-.74,3.48-.12.71.92,1,1.1.31.28-1.16.47-2.33.66-3.5a6.7,6.7,0,0,1,.27-1.68C407,115.91,407.73,116.65,408.48,117.09ZM391.3,116a5.91,5.91,0,0,0,.17-2.64c-.46-1.24-2-1-2.86-.46a.18.18,0,0,0,.14.33c.63-.08,1.74-.5,1.92.63a5.77,5.77,0,0,1-.37,1.76c-.28,1.19-.55,2.39-.74,3.59-.12.71.93,1,1.1.31C390.93,118.33,391.12,117.15,391.3,116Zm-7.19-1a5.81,5.81,0,0,0,.17-2.65c-.46-1.23-2-1-2.86-.46a.19.19,0,0,0,.14.34c.63-.09,1.74-.5,1.93.63a5.56,5.56,0,0,1-.38,1.76c-.28,1.19-.55,2.38-.74,3.59-.11.71.93,1,1.1.3C383.74,117.28,383.93,116.11,384.11,114.93Zm-7.19-1.32a6,6,0,0,0,.18-2.65c-.47-1.23-2-1-2.86-.45a.18.18,0,0,0,.14.33c.63-.09,1.74-.5,1.92.63a5.77,5.77,0,0,1-.37,1.76c-.28,1.19-.55,2.39-.74,3.59-.11.71.93,1,1.1.31C376.55,116,376.74,114.79,376.92,113.61ZM369.75,112a5.91,5.91,0,0,0,.17-2.64c-.47-1.24-2-1-2.86-.46a.18.18,0,0,0,.14.33c.63-.08,1.74-.49,1.92.63a5.77,5.77,0,0,1-.37,1.76c-.28,1.19-.55,2.39-.74,3.6-.11.7.93,1,1.1.3C369.38,114.38,369.56,113.2,369.75,112Zm-9.38,1c.75-1.56,1.82-4.92.51-6.45-.65-.76-1.85-.91-2.75-1.16-1.51-.42-3-.83-4.55-1.17-1.88-.42-5.57-1.59-7.38-.44-1.28.82-1.52,3-1.56,4.81a5.28,5.28,0,0,0,0,1.94v.24a.23.23,0,0,0,.15.23,2.26,2.26,0,0,0,1.14,1.12,17,17,0,0,0,4.22,1c1.6.3,3.19.55,4.79.76C356.86,114.12,359.36,115.12,360.37,113Z" transform="translate(-9.97 -53.27)"/><path class="cls-6" d="M451.85,152.9l-.55.63a0,0,0,0,0,0,0c-.19,2.49,0,4.91-.38,7.4a34,34,0,0,1-2,6.55.08.08,0,0,0,.09.11l.34.7a8.15,8.15,0,0,1-2.57,1.13,7.18,7.18,0,0,1-7.73-3.19c-3.4-5.15-.17-14.3,6-15.77A7,7,0,0,1,451.85,152.9Zm-4.3,12.87a8.71,8.71,0,0,0,1.91-8.29.06.06,0,0,0-.11,0c.68,3.18-1,5.34-2,8.16C447.3,165.77,447.46,165.86,447.55,165.77Zm-2.1-.66c.93-1.79,2-3.75,1.57-5.85a.08.08,0,0,0-.16,0c.19,1.93-.92,4-1.65,5.73C445.16,165.15,445.38,165.24,445.45,165.11Z" transform="translate(-9.97 -53.27)"/><path d="M451.59,125.29c1.31,1.53.24,4.89-.51,6.45-1,2.12-3.51,1.12-5.44.87-1.6-.21-3.2-.46-4.78-.76a16.92,16.92,0,0,1-4.23-1,2.22,2.22,0,0,1-1.14-1.12.24.24,0,0,1-.16-.23,1.93,1.93,0,0,0,0-.24,5.28,5.28,0,0,1,0-1.94c0-1.85.28-4,1.56-4.81,1.81-1.15,5.5,0,7.38.44,1.53.34,3,.75,4.55,1.17C449.74,124.37,450.94,124.52,451.59,125.29Zm-1,4.17a6.25,6.25,0,0,0,.3-2.39c-.34-1.53-1.83-1.66-3-2a52,52,0,0,0-5.19-1.33c-1.9-.37-4.95-1.37-6.09.94a8.48,8.48,0,0,0-.35,2.34c-.07.5-.14,1-.22,1.49.45,1.94,3.1,1.89,4.77,2.21q2.82.53,5.67.87a8.78,8.78,0,0,0,2.76.29C450.2,131.51,450.41,130.31,450.6,129.46Z" transform="translate(-9.97 -53.27)"/><path d="M451.32,153.55c1.06,4.14.28,10.54-2.28,14a.12.12,0,0,1-.08,0,.08.08,0,0,1-.09-.11,34,34,0,0,0,2-6.55c.4-2.49.19-4.91.38-7.4a0,0,0,0,1,0,0S451.31,153.54,451.32,153.55Z" transform="translate(-9.97 -53.27)"/><path class="cls-7" d="M450.9,127.07a6.25,6.25,0,0,1-.3,2.39c-.19.85-.4,2-1.36,2.41a8.78,8.78,0,0,1-2.76-.29q-2.85-.35-5.67-.87c-1.67-.32-4.32-.27-4.77-2.21.08-.49.15-1,.22-1.49a8.48,8.48,0,0,1,.35-2.34c1.14-2.31,4.19-1.31,6.09-.94a52,52,0,0,1,5.19,1.33C449.07,125.41,450.56,125.54,450.9,127.07Z" transform="translate(-9.97 -53.27)"/><path d="M449.46,157.48a8.71,8.71,0,0,1-1.91,8.29c-.09.09-.25,0-.21-.11,1-2.82,2.69-5,2-8.16A.06.06,0,0,1,449.46,157.48Z" transform="translate(-9.97 -53.27)"/><path class="cls-8" d="M448.13,209.19c-.22.63-.38,1.28-.58,1.92A35.38,35.38,0,0,1,446,215c-.89,2-1.72,5-3.53,6.29a4.31,4.31,0,0,1-1.81.67,9.25,9.25,0,0,0,2.09-4.64c0-.06-.1-.07-.12,0a9.7,9.7,0,0,1-1.44,2.92c-.42.64-.94,1.21-1.39,1.83a11.73,11.73,0,0,1-1.19,0c.16-.39.31-.79.44-1.2a4.58,4.58,0,0,0,.31-2.39s-.07,0-.09,0c-.37,1.19-.81,2.37-1.19,3.57a13.54,13.54,0,0,1-1.88-.28c.1-.54.12-1.1.21-1.63a17.45,17.45,0,0,1,.59-2.26c0-.14-.16-.19-.22-.06a10.7,10.7,0,0,0-1.07,3.84,13,13,0,0,1-1.63-.54,26.18,26.18,0,0,0-.13-2.71.12.12,0,0,0-.23,0c-.07.75-.19,1.61-.2,2.45a7.28,7.28,0,0,1-.78-.46,5.46,5.46,0,0,1-.84-1.75,8.19,8.19,0,0,1-.16-2.47,1.32,1.32,0,0,0,.08-.87c.06-.47.13-.94.2-1.4a1,1,0,0,1,0-.17,3.41,3.41,0,0,0,.29-.57,5.6,5.6,0,0,0,.46-2.39c0-.07-.12-.07-.12,0a4.46,4.46,0,0,1-.42,1.64,16.25,16.25,0,0,0,.3-4.9,52.42,52.42,0,0,0,6.84,1.56l1,.13c-.17.65-.32,1.31-.51,1.95a.13.13,0,0,0,.21.12,3.68,3.68,0,0,0,.79-2,13.33,13.33,0,0,0,2,0,11.56,11.56,0,0,1-.83,2.49.08.08,0,0,0,.12.11c.4-.17.6-.74.79-1.1a2.52,2.52,0,0,0,.28-1.54,6.6,6.6,0,0,0,1.35-.28l.86.08,0,0a13.49,13.49,0,0,0-.49,2.22,9.42,9.42,0,0,1-1.18,2.58c-.14.22.2.41.34.2a9.36,9.36,0,0,0,1.2-2.51,4.59,4.59,0,0,0,.33-2.47l0,0C446.42,209.13,447.27,209.18,448.13,209.19Z" transform="translate(-9.97 -53.27)"/><path d="M447,159.26c.44,2.1-.64,4.06-1.57,5.85-.07.13-.29,0-.24-.1.73-1.74,1.84-3.8,1.65-5.73A.08.08,0,0,1,447,159.26Z" transform="translate(-9.97 -53.27)"/><path d="M445.68,84.79c.15,0,.2.24,0,.28-11,2.39-20.43,9.37-31.26,12.34-.17,0-.24-.21-.07-.27,5.66-1.9,10.87-4.89,16.36-7.18,2.63-1.1,5.21-2.33,7.84-3.44C440.83,85.58,443.21,84.61,445.68,84.79Z" transform="translate(-9.97 -53.27)"/><path d="M431.33,84.92a.11.11,0,0,1,.06.22A59.4,59.4,0,0,0,421,89.58a.15.15,0,0,1-.15-.26A37.5,37.5,0,0,1,431.33,84.92Z" transform="translate(-9.97 -53.27)"/><path d="M430.17,121.35c.11.15-.1.33-.25.24-.75-.44-1.45-1.18-2.12.14a6.55,6.55,0,0,0-.27,1.67c-.19,1.17-.38,2.35-.66,3.5-.17.73-1.22.4-1.1-.31.19-1.17.46-2.33.74-3.47a5.92,5.92,0,0,1,.79-2.41C428.19,119.66,429.53,120.48,430.17,121.35Z" transform="translate(-9.97 -53.27)"/><path d="M422.93,120.1c.11.15-.11.33-.26.25-.75-.44-1.45-1.19-2.11.13a6.14,6.14,0,0,0-.27,1.67c-.19,1.17-.39,2.34-.67,3.5-.17.73-1.21.41-1.1-.3.19-1.17.46-2.33.74-3.48a5.93,5.93,0,0,1,.8-2.41C420.94,118.41,422.29,119.23,422.93,120.1Z" transform="translate(-9.97 -53.27)"/><path d="M415.78,118.6c.11.15-.1.33-.25.24-.76-.44-1.46-1.18-2.12.13a6.7,6.7,0,0,0-.27,1.68c-.19,1.17-.38,2.35-.66,3.5-.18.73-1.22.4-1.1-.31.18-1.17.46-2.33.73-3.47a5.93,5.93,0,0,1,.8-2.41C413.8,116.91,415.14,117.73,415.78,118.6Z" transform="translate(-9.97 -53.27)"/><path d="M395.19,132.82c10.1,1.71,16.44,12.46,13.91,22.18A18.13,18.13,0,1,1,374,145.91a18,18,0,0,1,8.29-10.59l.29-.15A17.72,17.72,0,0,1,395.19,132.82ZM406,151.61a14,14,0,0,0-.58-5.3c-.08.3-.17.58-.25.86a42.51,42.51,0,0,1-2.36,6.16,65.46,65.46,0,0,1-3.91,7.17c-.72,1.17-1.46,2.42-2.25,3.63A14.76,14.76,0,0,0,406,151.61Zm-3.49-5.32c.51-1,.94-2.1,1.54-3.07a15.37,15.37,0,0,0-4.11-4.54,34.81,34.81,0,0,1-1.59,3.44c-1,2.14-2.14,4.22-3.31,6.28l-2.44,4.32q.53,4.46,1.07,8.9c.82-1.15,1.65-2.31,2.38-3.5,1.27-2.07,2.46-4.2,3.6-6.34C400.62,150,401.54,148.11,402.5,146.29Zm-6.68-5.88a27.72,27.72,0,0,1,2.11-3,15.4,15.4,0,0,0-6.08-1.76,14,14,0,0,0-1.83,0,27.59,27.59,0,0,1,.86,4.11c.42,2.34.73,4.68,1,7a1.18,1.18,0,0,0,.11-.19C393.21,144.51,394.46,142.43,395.82,140.41Zm-5.55,24.73h.24q-.45-3.62-.89-7.26c-1.2,2.1-2.42,4.2-3.64,6.28A14,14,0,0,0,390.27,165.14Zm-1.34-13.21c-.18-1.62-.36-3.24-.53-4.86-.26-2.36-.48-4.72-.59-7.09a29.08,29.08,0,0,1-.1-4,14.76,14.76,0,0,0-2.17.68,14.5,14.5,0,0,0-3.1,1.88l-.29.24c.13,1,.11,2.05.19,3,.17,2.09.31,4.18.5,6.27.22,2.5.5,5,.89,7.48.21,1.32.5,2.64.79,4Q386.74,155.74,388.93,151.93Zm-8.14,8.71c-.28-1.57-.48-3.17-.7-4.68a69.53,69.53,0,0,1-.76-7.61,39.43,39.43,0,0,1,.25-6.52,2.51,2.51,0,0,1,0-.27,15.25,15.25,0,0,0-3,7.95A14.81,14.81,0,0,0,380.79,160.64Z" transform="translate(-9.97 -53.27)"/><path d="M408.73,116.84c.11.15-.1.34-.25.25-.75-.44-1.46-1.18-2.12.13a6.7,6.7,0,0,0-.27,1.68c-.19,1.17-.38,2.34-.66,3.5-.18.72-1.22.4-1.1-.31.19-1.17.46-2.33.74-3.48a6,6,0,0,1,.79-2.41C406.75,115.16,408.09,116,408.73,116.84Z" transform="translate(-9.97 -53.27)"/><path class="cls-4" d="M405.41,146.31a14,14,0,0,1,.58,5.3,14.76,14.76,0,0,1-9.35,12.52c.79-1.21,1.53-2.46,2.25-3.63a65.46,65.46,0,0,0,3.91-7.17,42.51,42.51,0,0,0,2.36-6.16C405.24,146.89,405.33,146.61,405.41,146.31Z" transform="translate(-9.97 -53.27)"/><path class="cls-4" d="M404,143.22c-.6,1-1,2.1-1.54,3.07-1,1.82-1.88,3.67-2.86,5.49-1.14,2.14-2.33,4.27-3.6,6.34-.73,1.19-1.56,2.35-2.38,3.5q-.54-4.44-1.07-8.9L395,148.4c1.17-2.06,2.28-4.14,3.31-6.28a34.81,34.81,0,0,0,1.59-3.44A15.37,15.37,0,0,1,404,143.22Z" transform="translate(-9.97 -53.27)"/><path d="M398.42,83.89a.07.07,0,0,1,.1.11c-2.26,2.65-6.14,3.35-9.14,4.83-4.53,2.22-8.91,4.79-13.52,6.83-.22.1-.41-.19-.19-.32a137.56,137.56,0,0,1,13.05-6.75C392,87.05,395.73,86.4,398.42,83.89Z" transform="translate(-9.97 -53.27)"/><path d="M397.37,192.29a.6.6,0,0,1,0,.32c0,.18-.33.49-.87.91a6,6,0,0,1-1.54.88,4.07,4.07,0,0,1-2.33.28,2.09,2.09,0,0,1-1.28-.75,2,2,0,0,1-.32-.73,4.29,4.29,0,0,1-.49.35,2.45,2.45,0,0,1-1.76.33,1.78,1.78,0,0,1-.9-.47,1.22,1.22,0,0,1-.24-.35,1.49,1.49,0,0,1-.11-.91,1.84,1.84,0,0,1,.19-.49l.66-1.11a2.36,2.36,0,0,0,.15-.25,4.65,4.65,0,0,1-1.41-.05l-.11,0a8.83,8.83,0,0,1-1.91,1.72,6,6,0,0,1-.87.5,3.47,3.47,0,0,1-1.06.29l0-1a2.41,2.41,0,0,0,1-.41,5.79,5.79,0,0,0,.89-.6,8.88,8.88,0,0,0,1-.93h0a1.82,1.82,0,0,1-.31-.31,1.51,1.51,0,0,1-.31-1.22,1.13,1.13,0,0,1,.44-.68,1.34,1.34,0,0,1,1.12-.26,1.16,1.16,0,0,1,.6.31,1.22,1.22,0,0,1,.31,1.21,2.32,2.32,0,0,1-.15.47,5.83,5.83,0,0,0,1.48-.14l.09-.14.55-.92a4.17,4.17,0,0,1,.39-.6.46.46,0,0,1,.44-.12.56.56,0,0,1,.31.17.51.51,0,0,1,.1.44,4.38,4.38,0,0,1-.38.71l-1.9,3.18a2.06,2.06,0,0,0-.26.51.31.31,0,0,0,.05.28.56.56,0,0,0,.38.21,1.35,1.35,0,0,0,.91-.15,1.86,1.86,0,0,0,.46-.31,6.18,6.18,0,0,0,1-1.08l.06-.08.06-.05a3.93,3.93,0,0,1,.26-.41,6.36,6.36,0,0,1,1.18-1.26,2.42,2.42,0,0,1,2-.63,1.54,1.54,0,0,1,.87.5,1,1,0,0,1,.19.3,1.39,1.39,0,0,1,.11.89v0a1.81,1.81,0,0,1-.6,1,2.89,2.89,0,0,1-.73.48,6.53,6.53,0,0,1-1.11.38,3.66,3.66,0,0,1-1.41.07l-.15,0a1.35,1.35,0,0,0,0,.38.91.91,0,0,0,.82.8,3.38,3.38,0,0,0,2.23-.44,5.33,5.33,0,0,0,1.46-1.11A.51.51,0,0,1,397,192,.53.53,0,0,1,397.37,192.29Zm-2.31-1.89a.38.38,0,0,0-.09-.35.51.51,0,0,0-.28-.15,1.61,1.61,0,0,0-1.21.49,5.29,5.29,0,0,0-1,1.13,1.76,1.76,0,0,0,.47,0,3.78,3.78,0,0,0,1.59-.52A1,1,0,0,0,395.06,190.4Zm-8.14-1.8c0-.17,0-.27-.13-.29a.34.34,0,0,0-.24,0,.2.2,0,0,0-.08.12.42.42,0,0,0,.07.26.78.78,0,0,0,.22.26A1.46,1.46,0,0,0,386.92,188.6Z" transform="translate(-9.97 -53.27)"/><path class="cls-4" d="M397.93,137.43a27.72,27.72,0,0,0-2.11,3c-1.36,2-2.61,4.1-3.83,6.21a1.18,1.18,0,0,1-.11.19c-.27-2.35-.58-4.69-1-7a27.59,27.59,0,0,0-.86-4.11,14,14,0,0,1,1.83,0A15.4,15.4,0,0,1,397.93,137.43Z" transform="translate(-9.97 -53.27)"/><path d="M392.09,186a.56.56,0,0,1,.08.39.77.77,0,0,1-.12.24,2.14,2.14,0,0,1-.35.48.47.47,0,0,1-.42.1.51.51,0,0,1-.33-.23.52.52,0,0,1-.08-.38.81.81,0,0,1,.12-.25,4.64,4.64,0,0,1,.26-.39.38.38,0,0,1,.11-.11.54.54,0,0,1,.73.15Z" transform="translate(-9.97 -53.27)"/><path d="M391.47,113.33a5.91,5.91,0,0,1-.17,2.64c-.18,1.18-.37,2.36-.64,3.52-.17.73-1.22.4-1.1-.31.19-1.2.46-2.4.74-3.59a5.77,5.77,0,0,0,.37-1.76c-.18-1.13-1.29-.71-1.92-.63a.18.18,0,0,1-.14-.33C389.51,112.3,391,112.09,391.47,113.33Z" transform="translate(-9.97 -53.27)"/><path class="cls-4" d="M390.51,165.14h-.24a14,14,0,0,1-4.29-1c1.22-2.08,2.44-4.18,3.64-6.28Q390.06,161.53,390.51,165.14Z" transform="translate(-9.97 -53.27)"/><path d="M390.17,68.49c.11,0,.13.17,0,.2-6.47,1.84-12.43,4.8-18.54,7.55-5.71,2.57-11.63,4.83-17,8,0,0-.09,0,0-.07,5.59-3.56,11.58-6.2,17.57-9C377.91,72.54,383.78,69.32,390.17,68.49Z" transform="translate(-9.97 -53.27)"/><path class="cls-4" d="M388.4,147.07c.17,1.62.35,3.24.53,4.86q-2.19,3.81-4.41,7.62c-.29-1.33-.58-2.65-.79-4-.39-2.48-.67-5-.89-7.48-.19-2.09-.33-4.18-.5-6.27-.08-1-.06-2-.19-3l.29-.24a14.5,14.5,0,0,1,3.1-1.88,14.76,14.76,0,0,1,2.17-.68,29.08,29.08,0,0,0,.1,4C387.92,142.35,388.14,144.71,388.4,147.07Z" transform="translate(-9.97 -53.27)"/><path d="M388.16,92.8c.17-.16.44.1.26.27A10.66,10.66,0,0,1,384,95.46c-.16,0-.26-.2-.11-.27C385.3,94.46,387,93.89,388.16,92.8Z" transform="translate(-9.97 -53.27)"/><path class="cls-2" d="M386.79,188.31c.12,0,.16.12.13.29a1.46,1.46,0,0,1-.16.39.78.78,0,0,1-.22-.26.42.42,0,0,1-.07-.26.2.2,0,0,1,.08-.12A.34.34,0,0,1,386.79,188.31Z" transform="translate(-9.97 -53.27)"/><path d="M385,187.26a.5.5,0,0,1,.1.42.54.54,0,0,1-.24.34,4.23,4.23,0,0,0-1.19,1.38,4.57,4.57,0,0,0-.5,1.35,2,2,0,0,0,0,1h0l0,1a1.22,1.22,0,0,1-.34,0q-.6-.12-.75-.93a2.6,2.6,0,0,1,0-.79,5.51,5.51,0,0,1-1.08.55,4.05,4.05,0,0,1-2.33.28,2.12,2.12,0,0,1-1.28-.75,2.08,2.08,0,0,1-.3-.68l-.21.17a2.54,2.54,0,0,1-2,.48,1.58,1.58,0,0,1-1-.61,1.38,1.38,0,0,1-.24-1.11,1.66,1.66,0,0,1,.19-.48l.2-.34,1.78-3.14a2.88,2.88,0,0,0-.83-.05h-.27a.56.56,0,0,1-.31-.2.55.55,0,0,1-.09-.42.48.48,0,0,1,.19-.31.62.62,0,0,1,.22-.1,3.79,3.79,0,0,1,1.33.05l.29.08.94-1.67a.52.52,0,0,1,.26-.23.48.48,0,0,1,.31,0,.45.45,0,0,1,.32.22.51.51,0,0,1,.08.39.6.6,0,0,1-.09.21l-.8,1.44a2.63,2.63,0,0,0,.43.12l.29,0,.07,0a.47.47,0,0,1,.33.22.49.49,0,0,1,.08.39.55.55,0,0,1-.21.32.54.54,0,0,1-.24.09,1.83,1.83,0,0,1-.54,0c-.19,0-.43-.12-.73-.23-.82,1.47-1.52,2.71-2.12,3.72a.65.65,0,0,0-.05.15.31.31,0,0,0,.06.3.64.64,0,0,0,.37.2,1.67,1.67,0,0,0,1.43-.51,6.12,6.12,0,0,0,.86-1,5.39,5.39,0,0,1,.37-.63,6.1,6.1,0,0,1,1.18-1.26,2.44,2.44,0,0,1,2-.63,1.54,1.54,0,0,1,.86.5,1.31,1.31,0,0,1,.2.3,1.52,1.52,0,0,1,.11.89v0a1.93,1.93,0,0,1-.6,1,3,3,0,0,1-.74.48,6.53,6.53,0,0,1-1.11.38,3.4,3.4,0,0,1-1.4.06l-.16,0a1.53,1.53,0,0,0,0,.39.91.91,0,0,0,.82.8,3.42,3.42,0,0,0,2.22-.44,5.58,5.58,0,0,0,1.46-1.11l0,0a5.48,5.48,0,0,1,1.62-2.05.62.62,0,0,1,.47-.12A.51.51,0,0,1,385,187.26Zm-3.92.28a.4.4,0,0,0-.08-.35.64.64,0,0,0-.29-.16,1.67,1.67,0,0,0-1.21.5,4.77,4.77,0,0,0-1,1.13,1.68,1.68,0,0,0,.46,0,3.65,3.65,0,0,0,1.6-.53A1,1,0,0,0,381.1,187.54Z" transform="translate(-9.97 -53.27)"/><path d="M384.28,112.28a5.81,5.81,0,0,1-.17,2.65c-.18,1.18-.37,2.35-.64,3.51-.17.73-1.21.41-1.1-.3.19-1.21.46-2.4.74-3.59a5.56,5.56,0,0,0,.38-1.76c-.19-1.13-1.3-.72-1.93-.63a.19.19,0,0,1-.14-.34C382.32,111.25,383.82,111.05,384.28,112.28Z" transform="translate(-9.97 -53.27)"/><path class="cls-4" d="M380.09,156c.22,1.51.42,3.11.7,4.68a14.81,14.81,0,0,1-4.14-11.13,15.25,15.25,0,0,1,3-7.95,2.51,2.51,0,0,0,0,.27,39.43,39.43,0,0,0-.25,6.52A69.53,69.53,0,0,0,380.09,156Z" transform="translate(-9.97 -53.27)"/><path d="M377.51,77.42a.14.14,0,0,1,.13.23,26.58,26.58,0,0,1-4.22,2.49,10.34,10.34,0,0,1-3.85,1.3c-.05,0-.07-.08,0-.09C372.51,80.91,374.79,78.47,377.51,77.42Z" transform="translate(-9.97 -53.27)"/><path d="M377.1,111a6,6,0,0,1-.18,2.65c-.18,1.18-.37,2.36-.63,3.52-.17.73-1.21.4-1.1-.31.19-1.2.46-2.4.74-3.59a5.77,5.77,0,0,0,.37-1.76c-.18-1.13-1.29-.72-1.92-.63a.18.18,0,0,1-.14-.33C375.14,109.93,376.63,109.73,377.1,111Z" transform="translate(-9.97 -53.27)"/><path d="M375.79,179.2a1.91,1.91,0,0,1,.41,1.62,1.77,1.77,0,0,1-1,1.33,2.92,2.92,0,0,1-1.78.12,1.65,1.65,0,0,1-.48-.14.51.51,0,0,1-.22-.31.59.59,0,0,1,0-.23.51.51,0,0,1,.32-.37.45.45,0,0,1,.3,0l.31.08a1.66,1.66,0,0,0,1.24-.12.74.74,0,0,0,.33-.5,1,1,0,0,0-.24-.84,2.49,2.49,0,0,0-2.48-.61,1,1,0,0,0-.48.28,1.2,1.2,0,0,0-.41.71,2.94,2.94,0,0,0,.22,1.74,15,15,0,0,0,1,1.86,10,10,0,0,1,.57,1.11,5,5,0,0,1,.34,3,4.19,4.19,0,0,1-1.77,2.62,4.79,4.79,0,0,1-1.58.7,4.34,4.34,0,0,1-1.9,0,4.15,4.15,0,0,1-2.16-1.12,3,3,0,0,1-.49-.66,3.32,3.32,0,0,1-.34-2.32,3.77,3.77,0,0,1,.74-1.58,4,4,0,0,1,.7-.65,3.2,3.2,0,0,1,2.49-.52,2.86,2.86,0,0,1,1.15.52,2.41,2.41,0,0,1,.91,1.62,3.33,3.33,0,0,1,0,1,4.84,4.84,0,0,1-.14.49.6.6,0,0,1-.25.25.53.53,0,0,1-.33,0,.54.54,0,0,1-.36-.27.59.59,0,0,1-.05-.34,3.69,3.69,0,0,0,.1-.38,1.69,1.69,0,0,0-.17-1.27,1.56,1.56,0,0,0-1-.67,2.13,2.13,0,0,0-1.14.08,2.31,2.31,0,0,0-1.21,1,2.74,2.74,0,0,0-.33.86,2.45,2.45,0,0,0,.07,1.29,2.22,2.22,0,0,0,.93,1.13,3.6,3.6,0,0,0,3.25.23,3.49,3.49,0,0,0,.74-.42,3.2,3.2,0,0,0,1.21-1.9,4,4,0,0,0-.15-2,10.46,10.46,0,0,0-.87-1.74,12.57,12.57,0,0,1-.91-1.8,4,4,0,0,1-.19-2.15,3,3,0,0,1,.25-.69,2.4,2.4,0,0,1,1.71-1.17,3.56,3.56,0,0,1,1.38,0A3.33,3.33,0,0,1,375.79,179.2Z" transform="translate(-9.97 -53.27)"/><path d="M371.53,69.16c.09-.07.18.09.09.16a15.78,15.78,0,0,1-6.16,3.28.1.1,0,0,1-.06-.2A22,22,0,0,0,371.53,69.16Z" transform="translate(-9.97 -53.27)"/><path d="M369.92,109.38a5.91,5.91,0,0,1-.17,2.64c-.19,1.18-.37,2.36-.64,3.52-.17.73-1.21.4-1.1-.3.19-1.21.46-2.41.74-3.6a5.77,5.77,0,0,0,.37-1.76c-.18-1.12-1.29-.71-1.92-.63a.18.18,0,0,1-.14-.33C368,108.35,369.45,108.14,369.92,109.38Z" transform="translate(-9.97 -53.27)"/><path d="M360.88,106.55c1.31,1.53.24,4.89-.51,6.45-1,2.12-3.51,1.12-5.44.87-1.6-.21-3.19-.46-4.79-.76a17,17,0,0,1-4.22-1,2.26,2.26,0,0,1-1.14-1.12.23.23,0,0,1-.15-.23v-.24a5.28,5.28,0,0,1,0-1.94c0-1.85.28-4,1.56-4.81,1.81-1.15,5.5,0,7.38.44,1.53.34,3,.75,4.55,1.17C359,105.64,360.23,105.79,360.88,106.55Zm-1,4.17a6.25,6.25,0,0,0,.3-2.39c-.34-1.53-1.84-1.66-3-2A51.45,51.45,0,0,0,352,105c-1.89-.37-4.94-1.37-6.08.94a8.12,8.12,0,0,0-.35,2.34c-.07.5-.14,1-.22,1.49.45,1.94,3.1,1.89,4.77,2.21q2.82.52,5.67.87a8.78,8.78,0,0,0,2.76.29C359.48,112.77,359.7,111.56,359.89,110.72Z" transform="translate(-9.97 -53.27)"/><path class="cls-7" d="M360.19,108.33a6.25,6.25,0,0,1-.3,2.39c-.19.84-.41,2-1.36,2.41a8.78,8.78,0,0,1-2.76-.29q-2.85-.34-5.67-.87c-1.67-.32-4.32-.27-4.77-2.21.08-.5.15-1,.22-1.49a8.12,8.12,0,0,1,.35-2.34c1.14-2.31,4.19-1.31,6.08-.94a51.45,51.45,0,0,1,5.2,1.33C358.35,106.67,359.85,106.8,360.19,108.33Z" transform="translate(-9.97 -53.27)"/><path d="M354.21,135.87a15.51,15.51,0,0,1-1.56,12.54,13,13,0,0,1-10.07,6.4c-3.33.3-7.43-.66-9.65-3.35-6.07-4.66-6.15-13.62-2.27-19.88a12.13,12.13,0,0,1,6.56-5.43,10.81,10.81,0,0,1,5.8-.84,9.89,9.89,0,0,1,3.62,1.23,10.06,10.06,0,0,1,4.49,3.46A18.14,18.14,0,0,1,354.21,135.87ZM351.3,147a13.57,13.57,0,0,0,1.4-8.87,17.15,17.15,0,0,1-.82,6.46,14,14,0,0,1-9,8.74h0A12.21,12.21,0,0,0,351.3,147Zm-8.83-19.22a8.49,8.49,0,0,1,6.14,4.65c-1.56-3.34-4.41-5.79-8.68-5.48a10.39,10.39,0,0,0-8,5.25,14.37,14.37,0,0,0-1.16,2.4c0,.1-.07.2-.1.3l-.06.16c-.08.23-.15.45-.21.68a15,15,0,0,0-.58,3.8,14.42,14.42,0,0,1,2.42-7,9.9,9.9,0,0,1,4.93-4A9,9,0,0,1,342.47,127.8Zm.58,19.93c5.36-3.2,6.17-12.7,1.35-16.8-2.93-2.5-7.36-1.71-9.88.94a10.57,10.57,0,0,0-2.19,3.57,14.24,14.24,0,0,0-.73,3.24,9.74,9.74,0,0,0,2.89,8.29A7.11,7.11,0,0,0,343.05,147.73Zm-5.45,3.57c4.06.91,7.67-1.09,9.94-4.18-3.14,3.83-8.75,5.51-13.17,2.49a10.21,10.21,0,0,1-3.17-3.46A9.36,9.36,0,0,0,337.6,151.3Z" transform="translate(-9.97 -53.27)"/><path class="cls-3" d="M350.69,66.26l-1.2,1.59c-1.92,2.53-3.85,5-5.69,7.62s-3.58,5.19-5.16,7.92c-1.13,2-2.63,4.33-3.11,6.65a10.29,10.29,0,0,0-1.76.06c1.48-2.08,2.23-4.79,3.48-7a65.24,65.24,0,0,1,4.91-7.42c1.89-2.5,4.16-4.73,6.26-7.06C349.11,67.82,349.9,67.05,350.69,66.26Z" transform="translate(-9.97 -53.27)"/><path d="M350.6,119.88l-.13.74c-4.42-.79-8.85-1.6-13.26-2.45h-.61c-3.05.14-4.46,2.11-5.68,4.75a97.17,97.17,0,0,0-3.93,10l-.69-.23c.44-1.36.9-2.71,1.4-4a49.9,49.9,0,0,1,3.5-8.28,5.85,5.85,0,0,1,4.45-3.09c4.24-.59,8.36,1.25,12.42,2.12Z" transform="translate(-9.97 -53.27)"/><path class="cls-6" d="M344.4,130.93c4.82,4.1,4,13.6-1.35,16.8a7.11,7.11,0,0,1-8.56-.76,9.74,9.74,0,0,1-2.89-8.29,14.24,14.24,0,0,1,.73-3.24,10.57,10.57,0,0,1,2.19-3.57C337,129.22,341.47,128.43,344.4,130.93Zm-4.66,8.36c0-.1-.14-.11-.16,0-.38,1.59-1.06,3.3-.83,5,0,.28.43.17.46-.06C339.41,142.54,339.55,140.9,339.74,139.29Zm-1.65-2.64c.14-.3-.29-.56-.44-.26a17.62,17.62,0,0,0-1.59,9.55c0,.15.27.21.3,0C336.79,142.8,336.7,139.62,338.09,136.65Zm-1.57-4.11c0-.13-.2-.16-.22,0-.79,4.14-3.82,7.79-3.24,12.17a.13.13,0,0,0,.25,0C333.56,140.34,336.06,136.77,336.52,132.54Z" transform="translate(-9.97 -53.27)"/><path d="M339.58,139.26c0-.08.17-.07.16,0-.19,1.61-.33,3.25-.53,4.86,0,.23-.42.34-.46.06C338.52,142.56,339.2,140.85,339.58,139.26Z" transform="translate(-9.97 -53.27)"/><path d="M337.65,136.39c.15-.3.58,0,.44.26-1.39,3-1.3,6.15-1.73,9.33,0,.17-.28.11-.3,0A17.62,17.62,0,0,1,337.65,136.39Z" transform="translate(-9.97 -53.27)"/><path d="M337.7,92.74a.08.08,0,0,1,.07.15c-.62.46-1.31.77-1.9,1.26a6.27,6.27,0,0,0-1.43,1.73.13.13,0,0,1-.22-.13A5.23,5.23,0,0,1,337.7,92.74Z" transform="translate(-9.97 -53.27)"/><path d="M336.3,132.51c0-.13.23-.1.22,0-.46,4.23-3,7.8-3.21,12.14a.13.13,0,0,1-.25,0C332.48,140.3,335.51,136.65,336.3,132.51Z" transform="translate(-9.97 -53.27)"/><path class="cls-8" d="M326.54,185.9h-.06l.2,0,1.19.23,3.73.72,1.25.24a40.34,40.34,0,0,0-1.57,6.53c-.26,1.29-.46,2.63-.82,3.9a7.07,7.07,0,0,1-.72,1.61c-.29.36-.6.7-.88,1a5,5,0,0,1-1.56.33l-.15-.47a15.31,15.31,0,0,0-.5-1.94s-.08,0-.1,0a4.15,4.15,0,0,0,.1,1.91l.09.49h-.32l-.87-.1a7.53,7.53,0,0,1-.9-4.14c0-.16-.26-.2-.29,0a7.43,7.43,0,0,0,.35,4c-.47-.09-1-.21-1.46-.35a10.86,10.86,0,0,1-1.12-5.51c0-.06-.08-.05-.08,0a11.9,11.9,0,0,0,.57,5.32,7.21,7.21,0,0,1-3.24-1.9c-1.55-1.89-1-5.4-1.08-7.66a37.57,37.57,0,0,1,.05-4.11c.07-.92.27-1.85.25-2.77.66.33,1.34.63,2,.9l0,0c-1.72,2.14-1.2,6.16-.71,8.66,0,.14.22.08.2-.05a16.46,16.46,0,0,1,.78-8.41.2.2,0,0,0,0-.15A33.19,33.19,0,0,0,326,185.8l.25,0Zm.11,0-.11,0Zm-1.85,0c0-.15-.22-.21-.28-.08a8.11,8.11,0,0,0-.78,3.72.25.25,0,0,0,.5,0C324.28,188.35,324.65,187.16,324.8,185.94Zm-3.34,4.24c0,.1.19.08.17,0a23.63,23.63,0,0,1-.26-3.66c0-.08-.14-.11-.15,0A9.27,9.27,0,0,0,321.46,190.18Z" transform="translate(-9.97 -53.27)"/><path class="cls-2" d="M331.54,90.8a5.83,5.83,0,0,0-1.23.88.6.6,0,0,0-.08.08,24.73,24.73,0,0,0-4.79-7c.54.49,1.07,1,1.58,1.53C328.52,87.81,330,89.36,331.54,90.8Z" transform="translate(-9.97 -53.27)"/><path d="M326.65,185.93l-.11,0Z" transform="translate(-9.97 -53.27)"/><path d="M324.52,185.86c.06-.13.3-.07.28.08-.15,1.22-.52,2.41-.56,3.64a.25.25,0,0,1-.5,0A8.11,8.11,0,0,1,324.52,185.86Z" transform="translate(-9.97 -53.27)"/><path class="cls-2" d="M324.57,79.82A4.31,4.31,0,0,1,324,82a21,21,0,0,0-2.51-1.88c-.42-.27-.83.25-.64.64a16.67,16.67,0,0,0,1.38,2.3,1.07,1.07,0,0,0-.49.26c-2.5,2.19-5.53-1.3-6.09-3.62-.46-1.89-.53-4.63.84-6.2,2.12-2.44,6,.69,7.14,2.65A7.31,7.31,0,0,1,324.57,79.82Z" transform="translate(-9.97 -53.27)"/><path d="M321.63,190.16c0,.1-.15.12-.17,0a9.27,9.27,0,0,1-.24-3.7c0-.09.15-.06.15,0A23.63,23.63,0,0,0,321.63,190.16Z" transform="translate(-9.97 -53.27)"/></svg>