<svg id="Layer_1" data-name="Layer 1" xmlns="http://www.w3.org/2000/svg" viewBox="0 0 57.04 29.25"><defs><style>.cls-1{fill:#fff;}.cls-2{fill:#d1d3d4;}.cls-3{fill:none;}.cls-4{fill:#fbb040;}.cls-5{fill:#f5fbfb;}.cls-6{fill:#fefbd6;}.cls-7{fill:#bc8430;}.cls-8{fill:#58595b;}</style></defs><title>stevie-menu-logo-60px</title><polygon class="cls-1" points="52.18 3.59 52.7 5.98 52.81 7.29 53.05 7.38 53.09 7.17 53.09 6.32 52.89 5.25 52.43 3.69 52.18 3.59"/><path d="M9.43,39a.64.64,0,0,1-.53-.29.88.88,0,0,1-.13-.49,2.73,2.73,0,0,1,.28-1.07,2.53,2.53,0,0,0,.26-.94c0-.31-.14-.47-.43-.47a1.47,1.47,0,0,0-.7.23,2,2,0,0,0-.68.68c-.32.66-.67,1.39-1,2.2a.27.27,0,0,1-.24.15l-.12,0A.27.27,0,0,1,6,38.68a.59.59,0,0,1,0-.19,1.42,1.42,0,0,1-.83.29.71.71,0,0,1-.64-.34,1.15,1.15,0,0,1-.16-.64,2.17,2.17,0,0,1,.22-1l0-.05c.49-1.07,1-2.12,1.57-3.15l-.06,0-.53-.41c-.23-.19-.46-.36-.68-.52a4,4,0,0,0-.64-.38,1.49,1.49,0,0,0-.63-.15,1.35,1.35,0,0,0-.94.44.24.24,0,0,1-.18.07.24.24,0,0,1-.19-.08.29.29,0,0,1-.08-.18.27.27,0,0,1,.08-.19,1.79,1.79,0,0,1,1.29-.59,2,2,0,0,1,.82.18,4.59,4.59,0,0,1,.8.46l.76.58.44.34c.78-1.35,1.34-2,1.69-2a.23.23,0,0,1,.2.09.24.24,0,0,1,.07.18.32.32,0,0,1-.06.18.31.31,0,0,1-.2.09,5.31,5.31,0,0,0-1.26,1.79,2.6,2.6,0,0,0,.58.28,3.16,3.16,0,0,0,.77.16l.17-.33.39-.76c.14-.26.3-.52.46-.77a6.16,6.16,0,0,1,.51-.69,2.86,2.86,0,0,1,.57-.49,1.21,1.21,0,0,1,.63-.18.93.93,0,0,1,.64.25.9.9,0,0,1,.25.43,2.32,2.32,0,0,1,.08.58,2.11,2.11,0,0,1-.75,1.59,3.49,3.49,0,0,1-1.2.67,4.82,4.82,0,0,1-1.43.24l-.45.9a1.76,1.76,0,0,1,.76-.2,1,1,0,0,1,.67.24.94.94,0,0,1,.3.76,3,3,0,0,1-.3,1.17,2.21,2.21,0,0,0-.24.85.3.3,0,0,0,0,.19.12.12,0,0,0,.09.06.69.69,0,0,0,.46-.25,3.75,3.75,0,0,0,.49-.6,7.22,7.22,0,0,0,.4-.65.27.27,0,0,1,.24-.15l.12,0a.31.31,0,0,1,.14.25.35.35,0,0,1,0,.12l-.16.3c-.08.14-.18.29-.29.46a4.54,4.54,0,0,1-.39.48,2.17,2.17,0,0,1-.47.4A1,1,0,0,1,9.43,39Zm-4.24-.69a1.25,1.25,0,0,0,.75-.4,4.15,4.15,0,0,0,.86-1,1,1,0,0,0,.11-.24l0-.08,1-2.09a3.69,3.69,0,0,1-.76-.18A3.56,3.56,0,0,1,6.63,34c-.58,1.1-1.1,2.14-1.55,3.12a2,2,0,0,0-.17.73C4.91,38.11,5,38.26,5.19,38.26Zm3.65-4.35a3.47,3.47,0,0,0,2-.77,1.63,1.63,0,0,0,.28-.3,1.45,1.45,0,0,0,.21-.39,1.4,1.4,0,0,0,.09-.51,1.78,1.78,0,0,0-.06-.44.35.35,0,0,0-.11-.18.37.37,0,0,0-.26-.1c-.34,0-.71.3-1.13.9A12.89,12.89,0,0,0,9,33.66Z" transform="translate(-2.05 -10.75)"/><path d="M12,38.85h0a1.12,1.12,0,0,1-1.07-.7,2,2,0,0,1-.11-.65A3.19,3.19,0,0,1,11,36.22a3.59,3.59,0,0,1,.7-1.09,1.46,1.46,0,0,1,1-.49,1.09,1.09,0,0,1,.39.08.68.68,0,0,1,.35.29.91.91,0,0,1,.12.47,1.65,1.65,0,0,1-.08.47,2.55,2.55,0,0,1-.39.7,2,2,0,0,1-.65.51,1.8,1.8,0,0,1-.84.2,2.19,2.19,0,0,1-.36,0,.91.91,0,0,0,0,.17c0,.54.23.82.68.82A2.08,2.08,0,0,0,13,37.94a2.62,2.62,0,0,0,.92-1,.28.28,0,0,1,.24-.16.2.2,0,0,1,.11,0,.26.26,0,0,1,.16.24.23.23,0,0,1,0,.11,3,3,0,0,1-1.13,1.27A2.57,2.57,0,0,1,12,38.85Zm-.31-2a1.26,1.26,0,0,0,.65-.17,1.56,1.56,0,0,0,.47-.41,1.34,1.34,0,0,0,.31-.77.51.51,0,0,0,0-.17c0-.09-.14-.14-.3-.14a.91.91,0,0,0-.65.34,3.07,3.07,0,0,0-.71,1.29Z" transform="translate(-2.05 -10.75)"/><path d="M18.22,40h-.06a1.06,1.06,0,0,1-.38-.12,1.58,1.58,0,0,1-.26-.2.08.08,0,0,0,0,0,.21.21,0,0,1-.06-.08.25.25,0,0,1-.06-.16.28.28,0,0,1,.11-.21.33.33,0,0,1,.16,0,.28.28,0,0,1,.21.11h0l.08.07a.48.48,0,0,0,.13.09.3.3,0,0,0,.16,0c.19,0,.38-.21.58-.59.33-.67.72-1.59,1.17-2.75.36-.91.69-1.73,1-2.46s.61-1.35.89-1.86A4.34,4.34,0,0,0,19.81,33a4.41,4.41,0,0,0-.8,1.2,3.11,3.11,0,0,0-.29,1.25v.11a.25.25,0,0,1-.07.19.26.26,0,0,1-.19.08.28.28,0,0,1-.19-.07.37.37,0,0,1-.08-.18v-.11a3.74,3.74,0,0,1,.32-1.46,4.93,4.93,0,0,1,.91-1.38,4.77,4.77,0,0,1,2.8-1.47c.39-.6.76-.91,1.14-.93h0a.25.25,0,0,1,.19.07.26.26,0,0,1,.08.19.26.26,0,0,1-.25.27c-.12,0-.28.12-.47.36a2.2,2.2,0,0,1,1,.31,1.91,1.91,0,0,1,.55.55,2.55,2.55,0,0,1,.34,1.31,4.34,4.34,0,0,1-.52,1.94A4.58,4.58,0,0,1,22.75,37a4.17,4.17,0,0,1-2.12.69.26.26,0,0,1-.27-.27.24.24,0,0,1,.07-.18.31.31,0,0,1,.18-.09,3.6,3.6,0,0,0,1.86-.6A4.22,4.22,0,0,0,23.84,35a3.84,3.84,0,0,0,.46-1.69,2,2,0,0,0-.26-1,1.41,1.41,0,0,0-1.29-.62h-.21c-.14.22-.29.51-.47.85-.27.54-.53,1.13-.8,1.77s-.48,1.18-.8,2c-.45,1.18-.85,2.11-1.19,2.81-.29.54-.62.83-1,.87Z" transform="translate(-2.05 -10.75)"/><path d="M23.72,39a.2.2,0,0,1-.11,0,.28.28,0,0,1-.17-.24.43.43,0,0,1,0-.11c.71-1.72,1.45-3.41,2.21-5.09.22-.46.41-.84.56-1.13s.27-.52.38-.69a2.16,2.16,0,0,1,.25-.35.46.46,0,0,1,.16-.14.34.34,0,0,1,.13,0,.27.27,0,0,1,.2.07.26.26,0,0,1-.1.44,21.09,21.09,0,0,0-1.8,3.6,1.72,1.72,0,0,1,.81-.23,1,1,0,0,1,.64.22,1,1,0,0,1,.32.81A3.13,3.13,0,0,1,27,37.21a2.46,2.46,0,0,0-.2.82c0,.19,0,.28.14.28a.76.76,0,0,0,.45-.28,3.68,3.68,0,0,0,.47-.6,5.05,5.05,0,0,0,.36-.68.26.26,0,0,1,.24-.16.24.24,0,0,1,.12,0,.25.25,0,0,1,.15.24.36.36,0,0,1,0,.1,5.35,5.35,0,0,1-1.12,1.62,1.1,1.1,0,0,1-.65.26.63.63,0,0,1-.52-.27.91.91,0,0,1-.15-.54,3,3,0,0,1,.23-1,2.51,2.51,0,0,0,.22-.91c0-.33-.14-.5-.42-.5a1.35,1.35,0,0,0-.7.26,2,2,0,0,0-.67.72L24,38.82A.27.27,0,0,1,23.72,39Z" transform="translate(-2.05 -10.75)"/><path d="M29.18,38.89a1,1,0,0,1-.82-.41,1.74,1.74,0,0,1-.29-1,2.54,2.54,0,0,1,.12-.78,3.27,3.27,0,0,1,.87-1.38,1.81,1.81,0,0,1,1.21-.55,1,1,0,0,1,.86.49,1.76,1.76,0,0,1,.2.83,3,3,0,0,1-.14.87,3.65,3.65,0,0,1-.34.81l-.05.09h.05a.61.61,0,0,0,.42-.17,2,2,0,0,0,.4-.45,6.66,6.66,0,0,0,.38-.59.28.28,0,0,1,.23-.14.22.22,0,0,1,.13,0,.26.26,0,0,1,.13.23.31.31,0,0,1,0,.13c-.14.25-.29.48-.45.71a2.44,2.44,0,0,1-.55.56,1.09,1.09,0,0,1-.66.22,1,1,0,0,1-.41-.08A1.71,1.71,0,0,1,29.18,38.89Zm0-.53a1.21,1.21,0,0,0,.88-.43v0a.7.7,0,0,1-.05-.25.86.86,0,0,1,.17-.49,1.45,1.45,0,0,1,.47-.41l0,0h0a2.74,2.74,0,0,0,.09-.66,1.16,1.16,0,0,0-.12-.56.42.42,0,0,0-.4-.23,1.3,1.3,0,0,0-.89.45,2.85,2.85,0,0,0-.68,1.11,2.29,2.29,0,0,0-.1.62,1.19,1.19,0,0,0,.19.71A.45.45,0,0,0,29.18,38.36Z" transform="translate(-2.05 -10.75)"/><path d="M32.52,38.86a.72.72,0,0,1-.64-.34,1.15,1.15,0,0,1-.16-.64,2.1,2.1,0,0,1,.22-1c.57-1.23,1.05-2.21,1.46-3h-.17a1.55,1.55,0,0,0-.31,0h-.07a.26.26,0,0,1-.25-.19.2.2,0,0,1,0-.07.3.3,0,0,1,0-.16.33.33,0,0,1,.14-.1,2.3,2.3,0,0,1,.45,0,3.15,3.15,0,0,1,.44,0c.78-1.4,1.33-2.14,1.67-2.22l.14,0a.27.27,0,0,1,.19.08.26.26,0,0,1,.08.19.24.24,0,0,1-.07.18.31.31,0,0,1-.18.09c-.08,0-.22.16-.42.43a13,13,0,0,0-.83,1.33h.11a1.24,1.24,0,0,0,.33,0h.07a.23.23,0,0,1,.16.06.25.25,0,0,1,.11.21.27.27,0,0,1-.06.16.23.23,0,0,1-.14.09,2,2,0,0,1-.48.06A2.42,2.42,0,0,1,34,34c-.42.77-.94,1.81-1.55,3.12a2,2,0,0,0-.17.74c0,.29.09.44.27.44a1.48,1.48,0,0,0,1-.57,4.7,4.7,0,0,0,.65-.85.28.28,0,0,1,.23-.14.25.25,0,0,1,.14,0,.27.27,0,0,1,.12.23.31.31,0,0,1,0,.13l0,0a1.64,1.64,0,0,1-.13.19,3,3,0,0,1-.31.43,4,4,0,0,1-.45.48,3,3,0,0,1-.55.39A1.31,1.31,0,0,1,32.52,38.86Z" transform="translate(-2.05 -10.75)"/><path d="M35.19,38.89a1,1,0,0,1-.82-.41,1.74,1.74,0,0,1-.29-1,2.54,2.54,0,0,1,.12-.78,3.27,3.27,0,0,1,.87-1.38,1.81,1.81,0,0,1,1.21-.55,1,1,0,0,1,.86.49,1.76,1.76,0,0,1,.2.83,3,3,0,0,1-.14.87,3.65,3.65,0,0,1-.34.81l0,.09h0a.64.64,0,0,0,.43-.17,2,2,0,0,0,.4-.45,6.66,6.66,0,0,0,.38-.59.28.28,0,0,1,.23-.14.22.22,0,0,1,.13,0,.26.26,0,0,1,.13.23.31.31,0,0,1,0,.13c-.14.25-.29.48-.45.71a2.44,2.44,0,0,1-.55.56,1.12,1.12,0,0,1-.67.22,1,1,0,0,1-.4-.08A1.71,1.71,0,0,1,35.19,38.89Zm0-.53a1.21,1.21,0,0,0,.88-.43v0a.7.7,0,0,1-.05-.25.86.86,0,0,1,.17-.49,1.35,1.35,0,0,1,.47-.41l0,0h0a2.74,2.74,0,0,0,.09-.66,1.16,1.16,0,0,0-.12-.56.42.42,0,0,0-.4-.23,1.3,1.3,0,0,0-.89.45,2.85,2.85,0,0,0-.68,1.11,2.29,2.29,0,0,0-.1.62,1.19,1.19,0,0,0,.19.71A.45.45,0,0,0,35.19,38.36Z" transform="translate(-2.05 -10.75)"/><path d="M44.57,39.13l-.51,0a5.9,5.9,0,0,1-.87-.15l-.55-.19-.14-.06A.69.69,0,0,1,42,39h-.09a.56.56,0,0,1-.38-.16.42.42,0,0,1-.11-.29.54.54,0,0,1,.19-.4A.56.56,0,0,1,42,38a2,2,0,0,1,.32,0c.21-.37.52-1,.91-1.87s.62-1.34.9-1.87a6.7,6.7,0,0,1,.79-1.24,1.07,1.07,0,0,1,.78-.44h.05a.31.31,0,0,1,.18.09.28.28,0,0,1,.06.18.22.22,0,0,1-.08.19.24.24,0,0,1-.18.07h0c-.19,0-.47.31-.85.94a24.74,24.74,0,0,0-1.13,2.3c-.35.78-.64,1.39-.88,1.82l0,0,.5.17a6.36,6.36,0,0,0,.77.13l.44,0a3,3,0,0,0,1.26-.25,1.75,1.75,0,0,0,.81-.73,1.5,1.5,0,0,0,.19-.73,1.17,1.17,0,0,0-.21-.69,1,1,0,0,0-.84-.39,2.08,2.08,0,0,0-.41,0,2.17,2.17,0,0,1-.53.1.22.22,0,0,1-.2-.09.26.26,0,0,1-.07-.18.27.27,0,0,1,.18-.26l.43-.1a2.84,2.84,0,0,0,1.31-.61,3.37,3.37,0,0,0,.83-1,2.5,2.5,0,0,0,.29-1.08,1.08,1.08,0,0,0-.2-.68,1.1,1.1,0,0,0-.87-.28,3,3,0,0,0-1,.18,4,4,0,0,0-1,.53A4.89,4.89,0,0,0,43.11,34a5.86,5.86,0,0,0-.67,2.23.28.28,0,0,1-.09.17.26.26,0,0,1-.17.07.31.31,0,0,1-.2-.09.27.27,0,0,1-.07-.18v0a6.51,6.51,0,0,1,.74-2.43,5.36,5.36,0,0,1,1.57-1.8,4.7,4.7,0,0,1,1.15-.6,3.46,3.46,0,0,1,1.15-.21,3.1,3.1,0,0,1,.62.07,1.25,1.25,0,0,1,.73.49,1.56,1.56,0,0,1,.25.92,3.22,3.22,0,0,1-.46,1.56,3.89,3.89,0,0,1-1.24,1.25,1.45,1.45,0,0,1,.6.47,1.67,1.67,0,0,1,.32,1,2,2,0,0,1-.26,1,2.2,2.2,0,0,1-.73.77A3.07,3.07,0,0,1,44.57,39.13Z" transform="translate(-2.05 -10.75)"/><path d="M48.61,38.72a.88.88,0,0,1-.72-.36,1.15,1.15,0,0,1-.19-.69,7.3,7.3,0,0,1,1.06-2.89l0-.07a.28.28,0,0,1,.23-.14.2.2,0,0,1,.13,0,.27.27,0,0,1,.14.23.35.35,0,0,1,0,.13l0,0c-.22.42-.45.88-.67,1.4a3.45,3.45,0,0,0-.33,1.25.67.67,0,0,0,.09.4.35.35,0,0,0,.29.13h0a1.41,1.41,0,0,0,.79-.45,3.2,3.2,0,0,0,.69-1h0c.15-.42.33-.82.51-1.2s.34-.66.46-.86a.26.26,0,0,1,.22-.13.27.27,0,0,1,.27.26.35.35,0,0,1,0,.14,13,13,0,0,0-.82,1.68,3.78,3.78,0,0,0-.34,1.28.29.29,0,0,0,.06.22s.05,0,.1,0a.54.54,0,0,0,.34-.2,2.79,2.79,0,0,0,.36-.5,4.29,4.29,0,0,0,.29-.56.28.28,0,0,1,.24-.17l.11,0a.27.27,0,0,1,.16.25.36.36,0,0,1,0,.1,4.65,4.65,0,0,1-.26.53,3.14,3.14,0,0,1-.51.7,1,1,0,0,1-.7.37.67.67,0,0,1-.59-.31.8.8,0,0,1-.1-.36,2,2,0,0,1-1.19.67Z" transform="translate(-2.05 -10.75)"/><path d="M52.91,39l-.27,0a1.18,1.18,0,0,1-.77-.52.45.45,0,0,1-.12-.28.23.23,0,0,1,0-.11.25.25,0,0,1,.24-.16.26.26,0,0,1,.24.16.79.79,0,0,0,.2.24,1,1,0,0,0,.31.15h.06a.59.59,0,0,0,.49-.26.73.73,0,0,0,.11-.42,1.75,1.75,0,0,0-.21-.76,3.55,3.55,0,0,0-.28-.46q-.22-.36-.33-.57c-.25.55-.5,1.06-.76,1.53a.28.28,0,0,1-.23.14l-.13,0a.29.29,0,0,1-.14-.23.2.2,0,0,1,0-.13l0-.05c.07-.12.2-.37.38-.75a11.1,11.1,0,0,0,.53-1.2,1.24,1.24,0,0,1,0-.27,1,1,0,0,1,.39-.8.27.27,0,0,1,.17-.06.28.28,0,0,1,.13,0,.27.27,0,0,1,.13.24v0a4.82,4.82,0,0,1-.23.86,4.37,4.37,0,0,0,.51,1c.12.18.22.35.31.51a2.24,2.24,0,0,1,.27,1v.1a7.15,7.15,0,0,0,.75-1,.27.27,0,0,1,.23-.13.24.24,0,0,1,.14,0,.26.26,0,0,1,.12.22.28.28,0,0,1,0,.15,6.89,6.89,0,0,1-.87,1.09,2.57,2.57,0,0,1-.75.57A1.47,1.47,0,0,1,52.91,39Z" transform="translate(-2.05 -10.75)"/><path d="M6.06,30.3a4.33,4.33,0,0,1-2.5-.71A3.24,3.24,0,0,1,2.9,29a3.54,3.54,0,0,1-.85-2.37,3.92,3.92,0,0,1,.44-1.8A4.14,4.14,0,0,1,3.08,24a3.42,3.42,0,0,1,2.49-1.07,3,3,0,0,1,1.32.3,2.62,2.62,0,0,1,1.3,1.49,3.34,3.34,0,0,1,.18,1.1,4.26,4.26,0,0,1,0,.54.64.64,0,0,1-.21.32.56.56,0,0,1-.89-.44c0-.17,0-.31,0-.42a1.81,1.81,0,0,0-.45-1.29,1.74,1.74,0,0,0-1.24-.48,2.34,2.34,0,0,0-1.18.33,2.51,2.51,0,0,0-1,1.29,2.93,2.93,0,0,0-.16,1A2.56,2.56,0,0,0,3.52,28a2.41,2.41,0,0,0,1.22,1,3.79,3.79,0,0,0,3.44-.46,3.45,3.45,0,0,0,1.55-2.85,4.31,4.31,0,0,0-.59-2.08,10.8,10.8,0,0,0-1.29-1.64,13.48,13.48,0,0,1-1.34-1.69A4.27,4.27,0,0,1,5.86,18,2.74,2.74,0,0,1,6,17.26a2.55,2.55,0,0,1,1.53-1.6A3.85,3.85,0,0,1,9,15.38a3.49,3.49,0,0,1,2.24.73A2,2,0,0,1,12,17.72a1.91,1.91,0,0,1-.81,1.61,3,3,0,0,1-1.83.52,1.66,1.66,0,0,1-.53-.05.49.49,0,0,1-.3-.28.48.48,0,0,1-.06-.24.55.55,0,0,1,.25-.46.51.51,0,0,1,.3-.1l.34,0a1.82,1.82,0,0,0,1.28-.39.81.81,0,0,0,.24-.6,1,1,0,0,0-.43-.82A2.35,2.35,0,0,0,9,16.5a2.45,2.45,0,0,0-1.26.31,1.25,1.25,0,0,0-.44.4A1.34,1.34,0,0,0,7,18a3.19,3.19,0,0,0,.6,1.78A17.6,17.6,0,0,0,9,21.55a9.92,9.92,0,0,1,.84,1.05,5.37,5.37,0,0,1,1,3.06,4.47,4.47,0,0,1-1.29,3.13A5,5,0,0,1,8,29.86,4.56,4.56,0,0,1,6.06,30.3Z" transform="translate(-2.05 -10.75)"/><path d="M12.81,28.7a1.78,1.78,0,0,1-1.19-.42,1.5,1.5,0,0,1-.48-1.12,1.65,1.65,0,0,1,.09-.54l.14-.4,1.18-3.67a3.39,3.39,0,0,0-.88.12.94.94,0,0,1-.28.06.56.56,0,0,1-.36-.14.55.55,0,0,1-.19-.42.56.56,0,0,1,.14-.36.55.55,0,0,1,.2-.15,3.81,3.81,0,0,1,1.4-.23h.33l.62-2a.62.62,0,0,1,.22-.3.63.63,0,0,1,.32-.1.54.54,0,0,1,.39.17.57.57,0,0,1,.16.4.74.74,0,0,1,0,.23l-.53,1.68a2.88,2.88,0,0,0,.47,0,1.06,1.06,0,0,0,.31,0h.08a.56.56,0,0,1,.39.17.54.54,0,0,1,.17.39.57.57,0,0,1-.15.38,1.14,1.14,0,0,1-.23.15,2.14,2.14,0,0,1-.58.06,5.74,5.74,0,0,1-.81-.07c-.54,1.71-1,3.16-1.42,4.35a.55.55,0,0,0,0,.17.42.42,0,0,0,.13.3.75.75,0,0,0,.43.12,1.76,1.76,0,0,0,1.39-.84A6.32,6.32,0,0,0,15,25.43a.94.94,0,0,1,.1-.14.57.57,0,0,1,.4-.16.55.55,0,0,1,.56.56,3.71,3.71,0,0,1-.58,1.24,5.75,5.75,0,0,1-.63.84A2.75,2.75,0,0,1,12.81,28.7Z" transform="translate(-2.05 -10.75)"/><path d="M17,28.7a2.24,2.24,0,0,1-1.5-.51,2.28,2.28,0,0,1-.7-1.75,4.36,4.36,0,0,1,.4-1.63,6.76,6.76,0,0,1,1-1.57,2.63,2.63,0,0,1,1.95-1.09,1.68,1.68,0,0,1,1,.34,1.72,1.72,0,0,1,.27.27,1.57,1.57,0,0,1,.3.91v0a2,2,0,0,1-.41,1.16,3,3,0,0,1-.67.66,7.16,7.16,0,0,1-1.08.63,3.6,3.6,0,0,1-1.46.37h-.17a2.4,2.4,0,0,0,.05.4,1,1,0,0,0,1,.67,3.67,3.67,0,0,0,2.23-.94,6,6,0,0,0,1.29-1.47.55.55,0,0,1,.89,0,.56.56,0,0,1,.11.32c0,.2-.24.58-.72,1.15a6.63,6.63,0,0,1-1.42,1.25A4.38,4.38,0,0,1,17,28.7Zm-.85-3.27a2.52,2.52,0,0,0,.48-.1,4,4,0,0,0,1.56-.9,1,1,0,0,0,.4-.73.43.43,0,0,0-.16-.35.64.64,0,0,0-.33-.1c-.34,0-.73.26-1.16.78A5.13,5.13,0,0,0,16.1,25.43Z" transform="translate(-2.05 -10.75)"/><path d="M21.5,28.74c-.45,0-.77-.27-1-.82a3.62,3.62,0,0,1-.2-1.3,6.72,6.72,0,0,1,.14-1.31,5.77,5.77,0,0,1,1.31-2.64.62.62,0,0,1,.46-.24.59.59,0,0,1,.37.14.55.55,0,0,1,.19.42.53.53,0,0,1-.18.4,4.59,4.59,0,0,0-1,1.71,5.13,5.13,0,0,0-.23,1.52,2.36,2.36,0,0,0,.17,1,2.62,2.62,0,0,0,1-.65,5.72,5.72,0,0,0,.8-.83A8.16,8.16,0,0,0,24.22,25h0a2.13,2.13,0,0,1-.39-.25,1.61,1.61,0,0,1-.58-1.22,1.23,1.23,0,0,1,.3-.81,1.46,1.46,0,0,1,1.12-.51A1.28,1.28,0,0,1,26,23.57a2.61,2.61,0,0,1-.06.53,6.88,6.88,0,0,0,1.63-.52.69.69,0,0,1,.2,0,.54.54,0,0,1,.39.17.56.56,0,0,1,0,.75.72.72,0,0,1-.25.16,6,6,0,0,1-2.44.61h-.12a9.51,9.51,0,0,1-1.64,2.21,7.59,7.59,0,0,1-.8.71A2.65,2.65,0,0,1,21.5,28.74ZM24.78,24a1.65,1.65,0,0,0,.08-.43c0-.19-.06-.28-.19-.28a.4.4,0,0,0-.25.09.2.2,0,0,0-.06.15.46.46,0,0,0,.13.25A.89.89,0,0,0,24.78,24Z" transform="translate(-2.05 -10.75)"/><path d="M28,28.68a1.87,1.87,0,0,1-1-.29,1.12,1.12,0,0,1-.33-.32,1.46,1.46,0,0,1-.31-.92,1.77,1.77,0,0,1,.09-.56l.45-1.3c.26-.73.4-1.11.4-1.14a7.13,7.13,0,0,0,.24-.69l.38-1.08a4,4,0,0,1,.28-.71.54.54,0,0,1,.44-.23.55.55,0,0,1,.36.13.57.57,0,0,1,.2.43,4.34,4.34,0,0,1-.25.82l-1.31,3.74a3.08,3.08,0,0,0-.17.59.4.4,0,0,0,.12.29.65.65,0,0,0,.45.14,1.43,1.43,0,0,0,.92-.36,2.38,2.38,0,0,0,.42-.42,7.18,7.18,0,0,0,.77-1.34l.05-.1a.56.56,0,0,1,.47-.25.56.56,0,0,1,.56.56.63.63,0,0,1-.08.29,7.78,7.78,0,0,1-.86,1.48,3.65,3.65,0,0,1-.48.52A2.65,2.65,0,0,1,28,28.68Zm1.14-7.56a.58.58,0,0,1-.56-.55.87.87,0,0,1,.07-.29c.1-.27.17-.42.19-.46a.8.8,0,0,1,.09-.14.57.57,0,0,1,.41-.16.52.52,0,0,1,.38.16.57.57,0,0,1,.17.39.6.6,0,0,1-.07.27,3.52,3.52,0,0,1-.26.59A.5.5,0,0,1,29.12,21.12Z" transform="translate(-2.05 -10.75)"/><path d="M32.18,28.7a2.24,2.24,0,0,1-1.5-.51,2.28,2.28,0,0,1-.7-1.75,4.52,4.52,0,0,1,.39-1.63,7.16,7.16,0,0,1,1-1.57,2.63,2.63,0,0,1,1.94-1.09,1.69,1.69,0,0,1,1,.34,1.72,1.72,0,0,1,.27.27,1.57,1.57,0,0,1,.3.91v0a2,2,0,0,1-.41,1.16,3.23,3.23,0,0,1-.67.66,7.3,7.3,0,0,1-1.09.63,3.52,3.52,0,0,1-1.45.37h-.17a1.66,1.66,0,0,0,.05.4,1,1,0,0,0,1,.67,3.67,3.67,0,0,0,2.23-.94,6,6,0,0,0,1.29-1.47.55.55,0,0,1,.89,0,.56.56,0,0,1,.11.32c0,.2-.24.58-.72,1.15a6.63,6.63,0,0,1-1.42,1.25A4.38,4.38,0,0,1,32.18,28.7Zm-.85-3.27a2.52,2.52,0,0,0,.48-.1,4,4,0,0,0,1.56-.9,1,1,0,0,0,.4-.73.43.43,0,0,0-.16-.35.64.64,0,0,0-.33-.1c-.35,0-.73.26-1.16.78A5.13,5.13,0,0,0,31.33,25.43Z" transform="translate(-2.05 -10.75)"/><path class="cls-1" d="M38,23.79s-.88.5-.11,1.63a4.45,4.45,0,0,0,1.94.84c.45.09,3.24.64,3.72.75l3.49.74,2,.4,2.46.55,1.34.2A4.68,4.68,0,0,0,54,29c.15-.06.9-.41,1-.71.15-.59.26-1-.53-1.05-2.21-.36-5.41-1-5.41-1l-5.38-1.15L40,24.24Z" transform="translate(-2.05 -10.75)"/><path class="cls-1" d="M53.63,21.75a1.63,1.63,0,0,0-1.6.59,1.74,1.74,0,0,0-.29,1.94c.56.53.66.61,1.18.65a1.54,1.54,0,0,0,1.54-1.14c.09-.36.24-1.4-.41-1.78A.66.66,0,0,0,53.63,21.75Z" transform="translate(-2.05 -10.75)"/><path class="cls-1" d="M41.08,19.31s1.36.5,1.31,1.29a1.69,1.69,0,0,1,0,1.15c-.32.41-.56.71-.87.77a1.65,1.65,0,0,1-1.36-.26,2.16,2.16,0,0,1-.62-1.4,2.14,2.14,0,0,1,.88-1.4A3.52,3.52,0,0,1,41.08,19.31Z" transform="translate(-2.05 -10.75)"/><path class="cls-1" d="M39.45,16.09s.19-.86.68-.89,6,1,6.48,1.12,5.54,1.11,5.54,1.11l3.93,1a.84.84,0,0,1,.25.67,1.76,1.76,0,0,1-.09.48l-2.67-.77L49.68,18l-5.22-1L42,16.51h-.43l-.09.05s-1.56-.29-1.86-.29A.15.15,0,0,1,39.45,16.09Z" transform="translate(-2.05 -10.75)"/><path class="cls-1" d="M42.6,11.55a7.34,7.34,0,0,1,3-.67,35.83,35.83,0,0,1,3.89.47s2.91.74,3.33,1a22,22,0,0,1,2,1.3c.18.17.58.69.58.69L54,14l-3.46-1-2.87-.62-5.16-.65Z" transform="translate(-2.05 -10.75)"/><polygon class="cls-1" points="38.34 4.36 38.82 3.44 39.47 2.54 40.59 1.11 39.81 1.58 39.07 2.46 38.55 3.21 38.17 3.93 38.08 4.18 38.03 4.45 38.24 4.45 38.34 4.36"/><path class="cls-2" d="M57.06,18.28l.26-.1a2.69,2.69,0,0,0-.89.58,1.14,1.14,0,0,0-.1-.19Z" transform="translate(-2.05 -10.75)"/><path class="cls-3" d="M56,17.52c0,.25,0,.53,0,.79h0l-.12-.06a3.22,3.22,0,0,0,0-1c0-.33-.09-.66-.16-1s-.15-.69-.22-1l-.05-.2c0,.12.09.24.12.35.1.34.23.68.3,1A8.12,8.12,0,0,1,56,17.52Z" transform="translate(-2.05 -10.75)"/><path class="cls-2" d="M58.81,17.44a1,1,0,0,1-.26.71c-.19.21-.64.35-.79,0a.05.05,0,0,0,0,0L58,18s0-.1-.05-.09a2.37,2.37,0,0,0-.36.09.17.17,0,0,1,0-.07.68.68,0,0,1,.09-.25.76.76,0,0,1,.35-.36C58.25,17.14,58.76,17.06,58.81,17.44Z" transform="translate(-2.05 -10.75)"/><path d="M39.27,26.35h-.05a6.13,6.13,0,0,1-.61-.18v0a1.82,1.82,0,0,0-.09,1s0,0,0,0a1.43,1.43,0,0,1,.09-1h0L38.34,26a1.84,1.84,0,0,1,0,.33,3.84,3.84,0,0,0,0,.48c0,.27-.06.68.12.9a1,1,0,0,0,.39.23,1.38,1.38,0,0,1-.07-.63s0,0,0,0a1.17,1.17,0,0,0,.13.65l.17,0a.88.88,0,0,1,0-.48s0,0,0,0a.93.93,0,0,0,.11.49h.14V28c0-.07,0-.16,0-.22h0a2,2,0,0,1,.06.23l0,.06.18,0,.1-.12a.82.82,0,0,0,.09-.19c0-.15.06-.31.09-.46a6.66,6.66,0,0,1,.19-.77l-.15,0-.44-.08-.14,0ZM59,17.25a1.15,1.15,0,0,1-.32,1.12c-.31.32-1,.43-1.19-.06a.09.09,0,0,1,0,0,2.58,2.58,0,0,0-1.05.74,2.92,2.92,0,0,1-.1.82c-.16.65-.31,1.3-.44,1.95l0,.22c-.08.58-.17,1.16-.27,1.73s-.21,1.18-.34,1.76a14,14,0,0,1-.4,1.67.46.46,0,0,1,.34.28,1.23,1.23,0,0,1-.09.73,1.38,1.38,0,0,1-.49.65,1.68,1.68,0,0,1-.86.27,3.85,3.85,0,0,1-.07.49,3.58,3.58,0,0,1-.2.71,1.63,1.63,0,0,1-.11.23A2.81,2.81,0,0,1,54,30.4a.09.09,0,0,1,0,.17l-.19,0h.51c.07,0,.14,0,.18.06s-.37.11-.4.11a4.43,4.43,0,0,0-.52,0c.22,0,.43.09.65.11s.33-.05.45,0a0,0,0,0,1,0,0,.4.4,0,0,1-.34.08c.43.09.85.19,1.27.31.11,0,.09.2,0,.19-1.51-.13-3-.39-4.5-.58q-4-.53-8.06-.7c-1.34-.06-2.69-.08-4-.1l-2-.05H36a8.46,8.46,0,0,1-1,0S35,30,35,30a6.72,6.72,0,0,1,1.1-.11l1.18-.08c.76-.06,1.52-.08,2.28-.08l1.69,0-.32,0c-.51,0-1,0-1.52,0A5.14,5.14,0,0,1,38,29.61s0,0,0,0c1,.06,2,0,2.93.08.59.06,1.17.12,1.76.14-.64-.11-1.27-.21-1.92-.28a16.72,16.72,0,0,0-2.24-.09c-.37,0-.75,0-1.12.06s-.74.14-1.12.15c0,0,0,0,0,0a5.22,5.22,0,0,1,1.24-.23l.58-.05a3.06,3.06,0,0,0-.74,0l-.77,0a1.83,1.83,0,0,1-.7,0h0a2.29,2.29,0,0,1,.74-.05c.24,0,.49,0,.73,0a5.76,5.76,0,0,1,1.18.09h.23a25.32,25.32,0,0,1,4.43.38,6.63,6.63,0,0,0-1.06-.28,2.79,2.79,0,0,1-.91-.14s0,0,0,0a5.77,5.77,0,0,0,1,.05,7.46,7.46,0,0,1,1,.24,4.72,4.72,0,0,0,1.19.13,3.46,3.46,0,0,1,1.11.1l0,0h.71l.67,0a2,2,0,0,1,.59.07s0,0,0,0a2.58,2.58,0,0,1-.68,0h-.66q-.57,0-1.14.06l2.51.2q1.26.12,2.52.27c-.25-.07-.51-.13-.76-.18,0,0,0-.05,0-.06a6.15,6.15,0,0,1,1.35.11,2.15,2.15,0,0,0-.7-.24,0,0,0,0,1,0,0,10.26,10.26,0,0,0-1.36,0s0,0,0,0a6.93,6.93,0,0,1,1.51-.1c.23,0,.44.09.66.14l.26.06,0-.06s0,0,0,0a.48.48,0,0,0,.16.08.76.76,0,0,1,0-.21v0h0a2.81,2.81,0,0,0,0-.29,2,2,0,0,1,.12-.81c-.38-.1-.75-.2-1.12-.32l-.2,0-4.44-.86-4.29-.83-.85-.16a3.24,3.24,0,0,1-.35,1.35.7.7,0,0,1-.19.29.38.38,0,0,1-.21.15l-.1,0a1.75,1.75,0,0,1-1.2-.2,1,1,0,0,1-.51-1,3.58,3.58,0,0,1,.11-.73,1.63,1.63,0,0,1,.16-.53A1.88,1.88,0,0,1,38,25.8a1.48,1.48,0,0,1-.57-1.6.73.73,0,0,1,.34-.52l.1,0a16.26,16.26,0,0,1,.3-1.72c.11-.57.23-1.14.37-1.71s.27-1.1.42-1.65a.36.36,0,0,0,0-.11c.08-.38.15-.76.23-1.14s.13-.65.16-1a2,2,0,0,1,.24-.88,2.72,2.72,0,0,0-.64-1l0,0c-.41.39-1,0-1.15-.44a1.15,1.15,0,0,1,.18-1.13c.4-.36,1,0,1.2.42a1,1,0,0,1,.1.67.47.47,0,0,1-.13.25l.29.27c.21.2.43.39.65.58a2,2,0,0,1,.35-.92,7.41,7.41,0,0,1,.6-.9c.21-.28.41-.56.63-.83L42,12c0-.07.11-.13.16-.19a.26.26,0,0,1-.12-.11.12.12,0,0,1,0-.15.66.66,0,0,1,.32-.08h0a2.14,2.14,0,0,1,.53-.25,5.5,5.5,0,0,1,.88-.25,8.35,8.35,0,0,1,1.72-.22,11,11,0,0,1,1.9.11,14.17,14.17,0,0,1,1.84.33,15.89,15.89,0,0,1,1.93.45,13.29,13.29,0,0,1,1.73.64,9.84,9.84,0,0,1,1.49.9,5.89,5.89,0,0,1,.61.51,1.76,1.76,0,0,1,.43.47l.11.06c.09,0,.21.11.16.23s-.1.1-.18.1c.1.26.16.56.23.8s.17.75.24,1.13a6.77,6.77,0,0,1,.15,1.1,2.44,2.44,0,0,1,0,.81l0,0,.82-.27.41-.15a.49.49,0,0,1,0-.29.91.91,0,0,1,.4-.59C58.16,16.87,58.83,16.76,59,17.25Zm-.49.9a1,1,0,0,0,.26-.71c-.05-.38-.56-.3-.8-.17a.76.76,0,0,0-.35.36.68.68,0,0,0-.09.25.17.17,0,0,0,0,.07,2.37,2.37,0,0,1,.36-.09c.05,0,.1.05.05.09l-.25.19a.05.05,0,0,1,0,0C57.91,18.5,58.36,18.36,58.55,18.15Zm-1.23,0-.26.1-.73.29a1.14,1.14,0,0,1,.1.19A2.69,2.69,0,0,1,57.32,18.18Zm-1.21,1c0-.17.06-.45-.08-.57h0c0,.09,0,.18,0,.23a1,1,0,0,1-.15.73s0,0,0,0a1.31,1.31,0,0,0,.1-.65.77.77,0,0,0-.1-.37l-.09,0c.06.19.12.46,0,.56s0,0,0,0a.7.7,0,0,0,0-.56l-.19,0s0,.07,0,.11a.39.39,0,0,1,0,.28s0,0,0,0a.52.52,0,0,0-.08-.3l0-.08-.21,0a14.25,14.25,0,0,1-1.72-.38c-.58-.13-1.14-.28-1.71-.43h-.24a4.79,4.79,0,0,1-1.8-.33s0,0,0,0a5.34,5.34,0,0,0,1.82.29L51,17.44l-.09,0c-.41-.05-.81-.14-1.22-.22A11.59,11.59,0,0,1,48.56,17h0a9.4,9.4,0,0,1,1.18.21l.75.14c-.78-.2-1.56-.39-2.34-.6-1-.14-2.09-.33-3.13-.49l-.6-.09.51.1c.69.13,1.38.24,2.06.41,0,0,0,0,0,0l-2.1-.39c-.43-.08-.89-.16-1.32-.28l-1.33-.23-.75-.13c-.21,0-.41-.12-.61-.17l-.09.06-.26.22h0a2.51,2.51,0,0,1,.28-.29,2.21,2.21,0,0,0-.35-.08,1.12,1.12,0,0,0-.61.94h0a1.29,1.29,0,0,1,.39-.92l0,0a1,1,0,0,0-.36.38,4.48,4.48,0,0,0-.31,1.14.29.29,0,0,1,0,.09,5.4,5.4,0,0,1-.13.7l-.18.85c-.11.58-.23,1.15-.33,1.72L38.51,22c-.1.55-.16,1.11-.29,1.65.12,0,.24.07.35.09.41.11.82.23,1.24.32l2.14.46c1.43.31,2.85.64,4.28.93.78.16,1.55.33,2.33.47s1.41.19,2.11.34,1.61.33,2.41.51l.58.12c.29,0,.58.09.86.15h0c.09-.58.27-1.15.4-1.73s.25-1.1.38-1.66.25-1.13.37-1.7l.15-.74c.09-.51.18-1,.24-1.52C56.08,19.54,56.1,19.36,56.11,19.19ZM56,18.31c0-.26,0-.54,0-.79a8.12,8.12,0,0,0-.17-1.1c-.07-.35-.2-.69-.3-1,0-.11-.08-.23-.12-.35l.05.2c.07.34.15.69.22,1s.12.66.16,1a3.22,3.22,0,0,1,0,1l.12.06Zm-.28-.12c-.06-.29-.06-.61-.1-.91s-.13-.68-.21-1l-.27-1-.13-.46a1.51,1.51,0,0,1-.06-.36l-.32-.1c-.92-.3-1.86-.57-2.8-.84-.48-.13-1-.27-1.46-.39s-1-.23-1.44-.39-1.18-.17-1.77-.26-1.23-.17-1.84-.24-1.18-.15-1.77-.21l-.82-.08a2,2,0,0,1-.22.31l-.29.37c-.23.28-.46.55-.68.84a10.06,10.06,0,0,0-.66.91c-.15.23-.27.51-.43.75l.29,0c.26,0,.52,0,.77.07l.71.13c1,.18,2,.39,3,.61s2,.43,2.94.68c1.44.23,2.86.52,4.29.79.62.12,1.23.25,1.84.39a8.44,8.44,0,0,1,1,.25ZM54.94,28a.72.72,0,0,0,0-.43c-.06-.2-.64-.2-.82-.22-.38-.06-.75-.1-1.12-.17L52.38,27a32.49,32.49,0,0,1-3.25-.73l-.18,0c0,.28-.07.55-.11.83a2.73,2.73,0,0,1-.19.9v0l1.66.36c.45.06.89.19,1.34.27a7.46,7.46,0,0,0,1,.11,1.67,1.67,0,0,1,.73.14h.35a0,0,0,0,1,.07,0,1.31,1.31,0,0,0,1-.45,1.37,1.37,0,0,0,.21-.36,13.21,13.21,0,0,1-2.58-.33c-.93-.18-1.87-.36-2.8-.58,0,0,0,0,0,0A29.15,29.15,0,0,0,54.94,28Zm-.07-13.92.11,0-.19-.1c-.24-.13-.48-.25-.73-.36-.52-.22-1.05-.41-1.58-.58a31,31,0,0,0-3.42-.84c-1.12-.23-2.25-.45-3.39-.57A16.32,16.32,0,0,0,44,11.55a8.44,8.44,0,0,0-.87,0l-.19,0,.15,0,.87.13c.54.07,1.09.13,1.64.22l1.69.26a11.49,11.49,0,0,1,1.74.38,11.34,11.34,0,0,1,1.72.33l1.66.42,1.68.47Zm.07-.2,0,0c-.29-.18-.55-.37-.85-.52s-.63-.28-.93-.45c0,0,0,0,0,0a10.25,10.25,0,0,1,1,.41l.32.16-.34-.21-.76-.37c-.57-.26-1.18-.37-1.75-.61h0a12.17,12.17,0,0,1,1.77.57l.37.17a9.37,9.37,0,0,0-.9-.44A13.88,13.88,0,0,0,51,11.9c-.6-.17-1.21-.28-1.81-.44s-1.17-.22-1.76-.3A16.1,16.1,0,0,0,45.62,11h-.37l.23,0,.93.15c.36.06.72.08,1.08.11,0,0,0,0,0,0a11.47,11.47,0,0,1-1.94-.17,4.73,4.73,0,0,0-1.19,0c.38,0,.75.05,1.13.06h0c-.42,0-.83,0-1.24,0a4.51,4.51,0,0,0-1.11.16l.57,0a13.94,13.94,0,0,1,1.83,0c.61.06,1.2.14,1.8.24s1.18.22,1.77.34h0c1.1.23,2.2.47,3.28.81A13.62,13.62,0,0,1,54.94,13.86ZM53.51,29.31l.06-.22-.3,0h0a.61.61,0,0,1,0,.3,1.11,1.11,0,0,1-.14.29s-.06,0,0,0a1.23,1.23,0,0,0,.14-.31,1.22,1.22,0,0,1,.06-.26h-.1a.45.45,0,0,1-.16,0,.23.23,0,0,1,0,.18c0,.05,0,.11-.09.13s0,0,0,0a1.42,1.42,0,0,0,.1-.29h-.24a.46.46,0,0,1-.09.24,0,0,0,0,1,0,0c0-.08,0-.16.06-.23l-.12,0a7.13,7.13,0,0,1-.8-.18,2.19,2.19,0,0,1,0,.57.41.41,0,0,0,0-.19h0a.67.67,0,0,1-.06.28l0,.07v0a.88.88,0,0,1,0,.16.14.14,0,0,1,0,.11,1.46,1.46,0,0,0,0,.29.63.63,0,0,0,.1.2l.09.06a2.58,2.58,0,0,1,0-.29s0,0,0,0,0,.21,0,.32l.19.06a1.17,1.17,0,0,1,.13-.45s0,0,0,0a2,2,0,0,0-.07.26c0,.06,0,.13,0,.19l.22,0c0-.15.09-.28.14-.42h0a.55.55,0,0,1,0,.28.78.78,0,0,1,0,.14h.14c0-.08.11-.14.16-.22a.91.91,0,0,0,.17-.34h0a1.14,1.14,0,0,1-.25.55.71.71,0,0,0,.21-.08c.22-.16.31-.51.42-.74A3.71,3.71,0,0,0,53.51,29.31Zm-5-2.27c.07-.27.14-.55.22-.83-.6-.16-1.21-.26-1.81-.39l-2.11-.43-.12,0-1.34-.25a1.87,1.87,0,0,1-.1.51A11.33,11.33,0,0,1,43,26.78l1.18.26,3,.65,1.19.26a0,0,0,0,1,0,0A2.5,2.5,0,0,1,48.55,27Zm-5.36-1.79a.38.38,0,0,1,.05-.16L41,24.66c-.79-.16-1.58-.32-2.36-.51-.16,0-.67-.25-.79-.09a.68.68,0,0,0-.1.33.32.32,0,0,0,.12.14,1.54,1.54,0,0,0,.3.11l.64.19c.41.12.82.22,1.24.32.85.2,1.71.33,2.57.45,0,0,0,0,0,0a26.6,26.6,0,0,1-2.94-.52l-1.48-.39a1.38,1.38,0,0,1-.46-.17,1.24,1.24,0,0,0,.08.46A2.16,2.16,0,0,0,39.3,26c.16.05.32.07.48.11l3,.66c0-.32.16-.65.24-1S43.13,25.43,43.19,25.25ZM42,12.47a1.33,1.33,0,0,1,.14-.19l-.27.27c-.25.28-.51.54-.74.83a7.36,7.36,0,0,0-.57.88c-.15.26-.24.58-.41.82h.2a3.28,3.28,0,0,1,.37-.78c.19-.32.39-.63.61-.93S41.75,12.76,42,12.47Zm-2.26,2.8a.72.72,0,0,1,.15-.11c-.19-.17-.36-.35-.54-.53l-.18-.18a3,3,0,0,1,.56.83ZM39,14.13a.53.53,0,0,0,.07-.26.92.92,0,0,0-.11-.43c-.14-.23-.59-.6-.84-.31a.88.88,0,0,0-.1.73c.07.27.42.68.72.42l.05,0a1.75,1.75,0,0,1-.16-.27c0-.05,0-.11.08-.07A2,2,0,0,1,39,14.13Z" transform="translate(-2.05 -10.75)"/><path class="cls-4" d="M55.94,19.53l0,0s0,0,0,0l0,0c-.27-.07-.53-.16-.8-.24s-.62-.19-.94-.27a.36.36,0,0,1,.13.28c0,.29,0,.68-.2.89a1.16,1.16,0,0,1-.89.18c-.43,0-.85-.11-1.26-.18-1.16-.23-2.33-.43-3.48-.68l-3.67-.79c-.61-.13-1.22-.26-1.83-.41a6.22,6.22,0,0,1-1.41-.43c-.4-.22-.39-.64-.27-1a.73.73,0,0,1,.15-.32l-.64-.12c-.32-.06-.64-.09-1-.12h0l-.19,0c-.05.22-.07.44-.13.65a.29.29,0,0,1,0,.09,5.4,5.4,0,0,1-.13.7l-.18.85c-.11.58-.23,1.15-.33,1.72L38.51,22c-.1.55-.16,1.11-.29,1.65.12,0,.24.07.35.09.41.11.82.23,1.24.32l2.14.46c1.43.31,2.85.64,4.28.93.78.16,1.55.33,2.33.47s1.41.19,2.11.34,1.61.33,2.41.51l.58.12c.29,0,.58.09.86.15h0c.09-.58.27-1.15.4-1.73s.25-1.1.38-1.66.25-1.13.37-1.7l.15-.74c.09-.51.18-1,.24-1.52,0-.05,0-.09,0-.14Zm-.72,3c0,.31-.08.61-.13.92a3.52,3.52,0,0,1-.57,1.73c-.63.81-2,.51-2.82.35s-1.56-.24-2.34-.37-1.65-.34-2.47-.53c-1.64-.39-3.3-.77-4.94-1.17-.72-.17-1.43-.37-2.13-.61-.54-.18-1-.49-1-1.11a4.25,4.25,0,0,1,.21-1.05c.06-.22.12-.43.19-.64s.11-.32.16-.48a5.57,5.57,0,0,1,.42-1,.69.69,0,0,1,.52-.37,4.31,4.31,0,0,1,1.46.25l.3.06q4.71.75,9.37,1.81c.8.19,1.61.36,2.41.54.51.12,1.24.3,1.38.89A1.89,1.89,0,0,1,55.22,22.57Z" transform="translate(-2.05 -10.75)"/><path class="cls-5" d="M55.66,17.28c0,.3,0,.62.1.91L55.29,18a8.44,8.44,0,0,0-1-.25c-.61-.14-1.22-.27-1.84-.39-1.43-.27-2.85-.56-4.29-.79-1-.25-2-.46-2.94-.68s-2-.43-3-.61l-.71-.13c-.25,0-.51,0-.77-.07l-.29,0c.16-.24.28-.52.43-.75a10.06,10.06,0,0,1,.66-.91c.22-.29.45-.56.68-.84l.29-.37a2,2,0,0,0,.22-.31l.82.08c.59.06,1.18.15,1.77.21s1.23.15,1.84.24,1.17.21,1.77.26,1,.26,1.44.39,1,.26,1.46.39c.94.27,1.88.54,2.8.84l.32.1a1.51,1.51,0,0,0,.06.36l.13.46.27,1Q55.57,16.77,55.66,17.28ZM55,16.42s0-.05,0-.05c-.52,0-.94.43-1.44.58h0C54,16.84,54.44,16.53,55,16.42Zm-.26-1.74s0,0,0,0c-.3.13-.59.26-.9.36l-.87.24c-.78.22-1.51.6-2.3.8,0,0,0,0,0,0,.82-.17,1.57-.57,2.38-.79.31-.09.63-.16.94-.26A1.87,1.87,0,0,0,54.69,14.68Zm-1.4-.19a0,0,0,0,0,0,0,1.92,1.92,0,0,0-.84.2l-.92.41c-.64.26-1.26.62-1.92.84,0,0,0,0,0,0C50.89,15.59,52,14.77,53.29,14.49Zm-1.68,0s0,0,0,0a4.3,4.3,0,0,0-1.23.52s0,0,0,0A6.58,6.58,0,0,1,51.61,14.5Zm-3.87-.14s0,0,0,0a4,4,0,0,1-1.14.55,17.26,17.26,0,0,0-1.54.8s0,.05,0,0c.54-.24,1.05-.55,1.59-.81C47,14.76,47.48,14.68,47.74,14.36Zm-1-1.8s0,0,0,0a7.75,7.75,0,0,0-2.12.79,18.35,18.35,0,0,0-2.07,1.06h0a18.29,18.29,0,0,1,2-1A17.18,17.18,0,0,1,46.76,12.56Zm-.21,2.87s0,0,0,0a2,2,0,0,1-.5.28s0,0,0,0A1.28,1.28,0,0,0,46.55,15.43Zm-1.26-1.81s0,0,0,0c-.32.12-.59.41-.93.46,0,0,0,0,0,0a1.2,1.2,0,0,0,.45-.15A4.08,4.08,0,0,0,45.29,13.62Zm-.71-1s0,0,0,0a2.49,2.49,0,0,1-.72.38s0,0,0,0A1.83,1.83,0,0,0,44.58,12.64Z" transform="translate(-2.05 -10.75)"/><path d="M55.27,21.82a1.89,1.89,0,0,1-.05.75c0,.31-.08.61-.13.92a3.52,3.52,0,0,1-.57,1.73c-.63.81-2,.51-2.82.35s-1.56-.24-2.34-.37-1.65-.34-2.47-.53c-1.64-.39-3.3-.77-4.94-1.17-.72-.17-1.43-.37-2.13-.61-.54-.18-1-.49-1-1.11a4.25,4.25,0,0,1,.21-1.05c.06-.22.12-.43.19-.64l.08,0a7.81,7.81,0,0,0-.25.95,1.89,1.89,0,0,0,0,1.08,1.09,1.09,0,0,0,.71.56,35.07,35.07,0,0,0,4.17,1.11c1.51.35,3,.74,4.54,1.06.75.16,1.51.26,2.26.38.59.09,1.18.22,1.77.29a3,3,0,0,0,1.5-.09,1.85,1.85,0,0,0,.88-1.39c.12-.57.18-1.17.25-1.75a.84.84,0,0,0-.17-.75,2,2,0,0,0-1-.48c-.71-.21-1.46-.33-2.19-.5l-2.28-.52c-2.46-.54-5-.94-7.44-1.39l0-.09q4.71.75,9.37,1.81c.8.19,1.61.36,2.41.54C54.4,21.05,55.13,21.23,55.27,21.82Z" transform="translate(-2.05 -10.75)"/><path class="cls-4" d="M55,21.56a.84.84,0,0,1,.17.75c-.07.58-.13,1.18-.25,1.75A1.85,1.85,0,0,1,54,25.45a3,3,0,0,1-1.5.09c-.59-.07-1.18-.2-1.77-.29-.75-.12-1.51-.22-2.26-.38-1.52-.32-3-.71-4.54-1.06a35.07,35.07,0,0,1-4.17-1.11,1.09,1.09,0,0,1-.71-.56,1.89,1.89,0,0,1,0-1.08,7.81,7.81,0,0,1,.25-.95,11.84,11.84,0,0,1,.46-1.17c.15-.31.31-.54.67-.56h.07l1.56.29c2.48.45,5,.85,7.44,1.39l2.28.52c.73.17,1.48.29,2.19.5A2,2,0,0,1,55,21.56Zm-.31,1.8A1.63,1.63,0,0,0,54.18,22a1.35,1.35,0,0,0-.32-.26,1.24,1.24,0,0,0-.71-.15,1.1,1.1,0,0,0-.64.15,2.07,2.07,0,0,0-.62.48,1.84,1.84,0,0,0-.43,1.44,1.54,1.54,0,0,0,.78,1.17,1.42,1.42,0,0,0,1.19.1A1.75,1.75,0,0,0,54.64,23.36ZM49,22.71a2.13,2.13,0,0,0-1.64-2.6,2.06,2.06,0,0,0-1.48.27l0,0a2.11,2.11,0,0,0-1,1.24,2.14,2.14,0,0,0,1.49,2.61A2.17,2.17,0,0,0,49,22.71Zm-6.64-.77a1.83,1.83,0,0,0,.18-1.48,2.07,2.07,0,0,0-.36-.69,1.17,1.17,0,0,0-.53-.4,1,1,0,0,0-.42-.15,1.36,1.36,0,0,0-.69.1,1.45,1.45,0,0,0-.77.64A1.78,1.78,0,0,0,40,22.3a1.35,1.35,0,0,0,1.13.39A1.51,1.51,0,0,0,42.35,21.94Z" transform="translate(-2.05 -10.75)"/><path d="M54.94,16.37s0,0,0,.05c-.51.11-.94.42-1.45.53h0C54,16.8,54.42,16.41,54.94,16.37Z" transform="translate(-2.05 -10.75)"/><path d="M54.68,14.67s0,0,0,0a1.87,1.87,0,0,1-.75.36c-.31.1-.63.17-.94.26-.81.22-1.56.62-2.38.79,0,0,0,0,0,0,.79-.2,1.52-.58,2.3-.8l.87-.24C54.09,14.93,54.38,14.8,54.68,14.67Z" transform="translate(-2.05 -10.75)"/><path d="M54.26,24a1.9,1.9,0,0,0,.18-.57,1.83,1.83,0,0,0,0-.66,1.18,1.18,0,0,0-.89-.88,1.13,1.13,0,0,0-1.12.54,1.06,1.06,0,0,1,1.36-.36,1.09,1.09,0,0,1,.29.23,1.35,1.35,0,0,1,.37,1A1.75,1.75,0,0,1,54.26,24ZM54.18,22a1.63,1.63,0,0,1,.46,1.33A1.75,1.75,0,0,1,53.43,25a1.42,1.42,0,0,1-1.19-.1,1.54,1.54,0,0,1-.78-1.17,1.84,1.84,0,0,1,.43-1.44,2.07,2.07,0,0,1,.62-.48,1.1,1.1,0,0,1,.64-.15,1.24,1.24,0,0,1,.71.15A1.35,1.35,0,0,1,54.18,22Zm.08,1.16a1.11,1.11,0,0,0-.08-.44.9.9,0,0,0-1-.57A1.32,1.32,0,0,0,52.5,24a.84.84,0,0,0,.91.37.81.81,0,0,0,.3-.13,1.22,1.22,0,0,0,.48-.67A1.84,1.84,0,0,0,54.26,23.19Zm-1.07,1.54a1.22,1.22,0,0,0,1-.58,1.18,1.18,0,0,1-1.09.55,1.23,1.23,0,0,1-1-1.29A1.2,1.2,0,0,0,53.19,24.73Zm-1.53-1.19a1.47,1.47,0,0,0,.56,1.1,1.72,1.72,0,0,1-.43-1.71,2.44,2.44,0,0,1,.14-.34A1.67,1.67,0,0,0,51.66,23.54Z" transform="translate(-2.05 -10.75)"/><path d="M54.3,19.3c0,.29,0,.68-.2.89a1.16,1.16,0,0,1-.89.18c-.43,0-.85-.11-1.26-.18-1.16-.23-2.33-.43-3.48-.68l-3.67-.79c-.61-.13-1.22-.26-1.83-.41a6.22,6.22,0,0,1-1.41-.43c-.4-.22-.39-.64-.27-1,0-.15.1-.34.27-.4a1,1,0,0,1,.38,0,9.63,9.63,0,0,1,1,.22c1,.16,1.91.34,2.87.53,1.38.26,2.76.52,4.14.81.6.13,1.21.27,1.82.37a13.44,13.44,0,0,1,1.78.39C53.86,18.85,54.3,19,54.3,19.3Zm-.15.12c0-.18,0-.27-.18-.37a2.64,2.64,0,0,0-.75-.24l-1.61-.35c-1.06-.24-2.14-.45-3.22-.67-2-.4-4-.72-6-1.16a4.29,4.29,0,0,0-.5-.07.81.81,0,0,0-.22,0c-.17,0-.22.25-.26.4a1.15,1.15,0,0,0,0,.52.46.46,0,0,0,.28.33,8,8,0,0,0,1.53.39c1.09.25,2.19.48,3.29.72s2.21.49,3.32.7c.92.18,1.85.36,2.78.52a4.83,4.83,0,0,0,1.14.09.49.49,0,0,0,.47-.32A1.91,1.91,0,0,0,54.15,19.42Z" transform="translate(-2.05 -10.75)"/><path class="cls-6" d="M54.18,22.75a1.11,1.11,0,0,1,.08.44,1.84,1.84,0,0,1-.07.42,1.22,1.22,0,0,1-.48.67l0-.08h0A2.21,2.21,0,0,0,54,22.54h0l.06-.07A.81.81,0,0,1,54.18,22.75Z" transform="translate(-2.05 -10.75)"/><path class="cls-4" d="M54,19.05c.19.1.19.19.18.37a1.91,1.91,0,0,1,0,.48.49.49,0,0,1-.47.32,4.83,4.83,0,0,1-1.14-.09c-.93-.16-1.86-.34-2.78-.52-1.11-.21-2.21-.47-3.32-.7s-2.2-.47-3.29-.72a8,8,0,0,1-1.53-.39.46.46,0,0,1-.28-.33,1.15,1.15,0,0,1,0-.52c0-.15.09-.36.26-.4a.81.81,0,0,1,.22,0,4.29,4.29,0,0,1,.5.07c2,.44,4,.76,6,1.16,1.08.22,2.16.43,3.22.67l1.61.35A2.64,2.64,0,0,1,54,19.05Zm0,.93c.09-.18.22-.58.06-.76a.59.59,0,0,0-.32-.14L53.12,19c-.22-.05-.65-.19-.86-.06s-.18.35-.19.57a.88.88,0,0,0,0,.23v0a0,0,0,0,0,0,0,.29.29,0,0,0,.13.14,2.13,2.13,0,0,0,.5.11,5.43,5.43,0,0,0,.56.09C53.51,20.11,53.8,20.23,53.92,20Zm-2.49-1.19s0,0,0,0-.23-.2-.33-.08A.56.56,0,0,0,51,19c0,.14-.06.28-.08.41s.11.12.13,0,.05-.28.07-.41a.65.65,0,0,1,0-.2C51.26,18.65,51.35,18.73,51.43,18.79Zm-.85-.15s.05,0,0,0-.23-.2-.34-.08a.75.75,0,0,0-.09.29l-.09.41c0,.08.11.12.13,0a2.7,2.7,0,0,0,.08-.41,1.38,1.38,0,0,1,0-.2C50.41,18.5,50.49,18.59,50.58,18.64Zm-.84-.18a0,0,0,0,0,0,0c-.07-.1-.23-.2-.34-.07a.66.66,0,0,0-.09.28l-.09.41c0,.08.11.12.13,0a3.1,3.1,0,0,0,.08-.42,1.25,1.25,0,0,1,0-.19C49.57,18.32,49.65,18.41,49.74,18.46Zm-.83-.2s.05,0,0,0-.23-.2-.34-.08a.71.71,0,0,0-.09.28l-.09.41c0,.09.11.13.13,0a3,3,0,0,0,.08-.41,1.2,1.2,0,0,1,0-.2C48.74,18.12,48.82,18.2,48.91,18.26Zm-2-.14a.54.54,0,0,0,0-.31c0-.14-.23-.12-.33,0s0,0,0,0,.21-.06.23.07a.54.54,0,0,1,0,.21c0,.14-.06.28-.08.42s.11.12.13,0S46.87,18.26,46.89,18.12ZM46.05,18a.81.81,0,0,0,0-.31c-.06-.14-.23-.12-.34-.05s0,0,0,0,.2-.06.22.07a.78.78,0,0,1,0,.21l-.09.42c0,.08.11.12.13,0S46,18.14,46.05,18Zm-.85-.15a.55.55,0,0,0,0-.31c0-.15-.23-.13-.33-.06s0,0,0,0,.21-.06.23.07a.54.54,0,0,1-.05.21c0,.14-.06.28-.08.42s.11.13.13,0S45.18,18,45.2,17.85Zm-.84-.19a.81.81,0,0,0,0-.31c-.06-.15-.23-.12-.34-.06s0,.05,0,0,.2,0,.22.08a.78.78,0,0,1,0,.21c0,.13-.06.28-.09.42s.11.12.13,0S44.34,17.8,44.36,17.66Zm-1.1.11c.08-.18.21-.57.06-.75a.65.65,0,0,0-.33-.14l-.53-.14c-.22,0-.66-.19-.87,0s-.18.35-.18.57a.55.55,0,0,0,0,.22v0s0,0,0,0a.3.3,0,0,0,.14.13,2.07,2.07,0,0,0,.49.12l.57.09C42.84,17.91,43.14,18,43.26,17.77Z" transform="translate(-2.05 -10.75)"/><path class="cls-6" d="M54,22.47l-.06.07h0a8.31,8.31,0,0,1,0,.87,3.52,3.52,0,0,1-.24.78h0l0,.08a.81.81,0,0,1-.3.13A.84.84,0,0,1,52.5,24a1.32,1.32,0,0,1,.71-1.86A.82.82,0,0,1,54,22.47ZM53.51,24a1,1,0,0,0,.22-1,0,0,0,0,0,0,0c.08.37-.12.63-.24,1A0,0,0,0,0,53.51,24Zm-.25-.08a1.07,1.07,0,0,0,.19-.69s0,0,0,0a1.49,1.49,0,0,1-.2.67S53.25,23.92,53.26,23.9Z" transform="translate(-2.05 -10.75)"/><path d="M54,19.22c.16.18,0,.58-.06.76s-.41.13-.64.1a5.43,5.43,0,0,1-.56-.09,2.13,2.13,0,0,1-.5-.11.29.29,0,0,1-.13-.14,0,0,0,0,1,0,0v0a.88.88,0,0,1,0-.23c0-.22,0-.47.19-.57s.64,0,.86.06l.54.13A.59.59,0,0,1,54,19.22Zm-.11.49a.67.67,0,0,0,0-.28c0-.18-.21-.2-.35-.24s-.41-.11-.61-.15-.59-.16-.72.11a.8.8,0,0,0,0,.27l0,.18c.06.23.37.22.56.26l.67.1a.93.93,0,0,0,.33,0C53.82,20,53.84,19.81,53.87,19.71Z" transform="translate(-2.05 -10.75)"/><path d="M54,22.54a2.21,2.21,0,0,1-.27,1.65h0a3.52,3.52,0,0,0,.24-.78,8.31,8.31,0,0,0,0-.87Z" transform="translate(-2.05 -10.75)"/><path class="cls-7" d="M53.9,19.43a.67.67,0,0,1,0,.28c0,.1,0,.24-.16.28a.93.93,0,0,1-.33,0l-.67-.1c-.19,0-.5,0-.56-.26l0-.18a.8.8,0,0,1,0-.27c.13-.27.49-.16.72-.11s.41.09.61.15S53.86,19.25,53.9,19.43Z" transform="translate(-2.05 -10.75)"/><path d="M53.73,23a1,1,0,0,1-.22,1,0,0,0,0,1,0,0c.12-.33.32-.59.24-1A0,0,0,0,1,53.73,23Z" transform="translate(-2.05 -10.75)"/><path class="cls-8" d="M53.57,29.09l-.06.22a3.71,3.71,0,0,1-.19.46c-.11.23-.2.58-.42.74a.71.71,0,0,1-.21.08,1.14,1.14,0,0,0,.25-.55h0a.91.91,0,0,1-.17.34c0,.08-.11.14-.16.22h-.14a.78.78,0,0,0,0-.14.55.55,0,0,0,0-.28h0c-.05.14-.1.27-.14.42l-.22,0c0-.06,0-.13,0-.19a2,2,0,0,1,.07-.26s0,0,0,0a1.17,1.17,0,0,0-.13.45l-.19-.06c0-.11,0-.22,0-.32s0,0,0,0a2.58,2.58,0,0,0,0,.29l-.09-.06a.63.63,0,0,1-.1-.2,1.46,1.46,0,0,1,0-.29.14.14,0,0,0,0-.11.88.88,0,0,0,0-.16v0l0-.07a.67.67,0,0,0,.06-.28h0a.41.41,0,0,1,0,.19,2.19,2.19,0,0,0,0-.57,7.13,7.13,0,0,0,.8.18l.12,0c0,.07,0,.15-.06.23a0,0,0,0,0,0,0,.46.46,0,0,0,.09-.24H53a1.42,1.42,0,0,1-.1.29s0,0,0,0,.07-.08.09-.13a.23.23,0,0,0,0-.18.45.45,0,0,0,.16,0h.1a1.22,1.22,0,0,0-.06.26,1.23,1.23,0,0,1-.14.31s0,0,0,0a1.11,1.11,0,0,0,.14-.29.61.61,0,0,0,0-.3h0Z" transform="translate(-2.05 -10.75)"/><path d="M53.45,23.21a1.07,1.07,0,0,1-.19.69s0,0,0,0a1.49,1.49,0,0,0,.2-.67S53.44,23.2,53.45,23.21Z" transform="translate(-2.05 -10.75)"/><path d="M53.29,14.46a0,0,0,1,1,0,0c-1.29.28-2.4,1.1-3.67,1.45,0,0,0,0,0,0,.66-.22,1.28-.58,1.92-.84l.92-.41A1.92,1.92,0,0,1,53.29,14.46Z" transform="translate(-2.05 -10.75)"/><path d="M51.6,14.47s0,0,0,0a6.58,6.58,0,0,0-1.22.52s0,0,0,0A4.3,4.3,0,0,1,51.6,14.47Z" transform="translate(-2.05 -10.75)"/><path d="M51.46,18.76s0,0,0,0-.17-.14-.24,0a.65.65,0,0,0,0,.2c0,.13,0,.27-.07.41s-.15.05-.13,0,0-.27.08-.41a.56.56,0,0,1,.1-.28C51.23,18.56,51.39,18.65,51.46,18.76Z" transform="translate(-2.05 -10.75)"/><path d="M50.61,18.61s0,0,0,0-.17-.14-.25,0a1.38,1.38,0,0,0,0,.2,2.7,2.7,0,0,1-.08.41c0,.09-.14,0-.13,0l.09-.41a.75.75,0,0,1,.09-.29C50.38,18.41,50.54,18.51,50.61,18.61Z" transform="translate(-2.05 -10.75)"/><path d="M49.77,18.43a0,0,0,0,1,0,0c-.09-.05-.17-.14-.25,0a1.25,1.25,0,0,0,0,.19,3.1,3.1,0,0,1-.08.42c0,.08-.14,0-.13,0l.09-.41a.66.66,0,0,1,.09-.28C49.54,18.23,49.7,18.33,49.77,18.43Z" transform="translate(-2.05 -10.75)"/><path d="M47.35,20.11A2.13,2.13,0,0,1,49,22.71a2.17,2.17,0,0,1-2.64,1.54,2.14,2.14,0,0,1-1.49-2.61,2.11,2.11,0,0,1,1-1.24l0,0A2.06,2.06,0,0,1,47.35,20.11Zm1.27,2.2a1.62,1.62,0,0,0-.07-.62l0,.1a6.39,6.39,0,0,1-.27.73c-.14.29-.3.57-.46.84l-.27.43A1.73,1.73,0,0,0,48.62,22.31Zm-.41-.62c.06-.11.11-.25.18-.36a1.9,1.9,0,0,0-.48-.54c0,.14-.13.28-.19.41s-.25.49-.39.74-.19.34-.29.51c.05.34.09.69.13,1,.1-.13.19-.27.28-.41s.29-.49.42-.75S48.1,21.9,48.21,21.69ZM47.42,21a3.12,3.12,0,0,1,.25-.35,1.77,1.77,0,0,0-.71-.21h-.22a2.16,2.16,0,0,1,.1.48c0,.28.09.55.12.83v0C47.12,21.48,47.26,21.24,47.42,21Zm-.65,2.91h0c0-.29-.07-.57-.1-.86l-.43.74A2,2,0,0,0,46.77,23.91Zm-.16-1.56-.06-.57c0-.28,0-.55-.07-.83s0-.32,0-.47l-.26.08a1.93,1.93,0,0,0-.36.22l0,0c0,.12,0,.24,0,.36l.06.73c0,.3.06.59.1.88s.06.31.1.47Zm-1,1c0-.19-.06-.38-.09-.55s-.07-.6-.09-.9a6.35,6.35,0,0,1,0-.76v0a1.8,1.8,0,0,0-.35.94A1.75,1.75,0,0,0,45.66,23.38Z" transform="translate(-2.05 -10.75)"/><path d="M48.94,18.23s0,0,0,0-.17-.14-.25,0a1.2,1.2,0,0,0,0,.2,3,3,0,0,1-.08.41c0,.09-.14.05-.13,0l.09-.41a.71.71,0,0,1,.09-.28C48.71,18,48.87,18.12,48.94,18.23Z" transform="translate(-2.05 -10.75)"/><path class="cls-4" d="M48.55,21.69a1.62,1.62,0,0,1,.07.62,1.73,1.73,0,0,1-1.1,1.48l.27-.43c.16-.27.32-.55.46-.84a6.39,6.39,0,0,0,.27-.73Z" transform="translate(-2.05 -10.75)"/><path class="cls-4" d="M48.39,21.33c-.07.11-.12.25-.18.36s-.22.43-.34.64-.27.51-.42.75-.18.28-.28.41c0-.35-.08-.7-.13-1,.1-.17.2-.34.29-.51s.27-.49.39-.74.14-.27.19-.41A1.9,1.9,0,0,1,48.39,21.33Z" transform="translate(-2.05 -10.75)"/><path d="M47.73,14.35s0,0,0,0c-.26.32-.72.4-1.07.57-.54.26-1.05.57-1.59.81,0,0,0,0,0,0a17.26,17.26,0,0,1,1.54-.8A4,4,0,0,0,47.73,14.35Z" transform="translate(-2.05 -10.75)"/><path d="M47.61,27.1v0s0,.05-.1.1a1,1,0,0,1-.18.11.46.46,0,0,1-.28,0,.24.24,0,0,1-.15-.09.2.2,0,0,1,0-.08l0,0a.32.32,0,0,1-.21,0,.24.24,0,0,1-.11-.06.08.08,0,0,1,0,0,.2.2,0,0,1,0-.11s0,0,0-.06l.07-.13,0,0a.48.48,0,0,1-.17,0h0a1.07,1.07,0,0,1-.22.2l-.11.06a.3.3,0,0,1-.12,0V27l.12-.05.1-.07.12-.11h0l0,0a.21.21,0,0,1,0-.15.16.16,0,0,1,.06-.08.15.15,0,0,1,.13,0l.07,0a.14.14,0,0,1,0,.14s0,0,0,0a.5.5,0,0,0,.17,0v0l.07-.11,0-.07s0,0,0,0a.05.05,0,0,1,0,0s0,0,0,.05a.18.18,0,0,1,0,.08l-.23.38a.15.15,0,0,0,0,.06,0,0,0,0,0,0,0l0,0a.2.2,0,0,0,.11,0l.06,0A.81.81,0,0,0,46.9,27h0l0,0,.14-.15a.29.29,0,0,1,.24-.07.21.21,0,0,1,.1.06l0,0a.14.14,0,0,1,0,.11h0a.19.19,0,0,1-.07.12l-.08.05-.13.05a.51.51,0,0,1-.17,0h0v.05a.11.11,0,0,0,.1.09.38.38,0,0,0,.26-.05,1.09,1.09,0,0,0,.17-.13l.05,0A.1.1,0,0,1,47.61,27.1Zm-.28-.22s0,0,0,0,0,0,0,0-.08,0-.14.06A.37.37,0,0,0,47,27h.06a.48.48,0,0,0,.18-.06A.1.1,0,0,0,47.33,26.88Zm-.95-.21s0,0,0,0h0s0,0,0,0,0,0,0,0l0,0S46.37,26.68,46.38,26.67Z" transform="translate(-2.05 -10.75)"/><path class="cls-4" d="M47.67,20.65a3.12,3.12,0,0,0-.25.35c-.16.24-.3.48-.45.73v0c0-.28-.07-.55-.12-.83a2.16,2.16,0,0,0-.1-.48H47A1.77,1.77,0,0,1,47.67,20.65Z" transform="translate(-2.05 -10.75)"/><path d="M47,26.35s0,0,0,0a0,0,0,0,1,0,0s0,.05,0,.05,0,0,0,0l0,0a.09.09,0,0,1,0,0s0,0,0,0,0,0,0,0,0,0,0,0a0,0,0,0,1,.05,0Z" transform="translate(-2.05 -10.75)"/><path d="M46.91,17.81a.54.54,0,0,1,0,.31c0,.14,0,.28-.07.42s-.15.05-.13,0,.05-.28.08-.42a.54.54,0,0,0,0-.21c0-.13-.15-.08-.23-.07s0,0,0,0S46.86,17.67,46.91,17.81Z" transform="translate(-2.05 -10.75)"/><path class="cls-4" d="M46.8,23.91h0a2,2,0,0,1-.5-.12l.43-.74C46.73,23.34,46.76,23.62,46.8,23.91Z" transform="translate(-2.05 -10.75)"/><path d="M46.76,12.54s0,0,0,0a17.18,17.18,0,0,0-2.18.89,18.29,18.29,0,0,0-2,1h0a18.35,18.35,0,0,1,2.07-1.06A7.75,7.75,0,0,1,46.76,12.54Z" transform="translate(-2.05 -10.75)"/><path class="cls-4" d="M46.55,21.78l.06.57-.51.9c0-.16-.07-.31-.1-.47s-.08-.58-.1-.88l-.06-.73c0-.12,0-.24,0-.36l0,0a1.93,1.93,0,0,1,.36-.22l.26-.08c0,.15,0,.32,0,.47S46.52,21.5,46.55,21.78Z" transform="translate(-2.05 -10.75)"/><path d="M46.52,15.4s.06,0,0,0a1.28,1.28,0,0,1-.51.28s0,0,0,0A2,2,0,0,0,46.52,15.4Z" transform="translate(-2.05 -10.75)"/><path class="cls-2" d="M46.36,26.63s0,0,0,0,0,0,0,0l0,0s0,0,0,0,0,0,0,0Z" transform="translate(-2.05 -10.75)"/><path d="M46.15,26.51s0,0,0,0l0,0a.36.36,0,0,0-.14.16.44.44,0,0,0-.06.16.49.49,0,0,0,0,.11h0v.12h0a.12.12,0,0,1-.09-.11V27a.52.52,0,0,1-.13.06.43.43,0,0,1-.27,0,.28.28,0,0,1-.15-.08l0-.08,0,0A.29.29,0,0,1,45,27a.19.19,0,0,1-.12-.07.15.15,0,0,1,0-.13.14.14,0,0,1,0-.06l0,0,.21-.37a.27.27,0,0,0-.09,0h0l0,0a0,0,0,0,1,0-.05l0,0h0a.43.43,0,0,1,.16,0h0l.11-.19a0,0,0,0,1,0,0h0l0,0a.09.09,0,0,1,0,.05,0,0,0,0,1,0,0l-.09.17.05,0h0a.05.05,0,0,1,0,0,.06.06,0,0,1,0,0s0,0,0,0h-.09l-.09,0-.24.44h0s0,0,0,0a.05.05,0,0,0,0,0,.21.21,0,0,0,.17-.06l.1-.11,0-.07a.67.67,0,0,1,.14-.15.3.3,0,0,1,.24-.08.21.21,0,0,1,.1.06s0,0,0,0a.12.12,0,0,1,0,.1h0a.19.19,0,0,1-.07.11l-.08.06-.14,0a.3.3,0,0,1-.16,0h0v0a.13.13,0,0,0,.1.1.46.46,0,0,0,.26-.06.7.7,0,0,0,.17-.13h0a.65.65,0,0,1,.19-.24l.06,0Zm-.46,0s0,0,0,0l0,0s-.08,0-.14.06a.49.49,0,0,0-.12.13h.06a.48.48,0,0,0,.18-.06S45.69,26.57,45.69,26.54Z" transform="translate(-2.05 -10.75)"/><path d="M46.07,17.69a.81.81,0,0,1,0,.31c0,.14,0,.28-.08.41s-.14.05-.13,0l.09-.42a.78.78,0,0,0,0-.21c0-.13-.15-.08-.22-.07s0,0,0,0S46,17.55,46.07,17.69Z" transform="translate(-2.05 -10.75)"/><path class="cls-4" d="M45.57,22.83c0,.17,0,.36.09.55a1.75,1.75,0,0,1-.49-1.31,1.8,1.8,0,0,1,.35-.94v0a6.35,6.35,0,0,0,0,.76Q45.51,22.38,45.57,22.83Z" transform="translate(-2.05 -10.75)"/><path d="M45.27,13.59s0,0,0,0a4.08,4.08,0,0,1-.5.29,1.2,1.2,0,0,1-.45.15s0,0,0,0C44.68,14,45,13.71,45.27,13.59Z" transform="translate(-2.05 -10.75)"/><path d="M45.22,17.54a.55.55,0,0,1,0,.31c0,.14,0,.27-.07.41s-.15,0-.13,0,0-.28.08-.42a.54.54,0,0,0,.05-.21c0-.13-.15-.08-.23-.07s0,0,0,0S45.17,17.39,45.22,17.54Z" transform="translate(-2.05 -10.75)"/><path d="M45.07,25.56a.26.26,0,0,1,0,.19.26.26,0,0,1-.13.16.34.34,0,0,1-.2,0l-.06,0,0,0v0a.08.08,0,0,1,0,0h.07a.24.24,0,0,0,.15,0l0-.06a.17.17,0,0,0,0-.1.36.36,0,0,0-.15-.08.22.22,0,0,0-.14,0l-.06,0a.14.14,0,0,0,0,.08.39.39,0,0,0,0,.21,1.41,1.41,0,0,0,.11.22.88.88,0,0,1,.07.13.62.62,0,0,1,0,.35.51.51,0,0,1-.21.31.46.46,0,0,1-.19.08.54.54,0,0,1-.22,0,.51.51,0,0,1-.25-.14.19.19,0,0,1-.06-.07.39.39,0,0,1,0-.28.31.31,0,0,1,.09-.18l.08-.08a.38.38,0,0,1,.29-.06.35.35,0,0,1,.14.06.33.33,0,0,1,.11.19.49.49,0,0,1,0,.12.11.11,0,0,1,0,.06s0,0,0,0h0a.1.1,0,0,1,0,0v0s0,0,0,0a.24.24,0,0,0,0-.15.2.2,0,0,0-.12-.08.23.23,0,0,0-.14,0,.27.27,0,0,0-.14.12.3.3,0,0,0,0,.1.26.26,0,0,0,0,.15.28.28,0,0,0,.11.13.29.29,0,0,0,.14.05.4.4,0,0,0,.24,0l.09,0a.38.38,0,0,0,.14-.22.4.4,0,0,0,0-.24.93.93,0,0,0-.1-.21,2.28,2.28,0,0,1-.11-.21.54.54,0,0,1,0-.25l0-.08a.27.27,0,0,1,.2-.14h.16A.38.38,0,0,1,45.07,25.56Z" transform="translate(-2.05 -10.75)"/><path d="M44.57,12.62s0,0,0,0a1.83,1.83,0,0,1-.73.38s0,0,0,0A2.49,2.49,0,0,0,44.57,12.62Z" transform="translate(-2.05 -10.75)"/><path d="M44.38,17.35a.81.81,0,0,1,0,.31c0,.14,0,.28-.08.41s-.14.05-.13,0,.06-.29.09-.42a.78.78,0,0,0,0-.21c0-.13-.15-.09-.22-.08s0,0,0,0S44.32,17.2,44.38,17.35Z" transform="translate(-2.05 -10.75)"/><path d="M43.32,17c.15.18,0,.57-.06.75s-.42.14-.64.11l-.57-.09a2.07,2.07,0,0,1-.49-.12.3.3,0,0,1-.14-.13s0,0,0,0v0a.55.55,0,0,1,0-.22c0-.22,0-.47.18-.57s.65,0,.87,0l.53.14A.65.65,0,0,1,43.32,17Zm-.12.49a.67.67,0,0,0,0-.28c0-.19-.21-.2-.35-.24a6.06,6.06,0,0,0-.61-.16c-.22,0-.58-.16-.72.11a1.26,1.26,0,0,0,0,.28c0,.06,0,.12,0,.17,0,.23.36.23.56.26l.66.11c.08,0,.26.06.33,0S43.18,17.61,43.2,17.51Z" transform="translate(-2.05 -10.75)"/><path class="cls-7" d="M43.23,17.23a.67.67,0,0,1,0,.28c0,.1-.05.24-.16.28s-.25,0-.33,0l-.66-.11c-.2,0-.51,0-.56-.26,0-.05,0-.11,0-.17a1.26,1.26,0,0,1,0-.28c.14-.27.5-.15.72-.11a6.06,6.06,0,0,1,.61.16C43,17,43.19,17,43.23,17.23Z" transform="translate(-2.05 -10.75)"/><path d="M42.53,20.46a1.83,1.83,0,0,1-.18,1.48,1.51,1.51,0,0,1-1.19.75A1.35,1.35,0,0,1,40,22.3,1.78,1.78,0,0,1,39.76,20a1.45,1.45,0,0,1,.77-.64,1.36,1.36,0,0,1,.69-.1,1,1,0,0,1,.42.15,1.17,1.17,0,0,1,.53.4A2.07,2.07,0,0,1,42.53,20.46Zm-.34,1.31a1.56,1.56,0,0,0,.16-1,1.9,1.9,0,0,1-.09.76,1.65,1.65,0,0,1-1.06,1h0A1.42,1.42,0,0,0,42.19,21.77Zm-1-2.25a.94.94,0,0,1,.72.54,1,1,0,0,0-1-.64,1.25,1.25,0,0,0-.94.61,1.51,1.51,0,0,0-.13.29l0,0v0l0,.08a2.22,2.22,0,0,0-.07.45,1.69,1.69,0,0,1,.29-.83,1.19,1.19,0,0,1,.58-.46A1,1,0,0,1,41.15,19.52Zm.07,2.34a1.32,1.32,0,0,0,.16-2,.86.86,0,0,0-1.16.11,1.33,1.33,0,0,0-.26.42,1.39,1.39,0,0,0-.09.38,1.18,1.18,0,0,0,.34,1A.84.84,0,0,0,41.22,21.86Zm-.64.42a1.14,1.14,0,0,0,1.17-.49,1.17,1.17,0,0,1-1.55.29,1.11,1.11,0,0,1-.37-.41A1.06,1.06,0,0,0,40.58,22.28Z" transform="translate(-2.05 -10.75)"/><path class="cls-3" d="M42.12,12.28a1.33,1.33,0,0,0-.14.19c-.23.29-.46.59-.67.89s-.42.61-.61.93a3.28,3.28,0,0,0-.37.78h-.2c.17-.24.26-.56.41-.82a7.36,7.36,0,0,1,.57-.88c.23-.29.49-.55.74-.83Z" transform="translate(-2.05 -10.75)"/><path d="M42.11,18.58l0,.09-1.56-.29h-.07c-.36,0-.52.25-.67.56a11.84,11.84,0,0,0-.46,1.17l-.08,0c0-.16.11-.32.16-.48a5.57,5.57,0,0,1,.42-1,.69.69,0,0,1,.52-.37,4.31,4.31,0,0,1,1.46.25Z" transform="translate(-2.05 -10.75)"/><path class="cls-6" d="M41.38,19.88a1.32,1.32,0,0,1-.16,2,.84.84,0,0,1-1-.09,1.18,1.18,0,0,1-.34-1,1.39,1.39,0,0,1,.09-.38,1.33,1.33,0,0,1,.26-.42A.86.86,0,0,1,41.38,19.88Zm-.55,1s0,0,0,0a2,2,0,0,0-.1.58s0,0,.06,0Zm-.19-.31s0-.07-.06,0a2,2,0,0,0-.18,1.12,0,0,0,0,0,0,0A3.35,3.35,0,0,1,40.64,20.56Zm-.19-.49s0,0,0,0c-.09.49-.44.91-.38,1.43,0,0,0,0,0,0C40.1,21,40.4,20.57,40.45,20.07Z" transform="translate(-2.05 -10.75)"/><path d="M40.81,20.86s0,0,0,0l-.06.57s-.05,0-.06,0A2,2,0,0,1,40.81,20.86Z" transform="translate(-2.05 -10.75)"/><path d="M40.58,20.53s.07,0,.06,0a3.35,3.35,0,0,0-.21,1.09,0,0,0,1,1,0,0A2,2,0,0,1,40.58,20.53Z" transform="translate(-2.05 -10.75)"/><path d="M40.59,15.39s0,0,0,0-.16.09-.23.15a.78.78,0,0,0-.16.2s0,0,0,0A.64.64,0,0,1,40.59,15.39Z" transform="translate(-2.05 -10.75)"/><path d="M40.42,20.07s0,0,0,0c-.05.5-.35.92-.38,1.43,0,0,0,0,0,0C40,21,40.33,20.56,40.42,20.07Z" transform="translate(-2.05 -10.75)"/><path class="cls-8" d="M39.28,26.35h0l.14,0,.44.08.15,0a6.66,6.66,0,0,0-.19.77c0,.15,0,.31-.09.46a.82.82,0,0,1-.09.19l-.1.12-.18,0,0-.06a2,2,0,0,0-.06-.23h0c0,.06,0,.15,0,.22v.06h-.14a.93.93,0,0,1-.11-.49s0,0,0,0a.88.88,0,0,0,0,.48l-.17,0a1.17,1.17,0,0,1-.13-.65s0,0,0,0a1.38,1.38,0,0,0,.07.63,1,1,0,0,1-.39-.23c-.18-.22-.11-.63-.12-.9a3.84,3.84,0,0,1,0-.48,1.84,1.84,0,0,0,0-.33l.24.11h0a1.43,1.43,0,0,0-.09,1s0,0,0,0a1.82,1.82,0,0,1,.09-1v0a6.13,6.13,0,0,0,.61.18h.06Zm0,0h0Zm-.22,0s0,0,0,0a.94.94,0,0,0-.09.44,0,0,0,1,0,.06,0A3.41,3.41,0,0,1,39.07,26.35Zm-.39.5h0a2.08,2.08,0,0,1,0-.43s0,0,0,0A1.06,1.06,0,0,0,38.68,26.85Z" transform="translate(-2.05 -10.75)"/><path class="cls-2" d="M39.87,15.16a.72.72,0,0,0-.15.11h0a3,3,0,0,0-.56-.83l.18.18C39.51,14.81,39.68,15,39.87,15.16Z" transform="translate(-2.05 -10.75)"/><path d="M39.29,26.35h0Z" transform="translate(-2.05 -10.75)"/><path d="M39,26.34s0,0,0,0a3.41,3.41,0,0,0-.06.43,0,0,0,1,1-.06,0A.94.94,0,0,1,39,26.34Z" transform="translate(-2.05 -10.75)"/><path class="cls-2" d="M39.05,13.87a.53.53,0,0,1-.07.26,2,2,0,0,0-.29-.22s-.1,0-.08.07a1.75,1.75,0,0,0,.16.27l-.05,0c-.3.26-.65-.15-.72-.42a.88.88,0,0,1,.1-.73c.25-.29.7.08.84.31A.92.92,0,0,1,39.05,13.87Z" transform="translate(-2.05 -10.75)"/><path d="M38.7,26.85h0a1.06,1.06,0,0,1,0-.43s0,0,0,0A2.08,2.08,0,0,0,38.7,26.85Z" transform="translate(-2.05 -10.75)"/></svg>