<svg xmlns="http://www.w3.org/2000/svg" viewBox="0 0 48.48 48.48"><defs><style>.cls-1{fill:#d1d3d4;}.cls-2{fill:none;}.cls-3{fill:#fbb040;}.cls-4{fill:#f5fbfb;}.cls-5{fill:#fefbd6;}.cls-6{fill:#bc8430;}.cls-7{fill:#58595b;}</style></defs><title>stevie-bus</title><path class="cls-1" d="M45.07,15.94a4.65,4.65,0,0,1,.52-.2,5.77,5.77,0,0,0-1.8,1.17,1.56,1.56,0,0,0-.19-.39C44.1,16.35,44.58,16.14,45.07,15.94Z" transform="translate(-0.66 -0.81)"/><path class="cls-2" d="M43,14.42c0,.51,0,1.07,0,1.59L43,16l-.25-.11a6.27,6.27,0,0,0-.05-2c-.07-.67-.18-1.33-.31-2s-.29-1.39-.45-2.08l-.1-.41c.09.25.18.49.25.72.21.68.46,1.36.61,2.06A18.28,18.28,0,0,1,43,14.42Z" transform="translate(-0.66 -0.81)"/><path class="cls-1" d="M48.58,14.26a2,2,0,0,1-.52,1.42c-.38.42-1.28.71-1.58.06l-.06-.08a3.77,3.77,0,0,0,.52-.37c.09-.08,0-.2-.11-.18a6,6,0,0,0-.73.17.32.32,0,0,1,0-.14,1.55,1.55,0,0,1,.18-.51,1.57,1.57,0,0,1,.7-.72C47.46,13.65,48.47,13.5,48.58,14.26Z" transform="translate(-0.66 -0.81)"/><path d="M9.3,32.16H9.19A8,8,0,0,1,8,31.78a.06.06,0,0,1,0,0,3.81,3.81,0,0,0-.19,2,0,0,0,1,1,0,0,2.78,2.78,0,0,1,.17-2.05h0l-.48-.21a4.62,4.62,0,0,1-.06.65c0,.33,0,.65,0,1,0,.54-.11,1.37.26,1.82a1.81,1.81,0,0,0,.76.45,2.74,2.74,0,0,1-.13-1.26s0,0,0,0a2.55,2.55,0,0,0,.26,1.3l.35.08a1.74,1.74,0,0,1-.09-1,0,0,0,0,1,.07,0,1.93,1.93,0,0,0,.21,1l.21,0h.08a.52.52,0,0,1,0-.11.9.9,0,0,1,0-.46h0a3.43,3.43,0,0,1,.11.46s0,.07,0,.11a1.17,1.17,0,0,0,.37-.08c.06-.08.14-.16.2-.25a1.66,1.66,0,0,0,.18-.38c.08-.3.13-.61.19-.92a8.86,8.86,0,0,1,.37-1.54l-.3-.06-.88-.17-.28,0ZM49,13.88a2.31,2.31,0,0,1-.64,2.25c-.61.65-2,.86-2.39-.12a.43.43,0,0,1,0-.11,5.06,5.06,0,0,0-2.1,1.49A5.55,5.55,0,0,1,43.67,19c-.31,1.3-.61,2.61-.88,3.92l-.06.44c-.15,1.17-.34,2.33-.54,3.48s-.42,2.37-.68,3.54a29.66,29.66,0,0,1-.8,3.35.92.92,0,0,1,.67.57,2.53,2.53,0,0,1-.17,1.46,2.71,2.71,0,0,1-1,1.31,3.33,3.33,0,0,1-1.72.55,5.16,5.16,0,0,1-.15,1A6.86,6.86,0,0,1,38,40.06a2.82,2.82,0,0,1-.23.46,5.16,5.16,0,0,1,1.24-.2c.19,0,.22.28,0,.32l-.39.09h1c.15,0,.29,0,.37.12s-.74.23-.8.23c-.36,0-.7,0-1,0a9.28,9.28,0,0,0,1.3.22c.27,0,.66-.09.9,0a.06.06,0,0,1,0,.09c-.14.17-.43.17-.67.16.86.18,1.71.38,2.55.61.21.06.18.41,0,.39-3-.26-6-.78-9-1.17-5.37-.7-10.78-1.17-16.19-1.41-2.71-.12-5.42-.16-8.13-.19-1.35,0-2.71-.08-4.06-.1q-1,0-2,0a15.35,15.35,0,0,1-2-.06s-.08-.09,0-.1a14.91,14.91,0,0,1,2.21-.22c.79,0,1.59-.09,2.37-.15C6.81,39.09,8.33,39,9.86,39c1.13,0,2.27,0,3.41,0L12.62,39c-1-.08-2-.07-3.06-.07a11.68,11.68,0,0,1-2.83-.23s0,0,0,0c2,.13,3.94-.07,5.89.16,1.19.13,2.36.23,3.54.28-1.28-.22-2.56-.43-3.86-.57a35.57,35.57,0,0,0-4.5-.18c-.75,0-1.51.06-2.25.13s-1.5.28-2.25.3c-.06,0-.06-.08,0-.1a10,10,0,0,1,2.51-.46c.38-.05.77-.08,1.16-.11a7.41,7.41,0,0,0-1.49,0c-.52,0-1,0-1.56.06a4.68,4.68,0,0,1-1.4-.06v0A5.23,5.23,0,0,1,4,38c.49,0,1,0,1.48,0a11.72,11.72,0,0,1,2.37.17l.46,0a50.27,50.27,0,0,1,8.91.78,12.53,12.53,0,0,0-2.14-.57A5.55,5.55,0,0,1,13.25,38s0,0,0,0a10.82,10.82,0,0,0,2.06.1,19,19,0,0,1,2.08.48,10.16,10.16,0,0,0,2.4.28A6.15,6.15,0,0,1,22,39s0,0,0,0c.48,0,1,0,1.44,0l1.33.06A4.27,4.27,0,0,1,26,39.3s0,.05,0,.05a5.55,5.55,0,0,1-1.35,0c-.45,0-.89,0-1.33,0-.78,0-1.54.06-2.31.13,1.69.11,3.38.25,5.06.4s3.38.34,5.07.54c-.51-.13-1-.26-1.54-.37-.06,0,0-.1,0-.1a11.93,11.93,0,0,1,2.73.21A4.21,4.21,0,0,0,31,39.62a.08.08,0,0,1-.08-.07,19.26,19.26,0,0,0-2.74,0s0,0,0,0a13.57,13.57,0,0,1,3.05-.2c.45.06.89.18,1.33.28a4.7,4.7,0,0,0,.51.12L33,39.62s0,0,0,0a1.68,1.68,0,0,0,.33.16,1.42,1.42,0,0,1,.06-.42v0h0c0-.19,0-.38,0-.57a4.29,4.29,0,0,1,.23-1.64c-.75-.2-1.5-.41-2.24-.65l-.4-.07-8.94-1.73L13.45,33l-1.72-.33a4.63,4.63,0,0,1-.28,1.66A4.09,4.09,0,0,1,11,35.34a1.62,1.62,0,0,1-.38.59.68.68,0,0,1-.42.29l-.2.08a3.52,3.52,0,0,1-2.41-.4,1.92,1.92,0,0,1-1-2,7.15,7.15,0,0,1,.22-1.46,3.08,3.08,0,0,1,.32-1.07,4.76,4.76,0,0,1-.47-.31,3,3,0,0,1-1.13-3.22A1.46,1.46,0,0,1,6.2,26.8a.79.79,0,0,1,.22-.06A30.86,30.86,0,0,1,7,23.28c.22-1.15.47-2.29.75-3.43s.54-2.22.84-3.32a1.42,1.42,0,0,0,.05-.22c.14-.76.3-1.53.45-2.29s.26-1.32.33-2a4.22,4.22,0,0,1,.48-1.78,5.41,5.41,0,0,0-1.3-2l0,0c-.82.77-2,0-2.3-.9a2.25,2.25,0,0,1,.37-2.26c.8-.73,2,.1,2.39.85a2,2,0,0,1,.22,1.34,1.13,1.13,0,0,1-.27.5l.59.55c.43.39.86.78,1.31,1.17a4,4,0,0,1,.69-1.85,14.55,14.55,0,0,1,1.2-1.81c.43-.56.83-1.14,1.28-1.68.25-.29.52-.58.78-.86L15.16,3a.54.54,0,0,1-.25-.22.23.23,0,0,1,0-.29,1.09,1.09,0,0,1,.65-.17h0a4,4,0,0,1,1.07-.5,13.93,13.93,0,0,1,1.78-.52A19.87,19.87,0,0,1,21.92.82a22.5,22.5,0,0,1,3.84.23,33.13,33.13,0,0,1,3.69.65,32.67,32.67,0,0,1,3.88.93A23,23,0,0,1,36.8,3.91a18.54,18.54,0,0,1,3,1.8,15.27,15.27,0,0,1,1.24,1,3.94,3.94,0,0,1,.86.95l.22.13c.18.1.42.21.33.46a.33.33,0,0,1-.38.2,14.66,14.66,0,0,1,.48,1.61c.2.75.33,1.51.48,2.26a15.18,15.18,0,0,1,.3,2.22,5.25,5.25,0,0,1,0,1.63l.05,0L45,15.68l.81-.3a1.18,1.18,0,0,1,0-.58,2,2,0,0,1,.82-1.2C47.28,13.12,48.63,12.89,49,13.88Zm-1,1.8a2,2,0,0,0,.52-1.42c-.11-.76-1.12-.61-1.61-.35a1.57,1.57,0,0,0-.7.72,1.55,1.55,0,0,0-.18.51.32.32,0,0,0,0,.14,6,6,0,0,1,.73-.17c.1,0,.2.1.11.18a3.77,3.77,0,0,1-.52.37l.06.08C46.78,16.39,47.68,16.1,48.06,15.68Zm-2.47.06a4.65,4.65,0,0,0-.52.2c-.49.2-1,.41-1.47.58a1.56,1.56,0,0,1,.19.39A5.77,5.77,0,0,1,45.59,15.74Zm-2.44,2c0-.34.12-.92-.15-1.16l0,0a3.84,3.84,0,0,1,.07.47,2,2,0,0,1-.3,1.47s0,0,0,0a2.62,2.62,0,0,0,.19-1.3,1.69,1.69,0,0,0-.2-.75l-.19-.05c.14.38.24.92-.05,1.12a0,0,0,0,1,0,0,1.42,1.42,0,0,0-.09-1.13,2.6,2.6,0,0,0-.39-.05l.09.2a.81.81,0,0,1,.08.57s-.06,0-.05,0a1,1,0,0,0-.16-.6l-.09-.16-.43,0a27.41,27.41,0,0,1-3.46-.77c-1.15-.26-2.29-.56-3.43-.86l-.49,0A9.62,9.62,0,0,1,30.41,14s0,0,0,0a10.7,10.7,0,0,0,3.65.59L33,14.25l-.18,0c-.82-.11-1.64-.28-2.46-.45s-1.59-.26-2.36-.49c0,0,0,0,0,0,.79.07,1.59.28,2.38.43l1.51.28c-1.58-.39-3.16-.77-4.72-1.19-2.11-.3-4.19-.68-6.29-1l-1.2-.19,1,.21c1.39.26,2.78.48,4.14.83,0,0,0,0,0,0l-4.23-.78c-.86-.17-1.78-.32-2.66-.56l-2.66-.45-1.52-.27c-.42-.08-.81-.24-1.22-.34l-.17.12c-.18.14-.35.3-.54.43,0,0,0,0,0,0a4.26,4.26,0,0,1,.55-.58,5.11,5.11,0,0,0-.7-.17,2.25,2.25,0,0,0-1.21,1.89h0a2.53,2.53,0,0,1,.79-1.84l-.09,0a2,2,0,0,0-.72.76,9,9,0,0,0-.62,2.29c0,.07,0,.13,0,.19a11.16,11.16,0,0,1-.27,1.4L9.1,16.49c-.23,1.15-.45,2.31-.67,3.46S8,22.31,7.78,23.49s-.33,2.22-.59,3.3c.25.06.49.14.71.2.82.21,1.65.45,2.48.63l4.31.93c2.87.63,5.73,1.28,8.61,1.88,1.56.32,3.11.65,4.68.92,1.41.25,2.83.4,4.24.69,1.62.33,3.23.67,4.84,1,.39.09.77.18,1.16.25.59.09,1.17.18,1.75.3h0c.18-1.17.53-2.33.8-3.47l.75-3.35c.26-1.14.5-2.28.74-3.42.11-.5.21-1,.31-1.49.19-1,.36-2,.48-3.06C43.09,18.47,43.13,18.13,43.15,17.78ZM43,16c-.05-.52,0-1.08,0-1.59a18.28,18.28,0,0,0-.33-2.22c-.15-.7-.4-1.38-.61-2.06-.07-.23-.16-.47-.25-.72l.1.41c.16.69.32,1.38.45,2.08s.24,1.31.31,2a6.27,6.27,0,0,1,.05,2L43,16Zm-.58-.24c-.12-.59-.1-1.24-.19-1.82s-.26-1.38-.43-2.07-.35-1.36-.54-2c-.08-.31-.17-.62-.25-.94a3,3,0,0,1-.14-.71L40.27,8c-1.87-.6-3.75-1.15-5.63-1.68-1-.28-2-.56-2.94-.81s-1.95-.45-2.89-.78c-1.2-.09-2.38-.34-3.57-.51s-2.46-.34-3.69-.48S19.17,3.42,18,3.3l-1.65-.16a3.08,3.08,0,0,1-.42.62l-.6.74c-.47.56-.93,1.12-1.37,1.69A21.8,21.8,0,0,0,12.62,8c-.31.47-.54,1-.87,1.51l.59.07c.51.06,1,.05,1.55.13l1.43.26c2,.37,4,.79,6,1.24s4,.86,5.92,1.36c2.88.46,5.75,1,8.62,1.59,1.24.23,2.46.51,3.69.79a15.35,15.35,0,0,1,2,.49ZM40.8,35.45a1.44,1.44,0,0,0,.06-.86c-.13-.42-1.29-.41-1.65-.46-.75-.11-1.51-.19-2.25-.33l-1.29-.25a63.24,63.24,0,0,1-6.55-1.46l-.35-.1c-.08.55-.15,1.11-.23,1.66a5.28,5.28,0,0,1-.38,1.82l0,0,3.33.73c.9.12,1.8.39,2.7.55.63.11,1.26.16,1.9.21a3.3,3.3,0,0,1,1.47.28l0,0a5.3,5.3,0,0,0,.69,0,.12.12,0,0,1,.14,0,2.69,2.69,0,0,0,1.93-.9,2.84,2.84,0,0,0,.4-.72A26.63,26.63,0,0,1,35.56,35c-1.88-.37-3.76-.73-5.63-1.16,0,0,0,0,0,0C33.54,34.39,37.13,35.51,40.8,35.45Zm-.13-28,.21.06-.38-.21c-.48-.25-1-.49-1.47-.71a32.72,32.72,0,0,0-3.18-1.17A66.66,66.66,0,0,0,29,3.74c-2.26-.46-4.53-.9-6.82-1.14-1.14-.11-2.29-.18-3.43-.18-.59,0-1.18,0-1.76.08l-.38,0,.31,0,1.74.26c1.1.14,2.2.27,3.29.44s2.27.34,3.41.53a23.1,23.1,0,0,1,3.49.76,22.58,22.58,0,0,1,3.45.66c1.12.27,2.23.56,3.34.85s2.26.63,3.38,1Zm.13-.4L40.74,7c-.57-.35-1.1-.74-1.71-1s-1.26-.57-1.87-.9c0,0,0,0,0,0a17.12,17.12,0,0,1,1.93.81l.64.32-.68-.41c-.5-.27-1-.5-1.54-.75-1.13-.53-2.36-.74-3.51-1.23h0a23.06,23.06,0,0,1,3.56,1.14l.76.34a17.76,17.76,0,0,0-1.81-.88,30.55,30.55,0,0,0-3.59-1.26c-1.2-.33-2.43-.56-3.64-.87S27,1.79,25.76,1.63a28.37,28.37,0,0,0-3.69-.27c-.25,0-.5,0-.74,0l.46,0c.62.08,1.25.19,1.87.29s1.44.16,2.17.22c0,0,0,.05,0,.05a21.36,21.36,0,0,1-3.9-.36,9.64,9.64,0,0,0-2.4.07c.76,0,1.52.1,2.27.12,0,0,0,0,0,0-.83,0-1.66,0-2.49,0a8.7,8.7,0,0,0-2.23.32L18.23,2a23.94,23.94,0,0,1,3.69.09c1.2.1,2.4.27,3.6.47s2.38.43,3.57.68h.05a65.47,65.47,0,0,1,6.6,1.62A27.47,27.47,0,0,1,40.8,7.06ZM37.92,38.12c0-.15.09-.31.14-.45l-.6,0h0a1,1,0,0,1-.08.59,2.13,2.13,0,0,1-.28.59s-.11,0-.08,0a2.25,2.25,0,0,0,.28-.61,3,3,0,0,1,.12-.52h0l-.2,0a1.14,1.14,0,0,1-.32.07.5.5,0,0,1-.07.36c0,.09-.09.22-.18.26s0,0,0,0a2.54,2.54,0,0,0,.19-.59,3.73,3.73,0,0,1-.47,0,.86.86,0,0,1-.19.48s0,0,0,0l.12-.46-.25,0a15,15,0,0,1-1.61-.37,4.14,4.14,0,0,1-.07,1.16,1.24,1.24,0,0,0,.09-.39,0,0,0,1,1,0,0,1.2,1.2,0,0,1-.11.56.46.46,0,0,1-.07.14v0c0,.11,0,.22-.05.33a.27.27,0,0,1,0,.2,2.31,2.31,0,0,0,0,.59,1.31,1.31,0,0,0,.2.41l.18.11c0-.2,0-.4,0-.58a0,0,0,0,1,.06,0c0,.2,0,.43,0,.64l.38.13a2.58,2.58,0,0,1,.26-.91,0,0,0,1,1,.05,0,3.18,3.18,0,0,0-.14.53c0,.13,0,.26-.05.39l.44.06c.09-.28.2-.56.28-.84h0a1.08,1.08,0,0,1-.08.56,2.47,2.47,0,0,1-.1.29h.28c.11-.14.23-.28.33-.43a2.47,2.47,0,0,0,.34-.69s0,0,0,0a2.3,2.3,0,0,1-.5,1.09.94.94,0,0,0,.43-.16A3.88,3.88,0,0,0,37.55,39C37.68,38.73,37.82,38.44,37.92,38.12ZM28,33.56c.15-.55.29-1.11.45-1.67-1.2-.32-2.43-.53-3.63-.78-1.42-.29-2.83-.59-4.25-.87l-.25,0-2.68-.5a4.85,4.85,0,0,1-.2,1A22.29,22.29,0,0,1,16.81,33l2.38.52,6,1.32,2.39.52a.19.19,0,0,1,0-.07A5.44,5.44,0,0,1,28,33.56ZM17.18,30a1.29,1.29,0,0,1,.1-.33c-1.51-.28-3-.56-4.54-.86s-3.17-.64-4.75-1c-.32-.08-1.35-.49-1.58-.17a1.51,1.51,0,0,0-.21.66.77.77,0,0,0,.26.28,3.07,3.07,0,0,0,.6.22c.42.14.85.27,1.27.38.83.24,1.67.45,2.5.65,1.7.4,3.43.66,5.16.9,0,0,0,.09,0,.08a53.75,53.75,0,0,1-5.91-1c-1-.23-2-.51-3-.77a2.8,2.8,0,0,1-.91-.36,2.1,2.1,0,0,0,.15.93c.51,1.14,1.92,1.62,3,1.92.32.09.65.14,1,.21L16.42,33A17.38,17.38,0,0,1,16.9,31C17,30.67,17.07,30.31,17.18,30ZM14.74,4.26,15,3.88c-.19.19-.38.37-.54.55C14,5,13.46,5.51,13,6.1a14.86,14.86,0,0,0-1.16,1.76A18.25,18.25,0,0,1,11,9.52a2.75,2.75,0,0,1,.41,0,6,6,0,0,1,.74-1.57A19.35,19.35,0,0,1,13.4,6.06C13.83,5.45,14.29,4.85,14.74,4.26ZM10.21,9.89a1.42,1.42,0,0,1,.29-.21c-.37-.34-.71-.71-1.07-1.07l-.37-.36a5.75,5.75,0,0,1,1.13,1.66ZM8.73,7.6a1,1,0,0,0,.12-.51,1.71,1.71,0,0,0-.21-.88C8.37,5.75,7.45,5,7,5.59a1.74,1.74,0,0,0-.2,1.46c.14.55.85,1.38,1.44.86l.12-.06A4.21,4.21,0,0,1,8,7.3a.12.12,0,0,1,.16-.15A6.14,6.14,0,0,1,8.73,7.6Z" transform="translate(-0.66 -0.81)"/><path class="cls-3" d="M42.81,18.47l-.06.07s0,0,0,0a.14.14,0,0,0,0-.06c-.53-.14-1.06-.31-1.59-.47s-1.26-.38-1.9-.55a.75.75,0,0,1,.26.57c0,.59.08,1.36-.39,1.79a2.31,2.31,0,0,1-1.8.36,21.73,21.73,0,0,1-2.53-.37c-2.33-.45-4.68-.86-7-1.37l-7.36-1.58C19.2,16.56,18,16.3,16.74,16a12.15,12.15,0,0,1-2.84-.88c-.79-.42-.79-1.27-.54-2.06a1.51,1.51,0,0,1,.3-.64c-.43-.08-.85-.17-1.29-.24-.63-.12-1.29-.18-1.93-.25h0l-.38,0c-.09.43-.15.88-.26,1.3,0,.07,0,.13,0,.19a11.16,11.16,0,0,1-.27,1.4L9.1,16.49c-.23,1.15-.45,2.31-.67,3.46S8,22.31,7.78,23.49s-.33,2.22-.59,3.3c.25.06.49.14.71.2.82.21,1.65.45,2.48.63l4.31.93c2.87.63,5.73,1.28,8.61,1.88,1.56.32,3.11.65,4.68.92,1.41.25,2.83.4,4.24.69,1.62.33,3.23.67,4.84,1,.39.09.77.18,1.16.25.59.09,1.17.18,1.75.3h0c.18-1.17.53-2.33.8-3.47l.75-3.35c.26-1.14.5-2.28.74-3.42.11-.5.21-1,.31-1.49.19-1,.36-2,.48-3.06,0-.09,0-.18,0-.27Zm-1.45,6.1c-.1.61-.16,1.23-.25,1.85A7,7,0,0,1,40,29.89c-1.26,1.63-3.93,1-5.66.72-1.56-.29-3.14-.5-4.71-.76s-3.3-.68-4.95-1.07C21.31,28,18,27.24,14.69,26.44c-1.45-.35-2.88-.75-4.29-1.22-1.08-.36-2-1-2-2.25a10.15,10.15,0,0,1,.42-2.1c.13-.43.25-.86.39-1.29s.21-.64.33-1a11.64,11.64,0,0,1,.83-2,1.41,1.41,0,0,1,1.05-.73,8.73,8.73,0,0,1,2.94.5l.6.13Q24.49,18,33.84,20.19l4.86,1.08c1,.23,2.49.6,2.77,1.8A3.63,3.63,0,0,1,41.36,24.57Z" transform="translate(-0.66 -0.81)"/><path class="cls-4" d="M42.25,14c.09.58.07,1.23.19,1.82l-.93-.31a15.35,15.35,0,0,0-2-.49c-1.23-.28-2.45-.56-3.69-.79-2.87-.55-5.74-1.13-8.62-1.59-2-.5-3.95-.92-5.92-1.36s-4-.87-6-1.24l-1.43-.26c-.51-.08-1-.07-1.55-.13l-.59-.07c.33-.47.56-1,.87-1.51a21.8,21.8,0,0,1,1.32-1.83c.44-.57.9-1.13,1.37-1.69l.6-.74a3.08,3.08,0,0,0,.42-.62L18,3.3c1.19.12,2.38.29,3.57.43s2.46.3,3.69.48,2.37.42,3.57.51c.94.33,1.92.54,2.89.78s2,.53,2.94.81c1.88.53,3.76,1.08,5.63,1.68l.62.2A3,3,0,0,0,41,8.9c.08.32.17.63.25.94.19.68.38,1.36.54,2S42.14,13.25,42.25,14ZM40.82,12.2a0,0,0,0,0,0-.09c-1.06.08-1.9.87-2.9,1.15h0C38.93,13,39.8,12.43,40.82,12.2ZM40.3,8.71s0,0,0,0a14.4,14.4,0,0,1-1.82.73c-.57.17-1.16.31-1.74.48-1.57.45-3,1.21-4.62,1.62a0,0,0,0,0,0,0c1.65-.35,3.16-1.16,4.79-1.6.63-.17,1.27-.32,1.9-.52A3.8,3.8,0,0,0,40.3,8.71Zm-2.81-.38a0,0,0,0,0,0-.07,3.82,3.82,0,0,0-1.68.41c-.62.26-1.23.55-1.85.81-1.3.54-2.53,1.25-3.87,1.7,0,0,0,.08,0,.06C32.66,10.54,34.89,8.89,37.49,8.33Zm-3.39,0s0-.06,0-.05a9.32,9.32,0,0,0-2.48,1,0,0,0,0,0,0,.06A14.35,14.35,0,0,1,34.1,8.34Zm-7.77-.27s0,0,0,0A8.37,8.37,0,0,1,24,9.16a32.16,32.16,0,0,0-3.09,1.59c-.05,0,0,.1.05.08,1.09-.48,2.12-1.09,3.19-1.61A6.08,6.08,0,0,0,26.33,8.07Zm-2-3.61s0,0,0,0A14.63,14.63,0,0,0,20.1,6,33.76,33.76,0,0,0,16,8.12s0,0,0,0a38.84,38.84,0,0,1,4-1.9A31.89,31.89,0,0,1,24.36,4.46ZM24,10.22s0-.1-.07-.06a4.44,4.44,0,0,1-1,.56,0,0,0,0,0,0,.06A2.63,2.63,0,0,0,24,10.22ZM21.4,6.57a0,0,0,0,0,0-.05c-.65.25-1.18.82-1.88.93,0,0,0,0,0,0a2.46,2.46,0,0,0,.91-.31A5.59,5.59,0,0,0,21.4,6.57ZM20,4.6s0,0,0,0a5.23,5.23,0,0,1-1.44.76,0,0,0,0,0,0,0A3.53,3.53,0,0,0,20,4.6Z" transform="translate(-0.66 -0.81)"/><path d="M41.47,23.07a3.63,3.63,0,0,1-.11,1.5c-.1.61-.16,1.23-.25,1.85A7,7,0,0,1,40,29.89c-1.26,1.63-3.93,1-5.66.72-1.56-.29-3.14-.5-4.71-.76s-3.3-.68-4.95-1.07C21.31,28,18,27.24,14.69,26.44c-1.45-.35-2.88-.75-4.29-1.22-1.08-.36-2-1-2-2.25a10.15,10.15,0,0,1,.42-2.1c.13-.43.25-.86.39-1.29l.17.05a15.66,15.66,0,0,0-.51,1.9,3.86,3.86,0,0,0-.09,2.18,2.25,2.25,0,0,0,1.43,1.12,71.13,71.13,0,0,0,8.4,2.23c3,.71,6.06,1.5,9.11,2.14,1.51.31,3,.52,4.56.76,1.18.18,2.35.43,3.54.57a6.17,6.17,0,0,0,3-.18c1.1-.45,1.53-1.72,1.76-2.79s.37-2.35.52-3.52a1.75,1.75,0,0,0-.34-1.5,4.21,4.21,0,0,0-1.91-1c-1.44-.4-2.94-.65-4.4-1s-3.06-.71-4.59-1c-4.95-1.1-10-1.9-15-2.8l0-.17Q24.49,18,33.84,20.19l4.86,1.08C39.72,21.5,41.19,21.87,41.47,23.07Z" transform="translate(-0.66 -0.81)"/><path class="cls-3" d="M40.83,22.54a1.75,1.75,0,0,1,.34,1.5c-.15,1.17-.26,2.37-.52,3.52S40,29.9,38.89,30.35a6.17,6.17,0,0,1-3,.18c-1.19-.14-2.36-.39-3.54-.57-1.53-.24-3-.45-4.56-.76-3.05-.64-6.08-1.43-9.11-2.14a71.13,71.13,0,0,1-8.4-2.23,2.25,2.25,0,0,1-1.43-1.12,3.86,3.86,0,0,1,.09-2.18,15.66,15.66,0,0,1,.51-1.9,21.6,21.6,0,0,1,.92-2.35c.29-.63.63-1.09,1.35-1.13h.14l3.13.58c5,.9,10,1.7,15,2.8q2.3.51,4.59,1c1.46.33,3,.58,4.4,1A4.21,4.21,0,0,1,40.83,22.54Zm-.64,3.62a3.26,3.26,0,0,0-.92-2.68,2.48,2.48,0,0,0-.64-.52,2.35,2.35,0,0,0-1.42-.3,2.31,2.31,0,0,0-1.29.29,4.24,4.24,0,0,0-1.25,1,3.73,3.73,0,0,0-.87,2.9,3.1,3.1,0,0,0,1.58,2.34,2.79,2.79,0,0,0,2.39.2A3.48,3.48,0,0,0,40.19,26.16Zm-11.35-1.3a4.29,4.29,0,0,0-3.29-5.25,4.22,4.22,0,0,0-3,.56l-.06,0a4.24,4.24,0,0,0-2,2.51,4.3,4.3,0,0,0,3,5.24A4.35,4.35,0,0,0,28.84,24.86ZM15.49,23.3a3.67,3.67,0,0,0,.37-3A4,4,0,0,0,15.13,19a2.33,2.33,0,0,0-1.06-.82,2.19,2.19,0,0,0-.86-.29,2.48,2.48,0,0,0-1.37.2,2.86,2.86,0,0,0-1.55,1.28,3.58,3.58,0,0,0,.54,4.7,2.7,2.7,0,0,0,2.28.79A3.09,3.09,0,0,0,15.49,23.3Z" transform="translate(-0.66 -0.81)"/><path d="M40.81,12.11a0,0,0,0,1,0,.09c-1,.23-1.89.84-2.91,1.07h0C38.91,13,39.75,12.19,40.81,12.11Z" transform="translate(-0.66 -0.81)"/><path d="M40.28,8.68s0,0,0,0a3.8,3.8,0,0,1-1.5.72c-.63.2-1.27.35-1.9.52-1.63.44-3.14,1.25-4.79,1.6a0,0,0,0,1,0,0c1.58-.41,3-1.17,4.62-1.62.58-.17,1.17-.31,1.74-.48A14.4,14.4,0,0,0,40.28,8.68Z" transform="translate(-0.66 -0.81)"/><path d="M39.44,27.4a3.88,3.88,0,0,0,.36-1.14,3.5,3.5,0,0,0,0-1.33A2.35,2.35,0,0,0,38,23.16a2.32,2.32,0,0,0-2.25,1.08,2.15,2.15,0,0,1,2.74-.72A2.08,2.08,0,0,1,39,24a2.68,2.68,0,0,1,.74,2.05A3.37,3.37,0,0,1,39.44,27.4Zm-.17-3.92a3.26,3.26,0,0,1,.92,2.68,3.48,3.48,0,0,1-2.42,3.21,2.79,2.79,0,0,1-2.39-.2,3.1,3.1,0,0,1-1.58-2.34,3.73,3.73,0,0,1,.87-2.9,4.24,4.24,0,0,1,1.25-1,2.31,2.31,0,0,1,1.29-.29,2.35,2.35,0,0,1,1.42.3A2.48,2.48,0,0,1,39.27,23.48Zm.16,2.34a2.49,2.49,0,0,0-.15-.89,1.84,1.84,0,0,0-.34-.57,1.68,1.68,0,0,0-1.62-.57,2.65,2.65,0,0,0-1.42,3.73,1.7,1.7,0,0,0,1.83.75,1.94,1.94,0,0,0,.61-.26,2.54,2.54,0,0,0,1-1.35A3.78,3.78,0,0,0,39.43,25.82Zm-2.15,3.09a2.48,2.48,0,0,0,1.95-1.16,2.34,2.34,0,0,1-2.18,1.09A2.45,2.45,0,0,1,35,26.26,2.41,2.41,0,0,0,37.28,28.91Zm-3.06-2.4a2.92,2.92,0,0,0,1.12,2.23,3.46,3.46,0,0,1-.86-3.44,3.57,3.57,0,0,1,.27-.68A3.2,3.2,0,0,0,34.22,26.51Z" transform="translate(-0.66 -0.81)"/><path d="M39.51,18c0,.59.08,1.36-.39,1.79a2.31,2.31,0,0,1-1.8.36,21.73,21.73,0,0,1-2.53-.37c-2.33-.45-4.68-.86-7-1.37l-7.36-1.58C19.2,16.56,18,16.3,16.74,16a12.15,12.15,0,0,1-2.84-.88c-.79-.42-.79-1.27-.54-2.06.09-.31.2-.68.54-.79a1.81,1.81,0,0,1,.77,0c.71.09,1.39.29,2.08.44,1.94.32,3.86.7,5.78,1.06,2.78.53,5.55,1.07,8.32,1.64,1.22.25,2.43.55,3.66.75a27,27,0,0,1,3.57.77C38.63,17.09,39.51,17.29,39.51,18Zm-.29.25c0-.38,0-.55-.36-.76A5.66,5.66,0,0,0,37.35,17c-1.08-.23-2.16-.45-3.24-.7C32,15.82,29.8,15.4,27.65,15c-4-.81-8.14-1.46-12.18-2.34-.33-.06-.66-.12-1-.15a1.7,1.7,0,0,0-.45,0c-.35.08-.44.5-.53.8a2.44,2.44,0,0,0-.07,1A.86.86,0,0,0,14,15a15.48,15.48,0,0,0,3.08.79c2.19.51,4.4,1,6.61,1.44s4.44,1,6.67,1.42c1.86.36,3.71.73,5.58,1a8.87,8.87,0,0,0,2.3.19,1,1,0,0,0,.94-.63A3.87,3.87,0,0,0,39.22,18.25Z" transform="translate(-0.66 -0.81)"/><path class="cls-5" d="M39.28,24.93a2.49,2.49,0,0,1,.15.89,3.78,3.78,0,0,1-.13.84,2.54,2.54,0,0,1-1,1.35l-.08-.17a0,0,0,0,0,0,0,4.43,4.43,0,0,0,.54-3.32h0l.13-.15A1.84,1.84,0,0,1,39.28,24.93Z" transform="translate(-0.66 -0.81)"/><path class="cls-3" d="M38.86,17.49c.38.21.38.38.36.76a3.87,3.87,0,0,1,0,1,1,1,0,0,1-.94.63,8.87,8.87,0,0,1-2.3-.19c-1.87-.3-3.72-.67-5.58-1-2.23-.42-4.45-.94-6.67-1.42s-4.42-.93-6.61-1.44A15.48,15.48,0,0,1,14,15a.86.86,0,0,1-.56-.66,2.44,2.44,0,0,1,.07-1c.09-.3.18-.72.53-.8a1.7,1.7,0,0,1,.45,0c.33,0,.66.09,1,.15,4,.88,8.13,1.53,12.18,2.34,2.15.43,4.32.85,6.46,1.34,1.08.25,2.16.47,3.24.7A5.66,5.66,0,0,1,38.86,17.49Zm-.1,1.87c.17-.37.43-1.16.12-1.53a1.29,1.29,0,0,0-.65-.27c-.36-.1-.72-.2-1.08-.28s-1.31-.37-1.74-.1-.36.7-.37,1.14a1,1,0,0,0,0,.46v0a.06.06,0,0,0,0,.06.53.53,0,0,0,.27.26,4.29,4.29,0,0,0,1,.24c.38.07.75.13,1.13.17S38.52,19.86,38.76,19.36Zm-5-2.4a0,0,0,0,0,.05-.06c-.15-.2-.46-.4-.67-.15a1.29,1.29,0,0,0-.19.57,8,8,0,0,0-.17.82.13.13,0,1,0,.26.07c.06-.27.11-.55.15-.82a1.34,1.34,0,0,1,.07-.4C33.41,16.68,33.58,16.86,33.76,17ZM32,16.67s.09,0,.06-.06c-.15-.21-.47-.4-.68-.15a1.37,1.37,0,0,0-.18.56c-.07.28-.13.55-.18.83s.22.24.26.07.11-.55.16-.83a1.67,1.67,0,0,1,.06-.39C31.7,16.39,31.86,16.56,32,16.67Zm-1.69-.36s.09,0,.06-.06c-.15-.2-.47-.4-.68-.15a1.41,1.41,0,0,0-.18.57c-.07.27-.13.55-.18.82s.22.25.26.07.11-.55.16-.82a1.76,1.76,0,0,1,.06-.4C30,16,30.17,16.21,30.35,16.31Zm-1.66-.41s.08,0,.06-.06c-.15-.21-.47-.4-.68-.15a1.25,1.25,0,0,0-.19.57c-.06.27-.13.54-.17.82a.13.13,0,0,0,.26.07c.06-.27.11-.55.15-.83a1.28,1.28,0,0,1,.07-.39C28.34,15.62,28.51,15.79,28.69,15.9Zm-4.06-.27a1.63,1.63,0,0,0,0-.62c-.11-.29-.47-.25-.68-.11A0,0,0,0,0,24,15c.15,0,.42-.12.46.15a1.21,1.21,0,0,1-.09.41c-.07.28-.13.57-.18.85s.23.25.26.07S24.58,15.91,24.63,15.63Zm-1.7-.24a1.5,1.5,0,0,0,0-.63c-.11-.29-.46-.24-.68-.11a0,0,0,0,0,0,.08c.15,0,.42-.12.46.15a1.27,1.27,0,0,1-.09.42,8.33,8.33,0,0,0-.17.84c0,.17.22.25.26.08S22.88,15.66,22.93,15.39Zm-1.7-.32a1.3,1.3,0,0,0,0-.62c-.11-.29-.46-.25-.68-.11,0,0,0,.08,0,.08s.41-.12.45.15A1.16,1.16,0,0,1,21,15c-.06.29-.13.57-.17.85s.22.25.26.07S21.19,15.35,21.23,15.07Zm-1.7-.37a1.35,1.35,0,0,0,0-.63c-.11-.29-.46-.24-.67-.11a0,0,0,0,0,0,.08c.15,0,.41-.11.45.15a1.56,1.56,0,0,1-.08.42c-.07.28-.13.56-.18.85s.22.24.26.07S19.49,15,19.53,14.7Zm-2.21.23c.17-.37.42-1.16.12-1.53a1.29,1.29,0,0,0-.65-.27l-1.08-.28c-.44-.1-1.32-.37-1.74-.1s-.36.7-.37,1.14a1.19,1.19,0,0,0,0,.46v.05a.07.07,0,0,0,0,.06.53.53,0,0,0,.27.26,3.84,3.84,0,0,0,1,.24c.37.07.75.13,1.13.18S17.08,15.43,17.32,14.93Z" transform="translate(-0.66 -0.81)"/><path class="cls-5" d="M38.94,24.36l-.13.15h0a17.24,17.24,0,0,1-.09,1.75,7.89,7.89,0,0,1-.47,1.55s0,0,0,0l.08.17a1.94,1.94,0,0,1-.61.26,1.7,1.7,0,0,1-1.83-.75,2.65,2.65,0,0,1,1.42-3.73A1.68,1.68,0,0,1,38.94,24.36Zm-1,3a2,2,0,0,0,.45-2s0,0,0,0c.16.75-.24,1.26-.48,1.93C37.86,27.4,37.9,27.42,37.92,27.4Zm-.49-.15a2.17,2.17,0,0,0,.37-1.39,0,0,0,0,0,0,0,3,3,0,0,1-.39,1.35A0,0,0,0,0,37.43,27.25Z" transform="translate(-0.66 -0.81)"/><path d="M38.88,17.83c.31.37,0,1.16-.12,1.53s-.83.27-1.29.2-.75-.1-1.13-.17a4.29,4.29,0,0,1-1-.24.53.53,0,0,1-.27-.26.06.06,0,0,1,0-.06v0a1,1,0,0,1,0-.46c0-.44.06-.95.37-1.14s1.3,0,1.74.1.72.18,1.08.28A1.29,1.29,0,0,1,38.88,17.83Zm-.23,1a1.56,1.56,0,0,0,.06-.57c-.08-.36-.43-.39-.71-.47s-.81-.23-1.22-.32-1.17-.32-1.44.23a2,2,0,0,0-.09.55c0,.12,0,.24,0,.35.11.46.74.45,1.13.53s.89.15,1.34.2a2.12,2.12,0,0,0,.65.07C38.55,19.3,38.6,19,38.65,18.82Z" transform="translate(-0.66 -0.81)"/><path d="M38.81,24.51a4.43,4.43,0,0,1-.54,3.32,0,0,0,0,1,0,0s0,0,0,0a7.89,7.89,0,0,0,.47-1.55,17.24,17.24,0,0,0,.09-1.75Z" transform="translate(-0.66 -0.81)"/><path class="cls-6" d="M38.71,18.25a1.56,1.56,0,0,1-.06.57c0,.2-.1.48-.33.57a2.12,2.12,0,0,1-.65-.07c-.45-.05-.9-.12-1.34-.2s-1-.07-1.13-.53c0-.11,0-.23,0-.35a2,2,0,0,1,.09-.55c.27-.55,1-.31,1.44-.23s.82.2,1.22.32S38.63,17.89,38.71,18.25Z" transform="translate(-0.66 -0.81)"/><path d="M38.37,25.44a2,2,0,0,1-.45,2s-.06,0-.05,0c.24-.67.64-1.18.48-1.93C38.35,25.43,38.37,25.43,38.37,25.44Z" transform="translate(-0.66 -0.81)"/><path class="cls-7" d="M38.06,37.67c-.05.14-.09.3-.14.45-.1.32-.24.61-.37.92a3.88,3.88,0,0,1-.84,1.48.94.94,0,0,1-.43.16,2.3,2.3,0,0,0,.5-1.09s0,0,0,0a2.47,2.47,0,0,1-.34.69c-.1.15-.22.29-.33.43H35.8a2.47,2.47,0,0,0,.1-.29,1.08,1.08,0,0,0,.08-.56h0c-.08.28-.19.56-.28.84l-.44-.06c0-.13,0-.26.05-.39a3.18,3.18,0,0,1,.14-.53,0,0,0,1,0-.05,0,2.58,2.58,0,0,0-.26.91l-.38-.13c0-.21,0-.44,0-.64a0,0,0,0,0-.06,0c0,.18,0,.38,0,.58l-.18-.11a1.31,1.31,0,0,1-.2-.41,2.31,2.31,0,0,1,0-.59.27.27,0,0,0,0-.2c0-.11,0-.22.05-.33v0a.46.46,0,0,0,.07-.14,1.2,1.2,0,0,0,.11-.56,0,0,0,1,0,0,0,1.24,1.24,0,0,1-.09.39,4.14,4.14,0,0,0,.07-1.16,15,15,0,0,0,1.61.37l.25,0-.12.46s0,0,0,0a.86.86,0,0,0,.19-.48,3.73,3.73,0,0,0,.47,0,2.54,2.54,0,0,1-.19.59s0,0,0,0,.14-.17.18-.26a.5.5,0,0,0,.07-.36,1.14,1.14,0,0,0,.32-.07l.2,0h0a3,3,0,0,0-.12.52,2.25,2.25,0,0,1-.28.61s0,.1.08,0a2.13,2.13,0,0,0,.28-.59,1,1,0,0,0,.08-.59h0Z" transform="translate(-0.66 -0.81)"/><path d="M37.8,25.86a2.17,2.17,0,0,1-.37,1.39,0,0,0,0,1-.06,0,3,3,0,0,0,.39-1.35A0,0,0,0,1,37.8,25.86Z" transform="translate(-0.66 -0.81)"/><path d="M37.48,8.26a0,0,0,0,1,0,.07c-2.6.56-4.83,2.21-7.39,2.91,0,0-.06-.05,0-.06,1.34-.45,2.57-1.16,3.87-1.7.62-.26,1.23-.55,1.85-.81A3.82,3.82,0,0,1,37.48,8.26Z" transform="translate(-0.66 -0.81)"/><path d="M34.09,8.29s0,0,0,.05a14.35,14.35,0,0,0-2.45,1.05,0,0,0,0,1,0-.06A9.32,9.32,0,0,1,34.09,8.29Z" transform="translate(-0.66 -0.81)"/><path d="M33.81,16.9a0,0,0,0,1-.05.06c-.18-.1-.35-.28-.5,0a1.34,1.34,0,0,0-.07.4c0,.27-.09.55-.15.82a.13.13,0,1,1-.26-.07,8,8,0,0,1,.17-.82,1.29,1.29,0,0,1,.19-.57C33.35,16.5,33.66,16.7,33.81,16.9Z" transform="translate(-0.66 -0.81)"/><path d="M32.1,16.61s0,.08-.06.06-.34-.28-.5,0a1.67,1.67,0,0,0-.06.39c-.05.28-.09.56-.16.83s-.29.1-.26-.07.11-.55.18-.83a1.37,1.37,0,0,1,.18-.56C31.63,16.21,32,16.4,32.1,16.61Z" transform="translate(-0.66 -0.81)"/><path d="M30.41,16.25s0,.08-.06.06-.34-.28-.5,0a1.76,1.76,0,0,0-.06.4c-.05.27-.09.55-.16.82s-.28.1-.26-.07.11-.55.18-.82a1.41,1.41,0,0,1,.18-.57C29.94,15.85,30.26,16.05,30.41,16.25Z" transform="translate(-0.66 -0.81)"/><path d="M25.55,19.61a4.29,4.29,0,0,1,3.29,5.25A4.35,4.35,0,0,1,23.54,28a4.3,4.3,0,0,1-3-5.24,4.24,4.24,0,0,1,2-2.51l.06,0A4.22,4.22,0,0,1,25.55,19.61Zm2.55,4.45A3.52,3.52,0,0,0,28,22.8L27.9,23a9.4,9.4,0,0,1-.55,1.45,15.54,15.54,0,0,1-.93,1.7c-.17.27-.34.57-.53.86A3.5,3.5,0,0,0,28.1,24.06Zm-.83-1.26c.12-.23.23-.5.37-.73a3.68,3.68,0,0,0-1-1.07,7.49,7.49,0,0,1-.38.81c-.24.51-.51,1-.78,1.49l-.58,1c.08.7.17,1.4.25,2.1.2-.27.39-.54.57-.82.3-.49.58-1,.85-1.5S27.05,23.23,27.27,22.8ZM25.7,21.41a5.61,5.61,0,0,1,.49-.71,3.64,3.64,0,0,0-1.43-.41h-.44a6.73,6.73,0,0,1,.21,1c.1.55.17,1.11.23,1.66l0,0C25.08,22.38,25.37,21.89,25.7,21.41Zm-1.32,5.84h.06l-.21-1.72c-.28.5-.57,1-.86,1.48A3.16,3.16,0,0,0,24.38,27.25Zm-.31-3.12c-.05-.38-.09-.76-.13-1.15-.06-.55-.11-1.11-.14-1.67a7.34,7.34,0,0,1,0-.94,3.13,3.13,0,0,0-.52.16,3.63,3.63,0,0,0-.73.44l-.07.06c0,.24,0,.49.05.71,0,.5.07,1,.12,1.49s.12,1.18.21,1.76c.05.32.12.63.18.94Zm-1.93,2.06c-.06-.37-.11-.75-.16-1.11a15.24,15.24,0,0,1-.18-1.8,8.86,8.86,0,0,1,.06-1.54v-.06a3.7,3.7,0,0,0-.7,1.88A3.55,3.55,0,0,0,22.14,26.19Z" transform="translate(-0.66 -0.81)"/><path d="M28.75,15.84s0,.08-.06.06c-.18-.11-.35-.28-.5,0a1.28,1.28,0,0,0-.07.39c0,.28-.09.56-.15.83a.13.13,0,0,1-.26-.07c0-.28.11-.55.17-.82a1.25,1.25,0,0,1,.19-.57C28.28,15.44,28.6,15.63,28.75,15.84Z" transform="translate(-0.66 -0.81)"/><path class="cls-3" d="M28,22.8A3.44,3.44,0,0,1,25.89,27c.19-.29.36-.59.53-.86a15.54,15.54,0,0,0,.93-1.7A9.4,9.4,0,0,0,27.9,23Z" transform="translate(-0.66 -0.81)"/><path class="cls-3" d="M27.64,22.07c-.14.23-.25.5-.37.73-.22.43-.44.87-.67,1.3s-.55,1-.85,1.5c-.18.28-.37.55-.57.82-.08-.7-.17-1.4-.25-2.1l.58-1c.27-.49.54-1,.78-1.49a7.49,7.49,0,0,0,.38-.81A3.68,3.68,0,0,1,27.64,22.07Z" transform="translate(-0.66 -0.81)"/><path d="M26.31,8.05s0,0,0,0a6.08,6.08,0,0,1-2.16,1.15c-1.07.52-2.1,1.13-3.19,1.61-.06,0-.1-.05-.05-.08A32.16,32.16,0,0,1,24,9.16,8.37,8.37,0,0,0,26.31,8.05Z" transform="translate(-0.66 -0.81)"/><path d="M26.06,33.67a.22.22,0,0,1,0,.08s-.08.11-.21.21a1.24,1.24,0,0,1-.36.21,1,1,0,0,1-.55.07.51.51,0,0,1-.3-.18.38.38,0,0,1-.08-.17l-.12.08a.56.56,0,0,1-.41.08.42.42,0,0,1-.21-.11.24.24,0,0,1-.06-.09.37.37,0,0,1,0-.21.61.61,0,0,1,.05-.12l.15-.26,0-.06a1.19,1.19,0,0,1-.33,0h0a2,2,0,0,1-.45.41l-.21.12a1.07,1.07,0,0,1-.25.07v-.25a.6.6,0,0,0,.24-.09l.21-.14.23-.22h0a.46.46,0,0,1-.07-.07.35.35,0,0,1-.08-.29.29.29,0,0,1,.11-.16.31.31,0,0,1,.4,0,.29.29,0,0,1,.08.29.49.49,0,0,1,0,.11,1.1,1.1,0,0,0,.35,0l0,0,.13-.21a.85.85,0,0,1,.1-.15.12.12,0,0,1,.1,0,.12.12,0,0,1,.1.14l-.09.17-.45.75-.07.12a.1.1,0,0,0,0,.07.13.13,0,0,0,.09.05.32.32,0,0,0,.21,0,.41.41,0,0,0,.11-.07,1.51,1.51,0,0,0,.23-.26l0,0h0l.06-.09A1.58,1.58,0,0,1,25,33a.58.58,0,0,1,.47-.15.32.32,0,0,1,.2.12.18.18,0,0,1,.05.07.31.31,0,0,1,0,.21h0a.46.46,0,0,1-.15.23.71.71,0,0,1-.17.11,1,1,0,0,1-.26.09.81.81,0,0,1-.34,0h0A.21.21,0,0,0,25,34a.82.82,0,0,0,.52-.11,1.28,1.28,0,0,0,.35-.26.12.12,0,0,1,.1,0A.13.13,0,0,1,26.06,33.67Zm-.54-.45a.13.13,0,0,0,0-.08.07.07,0,0,0-.06,0c-.08,0-.17,0-.29.11a1.18,1.18,0,0,0-.23.27H25a1,1,0,0,0,.37-.12A.3.3,0,0,0,25.52,33.22Zm-1.93-.42s0-.06,0-.07H23.5a0,0,0,0,0,0,0s0,0,0,.06l.05.06A.18.18,0,0,0,23.59,32.8Z" transform="translate(-0.66 -0.81)"/><path class="cls-3" d="M26.19,20.7a5.61,5.61,0,0,0-.49.71c-.33.48-.62,1-.91,1.47l0,0c-.06-.55-.13-1.11-.23-1.66a6.73,6.73,0,0,0-.21-1h.44A3.64,3.64,0,0,1,26.19,20.7Z" transform="translate(-0.66 -0.81)"/><path d="M24.81,32.17a.12.12,0,0,1,0,.1.09.09,0,0,1,0,0,.74.74,0,0,1-.08.12.12.12,0,0,1-.1,0,.13.13,0,0,1-.07-.05.12.12,0,0,1,0-.1.17.17,0,0,1,0-.05.44.44,0,0,0,.06-.1l0,0a.12.12,0,0,1,.17,0Z" transform="translate(-0.66 -0.81)"/><path d="M24.67,15a1.63,1.63,0,0,1,0,.62c-.05.28-.09.56-.16.83s-.28.1-.26-.07.11-.57.18-.85a1.21,1.21,0,0,0,.09-.41c0-.27-.31-.17-.46-.15a0,0,0,0,1,0-.08C24.2,14.76,24.56,14.72,24.67,15Z" transform="translate(-0.66 -0.81)"/><path class="cls-3" d="M24.44,27.26h-.06a3.16,3.16,0,0,1-1-.23c.29-.49.58-1,.86-1.48Z" transform="translate(-0.66 -0.81)"/><path d="M24.36,4.41s0,0,0,0A31.89,31.89,0,0,0,20,6.24a38.84,38.84,0,0,0-4,1.9s0,0,0,0A33.76,33.76,0,0,1,20.1,6,14.63,14.63,0,0,1,24.36,4.41Z" transform="translate(-0.66 -0.81)"/><path class="cls-3" d="M23.94,23c0,.39.08.77.13,1.15L23,25.93c-.06-.31-.13-.62-.18-.94-.09-.58-.16-1.17-.21-1.76s-.08-1-.12-1.49c0-.22,0-.47-.05-.71l.07-.06a3.63,3.63,0,0,1,.73-.44,3.13,3.13,0,0,1,.52-.16,7.34,7.34,0,0,0,0,.94C23.83,21.87,23.88,22.43,23.94,23Z" transform="translate(-0.66 -0.81)"/><path d="M23.88,10.16c.05,0,.11,0,.07.06a2.63,2.63,0,0,1-1,.56,0,0,0,0,1,0-.06A4.44,4.44,0,0,0,23.88,10.16Z" transform="translate(-0.66 -0.81)"/><path class="cls-1" d="M23.56,32.73s0,0,0,.07a.18.18,0,0,1,0,.09l-.05-.06s0,0,0-.06a0,0,0,0,1,0,0Z" transform="translate(-0.66 -0.81)"/><path d="M23.14,32.48a.12.12,0,0,1,0,.1.09.09,0,0,1-.05.08,1,1,0,0,0-.28.33,1,1,0,0,0-.12.32.57.57,0,0,0,0,.22h0v.25h-.08c-.09,0-.15-.09-.18-.22v-.19a1,1,0,0,1-.25.14,1,1,0,0,1-.55.06.43.43,0,0,1-.3-.18.48.48,0,0,1-.08-.16.1.1,0,0,1-.05,0,.6.6,0,0,1-.47.12.38.38,0,0,1-.24-.15.34.34,0,0,1-.05-.26.36.36,0,0,1,0-.11l.05-.08L21,32h-.26s-.05,0-.07-.05a.17.17,0,0,1,0-.1l.05-.07.05,0a.87.87,0,0,1,.32,0l.07,0,.22-.4a.1.1,0,0,1,.06-.05h.07a.16.16,0,0,1,.08.06.15.15,0,0,1,0,.09s0,0,0,.05l-.19.34.1,0h.08a.09.09,0,0,1,.08.05.1.1,0,0,1,0,.09.14.14,0,0,1-.05.08l-.06,0h-.12l-.18,0c-.19.34-.36.64-.5.87,0,0,0,0,0,0a.08.08,0,0,0,0,.07.26.26,0,0,0,.09,0,.41.41,0,0,0,.34-.12,1.57,1.57,0,0,0,.2-.23l.09-.15a1.58,1.58,0,0,1,.28-.3.58.58,0,0,1,.47-.15.37.37,0,0,1,.2.12l.05.07a.39.39,0,0,1,0,.21h0a.46.46,0,0,1-.15.23.52.52,0,0,1-.17.12l-.26.09a.94.94,0,0,1-.33,0h0a.22.22,0,0,0,0,.09.21.21,0,0,0,.2.19.8.8,0,0,0,.52-.1,1.33,1.33,0,0,0,.35-.26h0a1.33,1.33,0,0,1,.39-.48.12.12,0,0,1,.11,0A.1.1,0,0,1,23.14,32.48Zm-.92.07a.11.11,0,0,0,0-.08.13.13,0,0,0-.07,0c-.08,0-.17,0-.29.12a1.13,1.13,0,0,0-.23.26h.11a.81.81,0,0,0,.38-.12A.22.22,0,0,0,22.22,32.55Z" transform="translate(-0.66 -0.81)"/><path d="M23,14.76a1.5,1.5,0,0,1,0,.63c-.05.27-.09.55-.15.83s-.29.09-.26-.08a8.33,8.33,0,0,1,.17-.84,1.27,1.27,0,0,0,.09-.42c0-.27-.31-.17-.46-.15a0,0,0,0,1,0-.08C22.51,14.52,22.86,14.47,23,14.76Z" transform="translate(-0.66 -0.81)"/><path class="cls-3" d="M22,25.08c.05.36.1.74.16,1.11a3.55,3.55,0,0,1-1-2.63,3.7,3.7,0,0,1,.7-1.88v.06a8.86,8.86,0,0,0-.06,1.54A15.24,15.24,0,0,0,22,25.08Z" transform="translate(-0.66 -0.81)"/><path d="M21.37,6.52a0,0,0,0,1,0,.05,5.59,5.59,0,0,1-1,.59,2.46,2.46,0,0,1-.91.31s0,0,0,0C20.19,7.34,20.72,6.77,21.37,6.52Z" transform="translate(-0.66 -0.81)"/><path d="M21.27,14.45a1.3,1.3,0,0,1,0,.62c0,.28-.09.56-.15.83s-.29.1-.26-.07.11-.56.17-.85a1.16,1.16,0,0,0,.09-.41c0-.27-.3-.17-.45-.15s-.08-.05,0-.08C20.81,14.2,21.16,14.16,21.27,14.45Z" transform="translate(-0.66 -0.81)"/><path d="M21,30.58a.45.45,0,0,1,.1.38.4.4,0,0,1-.25.31.59.59,0,0,1-.42,0l-.11,0s-.05,0-.05-.07a.13.13,0,0,1,0-.06.14.14,0,0,1,.08-.09.09.09,0,0,1,.07,0h.07a.39.39,0,0,0,.29,0,.16.16,0,0,0,.08-.12.21.21,0,0,0,0-.2.54.54,0,0,0-.3-.16.7.7,0,0,0-.29,0,.23.23,0,0,0-.11.07.3.3,0,0,0-.1.17.67.67,0,0,0,.05.41c0,.07.11.22.23.44a2.46,2.46,0,0,1,.14.26,1.18,1.18,0,0,1,.08.71,1,1,0,0,1-.42.62,1.22,1.22,0,0,1-.37.17,1.14,1.14,0,0,1-.45,0,1,1,0,0,1-.51-.26.83.83,0,0,1-.12-.16.8.8,0,0,1-.08-.55.91.91,0,0,1,.18-.37,1.17,1.17,0,0,1,.16-.15.7.7,0,0,1,.59-.12.66.66,0,0,1,.27.12.57.57,0,0,1,.22.38,1.07,1.07,0,0,1,0,.25.36.36,0,0,1,0,.11.1.1,0,0,1-.05.06.11.11,0,0,1-.08,0,.15.15,0,0,1-.09-.06.25.25,0,0,1,0-.08.51.51,0,0,0,0-.09.34.34,0,0,0,0-.3.32.32,0,0,0-.24-.16.5.5,0,0,0-.27,0,.59.59,0,0,0-.29.23.7.7,0,0,0-.08.2.65.65,0,0,0,0,.31.47.47,0,0,0,.22.26.78.78,0,0,0,.28.11.76.76,0,0,0,.49,0,.55.55,0,0,0,.17-.1.74.74,0,0,0,.29-.45,1,1,0,0,0,0-.48,2.65,2.65,0,0,0-.21-.41,2.94,2.94,0,0,1-.22-.42,1,1,0,0,1,0-.51.52.52,0,0,1,.06-.16.56.56,0,0,1,.4-.28.91.91,0,0,1,.33,0A.73.73,0,0,1,21,30.58Z" transform="translate(-0.66 -0.81)"/><path d="M20,4.57s.05,0,0,0a3.53,3.53,0,0,1-1.45.78,0,0,0,0,1,0,0A5.23,5.23,0,0,0,20,4.57Z" transform="translate(-0.66 -0.81)"/><path d="M19.57,14.07a1.35,1.35,0,0,1,0,.63c0,.28-.09.56-.15.83s-.29.1-.26-.07.11-.57.18-.85a1.56,1.56,0,0,0,.08-.42c0-.26-.3-.17-.45-.15a0,0,0,0,1,0-.08C19.11,13.83,19.46,13.78,19.57,14.07Z" transform="translate(-0.66 -0.81)"/><path d="M17.44,13.4c.3.37,0,1.16-.12,1.53s-.83.26-1.29.21S15.27,15,14.9,15a3.84,3.84,0,0,1-1-.24.53.53,0,0,1-.27-.26.07.07,0,0,1,0-.06v-.05a1.19,1.19,0,0,1,0-.46c0-.44.06-1,.37-1.14s1.3,0,1.74.1l1.08.28A1.29,1.29,0,0,1,17.44,13.4Zm-.24,1a1.38,1.38,0,0,0,.07-.57c-.08-.36-.43-.39-.71-.47s-.81-.23-1.23-.32-1.17-.32-1.43.23a2,2,0,0,0-.09.55c0,.12,0,.24-.05.35.11.46.73.45,1.13.52s.89.16,1.34.21a2.06,2.06,0,0,0,.65.07C17.11,14.88,17.16,14.59,17.2,14.39Z" transform="translate(-0.66 -0.81)"/><path class="cls-6" d="M17.27,13.82a1.38,1.38,0,0,1-.07.57c0,.2-.09.49-.32.57a2.06,2.06,0,0,1-.65-.07c-.45-.05-.9-.12-1.34-.21s-1-.06-1.13-.52c0-.11,0-.23.05-.35a2,2,0,0,1,.09-.55c.26-.55,1-.31,1.43-.23s.83.2,1.23.32S17.19,13.46,17.27,13.82Z" transform="translate(-0.66 -0.81)"/><path d="M15.86,20.34a3.67,3.67,0,0,1-.37,3,3.09,3.09,0,0,1-2.38,1.51A2.7,2.7,0,0,1,10.83,24a3.58,3.58,0,0,1-.54-4.7A2.86,2.86,0,0,1,11.84,18a2.48,2.48,0,0,1,1.37-.2,2.19,2.19,0,0,1,.86.29,2.33,2.33,0,0,1,1.06.82A4,4,0,0,1,15.86,20.34ZM15.17,23a3.21,3.21,0,0,0,.33-2.1,4,4,0,0,1-.19,1.53,3.32,3.32,0,0,1-2.13,2.07h0A2.88,2.88,0,0,0,15.17,23Zm-2.09-4.54a2,2,0,0,1,1.46,1.1,2,2,0,0,0-2.06-1.3,2.46,2.46,0,0,0-1.89,1.24,3,3,0,0,0-.27.57l0,.07v0c0,.05,0,.11,0,.16a3.84,3.84,0,0,0-.14.9,3.35,3.35,0,0,1,.58-1.66,2.32,2.32,0,0,1,1.16-.94A2.15,2.15,0,0,1,13.08,18.43Zm.14,4.71a2.64,2.64,0,0,0,.32-4,1.73,1.73,0,0,0-2.34.22,2.43,2.43,0,0,0-.51.84,3.14,3.14,0,0,0-.17.77,2.3,2.3,0,0,0,.68,2A1.69,1.69,0,0,0,13.22,23.14ZM11.93,24a2.27,2.27,0,0,0,2.35-1,2.33,2.33,0,0,1-3.11.59,2.4,2.4,0,0,1-.75-.81A2.2,2.2,0,0,0,11.93,24Z" transform="translate(-0.66 -0.81)"/><path class="cls-2" d="M15,3.88l-.29.38c-.45.59-.91,1.19-1.34,1.8a19.35,19.35,0,0,0-1.22,1.87,6,6,0,0,0-.74,1.57,2.75,2.75,0,0,0-.41,0,18.25,18.25,0,0,0,.82-1.66A14.86,14.86,0,0,1,13,6.1c.45-.59,1-1.12,1.48-1.67C14.65,4.25,14.84,4.07,15,3.88Z" transform="translate(-0.66 -0.81)"/><path d="M15,16.56l0,.17-3.13-.58H11.7c-.72,0-1.06.5-1.35,1.13a21.6,21.6,0,0,0-.92,2.35l-.17-.05c.11-.32.21-.64.33-1a11.64,11.64,0,0,1,.83-2,1.41,1.41,0,0,1,1.05-.73,8.73,8.73,0,0,1,2.94.5Z" transform="translate(-0.66 -0.81)"/><path class="cls-5" d="M13.54,19.17a2.64,2.64,0,0,1-.32,4,1.69,1.69,0,0,1-2-.18,2.3,2.3,0,0,1-.68-2,3.14,3.14,0,0,1,.17-.77,2.43,2.43,0,0,1,.51-.84A1.73,1.73,0,0,1,13.54,19.17Zm-1.1,2s0,0,0,0a3.12,3.12,0,0,0-.19,1.17c0,.06.1,0,.1,0C12.36,21.91,12.39,21.53,12.44,21.14Zm-.39-.62c0-.07-.07-.13-.11-.06a4.17,4.17,0,0,0-.37,2.26,0,0,0,0,0,.07,0A7.14,7.14,0,0,1,12.05,20.52Zm-.37-1a0,0,0,0,0-.06,0c-.18,1-.9,1.84-.76,2.88,0,0,.06,0,.06,0C11,21.39,11.57,20.55,11.68,19.55Z" transform="translate(-0.66 -0.81)"/><path d="M12.4,21.14s0,0,0,0c0,.39-.08.77-.13,1.15,0,.06-.09.08-.1,0A3.12,3.12,0,0,1,12.4,21.14Z" transform="translate(-0.66 -0.81)"/><path d="M11.94,20.46c0-.07.14,0,.11.06a7.14,7.14,0,0,0-.41,2.2,0,0,0,0,1-.07,0A4.17,4.17,0,0,1,11.94,20.46Z" transform="translate(-0.66 -0.81)"/><path d="M12,10.14s0,0,0,0-.31.18-.45.29a1.61,1.61,0,0,0-.33.41s-.07,0-.06,0A1.23,1.23,0,0,1,12,10.14Z" transform="translate(-0.66 -0.81)"/><path d="M11.62,19.54a0,0,0,0,1,.06,0c-.11,1-.7,1.84-.76,2.87,0,0-.06,0-.06,0C10.72,21.38,11.44,20.52,11.62,19.54Z" transform="translate(-0.66 -0.81)"/><path class="cls-7" d="M9.32,32.16h0l.28,0,.88.17.3.06A8.86,8.86,0,0,0,10.44,34c-.06.31-.11.62-.19.92a1.66,1.66,0,0,1-.18.38c-.06.09-.14.17-.2.25a1.17,1.17,0,0,1-.37.08s0-.08,0-.11a3.43,3.43,0,0,0-.11-.46h0a.9.9,0,0,0,0,.46.52.52,0,0,0,0,.11H9.29l-.21,0a1.93,1.93,0,0,1-.21-1,0,0,0,0,0-.07,0,1.74,1.74,0,0,0,.09,1l-.35-.08a2.55,2.55,0,0,1-.26-1.3s0,0,0,0a2.74,2.74,0,0,0,.13,1.26A1.81,1.81,0,0,1,7.63,35c-.37-.45-.25-1.28-.26-1.82,0-.32,0-.64,0-1a4.62,4.62,0,0,0,.06-.65l.48.21h0a2.78,2.78,0,0,0-.17,2.05,0,0,0,1,0,0,0,3.81,3.81,0,0,1,.19-2,.06.06,0,0,0,0,0,8,8,0,0,0,1.22.36h.13Zm0,0h0Zm-.43,0a0,0,0,0,0-.07,0,1.93,1.93,0,0,0-.18.88.06.06,0,1,0,.12,0A8.51,8.51,0,0,1,8.91,32.17Zm-.79,1s0,0,0,0a5.09,5.09,0,0,1-.06-.87s0,0,0,0A2.13,2.13,0,0,0,8.12,33.17Z" transform="translate(-0.66 -0.81)"/><path class="cls-1" d="M10.5,9.68a1.42,1.42,0,0,0-.29.21l0,0A5.75,5.75,0,0,0,9.06,8.25l.37.36C9.79,9,10.13,9.34,10.5,9.68Z" transform="translate(-0.66 -0.81)"/><path d="M9.34,32.17h0Z" transform="translate(-0.66 -0.81)"/><path d="M8.84,32.15a0,0,0,0,1,.07,0,8.51,8.51,0,0,0-.13.86.06.06,0,1,1-.12,0A1.93,1.93,0,0,1,8.84,32.15Z" transform="translate(-0.66 -0.81)"/><path class="cls-1" d="M8.85,7.09a1,1,0,0,1-.12.51,6.14,6.14,0,0,0-.59-.45A.12.12,0,0,0,8,7.3a4.21,4.21,0,0,0,.33.55l-.12.06c-.59.52-1.3-.31-1.44-.86A1.74,1.74,0,0,1,7,5.59c.5-.58,1.42.16,1.69.62A1.71,1.71,0,0,1,8.85,7.09Z" transform="translate(-0.66 -0.81)"/><path d="M8.16,33.17s0,0,0,0a2.13,2.13,0,0,1-.06-.87s0,0,0,0A5.09,5.09,0,0,0,8.16,33.17Z" transform="translate(-0.66 -0.81)"/></svg>