<svg xmlns="http://www.w3.org/2000/svg" viewBox="0 0 241.4 123.8"><defs><style>.cls-1{fill:#fff;}.cls-2{fill:#d1d3d4;}.cls-3{fill:none;}.cls-4{fill:#fbb040;}.cls-5{fill:#f5fbfb;}.cls-6{fill:#fefbd6;}.cls-7{fill:#bc8430;}.cls-8{fill:#58595b;}</style></defs><title>stevie-logo</title><path d="M36.3,121.43A2.72,2.72,0,0,1,34,120.19a3.86,3.86,0,0,1-.54-2.08,11.76,11.76,0,0,1,1.18-4.51,10.52,10.52,0,0,0,1.1-4c0-1.32-.61-2-1.81-2a6.12,6.12,0,0,0-3,1,8.59,8.59,0,0,0-2.85,2.87c-1.36,2.79-2.83,5.9-4.42,9.3a1.16,1.16,0,0,1-1,.66,1.12,1.12,0,0,1-.49-.11,1.15,1.15,0,0,1-.62-1,2,2,0,0,1,.24-.81,6.22,6.22,0,0,1-3.54,1.23,3,3,0,0,1-2.7-1.44,5,5,0,0,1-.68-2.71,9.51,9.51,0,0,1,.92-4.06l.12-.23q3.11-6.81,6.62-13.34l-.23-.17c-.76-.57-1.51-1.15-2.24-1.73-1-.79-2-1.52-2.89-2.19a16.54,16.54,0,0,0-2.73-1.62,6.23,6.23,0,0,0-2.65-.63,5.68,5.68,0,0,0-4,1.85,1.05,1.05,0,0,1-.77.32,1.14,1.14,0,0,1-.81-.34,1.16,1.16,0,0,1-.32-.79,1.13,1.13,0,0,1,.32-.79,7.81,7.81,0,0,1,5.47-2.51,8.39,8.39,0,0,1,3.49.77,20.76,20.76,0,0,1,3.38,2q1.63,1.17,3.21,2.43L23.67,97q4.95-8.58,7.15-8.58a1,1,0,0,1,.85.36,1.17,1.17,0,0,1,0,1.52,1.2,1.2,0,0,1-.81.38q-1.51.66-5.36,7.61A12.82,12.82,0,0,0,28,99.43a13.89,13.89,0,0,0,3.27.65L32,98.7q.76-1.53,1.68-3.21c.59-1.12,1.23-2.21,1.92-3.28a23.43,23.43,0,0,1,2.17-2.89,10,10,0,0,1,2.42-2.07,5,5,0,0,1,2.66-.78,3.9,3.9,0,0,1,2.69,1,3.78,3.78,0,0,1,1.08,1.83,9.87,9.87,0,0,1,.32,2.45,9,9,0,0,1-3.19,6.76,14.36,14.36,0,0,1-5,2.81,19.14,19.14,0,0,1-6.05,1l-1.91,3.81a7.39,7.39,0,0,1,3.21-.81,4.18,4.18,0,0,1,2.85,1A4,4,0,0,1,38,109.59a12.55,12.55,0,0,1-1.3,4.94,9.44,9.44,0,0,0-1,3.58,1.53,1.53,0,0,0,.17.83.55.55,0,0,0,.4.25,3,3,0,0,0,1.94-1.06,17.56,17.56,0,0,0,2.08-2.53A25.44,25.44,0,0,0,42,112.81a1.17,1.17,0,0,1,1-.62,1.26,1.26,0,0,1,.51.11,1.19,1.19,0,0,1,.63,1,1.12,1.12,0,0,1-.14.51c-.12.27-.35.69-.69,1.28s-.74,1.23-1.23,2a16.74,16.74,0,0,1-1.66,2,8.4,8.4,0,0,1-2,1.66A4,4,0,0,1,36.3,121.43Zm-17.95-2.94a5.52,5.52,0,0,0,3.17-1.66,17.19,17.19,0,0,0,3.64-4.43,8.08,8.08,0,0,0,.48-1l.15-.36,4.37-8.81a15.51,15.51,0,0,1-3.22-.78,12.48,12.48,0,0,1-2.49-1.2q-3.73,7-6.57,13.22a7.92,7.92,0,0,0-.72,3.1C17.16,117.85,17.56,118.49,18.35,118.49Zm15.44-18.41a14.5,14.5,0,0,0,8.41-3.23,7.1,7.1,0,0,0,1.17-1.26,6.66,6.66,0,0,0,.93-1.68,6.2,6.2,0,0,0,.36-2.14,7.82,7.82,0,0,0-.25-1.86,1.5,1.5,0,0,0-.45-.78,1.72,1.72,0,0,0-1.12-.41q-2.15,0-4.77,3.81A55,55,0,0,0,34.33,99Z" transform="translate(-5.05 -2.07)"/><path d="M46.94,121h-.13a4.71,4.71,0,0,1-4.51-3,7.66,7.66,0,0,1-.48-2.74A13.72,13.72,0,0,1,43,109.87a15.4,15.4,0,0,1,3-4.61,6.23,6.23,0,0,1,4.3-2.07,4.76,4.76,0,0,1,1.68.32,3,3,0,0,1,1.47,1.25,3.74,3.74,0,0,1,.51,2,6.37,6.37,0,0,1-.36,2,9.32,9.32,0,0,1-1.64,2.94,9,9,0,0,1-2.74,2.17,7.68,7.68,0,0,1-3.56.83,9.12,9.12,0,0,1-1.53-.13,5.85,5.85,0,0,0,0,.73c0,2.31,1,3.46,2.87,3.48a8.68,8.68,0,0,0,4.51-1.63,11,11,0,0,0,3.87-4.34,1.17,1.17,0,0,1,1-.66,1,1,0,0,1,.48.12,1.08,1.08,0,0,1,.54,1.49,13,13,0,0,1-4.79,5.34A10.8,10.8,0,0,1,46.94,121Zm-1.3-8.57a5.37,5.37,0,0,0,2.75-.69,7,7,0,0,0,2-1.74,5.45,5.45,0,0,0,1.3-3.24,1.81,1.81,0,0,0-.13-.72c-.16-.4-.58-.61-1.26-.61a3.88,3.88,0,0,0-2.72,1.42,13.29,13.29,0,0,0-3,5.49A7.34,7.34,0,0,0,45.64,112.43Z" transform="translate(-5.05 -2.07)"/><path d="M73.49,125.87l-.25,0a3.69,3.69,0,0,1-1.62-.51,5.24,5.24,0,0,1-1.1-.83,1.06,1.06,0,0,0-.15-.15,2,2,0,0,1-.28-.34,1.16,1.16,0,0,1-.23-.68,1.13,1.13,0,0,1,.46-.89,1.19,1.19,0,0,1,.68-.22,1.13,1.13,0,0,1,.88.45l0,0c.06.07.17.18.32.32a4.67,4.67,0,0,0,.55.39,1.35,1.35,0,0,0,.68.17c.81,0,1.64-.84,2.49-2.47q2.08-4.27,4.94-11.66,2.26-5.75,4.23-10.38t3.75-7.9a18.27,18.27,0,0,0-8.66,5.21,18.92,18.92,0,0,0-3.39,5.09,12.93,12.93,0,0,0-1.21,5.3v.47a1.17,1.17,0,0,1-.3.8,1.35,1.35,0,0,1-.82.34,1.13,1.13,0,0,1-.79-.31,1.27,1.27,0,0,1-.36-.77v-.45a15.51,15.51,0,0,1,1.36-6.17,20.81,20.81,0,0,1,3.87-5.85A20.17,20.17,0,0,1,90.43,88.6q2.43-3.75,4.79-3.92h0a1.16,1.16,0,0,1,1.13,1.11,1.14,1.14,0,0,1-.3.8,1.05,1.05,0,0,1-.77.35c-.49,0-1.16.51-2,1.53a9,9,0,0,1,4.35,1.3A7.43,7.43,0,0,1,100,92.11a10.48,10.48,0,0,1,1.44,5.53,18.22,18.22,0,0,1-2.19,8.23,19.61,19.61,0,0,1-6.59,7.38,17.39,17.39,0,0,1-9,2.92,1.12,1.12,0,0,1-.85-.34,1.17,1.17,0,0,1-.32-.81,1,1,0,0,1,.31-.76,1.28,1.28,0,0,1,.77-.35,15.16,15.16,0,0,0,7.89-2.57,17.57,17.57,0,0,0,5.77-6.53,16.05,16.05,0,0,0,1.94-7.17,8.25,8.25,0,0,0-1.09-4.32q-1.67-2.59-5.45-2.6l-.91,0c-.57.94-1.22,2.14-2,3.6q-1.7,3.43-3.38,7.51c-.91,2.16-2,5-3.41,8.45q-2.85,7.45-5,11.87-1.8,3.47-4.23,3.68Z" transform="translate(-5.05 -2.07)"/><path d="M96.75,121.57a1.17,1.17,0,0,1-.47-.1,1.12,1.12,0,0,1-.7-1,1.26,1.26,0,0,1,.08-.43q4.5-10.92,9.37-21.55c.92-2,1.7-3.54,2.34-4.79s1.18-2.22,1.61-2.92a10,10,0,0,1,1-1.49,2.31,2.31,0,0,1,.72-.59,1.91,1.91,0,0,1,.55-.09,1.08,1.08,0,0,1,.81.32,1,1,0,0,1,.34.79,1.14,1.14,0,0,1-.74,1.08q-1.33,1.14-7.62,15.2a7.2,7.2,0,0,1,3.43-1,3.92,3.92,0,0,1,4,4.36,13.18,13.18,0,0,1-1.09,4.7,10,10,0,0,0-.83,3.45c0,.81.2,1.21.6,1.21a3.42,3.42,0,0,0,1.91-1.17,16.62,16.62,0,0,0,2-2.57,23.5,23.5,0,0,0,1.55-2.87,1.14,1.14,0,0,1,1-.68.94.94,0,0,1,.47.12,1.12,1.12,0,0,1,.66,1,1,1,0,0,1-.1.45q-.22.53-.87,1.77a16.7,16.7,0,0,1-3.86,5.06,4.53,4.53,0,0,1-2.76,1.11,2.67,2.67,0,0,1-2.19-1.13,3.84,3.84,0,0,1-.66-2.32,12.32,12.32,0,0,1,1-4.28,11,11,0,0,0,.93-3.87c0-1.4-.59-2.1-1.78-2.1a5.73,5.73,0,0,0-3,1.08,8.71,8.71,0,0,0-2.81,3q-1.83,4.28-4,9.49A1.17,1.17,0,0,1,96.75,121.57Z" transform="translate(-5.05 -2.07)"/><path d="M119.88,121.19a4.15,4.15,0,0,1-3.49-1.77,7.35,7.35,0,0,1-1.21-4.32,10.74,10.74,0,0,1,.51-3.33,13.66,13.66,0,0,1,3.68-5.84,7.53,7.53,0,0,1,5.12-2.31,4,4,0,0,1,3.64,2.06,7.45,7.45,0,0,1,.83,3.53,12.65,12.65,0,0,1-.57,3.66,15.51,15.51,0,0,1-1.45,3.43l-.23.4h.21a2.69,2.69,0,0,0,1.79-.74,8.76,8.76,0,0,0,1.7-1.88c.55-.78,1.09-1.63,1.6-2.53a1.11,1.11,0,0,1,1.53-.42,1.13,1.13,0,0,1,.57,1,1.21,1.21,0,0,1-.15.57,30.78,30.78,0,0,1-1.91,3,10.54,10.54,0,0,1-2.3,2.36,4.55,4.55,0,0,1-2.83.94,4.06,4.06,0,0,1-1.7-.32A7.31,7.31,0,0,1,119.88,121.19Zm0-2.26a5.16,5.16,0,0,0,3.7-1.83l0-.14a2.74,2.74,0,0,1-.19-1,3.57,3.57,0,0,1,.72-2.08,6.17,6.17,0,0,1,2-1.75.34.34,0,0,1,.12-.06l0,0,.06,0h0a11.55,11.55,0,0,0,.38-2.77,5,5,0,0,0-.51-2.4,1.72,1.72,0,0,0-1.66-.94,5.48,5.48,0,0,0-3.8,1.9,12.08,12.08,0,0,0-2.87,4.68,9.19,9.19,0,0,0-.41,2.65,5.48,5.48,0,0,0,.77,3A2,2,0,0,0,119.88,118.93Z" transform="translate(-5.05 -2.07)"/><path d="M134,121.06a3.09,3.09,0,0,1-2.7-1.44,5,5,0,0,1-.68-2.71,9.36,9.36,0,0,1,.92-4q3.63-7.77,6.17-12.53l-.69,0a5.6,5.6,0,0,0-1.31.15,1,1,0,0,1-.3,0,1.13,1.13,0,0,1-1.07-.83,1,1,0,0,1,0-.28,1.11,1.11,0,0,1,.22-.68,1.25,1.25,0,0,1,.61-.42,8,8,0,0,1,1.87-.22,12.9,12.9,0,0,1,1.88.13c3.29-5.91,5.64-9,7.08-9.38a2.49,2.49,0,0,1,.58-.09,1.08,1.08,0,0,1,.8.34,1,1,0,0,1,.34.79,1.09,1.09,0,0,1-.31.77,1.14,1.14,0,0,1-.77.36c-.31.08-.91.69-1.77,1.85a57.71,57.71,0,0,0-3.49,5.6l.45,0a5.55,5.55,0,0,0,1.41-.17,1.42,1.42,0,0,1,.31,0,1.12,1.12,0,0,1,1.11,1.11,1.18,1.18,0,0,1-.23.68,1.12,1.12,0,0,1-.62.41,8.16,8.16,0,0,1-2,.25,12.17,12.17,0,0,1-1.6-.1q-2.68,4.89-6.57,13.21a8,8,0,0,0-.72,3.12c0,1.25.38,1.88,1.14,1.88q1.8,0,4.11-2.43a18.49,18.49,0,0,0,2.75-3.61,1.14,1.14,0,0,1,1.55-.41,1.14,1.14,0,0,1,.55,1,1.34,1.34,0,0,1-.13.55,1.51,1.51,0,0,0-.14.21c-.11.18-.29.46-.54.83a18.73,18.73,0,0,1-1.34,1.81,16.8,16.8,0,0,1-1.89,2,11.49,11.49,0,0,1-2.32,1.64A5.49,5.49,0,0,1,134,121.06Z" transform="translate(-5.05 -2.07)"/><path d="M145.32,121.19a4.14,4.14,0,0,1-3.49-1.77,7.28,7.28,0,0,1-1.21-4.32,10.74,10.74,0,0,1,.51-3.33,13.57,13.57,0,0,1,3.68-5.84,7.51,7.51,0,0,1,5.11-2.31,4,4,0,0,1,3.64,2.06,7.33,7.33,0,0,1,.83,3.53,13,13,0,0,1-.56,3.66,15.54,15.54,0,0,1-1.46,3.43l-.22.4h.2a2.74,2.74,0,0,0,1.8-.74,9,9,0,0,0,1.7-1.88c.55-.78,1.08-1.63,1.6-2.53a1.14,1.14,0,0,1,1-.57,1.21,1.21,0,0,1,.57.15,1.12,1.12,0,0,1,.56,1,1.21,1.21,0,0,1-.15.57,30.69,30.69,0,0,1-1.9,3,10.76,10.76,0,0,1-2.3,2.36,4.6,4.6,0,0,1-2.84.94,4,4,0,0,1-1.69-.32A7.34,7.34,0,0,1,145.32,121.19Zm0-2.26a5.19,5.19,0,0,0,3.7-1.83l0-.14a2.56,2.56,0,0,1-.19-1,3.57,3.57,0,0,1,.72-2.08,6,6,0,0,1,2-1.75.24.24,0,0,1,.11-.06l0,0,.05,0h0a11.55,11.55,0,0,0,.38-2.77,5,5,0,0,0-.51-2.4,1.72,1.72,0,0,0-1.66-.94,5.46,5.46,0,0,0-3.79,1.9,12,12,0,0,0-2.87,4.68,8.87,8.87,0,0,0-.42,2.65,5.4,5.4,0,0,0,.78,3A2,2,0,0,0,145.32,118.93Z" transform="translate(-5.05 -2.07)"/><path d="M185,122.17c-.68,0-1.41,0-2.17-.11a24.1,24.1,0,0,1-3.7-.64,23,23,0,0,1-2.32-.82l-.59-.22a3,3,0,0,1-2.26,1.43l-.4,0a2.21,2.21,0,0,1-1.6-.66,1.87,1.87,0,0,1-.49-1.23,2.3,2.3,0,0,1,.83-1.69,2.4,2.4,0,0,1,1.64-.66,5.53,5.53,0,0,1,1.34.17q1.38-2.39,3.87-7.93c1.36-3,2.62-5.67,3.79-7.9a27.57,27.57,0,0,1,3.36-5.25,4.47,4.47,0,0,1,3.28-1.87h.23a1.12,1.12,0,0,1,.75.36,1.16,1.16,0,0,1,.28.77,1,1,0,0,1-.35.82,1.12,1.12,0,0,1-.78.3h-.11q-1.22,0-3.6,4-2.42,4.31-4.8,9.74-2.21,5-3.71,7.69l.18.08c.6.24,1.29.48,2.1.72a23.57,23.57,0,0,0,3.28.58c.64.06,1.27.1,1.87.1a12.53,12.53,0,0,0,5.32-1.06,7.45,7.45,0,0,0,3.42-3.08,6.41,6.41,0,0,0,.83-3.07,5,5,0,0,0-.93-3,4.27,4.27,0,0,0-3.55-1.62,7.74,7.74,0,0,0-1.71.21,10.15,10.15,0,0,1-2.25.41,1,1,0,0,1-.87-.37,1.29,1.29,0,0,1-.28-.78,1.08,1.08,0,0,1,.76-1.07,9.48,9.48,0,0,1,1.81-.44,12.08,12.08,0,0,0,5.56-2.58,14.13,14.13,0,0,0,3.49-4.38,10.33,10.33,0,0,0,1.25-4.56,4.52,4.52,0,0,0-.85-2.89c-.63-.77-1.85-1.15-3.66-1.15a12.71,12.71,0,0,0-4.19.75,17.77,17.77,0,0,0-4.23,2.23,20.69,20.69,0,0,0-6,6.92,24.45,24.45,0,0,0-2.83,9.4,1.18,1.18,0,0,1-.38.74,1.08,1.08,0,0,1-.74.28,1.06,1.06,0,0,1-.83-.36,1.19,1.19,0,0,1-.3-.77v-.12a27.42,27.42,0,0,1,3.11-10.28,23,23,0,0,1,6.68-7.64,19.76,19.76,0,0,1,4.85-2.53,15,15,0,0,1,4.89-.87,11.53,11.53,0,0,1,2.58.29,5.09,5.09,0,0,1,3.1,2A6.7,6.7,0,0,1,200,94.53a13.19,13.19,0,0,1-2,6.6,15.91,15.91,0,0,1-5.22,5.3,6.1,6.1,0,0,1,2.52,2,7.27,7.27,0,0,1,1.38,4.32,8.8,8.8,0,0,1-1.11,4.17,9.5,9.5,0,0,1-3.1,3.26A13.13,13.13,0,0,1,185,122.17Z" transform="translate(-5.05 -2.07)"/><path d="M202.11,120.45a3.67,3.67,0,0,1-3-1.51,5,5,0,0,1-.83-2.94q0-3.8,4.49-12.24l.14-.27a1.15,1.15,0,0,1,1-.58,1.16,1.16,0,0,1,.54.13,1.14,1.14,0,0,1,.59,1,1.41,1.41,0,0,1-.13.53l-.1.19q-1.4,2.64-2.81,5.92a14.36,14.36,0,0,0-1.41,5.3,2.66,2.66,0,0,0,.39,1.66,1.39,1.39,0,0,0,1.21.55h.17a6.12,6.12,0,0,0,3.38-1.89,13.29,13.29,0,0,0,2.88-4.13l0,0a50.78,50.78,0,0,1,2.17-5.05c.79-1.6,1.44-2.82,1.93-3.65a1.11,1.11,0,0,1,1.52-.41,1.14,1.14,0,0,1,.57,1,1.21,1.21,0,0,1-.15.57,60.53,60.53,0,0,0-3.45,7.13,16.15,16.15,0,0,0-1.46,5.4,1.35,1.35,0,0,0,.25,1,.7.7,0,0,0,.45.11,2.19,2.19,0,0,0,1.44-.87,15.06,15.06,0,0,0,1.52-2.09,19.56,19.56,0,0,0,1.23-2.4,1.15,1.15,0,0,1,1-.7,1.22,1.22,0,0,1,.45.1,1.11,1.11,0,0,1,.68,1,1.25,1.25,0,0,1-.07.43,24.44,24.44,0,0,1-1.12,2.25,13.81,13.81,0,0,1-2.17,3,4.38,4.38,0,0,1-3,1.52,2.7,2.7,0,0,1-2.47-1.3,3.19,3.19,0,0,1-.43-1.51,8.48,8.48,0,0,1-5,2.81Z" transform="translate(-5.05 -2.07)"/><path d="M220.32,121.55a5.48,5.48,0,0,1-1.15-.13,5,5,0,0,1-3.27-2.21,1.93,1.93,0,0,1-.49-1.19.91.91,0,0,1,.1-.43,1.11,1.11,0,0,1,1-.68,1.14,1.14,0,0,1,1,.66,3.34,3.34,0,0,0,.83,1,3.52,3.52,0,0,0,1.32.62H220a2.5,2.5,0,0,0,2.07-1.1,3.21,3.21,0,0,0,.48-1.77,7.44,7.44,0,0,0-.89-3.21,20.63,20.63,0,0,0-1.19-2c-.64-1-1.12-1.8-1.43-2.4q-1.58,3.49-3.19,6.49a1.19,1.19,0,0,1-1,.57,1.21,1.21,0,0,1-.53-.13,1.17,1.17,0,0,1-.59-1,1,1,0,0,1,.16-.55L214,114q.45-.76,1.62-3.15t2.25-5.07a5.14,5.14,0,0,1-.13-1.15,4.35,4.35,0,0,1,1.62-3.4,1.13,1.13,0,0,1,.73-.26,1.17,1.17,0,0,1,.55.13,1.19,1.19,0,0,1,.57,1v.13a20.77,20.77,0,0,1-1,3.66,17.68,17.68,0,0,0,2.19,4.09c.49.77.91,1.49,1.28,2.15a9.53,9.53,0,0,1,1.13,4.19v.42A27,27,0,0,0,228,112.6a1.11,1.11,0,0,1,.94-.52,1.17,1.17,0,0,1,.62.18,1.15,1.15,0,0,1,.51.95,1.25,1.25,0,0,1-.18.62,28.41,28.41,0,0,1-3.66,4.64,12.12,12.12,0,0,1-3.19,2.4A6.55,6.55,0,0,1,220.32,121.55Z" transform="translate(-5.05 -2.07)"/><path d="M22,84.8a18.38,18.38,0,0,1-10.57-3,13.22,13.22,0,0,1-2.8-2.49,15,15,0,0,1-3.6-10A16.61,16.61,0,0,1,6.9,61.71a16.26,16.26,0,0,1,2.52-3.54A14.33,14.33,0,0,1,20,53.62a12.72,12.72,0,0,1,5.57,1.26,11,11,0,0,1,5.53,6.34,14.34,14.34,0,0,1,.73,4.65,14.1,14.1,0,0,1-.17,2.27A2.37,2.37,0,0,1,29.33,70a2.38,2.38,0,0,1-1.85-.87A2.44,2.44,0,0,1,27,67.62c.07-.72.11-1.31.11-1.75a7.68,7.68,0,0,0-1.93-5.49,7.16,7.16,0,0,0-5.21-2,9.76,9.76,0,0,0-5,1.4,10.66,10.66,0,0,0-4.45,5.45,12.44,12.44,0,0,0-.7,4.1A11,11,0,0,0,11.28,75a9.94,9.94,0,0,0,5.14,4.16A16,16,0,0,0,31,77.21a14.73,14.73,0,0,0,6.54-12.08,18.15,18.15,0,0,0-2.48-8.81,48.7,48.7,0,0,0-5.46-6.93,58.69,58.69,0,0,1-5.67-7.14,18,18,0,0,1-2.76-9.34,12.1,12.1,0,0,1,.49-3.29,10.76,10.76,0,0,1,6.47-6.75,15.72,15.72,0,0,1,6.13-1.19,14.74,14.74,0,0,1,9.44,3.07A8.62,8.62,0,0,1,47,31.58a8.1,8.1,0,0,1-3.43,6.82,13.13,13.13,0,0,1-7.77,2.17,6.82,6.82,0,0,1-2.24-.21,2.25,2.25,0,0,1-1.26-1.15,2.31,2.31,0,0,1-.24-1,2.35,2.35,0,0,1,1-2,2.3,2.3,0,0,1,1.29-.42c.65,0,1.13.07,1.44.07,2.42,0,4.22-.55,5.38-1.64a3.37,3.37,0,0,0,1.05-2.52,4.35,4.35,0,0,0-1.85-3.5,9.94,9.94,0,0,0-6.19-1.82,10.53,10.53,0,0,0-5.36,1.33,5.4,5.4,0,0,0-1.85,1.68,5.76,5.76,0,0,0-1.19,3.53,13.52,13.52,0,0,0,2.55,7.53,72.06,72.06,0,0,0,6.06,7.31A46.17,46.17,0,0,1,38,52.22a22.64,22.64,0,0,1,4.23,13,19,19,0,0,1-5.46,13.26,21.38,21.38,0,0,1-6.4,4.51A18.93,18.93,0,0,1,22,84.8Z" transform="translate(-5.05 -2.07)"/><path d="M50.61,78.05a7.42,7.42,0,0,1-5-1.79,6.26,6.26,0,0,1-2.07-4.72,7,7,0,0,1,.39-2.31l.59-1.68,5-15.54a13.52,13.52,0,0,0-3.71.53,4.39,4.39,0,0,1-1.19.24,2.36,2.36,0,0,1-1.54-.59,2.41,2.41,0,0,1-.81-1.79,2.32,2.32,0,0,1,.6-1.54,2.72,2.72,0,0,1,.84-.63,16.79,16.79,0,0,1,6-1l1.36.07,2.66-8.25a2.34,2.34,0,0,1,.93-1.26,2.43,2.43,0,0,1,1.34-.42,2.27,2.27,0,0,1,1.65.71,2.32,2.32,0,0,1,.7,1.67,2.88,2.88,0,0,1-.21,1l-2.24,7.13a16.13,16.13,0,0,0,2,.14,5.71,5.71,0,0,0,1.33-.14h.32a2.33,2.33,0,0,1,1.66.7,2.24,2.24,0,0,1,.72,1.65,2.43,2.43,0,0,1-.63,1.61,3.15,3.15,0,0,1-1,.63,8.42,8.42,0,0,1-2.45.28,24.82,24.82,0,0,1-3.43-.32q-3.43,10.89-6,18.41a2.73,2.73,0,0,0-.1.73,1.56,1.56,0,0,0,.56,1.26,3,3,0,0,0,1.82.53q3.21,0,5.87-3.57a26.4,26.4,0,0,0,3.15-5.57,2.77,2.77,0,0,1,.46-.59,2.35,2.35,0,0,1,1.68-.7,2.42,2.42,0,0,1,1.47.52,2.48,2.48,0,0,1,.87,1.86c0,.79-.81,2.54-2.45,5.25A20.53,20.53,0,0,1,59,74.09Q55.16,78.05,50.61,78.05Z" transform="translate(-5.05 -2.07)"/><path d="M68.1,78.05a9.46,9.46,0,0,1-6.33-2.17,9.69,9.69,0,0,1-3-7.39,18.69,18.69,0,0,1,1.68-6.89,28.75,28.75,0,0,1,4.1-6.68q4-4.59,8.22-4.59a7,7,0,0,1,4.3,1.44,5.73,5.73,0,0,1,1.12,1.15,6.4,6.4,0,0,1,1.3,3.85l0,.14a8.44,8.44,0,0,1-1.75,4.94A14.14,14.14,0,0,1,75,64.64a28.1,28.1,0,0,1-4.58,2.66,15.23,15.23,0,0,1-6.16,1.58l-.74,0a7.53,7.53,0,0,0,.25,1.72q1,2.84,4.37,2.83,4.41,0,9.45-4A24.59,24.59,0,0,0,83,63.17a2.31,2.31,0,0,1,1.89-1,2.34,2.34,0,0,1,1.89,1,2.43,2.43,0,0,1,.45,1.37q0,1.26-3,4.86a27.18,27.18,0,0,1-6,5.29A18.52,18.52,0,0,1,68.1,78.05ZM64.5,64.19a9,9,0,0,0,2.06-.42A16.78,16.78,0,0,0,73.14,60a4.48,4.48,0,0,0,1.72-3.11,1.8,1.8,0,0,0-.7-1.47,2.48,2.48,0,0,0-1.4-.42c-1.45,0-3.08,1.09-4.9,3.29A22.07,22.07,0,0,0,64.5,64.19Z" transform="translate(-5.05 -2.07)"/><path d="M87.35,78.22q-2.8,0-4.17-3.46a15.35,15.35,0,0,1-.84-5.53,27,27,0,0,1,.6-5.53,24.29,24.29,0,0,1,5.53-11.2,2.66,2.66,0,0,1,2-1,2.44,2.44,0,0,1,1.54.56,2.39,2.39,0,0,1,.07,3.5,19.1,19.1,0,0,0-4,7.21,21.44,21.44,0,0,0-1,6.44,9.79,9.79,0,0,0,.7,4.27q1.44-.25,4.24-2.73a26.12,26.12,0,0,0,3.39-3.5,37.74,37.74,0,0,0,3.53-5v0a8.91,8.91,0,0,1-1.64-1.08A6.76,6.76,0,0,1,94.77,56a5.22,5.22,0,0,1,1.29-3.43,6.17,6.17,0,0,1,4.72-2.17,5.4,5.4,0,0,1,5.46,5.92,11.41,11.41,0,0,1-.24,2.24,28.22,28.22,0,0,0,6.89-2.17,2.47,2.47,0,0,1,.84-.14,2.17,2.17,0,0,1,1.66.73,2.3,2.3,0,0,1,.68,1.61,2.38,2.38,0,0,1-.56,1.54,2.77,2.77,0,0,1-1.05.7,25.29,25.29,0,0,1-10.35,2.59l-.49,0a40.34,40.34,0,0,1-6.93,9.38,29.79,29.79,0,0,1-3.39,3C90.92,77.39,88.93,78.22,87.35,78.22Zm13.89-20a6.59,6.59,0,0,0,.35-1.85c0-.8-.27-1.19-.81-1.19a1.72,1.72,0,0,0-1,.38,1,1,0,0,0-.24.63,1.75,1.75,0,0,0,.52,1.07A3.8,3.8,0,0,0,101.24,58.17Z" transform="translate(-5.05 -2.07)"/><path d="M114.78,78a7.76,7.76,0,0,1-4.41-1.26A4.93,4.93,0,0,1,109,75.39a6.22,6.22,0,0,1-1.33-3.92,7.56,7.56,0,0,1,.38-2.35L110,63.59q1.64-4.61,1.68-4.82s.36-1,1-2.91l1.61-4.58a20.25,20.25,0,0,1,1.19-3,2.26,2.26,0,0,1,1.85-1,2.48,2.48,0,0,1,1.51.53,2.38,2.38,0,0,1,.87,1.85,20.73,20.73,0,0,1-1.08,3.47L113.1,69a12.4,12.4,0,0,0-.7,2.52,1.59,1.59,0,0,0,.49,1.19,2.65,2.65,0,0,0,1.89.6,6.1,6.1,0,0,0,3.92-1.51A9.55,9.55,0,0,0,120.45,70a29.57,29.57,0,0,0,3.29-5.67l.21-.42a2.28,2.28,0,0,1,2-1,2.38,2.38,0,0,1,2.38,2.38,2.53,2.53,0,0,1-.32,1.19,32.81,32.81,0,0,1-3.67,6.3,15.73,15.73,0,0,1-2,2.2A11.16,11.16,0,0,1,114.78,78Zm4.83-32a2.24,2.24,0,0,1-1.65-.72,2.3,2.3,0,0,1-.7-1.63,3.19,3.19,0,0,1,.28-1.18c.45-1.15.71-1.81.79-2a2.53,2.53,0,0,1,.4-.58,2.41,2.41,0,0,1,1.72-.7,2.39,2.39,0,0,1,2.34,2.35,2.8,2.8,0,0,1-.28,1.15,12.52,12.52,0,0,1-1.12,2.48A2.12,2.12,0,0,1,119.61,46Z" transform="translate(-5.05 -2.07)"/><path d="M132.56,78.05a9.49,9.49,0,0,1-6.34-2.17,9.69,9.69,0,0,1-3-7.39,18.69,18.69,0,0,1,1.68-6.89A28.7,28.7,0,0,1,129,54.92q4-4.59,8.22-4.59a7,7,0,0,1,4.31,1.44,6,6,0,0,1,1.12,1.15A6.46,6.46,0,0,1,144,56.77l0,.14a8.51,8.51,0,0,1-1.75,4.94,14.2,14.2,0,0,1-2.84,2.79,28.1,28.1,0,0,1-4.58,2.66,15.19,15.19,0,0,1-6.16,1.58l-.73,0a8,8,0,0,0,.24,1.72q1,2.84,4.38,2.83,4.4,0,9.44-4a24.4,24.4,0,0,0,5.46-6.23,2.33,2.33,0,0,1,3.78,0,2.45,2.45,0,0,1,.46,1.37q0,1.26-3,4.86a27.18,27.18,0,0,1-6,5.29A18.51,18.51,0,0,1,132.56,78.05ZM129,64.19a8.92,8.92,0,0,0,2.07-.42A16.74,16.74,0,0,0,137.59,60a4.44,4.44,0,0,0,1.72-3.11,1.77,1.77,0,0,0-.7-1.47,2.48,2.48,0,0,0-1.4-.42c-1.45,0-3.08,1.09-4.9,3.29A22.07,22.07,0,0,0,129,64.19Z" transform="translate(-5.05 -2.07)"/><path class="cls-1" d="M157.19,57.25s-3.73,2.14-.44,6.92c2.13,2,6.25,3.19,8.18,3.56s13.71,2.68,15.75,3.16S195.48,74,195.48,74l8.5,1.72L214.37,78s4.19.63,5.67.88,4.3.6,4.9.36,3.78-1.71,4.17-3c.62-2.48,1.12-4.14-2.23-4.43-9.38-1.54-22.9-4.34-22.9-4.34l-22.77-4.87-15.46-3.44Z" transform="translate(-5.05 -2.07)"/><path class="cls-1" d="M170.22,38.3s5.79,2.13,5.57,5.45a7.5,7.5,0,0,1-.12,4.88c-1.37,1.74-2.39,3-3.71,3.26-2.21.25-4.39.22-5.75-1.12-.83-.88-2.72-3.29-2.63-5.92a9.24,9.24,0,0,1,3.72-5.92A17.49,17.49,0,0,1,170.22,38.3Z" transform="translate(-5.05 -2.07)"/><path class="cls-1" d="M163.34,24.68s.8-3.64,2.87-3.78c2.36.09,25.36,4.23,27.45,4.76,2.33.54,23.44,4.68,23.44,4.68s16.32,4.27,16.6,4.38a3.45,3.45,0,0,1,1.08,2.84,8.62,8.62,0,0,1-.38,2L223.08,36.3l-16.43-3.57-22.1-4.2-10.37-2.07-1.83-.06-.39.2s-6.61-1.21-7.85-1.2C163.25,25.43,163.34,24.68,163.34,24.68Z" transform="translate(-5.05 -2.07)"/><path class="cls-1" d="M176.66,5.47a30.8,30.8,0,0,1,12.65-2.85,153.31,153.31,0,0,1,16.46,2s12.32,3.16,14.09,4.16a82.24,82.24,0,0,1,8.51,5.5,33.73,33.73,0,0,1,2.45,2.92l-6-1.56-14.63-4L198.06,8.94,176.22,6.16Z" transform="translate(-5.05 -2.07)"/><polygon class="cls-1" points="162.27 18.45 164.29 14.58 167.06 10.74 171.79 4.71 168.48 6.69 165.37 10.41 163.16 13.6 161.57 16.62 161.16 17.71 160.98 18.83 161.84 18.83 162.27 18.45"/><path class="cls-2" d="M237.87,33.92c.37-.15.73-.28,1.1-.41A12.07,12.07,0,0,0,235.19,36a2.87,2.87,0,0,0-.41-.82C235.83,34.8,236.84,34.35,237.87,33.92Z" transform="translate(-5.05 -2.07)"/><path class="cls-3" d="M233.5,30.72c.09,1.08,0,2.26.06,3.36l-.11-.06-.55-.25a12.64,12.64,0,0,0-.09-4.16c-.15-1.4-.37-2.79-.65-4.17s-.62-2.91-1-4.36l-.2-.87c.19.51.38,1,.53,1.51.44,1.43.95,2.87,1.27,4.34A34.69,34.69,0,0,1,233.5,30.72Z" transform="translate(-5.05 -2.07)"/><path class="cls-2" d="M245.27,30.4a4.09,4.09,0,0,1-1.1,3c-.79.9-2.69,1.49-3.32.13a1.25,1.25,0,0,0-.12-.17,8.25,8.25,0,0,0,1.09-.77c.19-.17,0-.43-.23-.4a11.4,11.4,0,0,0-1.53.38,1.06,1.06,0,0,1,0-.31,3.88,3.88,0,0,1,1.86-2.58C242.92,29.12,245.05,28.79,245.27,30.4Z" transform="translate(-5.05 -2.07)"/><path d="M162.58,68.08h0l-.14,0-.13,0a18.62,18.62,0,0,1-2.56-.75.09.09,0,0,1,0,.07,8.14,8.14,0,0,0-.39,4.18c0,.07-.08.1-.1,0-.24-1.25-.5-3.24.36-4.31,0,0,0,0,0,0-.34-.13-.67-.28-1-.44a12.69,12.69,0,0,1-.13,1.37,20,20,0,0,0,0,2c0,1.13-.23,2.87.54,3.81a3.58,3.58,0,0,0,1.61,1,6,6,0,0,1-.28-2.65s0,0,0,0a5.32,5.32,0,0,0,.56,2.74c.24.07.49.13.73.18a3.69,3.69,0,0,1-.18-2,.08.08,0,0,1,.15,0,3.73,3.73,0,0,0,.44,2.06l.44.05h.16c0-.08,0-.16-.05-.24a2.2,2.2,0,0,1,0-.95s0,0,0,0a7.51,7.51,0,0,1,.25,1l.08.24a2.47,2.47,0,0,0,.77-.17c.14-.17.3-.34.44-.52a3.62,3.62,0,0,0,.36-.8c.18-.63.28-1.3.41-1.94a19.73,19.73,0,0,1,.78-3.25l-.62-.12-1.86-.36-.59-.11ZM246.23,29.6c.65,1.56-.24,3.59-1.34,4.74-1.29,1.35-4.15,1.79-5-.26a.48.48,0,0,1-.05-.23c-1.63.85-3.36,1.52-4.43,3.13a11.5,11.5,0,0,1-.45,3.47c-.65,2.74-1.29,5.5-1.85,8.26-.05.31-.08.62-.13.93-.33,2.45-.72,4.89-1.13,7.33s-.9,5-1.44,7.44a62.52,62.52,0,0,1-1.69,7.06,1.94,1.94,0,0,1,1.41,1.21,5.32,5.32,0,0,1-.36,3.07,5.72,5.72,0,0,1-2.09,2.75A7.06,7.06,0,0,1,224,79.66a9.85,9.85,0,0,1-.31,2,14.36,14.36,0,0,1-.82,3,7.16,7.16,0,0,1-.48,1,10.45,10.45,0,0,1,2.6-.43.35.35,0,0,1,.1.69l-.83.18h.43q.85,0,1.71,0c.32,0,.61-.06.78.25.31.58-1.55.48-1.67.48-.76,0-1.49,0-2.21.07a21.3,21.3,0,0,0,2.75.45c.58,0,1.39-.18,1.9.1.07,0,.06.12,0,.18a1.77,1.77,0,0,1-1.42.35c1.81.37,3.61.79,5.38,1.28.44.12.37.85-.1.81-6.38-.54-12.69-1.63-19-2.46q-17-2.21-34.1-3c-5.71-.25-11.41-.33-17.12-.41-2.85,0-5.7-.16-8.56-.21-1.42,0-2.85-.06-4.28-.06a35.82,35.82,0,0,1-4.27-.12c-.12,0-.17-.19,0-.22a33,33,0,0,1,4.66-.45c1.66-.11,3.33-.2,5-.33,3.21-.24,6.42-.34,9.63-.35,2.4,0,4.79,0,7.19.08-.46-.05-.92-.1-1.37-.13-2.15-.16-4.28-.15-6.43-.14a25,25,0,0,1-6-.48,0,0,0,0,1,0-.08c4.12.26,8.29-.15,12.4.32,2.49.28,5,.5,7.45.59-2.69-.46-5.4-.9-8.12-1.19a73.33,73.33,0,0,0-9.49-.38c-1.58,0-3.16.13-4.74.28s-3.15.58-4.72.62a.1.1,0,0,1,0-.2,21.31,21.31,0,0,1,5.28-1c.81-.11,1.63-.18,2.45-.24a15.68,15.68,0,0,0-3.14-.07c-1.09.06-2.19.09-3.28.11a9.62,9.62,0,0,1-2.94-.13s0,0,0,0a10.08,10.08,0,0,1,3.11-.21c1,0,2.08,0,3.11-.11a25,25,0,0,1,5,.35l1,0a108.51,108.51,0,0,1,18.78,1.63A26.89,26.89,0,0,0,174.71,81a11.67,11.67,0,0,1-3.82-.62s0,0,0,0c1.36.44,2.94,0,4.35.21a35.81,35.81,0,0,1,4.36,1,22.08,22.08,0,0,0,5.06.59c1.53,0,3.23-.17,4.68.41a.18.18,0,0,1,.09.08c1,0,2,0,3,0s1.87.08,2.8.14a8.77,8.77,0,0,1,2.51.31c.05,0,.06.09,0,.1a11.42,11.42,0,0,1-2.86,0c-.93,0-1.86-.08-2.8-.06-1.62,0-3.23.13-4.85.27,3.56.24,7.11.53,10.66.85s7.11.7,10.66,1.13c-1.07-.28-2.15-.54-3.23-.78-.13,0-.09-.21,0-.22a25.76,25.76,0,0,1,5.75.45,8.41,8.41,0,0,0-3-1,.18.18,0,0,1-.16-.15,36.9,36.9,0,0,0-5.76.06,0,0,0,1,1,0-.08,28.15,28.15,0,0,1,6.41-.42,22.1,22.1,0,0,1,2.8.59c.36.09.72.18,1.08.25,0-.09-.08-.17-.13-.26s.05-.12.1-.07a2.61,2.61,0,0,0,.69.34,2.7,2.7,0,0,1,.12-.89.17.17,0,0,1,0-.07v0l0-1.19a9.11,9.11,0,0,1,.48-3.45c-1.57-.43-3.15-.86-4.71-1.36l-.84-.16-18.82-3.64-18.14-3.5-3.62-.7a10.3,10.3,0,0,1-.58,3.51,9.79,9.79,0,0,1-.89,2.21,3.12,3.12,0,0,1-.8,1.23,1.4,1.4,0,0,1-.89.62l-.42.17c-1.61.51-3.6-.13-5.07-.84-1.73-.83-2.22-2.38-2.17-4.2a15.82,15.82,0,0,1,.46-3.06,7,7,0,0,1,.68-2.26,10.53,10.53,0,0,1-1-.65A6.33,6.33,0,0,1,154.64,59a3,3,0,0,1,1.4-2.2,2.44,2.44,0,0,1,.46-.14,66.7,66.7,0,0,1,1.25-7.28c.47-2.42,1-4.82,1.57-7.22s1.15-4.66,1.78-7c0-.16.07-.31.1-.46.3-1.62.63-3.23.94-4.84.26-1.4.55-2.77.7-4.19a8.71,8.71,0,0,1,1-3.74c-.45-1.7-1.66-2.9-2.74-4.22l-.08.09c-1.74,1.63-4.22,0-4.85-1.89-.49-1.47-.46-3.64.77-4.76,1.69-1.53,4.17.22,5,1.79a4.18,4.18,0,0,1,.45,2.83,2.35,2.35,0,0,1-.56,1.05c.42.38.82.77,1.23,1.15.9.83,1.82,1.65,2.75,2.46a8.74,8.74,0,0,1,1.47-3.89,33.23,33.23,0,0,1,2.53-3.82c.89-1.18,1.74-2.39,2.7-3.52.52-.62,1.08-1.22,1.62-1.83.24-.26.47-.54.71-.8a1.08,1.08,0,0,1-.53-.45.5.5,0,0,1,.08-.62,2.45,2.45,0,0,1,1.37-.34h.07a8.12,8.12,0,0,1,2.25-1.06A28.68,28.68,0,0,1,181.9,3a41,41,0,0,1,7.24-.94,48.59,48.59,0,0,1,8.08.5A65.62,65.62,0,0,1,205,4a65.54,65.54,0,0,1,8.17,1.94,47.58,47.58,0,0,1,7.32,2.7,39.05,39.05,0,0,1,6.29,3.79,28.33,28.33,0,0,1,2.62,2.16,8.2,8.2,0,0,1,1.8,2l.47.27c.37.22.88.44.7,1a.71.71,0,0,1-.8.42,33.28,33.28,0,0,1,1,3.4c.43,1.57.7,3.16,1,4.75a35.12,35.12,0,0,1,.65,4.68,10.62,10.62,0,0,1-.09,3.42l.11.09c1.17-.37,2.33-.76,3.49-1.17.56-.19,1.13-.41,1.7-.61a2.54,2.54,0,0,1-.09-1.23A4.18,4.18,0,0,1,241.06,29C242.54,28,245.38,27.52,246.23,29.6Zm-2.06,3.78a4.09,4.09,0,0,0,1.1-3c-.22-1.61-2.35-1.28-3.39-.74A3.88,3.88,0,0,0,240,32.24a1.06,1.06,0,0,0,0,.31,11.4,11.4,0,0,1,1.53-.38c.2,0,.42.23.23.4a8.25,8.25,0,0,1-1.09.77,1.25,1.25,0,0,1,.12.17C241.48,34.87,243.38,34.28,244.17,33.38Zm-5.2.13c-.37.13-.73.26-1.1.41-1,.43-2,.88-3.09,1.24a2.87,2.87,0,0,1,.41.82A12.07,12.07,0,0,1,239,33.51Zm-5.13,4.3c0-.72.25-1.94-.31-2.44l-.06,0a6,6,0,0,1,.16,1,4.29,4.29,0,0,1-.64,3.1s-.08,0-.06,0a5.63,5.63,0,0,0,.41-2.75,3.49,3.49,0,0,0-.43-1.57,2.22,2.22,0,0,0-.39-.12c.29.81.5,2-.11,2.36a0,0,0,0,1-.06-.05,3,3,0,0,0-.2-2.39c-.27,0-.54-.08-.82-.11a3.25,3.25,0,0,1,.19.44,1.61,1.61,0,0,1,.17,1.19c0,.06-.12,0-.1-.05a2.07,2.07,0,0,0-.34-1.24c-.06-.13-.12-.24-.19-.36-.34,0-.66,0-.91-.07A59.21,59.21,0,0,1,222.87,33c-2.42-.56-4.82-1.19-7.23-1.82l-1-.06a20.7,20.7,0,0,1-7.6-1.36s0-.05,0,0A22.88,22.88,0,0,0,214.71,31l-2.31-.58-.38-.05c-1.73-.24-3.45-.61-5.17-.95s-3.36-.56-5-1.05c0,0,0,0,0,0a50,50,0,0,1,5,.89c1.06.19,2.12.41,3.18.6-3.32-.82-6.64-1.63-9.94-2.52-4.42-.63-8.82-1.42-13.24-2.1l-2.51-.39c.71.15,1.43.3,2.14.43,2.91.56,5.84,1,8.72,1.75a0,0,0,0,1,0,.08c-3-.58-5.95-1.09-8.91-1.66-1.82-.35-3.76-.67-5.6-1.18-1.87-.3-3.74-.61-5.6-.95-1.07-.19-2.14-.36-3.2-.56-.88-.17-1.71-.5-2.58-.71a3.9,3.9,0,0,0-.36.25c-.38.3-.73.63-1.12.91,0,0,0,0,0,0A9.36,9.36,0,0,1,169,21.89a8.27,8.27,0,0,0-1.47-.35c-1.51.5-2.4,2.46-2.56,4,0,0-.05,0-.05,0a5.31,5.31,0,0,1,1.65-3.87l-.18.09a4.1,4.1,0,0,0-1.51,1.61c-.85,1.44-.9,3.23-1.31,4.82,0,.13-.06.26-.1.39a23.37,23.37,0,0,1-.56,3c-.25,1.2-.51,2.39-.75,3.6-.48,2.42-1,4.84-1.41,7.27s-.92,5-1.38,7.46c-.42,2.29-.68,4.68-1.24,7,.52.12,1,.3,1.49.41,1.74.45,3.48,1,5.24,1.33,3,.66,6,1.29,9.06,2,6.05,1.33,12.08,2.7,18.14,4,3.28.68,6.55,1.38,9.85,2,3,.51,6,.83,8.93,1.44q5.1,1,10.19,2.15c.81.18,1.63.37,2.45.52,1.22.2,2.45.39,3.67.62h0c.38-2.45,1.13-4.89,1.68-7.31s1.07-4.69,1.59-7,1.05-4.8,1.56-7.21c.22-1,.43-2.08.64-3.12.41-2.14.77-4.3,1-6.45C233.72,39.26,233.8,38.53,233.84,37.81Zm-.28-3.73c-.1-1.1,0-2.28-.06-3.36a34.69,34.69,0,0,0-.7-4.66c-.32-1.47-.83-2.91-1.27-4.34-.15-.49-.34-1-.53-1.51l.2.87c.34,1.45.68,2.9,1,4.36s.5,2.77.65,4.17a12.64,12.64,0,0,1,.09,4.16l.55.25Zm-1.21-.51c-.26-1.24-.22-2.6-.41-3.84-.23-1.46-.55-2.9-.9-4.34s-.73-2.88-1.13-4.31c-.18-.65-.37-1.31-.53-2a6.21,6.21,0,0,1-.29-1.5l-1.32-.42c-3.93-1.26-7.89-2.41-11.85-3.54-2.06-.59-4.12-1.16-6.19-1.69s-4.1-1-6.09-1.65c-2.53-.18-5-.71-7.52-1.08s-5.17-.72-7.77-1-5-.64-7.5-.9c-1.16-.12-2.32-.22-3.48-.35a5.84,5.84,0,0,1-.89,1.31c-.41.53-.84,1.05-1.27,1.57-1,1.18-1.94,2.35-2.88,3.55s-1.92,2.52-2.78,3.85c-.64,1-1.14,2.19-1.82,3.17l1.23.15c1.09.13,2.2.11,3.27.29s2,.36,3,.55c4.2.77,8.37,1.66,12.53,2.6s8.34,1.81,12.47,2.87c6.07,1,12.11,2.19,18.15,3.34,2.61.5,5.19,1.08,7.78,1.67a32.16,32.16,0,0,1,4.2,1C231,33.15,231.7,33.34,232.35,33.57ZM228.9,75a3.21,3.21,0,0,0,.12-1.82c-.27-.88-2.72-.85-3.48-1-1.58-.24-3.17-.4-4.74-.69-.91-.16-1.81-.35-2.72-.53A135.16,135.16,0,0,1,204.29,68l-.74-.22c-.15,1.16-.31,2.32-.48,3.49a11,11,0,0,1-.79,3.83l-.05.06,7,1.53c1.91.27,3.8.83,5.69,1.16,1.33.23,2.65.35,4,.45a6.71,6.71,0,0,1,3.11.6.08.08,0,0,1,0,0,11.83,11.83,0,0,0,1.46,0,.23.23,0,0,1,.3,0A5.75,5.75,0,0,0,227.9,77a5.83,5.83,0,0,0,.85-1.52A55.73,55.73,0,0,1,217.86,74c-4-.78-7.93-1.53-11.85-2.44,0,0,0-.09,0-.08C213.6,72.78,221.17,75.13,228.9,75Zm-.29-58.92.45.11-.79-.43c-1-.54-2.05-1-3.11-1.5a68.58,68.58,0,0,0-6.68-2.48A146.39,146.39,0,0,0,204,8.24c-4.76-1-9.54-1.9-14.37-2.39a67.07,67.07,0,0,0-7.23-.38c-1.23,0-2.46,0-3.69.16l-.8.08.64.1c1.22.18,2.44.38,3.67.53,2.31.3,4.63.58,6.94.93S194,8,196.35,8.39A45.87,45.87,0,0,1,203.7,10,46.17,46.17,0,0,1,211,11.39c2.36.56,4.7,1.18,7,1.79s4.75,1.31,7.11,2C226.28,15.49,227.44,15.78,228.61,16.09Zm.29-.86-.14-.13c-1.2-.74-2.32-1.55-3.59-2.18s-2.66-1.21-3.94-1.9c0,0,0-.06,0,0a37.76,37.76,0,0,1,4.05,1.71c.44.21.9.43,1.35.67-.46-.3-.93-.6-1.42-.86-1.06-.56-2.16-1.06-3.25-1.57-2.38-1.13-5-1.56-7.38-2.59a0,0,0,0,1,0,0,48.49,48.49,0,0,1,7.5,2.39l1.6.73a40.64,40.64,0,0,0-3.81-1.86,60.94,60.94,0,0,0-7.56-2.64c-2.53-.72-5.12-1.19-7.67-1.84-2.49-.39-4.94-1-7.44-1.29a61.27,61.27,0,0,0-7.77-.57h-1.57l1,.09c1.31.17,2.62.39,3.92.6,1.54.26,3.05.35,4.59.46a.06.06,0,1,1,0,.12,46.29,46.29,0,0,1-8.22-.75,20.22,20.22,0,0,0-5,.13c1.59.05,3.18.21,4.78.26,0,0,0,.05,0,.05-1.76.06-3.51-.05-5.26,0a18.26,18.26,0,0,0-4.69.68c.81-.07,1.61-.13,2.43-.18a54.22,54.22,0,0,1,7.75.18c2.55.23,5.07.58,7.59,1s5,.91,7.52,1.42h.11a137.81,137.81,0,0,1,13.88,3.43A57.49,57.49,0,0,1,228.9,15.23Zm-6.07,65.4c.1-.31.18-.64.29-.95-.42,0-.85,0-1.27-.07v0a2.19,2.19,0,0,1-.16,1.23,5,5,0,0,1-.6,1.25c-.07.1-.23,0-.17-.1a4.71,4.71,0,0,0,.59-1.29,6.75,6.75,0,0,1,.25-1.1s0,0,0,0l-.43,0a3,3,0,0,1-.67.14,1.3,1.3,0,0,1-.14.77c-.1.18-.19.46-.39.55,0,0-.08,0-.06-.06a6,6,0,0,0,.41-1.24,6.68,6.68,0,0,1-1,0,1.86,1.86,0,0,1-.39,1,.06.06,0,0,1-.1-.06c.09-.32.16-.65.25-1l-.51-.07a26.52,26.52,0,0,1-3.4-.77,8.33,8.33,0,0,1-.15,2.43,2.35,2.35,0,0,0,.2-.81s.06,0,.06,0a2.86,2.86,0,0,1-.22,1.19,1.91,1.91,0,0,1-.15.28V82c0,.23-.07.47-.1.7a.75.75,0,0,1,0,.44,3.85,3.85,0,0,0,.08,1.22,2.65,2.65,0,0,0,.42.88c.12.08.25.15.38.22,0-.41.07-.84.11-1.21a.06.06,0,1,1,.11,0,11.6,11.6,0,0,1,.06,1.34,5.25,5.25,0,0,0,.82.27,5.32,5.32,0,0,1,.53-1.91c0-.06.13,0,.11,0a7.2,7.2,0,0,0-.29,1.13c-.05.26-.06.54-.11.81a7.62,7.62,0,0,0,.94.14c.18-.6.4-1.19.59-1.78,0,0,0,0,0,0a2.31,2.31,0,0,1-.15,1.19,5.31,5.31,0,0,1-.22.6,5.76,5.76,0,0,0,.59,0c.22-.31.49-.59.7-.91a5.15,5.15,0,0,0,.71-1.45,0,0,0,0,1,.06,0,4.58,4.58,0,0,1-1,2.3,2.07,2.07,0,0,0,.9-.33c.9-.67,1.32-2.16,1.76-3.13A19.05,19.05,0,0,0,222.83,80.63Zm-21-9.59c.3-1.18.61-2.36.93-3.53-2.51-.66-5.1-1.12-7.64-1.64-3-.61-5.95-1.25-8.93-1.82l-.53-.11L180,62.88a10.76,10.76,0,0,1-.43,2.17,42.8,42.8,0,0,1-1.22,4.87l5,1.09,12.75,2.78,5,1.09a.8.8,0,0,1,0-.15A11.35,11.35,0,0,1,201.84,71Zm-22.69-7.6a3.4,3.4,0,0,1,.22-.68c-3.19-.6-6.37-1.19-9.56-1.81-3.36-.67-6.67-1.35-10-2.17-.69-.17-2.84-1-3.34-.36a3.08,3.08,0,0,0-.43,1.39,1.4,1.4,0,0,0,.53.58,7.21,7.21,0,0,0,1.27.48c.89.29,1.78.55,2.68.8,1.75.49,3.5.93,5.26,1.35,3.58.84,7.23,1.39,10.87,1.9.1,0,.08.18,0,.17a109.09,109.09,0,0,1-12.44-2.22c-2.11-.48-4.19-1.07-6.28-1.62a5.89,5.89,0,0,1-1.93-.74,4.49,4.49,0,0,0,.33,2c1.06,2.41,4.05,3.4,6.38,4,.67.18,1.37.31,2.05.45l12.81,2.79a39.75,39.75,0,0,1,1-4C178.76,64.94,178.93,64.19,179.15,63.44ZM174,9.33l.6-.79c-.4.39-.79.78-1.14,1.16-1,1.16-2.17,2.27-3.11,3.51a32.38,32.38,0,0,0-2.44,3.7c-.62,1.11-1,2.46-1.73,3.5a4.18,4.18,0,0,1,.87,0,12.23,12.23,0,0,1,1.55-3.31,46,46,0,0,1,2.57-4C172.11,11.84,173.08,10.59,174,9.33Zm-9.54,11.86a3.07,3.07,0,0,1,.6-.44c-.78-.71-1.5-1.49-2.24-2.25-.26-.26-.52-.52-.79-.76a12.54,12.54,0,0,1,2.39,3.49S164.47,21.2,164.49,21.19Zm-3.13-4.83a2.17,2.17,0,0,0,.27-1.07,3.69,3.69,0,0,0-.45-1.84c-.58-1-2.5-2.53-3.56-1.32a3.69,3.69,0,0,0-.41,3.09c.28,1.15,1.78,2.89,3,1.8a.52.52,0,0,1,.24-.13,7.3,7.3,0,0,1-.68-1.14.23.23,0,0,1,.32-.32A12.53,12.53,0,0,1,161.36,16.36Z" transform="translate(-5.05 -2.07)"/><path class="cls-4" d="M233.12,39.25l-.13.15s-.08,0-.06,0l.06-.14c-1.13-.29-2.25-.64-3.36-1-1.32-.41-2.65-.81-4-1.15a1.54,1.54,0,0,1,.55,1.2c0,1.22.17,2.84-.82,3.76s-2.54.84-3.8.75a45.47,45.47,0,0,1-5.32-.78c-4.92-.94-9.85-1.81-14.74-2.87L186,35.79c-2.59-.56-5.19-1.1-7.77-1.72a25.19,25.19,0,0,1-6-1.84c-1.67-.9-1.66-2.67-1.15-4.34a3.2,3.2,0,0,1,.65-1.35c-.91-.17-1.81-.35-2.72-.51-1.34-.24-2.71-.37-4.08-.53,0,0-.05,0-.05,0h0l-.8-.1c-.2.92-.32,1.86-.55,2.75,0,.13-.06.26-.1.39a23.37,23.37,0,0,1-.56,3c-.25,1.2-.51,2.39-.75,3.6-.48,2.42-1,4.84-1.41,7.27s-.92,5-1.38,7.46c-.42,2.29-.68,4.68-1.24,7,.52.12,1,.3,1.49.41,1.74.45,3.48,1,5.24,1.33,3,.66,6,1.29,9.06,2,6.05,1.33,12.08,2.7,18.14,4,3.28.68,6.55,1.38,9.85,2,3,.51,6,.83,8.93,1.44q5.1,1,10.19,2.15c.81.18,1.63.37,2.45.52,1.22.2,2.45.39,3.67.62h0c.38-2.45,1.13-4.89,1.68-7.31s1.07-4.69,1.59-7,1.05-4.8,1.56-7.21c.22-1,.43-2.08.64-3.12.41-2.14.77-4.3,1-6.45l.06-.58Zm-3,12.85c-.23,1.29-.35,2.6-.53,3.9-.34,2.53-.83,5.23-2.44,7.3-2.67,3.43-8.29,2.17-11.93,1.51-3.29-.6-6.61-1.05-9.9-1.59-3.52-.59-7-1.43-10.44-2.25-7-1.64-14-3.25-20.93-4.93-3-.73-6.06-1.58-9-2.57-2.27-.76-4.25-2.07-4.11-4.73a20.48,20.48,0,0,1,.89-4.43c.26-.91.53-1.82.82-2.72.22-.68.45-1.35.69-2a25.36,25.36,0,0,1,1.75-4.12,2.9,2.9,0,0,1,2.21-1.54c2.11-.29,4.16.63,6.18,1.06l1.26.26q20,3.15,39.65,7.66c3.41.78,6.82,1.5,10.23,2.27,2.16.48,5.25,1.25,5.84,3.78A7.69,7.69,0,0,1,230.08,52.1Z" transform="translate(-5.05 -2.07)"/><path class="cls-5" d="M231.94,29.73c.19,1.24.15,2.6.41,3.84-.65-.23-1.33-.42-2-.65a32.16,32.16,0,0,0-4.2-1c-2.59-.59-5.17-1.17-7.78-1.67-6-1.15-12.08-2.38-18.15-3.34-4.13-1.06-8.31-1.93-12.47-2.87s-8.33-1.83-12.53-2.6c-1-.19-2-.38-3-.55s-2.18-.16-3.27-.29l-1.23-.15c.68-1,1.18-2.18,1.82-3.17.86-1.33,1.81-2.6,2.78-3.85s1.91-2.37,2.88-3.55c.43-.52.86-1,1.27-1.57A5.84,5.84,0,0,0,177.37,7c1.16.13,2.32.23,3.48.35,2.51.26,5,.61,7.5.9s5.19.63,7.77,1,5,.9,7.52,1.08c2,.69,4.05,1.13,6.09,1.65s4.13,1.1,6.19,1.69c4,1.13,7.92,2.28,11.85,3.54l1.32.42a6.21,6.21,0,0,0,.29,1.5c.16.66.35,1.32.53,2,.4,1.43.79,2.86,1.13,4.31S231.71,28.27,231.94,29.73Zm-3-3.66c.1,0,.08-.21,0-.2-2.22.16-4,1.83-6.1,2.43,0,0,0,0,0,0C225,27.83,226.79,26.54,228.94,26.07Zm-1.11-7.37a0,0,0,0,0,0-.05A30.68,30.68,0,0,1,224,20.17c-1.22.37-2.45.67-3.67,1-3.31.94-6.39,2.55-9.73,3.42,0,0,0,.08,0,.07,3.48-.73,6.65-2.44,10.08-3.36,1.34-.37,2.68-.68,4-1.1A7.77,7.77,0,0,0,227.83,18.7Zm-5.91-.8c.08,0,.06-.13,0-.14a8,8,0,0,0-3.53.86c-1.3.56-2.59,1.17-3.9,1.72-2.73,1.14-5.32,2.62-8.14,3.57a.07.07,0,1,0,0,.13C211.75,22.56,216.44,19.09,221.92,17.9Zm-7.13,0a.06.06,0,0,0,0-.11A18.79,18.79,0,0,0,209.55,20a.07.07,0,1,0,.08.12A29,29,0,0,1,214.79,17.94Zm-16.36-.57s0-.09-.05-.05c-1.34,1.24-3.21,1.57-4.83,2.34A65.21,65.21,0,0,0,187.06,23a.09.09,0,1,0,.09.16c2.3-1,4.48-2.29,6.73-3.4C195.38,19,197.31,18.69,198.43,17.37Zm-4.14-7.62c.05,0,0-.1,0-.1-3.17.41-6.1,2-9,3.34a74.24,74.24,0,0,0-8.75,4.47s0,.05,0,0a85.08,85.08,0,0,1,8.48-4A67.88,67.88,0,0,1,194.29,9.75Zm-.88,12.13c.08-.08,0-.21-.14-.13a9.49,9.49,0,0,1-2.11,1.19c-.07,0,0,.15.06.13A5.16,5.16,0,0,0,193.41,21.88ZM188,14.21c.05,0,0-.14-.07-.12-1.35.53-2.48,1.74-3.95,2,0,0,0,.05,0,.05a5.27,5.27,0,0,0,1.92-.65A13,13,0,0,0,188,14.21Zm-3-4.15c.05,0,0-.11,0-.07A11.15,11.15,0,0,1,182,11.6a0,0,0,1,0,0,.09A7.76,7.76,0,0,0,185,10.06Z" transform="translate(-5.05 -2.07)"/><path d="M230.3,48.94a7.69,7.69,0,0,1-.22,3.16c-.23,1.29-.35,2.6-.53,3.9-.34,2.53-.83,5.23-2.44,7.3-2.67,3.43-8.29,2.17-11.93,1.51-3.29-.6-6.61-1.05-9.9-1.59-3.52-.59-7-1.43-10.44-2.25-7-1.64-14-3.25-20.93-4.93-3-.73-6.06-1.58-9-2.57-2.27-.76-4.25-2.07-4.11-4.73a20.48,20.48,0,0,1,.89-4.43c.26-.91.53-1.82.82-2.72l.34.11a36.84,36.84,0,0,0-1.07,4c-.3,1.46-.76,3.15-.17,4.59a4.76,4.76,0,0,0,3,2.37c5.71,2.1,11.77,3.29,17.68,4.68,6.38,1.51,12.76,3.15,19.19,4.5,3.17.67,6.39,1.11,9.59,1.6,2.49.39,5,.92,7.47,1.22a12.88,12.88,0,0,0,6.35-.39c2.31-.95,3.21-3.62,3.71-5.87.54-2.43.77-4.95,1.09-7.41a3.7,3.7,0,0,0-.72-3.17,8.77,8.77,0,0,0-4-2c-3-.85-6.2-1.38-9.27-2.08-3.22-.74-6.43-1.49-9.65-2.2-10.43-2.32-21-4-31.49-5.89l.06-.37q20,3.15,39.65,7.66c3.41.78,6.82,1.5,10.23,2.27C226.62,45.64,229.71,46.41,230.3,48.94Z" transform="translate(-5.05 -2.07)"/><path class="cls-4" d="M229,47.82a3.7,3.7,0,0,1,.72,3.17c-.32,2.46-.55,5-1.09,7.41-.5,2.25-1.4,4.92-3.71,5.87a12.88,12.88,0,0,1-6.35.39c-2.5-.3-5-.83-7.47-1.22-3.2-.49-6.42-.93-9.59-1.6-6.43-1.35-12.81-3-19.19-4.5-5.91-1.39-12-2.58-17.68-4.68a4.76,4.76,0,0,1-3-2.37c-.59-1.44-.13-3.13.17-4.59a36.84,36.84,0,0,1,1.07-4,49.13,49.13,0,0,1,2-5c.6-1.31,1.31-2.29,2.82-2.36h.31c2.19.42,4.39.82,6.6,1.22C185,37.49,195.58,39.17,206,41.49c3.22.71,6.43,1.46,9.65,2.2,3.07.7,6.24,1.23,9.27,2.08A8.77,8.77,0,0,1,229,47.82Zm-1.34,7.64a6.88,6.88,0,0,0-1.94-5.65,5,5,0,0,0-1.36-1.09,4.86,4.86,0,0,0-3-.63,4.67,4.67,0,0,0-2.71.61A8.61,8.61,0,0,0,216,50.76a7.8,7.8,0,0,0-1.83,6.09,6.47,6.47,0,0,0,3.32,4.93,5.79,5.79,0,0,0,5,.42C225.43,61.5,227.42,58.49,227.61,55.46ZM203.7,52.71a9,9,0,0,0-6.93-11,8.83,8.83,0,0,0-6.28,1.16l-.14.08a9,9,0,0,0-4.13,5.27,9,9,0,1,0,17.48,4.53Zm-28.1-3.29a7.7,7.7,0,0,0,.78-6.23,8.76,8.76,0,0,0-1.54-2.93,7.18,7.18,0,0,0-4-2.33,5.38,5.38,0,0,0-2.89.42,6,6,0,0,0-3.26,2.7c-1.93,3.12-1.89,7.57,1.13,9.9a5.74,5.74,0,0,0,4.8,1.66A6.45,6.45,0,0,0,175.6,49.42Z" transform="translate(-5.05 -2.07)"/><path d="M228.91,25.87c.11,0,.13.17,0,.2-2.15.47-4,1.76-6.12,2.25,0,0,0,0,0,0C224.9,27.7,226.69,26,228.91,25.87Z" transform="translate(-5.05 -2.07)"/><path d="M227.79,18.65a0,0,0,0,1,0,.05,7.77,7.77,0,0,1-3.15,1.52c-1.32.42-2.66.73-4,1.1-3.43.92-6.6,2.63-10.08,3.36,0,0-.08-.06,0-.07,3.34-.87,6.42-2.48,9.73-3.42,1.22-.35,2.45-.65,3.67-1A30.68,30.68,0,0,0,227.79,18.65Z" transform="translate(-5.05 -2.07)"/><path d="M226,58.05a7.78,7.78,0,0,0,.77-2.39,7.13,7.13,0,0,0-.11-2.8,4.59,4.59,0,0,0-8.51-1.46c1.41-1.71,3.57-2.69,5.77-1.52a4.62,4.62,0,0,1,1.24,1,5.63,5.63,0,0,1,1.56,4.32A6.82,6.82,0,0,1,226,58.05Zm-.35-8.24a6.88,6.88,0,0,1,1.94,5.65c-.19,3-2.18,6-5.1,6.74a5.79,5.79,0,0,1-5-.42,6.47,6.47,0,0,1-3.32-4.93A7.8,7.8,0,0,1,216,50.76a8.61,8.61,0,0,1,2.62-2.06,4.67,4.67,0,0,1,2.71-.61,4.86,4.86,0,0,1,3,.63A5,5,0,0,1,225.67,49.81Zm.34,4.93a5.06,5.06,0,0,0-.32-1.88,3.88,3.88,0,0,0-.72-1.2,3.5,3.5,0,0,0-3.4-1.2c-3.07.73-4.68,5.29-3,7.85a3.56,3.56,0,0,0,3.84,1.59,4.22,4.22,0,0,0,1.28-.56,5.18,5.18,0,0,0,2-2.84A6.75,6.75,0,0,0,226,54.74Zm-4.53,6.49a5.17,5.17,0,0,0,4.1-2.43A4.93,4.93,0,0,1,221,61.1c-2.8-.26-4.42-2.85-4.42-5.44C216.47,58.45,218.44,61.38,221.48,61.23Zm-6.45-5a6.2,6.2,0,0,0,2.36,4.7,7.29,7.29,0,0,1-1.82-7.24,9.85,9.85,0,0,1,.58-1.44A6.79,6.79,0,0,0,215,56.18Z" transform="translate(-5.05 -2.07)"/><path d="M226.18,38.28c0,1.22.17,2.84-.82,3.76s-2.54.84-3.8.75a45.47,45.47,0,0,1-5.32-.78c-4.92-.94-9.85-1.81-14.74-2.87L186,35.79c-2.59-.56-5.19-1.1-7.77-1.72a25.19,25.19,0,0,1-6-1.84c-1.67-.9-1.66-2.67-1.15-4.34.2-.65.44-1.44,1.15-1.68a4,4,0,0,1,1.61,0c1.49.18,2.93.6,4.39.92,4.07.68,8.12,1.48,12.17,2.24q8.76,1.65,17.5,3.45c2.57.53,5.14,1.16,7.72,1.57A58.2,58.2,0,0,1,223.17,36C224.32,36.35,226.19,36.78,226.18,38.28Zm-.61.51c0-.8,0-1.16-.76-1.59a12.18,12.18,0,0,0-3.18-1c-2.28-.47-4.54-1-6.81-1.47-4.52-1-9.08-1.91-13.62-2.82-8.53-1.72-17.14-3.08-25.64-4.93a21.06,21.06,0,0,0-2.09-.31,3.3,3.3,0,0,0-.94,0c-.74.17-.93,1.05-1.11,1.68a4.92,4.92,0,0,0-.16,2.19,1.87,1.87,0,0,0,1.19,1.39c2,.93,4.37,1.17,6.47,1.66,4.63,1.08,9.28,2,13.92,3s9.35,2.09,14,3c3.91.74,7.82,1.53,11.75,2.17a19.6,19.6,0,0,0,4.83.4,2,2,0,0,0,2-1.34A8,8,0,0,0,225.57,38.79Z" transform="translate(-5.05 -2.07)"/><path class="cls-6" d="M225.69,52.86a5.06,5.06,0,0,1,.32,1.88,6.75,6.75,0,0,1-.29,1.76,5.18,5.18,0,0,1-2,2.84l-.17-.35a.05.05,0,0,0,0,0,9.44,9.44,0,0,0,1.14-7h0l.27-.31A3.88,3.88,0,0,1,225.69,52.86Z" transform="translate(-5.05 -2.07)"/><path class="cls-4" d="M224.81,37.2c.8.43.8.79.76,1.59a8,8,0,0,1-.12,2,2,2,0,0,1-2,1.34,19.6,19.6,0,0,1-4.83-.4c-3.93-.64-7.84-1.43-11.75-2.17-4.7-.9-9.37-2-14-3s-9.29-2-13.92-3c-2.1-.49-4.5-.73-6.47-1.66a1.87,1.87,0,0,1-1.19-1.39,4.92,4.92,0,0,1,.16-2.19c.18-.63.37-1.51,1.11-1.68a3.3,3.3,0,0,1,.94,0,21.06,21.06,0,0,1,2.09.31c8.5,1.85,17.11,3.21,25.64,4.93,4.54.91,9.1,1.8,13.62,2.82,2.27.52,4.53,1,6.81,1.47A12.18,12.18,0,0,1,224.81,37.2Zm-.22,3.93c.37-.77.91-2.45.26-3.21a2.67,2.67,0,0,0-1.37-.58c-.75-.21-1.51-.41-2.27-.58-.93-.21-2.77-.79-3.67-.22-.64.41-.76,1.48-.78,2.4a2.58,2.58,0,0,0,0,1,.49.49,0,0,1,0,.12.11.11,0,0,0,.08.11,1.11,1.11,0,0,0,.57.56,8.81,8.81,0,0,0,2.1.5c.79.14,1.59.27,2.38.37C222.84,41.69,224.09,42.19,224.59,41.13Zm-10.53-5.05c.07,0,.18,0,.12-.12-.31-.44-1-.84-1.42-.32a2.94,2.94,0,0,0-.4,1.2c-.14.57-.27,1.15-.37,1.73-.05.35.47.51.55.15.14-.57.24-1.16.33-1.74a3.2,3.2,0,0,1,.14-.83C213.34,35.49,213.68,35.86,214.06,36.08Zm-3.61-.62c.08,0,.19-.05.13-.13-.32-.43-1-.83-1.43-.31a2.93,2.93,0,0,0-.39,1.2c-.14.57-.28,1.15-.37,1.73-.06.35.46.51.55.15.13-.58.23-1.16.33-1.74a3,3,0,0,1,.13-.84C209.73,34.87,210.08,35.24,210.45,35.46Zm-3.55-.75c.07,0,.18-.05.12-.12-.32-.43-1-.84-1.43-.32a2.93,2.93,0,0,0-.39,1.2c-.14.57-.28,1.15-.37,1.73-.06.35.46.51.55.15.14-.57.23-1.16.33-1.74a3.27,3.27,0,0,1,.13-.83C206.17,34.12,206.52,34.49,206.9,34.71Zm-3.51-.87c.07,0,.18-.05.12-.13-.32-.43-1-.83-1.43-.31a2.93,2.93,0,0,0-.39,1.2c-.14.57-.27,1.15-.37,1.73,0,.35.46.51.55.15.14-.58.24-1.16.33-1.74a3.35,3.35,0,0,1,.13-.84C202.66,33.25,203,33.62,203.39,33.84Zm-8.55-.56a3.05,3.05,0,0,0,.08-1.31c-.23-.62-1-.52-1.42-.23a.09.09,0,0,0,.07.16c.31,0,.87-.24,1,.32a2.67,2.67,0,0,1-.19.87c-.14.6-.27,1.19-.37,1.79-.06.35.47.52.55.15C194.65,34.46,194.75,33.87,194.84,33.28Zm-3.58-.52a2.77,2.77,0,0,0,.08-1.31c-.23-.62-1-.52-1.42-.23a.09.09,0,0,0,.07.16c.32,0,.87-.24,1,.32a2.67,2.67,0,0,1-.19.87c-.14.59-.27,1.19-.37,1.79,0,.35.47.52.55.15C191.07,33.93,191.17,33.35,191.26,32.76Zm-3.58-.65a3,3,0,0,0,.09-1.32c-.23-.61-1-.51-1.42-.23-.1.06,0,.18.07.17.31-.05.86-.25,1,.31a3.07,3.07,0,0,1-.18.88c-.14.59-.28,1.18-.37,1.79-.06.35.46.51.55.15C187.5,33.28,187.59,32.69,187.68,32.11Zm-3.57-.79A3,3,0,0,0,184.2,30c-.24-.61-1-.51-1.43-.23a.09.09,0,0,0,.07.17c.32-.05.87-.25,1,.31a2.78,2.78,0,0,1-.19.88c-.13.59-.27,1.18-.36,1.79-.06.35.46.51.54.15C183.93,32.49,184,31.9,184.11,31.32Zm-4.66.48c.37-.77.9-2.44.25-3.21a2.72,2.72,0,0,0-1.37-.58c-.75-.2-1.51-.41-2.26-.58-.94-.21-2.78-.79-3.68-.22-.64.41-.76,1.48-.78,2.4a2.63,2.63,0,0,0,0,1v.11a.12.12,0,0,0,.08.12,1.13,1.13,0,0,0,.56.56,8.87,8.87,0,0,0,2.11.49c.79.15,1.58.27,2.38.38C177.7,32.36,178.94,32.86,179.45,31.8Z" transform="translate(-5.05 -2.07)"/><path class="cls-6" d="M225,51.66l-.27.31a0,0,0,0,0,0,0c-.09,1.24,0,2.45-.18,3.68a17.35,17.35,0,0,1-1,3.26s0,.06,0,.06l.17.35a4.22,4.22,0,0,1-1.28.56,3.56,3.56,0,0,1-3.84-1.59c-1.69-2.56-.08-7.12,3-7.85A3.5,3.5,0,0,1,225,51.66Zm-2.14,6.41a4.32,4.32,0,0,0,.95-4.13s-.06,0-.05,0c.34,1.58-.51,2.66-1,4.06A.06.06,0,0,0,222.83,58.07Zm-1-.33a4.48,4.48,0,0,0,.78-2.91,0,0,0,0,0-.08,0,6.37,6.37,0,0,1-.82,2.85C221.64,57.76,221.75,57.8,221.79,57.74Z" transform="translate(-5.05 -2.07)"/><path d="M224.85,37.92c.65.76.11,2.44-.26,3.21-.5,1.06-1.75.56-2.71.43-.79-.1-1.59-.23-2.38-.37a8.81,8.81,0,0,1-2.1-.5,1.11,1.11,0,0,1-.57-.56.11.11,0,0,1-.08-.11.49.49,0,0,0,0-.12,2.58,2.58,0,0,1,0-1c0-.92.14-2,.78-2.4.9-.57,2.74,0,3.67.22.76.17,1.52.37,2.27.58A2.67,2.67,0,0,1,224.85,37.92Zm-.5,2.08a3,3,0,0,0,.15-1.19c-.17-.77-.91-.83-1.5-1-.85-.25-1.71-.49-2.58-.66s-2.46-.68-3,.47a4.4,4.4,0,0,0-.18,1.16c0,.25-.07.5-.11.75.23,1,1.55.94,2.38,1.1s1.88.32,2.82.43a4.08,4.08,0,0,0,1.37.14C224.15,41,224.26,40.42,224.35,40Z" transform="translate(-5.05 -2.07)"/><path d="M224.71,52a9.44,9.44,0,0,1-1.14,7,.05.05,0,0,1,0,0s-.05,0,0-.06a17.35,17.35,0,0,0,1-3.26c.2-1.23.09-2.44.18-3.68a0,0,0,0,1,0,0Z" transform="translate(-5.05 -2.07)"/><path class="cls-7" d="M224.5,38.81a3,3,0,0,1-.15,1.19c-.09.42-.2,1-.68,1.19a4.08,4.08,0,0,1-1.37-.14c-.94-.11-1.88-.26-2.82-.43s-2.15-.13-2.38-1.1c0-.25.08-.5.11-.75a4.4,4.4,0,0,1,.18-1.16c.57-1.15,2.08-.65,3-.47s1.73.41,2.58.66C223.59,38,224.33,38,224.5,38.81Z" transform="translate(-5.05 -2.07)"/><path d="M223.78,53.94a4.32,4.32,0,0,1-.95,4.13.06.06,0,0,1-.1-.06c.49-1.4,1.34-2.48,1-4.06C223.72,53.92,223.77,53.91,223.78,53.94Z" transform="translate(-5.05 -2.07)"/><path class="cls-8" d="M223.12,79.68c-.11.31-.19.64-.29.95a19.05,19.05,0,0,1-.79,1.93c-.44,1-.86,2.46-1.76,3.13a2.07,2.07,0,0,1-.9.33,4.58,4.58,0,0,0,1-2.3,0,0,0,0,0-.06,0,5.15,5.15,0,0,1-.71,1.45c-.21.32-.48.6-.7.91a5.76,5.76,0,0,1-.59,0,5.31,5.31,0,0,0,.22-.6,2.31,2.31,0,0,0,.15-1.19s0,0,0,0c-.19.59-.41,1.18-.59,1.78a7.62,7.62,0,0,1-.94-.14c.05-.27.06-.55.11-.81a7.2,7.2,0,0,1,.29-1.13c0-.07-.08-.09-.11,0a5.32,5.32,0,0,0-.53,1.91,5.25,5.25,0,0,1-.82-.27,11.6,11.6,0,0,0-.06-1.34.06.06,0,1,0-.11,0c0,.37-.1.8-.11,1.21-.13-.07-.26-.14-.38-.22a2.65,2.65,0,0,1-.42-.88,3.85,3.85,0,0,1-.08-1.22.75.75,0,0,0,0-.44c0-.23.06-.47.1-.7v-.08a1.91,1.91,0,0,0,.15-.28,2.86,2.86,0,0,0,.22-1.19s-.05,0-.06,0a2.35,2.35,0,0,1-.2.81,8.33,8.33,0,0,0,.15-2.43,26.52,26.52,0,0,0,3.4.77l.51.07c-.09.32-.16.65-.25,1a.06.06,0,0,0,.1.06,1.86,1.86,0,0,0,.39-1,6.68,6.68,0,0,0,1,0,6,6,0,0,1-.41,1.24s0,.07.06.06c.2-.09.29-.37.39-.55a1.3,1.3,0,0,0,.14-.77,3,3,0,0,0,.67-.14l.43,0s0,0,0,0a6.75,6.75,0,0,0-.25,1.1,4.71,4.71,0,0,1-.59,1.29c-.06.1.1.2.17.1a5,5,0,0,0,.6-1.25,2.19,2.19,0,0,0,.16-1.23v0C222.27,79.65,222.7,79.67,223.12,79.68Z" transform="translate(-5.05 -2.07)"/><path d="M222.57,54.83a4.48,4.48,0,0,1-.78,2.91c0,.06-.15,0-.12-.05a6.37,6.37,0,0,0,.82-2.85A0,0,0,0,1,222.57,54.83Z" transform="translate(-5.05 -2.07)"/><path d="M221.9,17.76c.08,0,.1.12,0,.14-5.48,1.19-10.17,4.66-15.55,6.14a.07.07,0,1,1,0-.13c2.82-.95,5.41-2.43,8.14-3.57,1.31-.55,2.6-1.16,3.9-1.72A8,8,0,0,1,221.9,17.76Z" transform="translate(-5.05 -2.07)"/><path d="M214.76,17.83a.06.06,0,0,1,0,.11,29,29,0,0,0-5.16,2.2.07.07,0,1,1-.08-.12A18.79,18.79,0,0,1,214.76,17.83Z" transform="translate(-5.05 -2.07)"/><path d="M214.18,36c.06.07-.05.16-.12.12-.38-.22-.72-.59-1.05.07a3.2,3.2,0,0,0-.14.83c-.09.58-.19,1.17-.33,1.74-.08.36-.6.2-.55-.15.1-.58.23-1.16.37-1.73a2.94,2.94,0,0,1,.4-1.2C213.2,35.12,213.87,35.52,214.18,36Z" transform="translate(-5.05 -2.07)"/><path d="M210.58,35.33c.06.08-.05.17-.13.13-.37-.22-.72-.59-1,.06a3,3,0,0,0-.13.84c-.1.58-.2,1.16-.33,1.74-.09.36-.61.2-.55-.15.09-.58.23-1.16.37-1.73a2.93,2.93,0,0,1,.39-1.2C209.59,34.5,210.26,34.9,210.58,35.33Z" transform="translate(-5.05 -2.07)"/><path d="M207,34.59c.06.07-.05.17-.12.12-.38-.22-.73-.59-1.06.07a3.27,3.27,0,0,0-.13.83c-.1.58-.19,1.17-.33,1.74-.09.36-.61.2-.55-.15.09-.58.23-1.16.37-1.73a2.93,2.93,0,0,1,.39-1.2C206,33.75,206.7,34.16,207,34.59Z" transform="translate(-5.05 -2.07)"/><path d="M196.77,41.67a9,9,0,0,1,6.93,11,9,9,0,1,1-17.48-4.53,9,9,0,0,1,4.13-5.27l.14-.08A8.83,8.83,0,0,1,196.77,41.67ZM202.15,51a7,7,0,0,0-.29-2.64l-.12.43a20.58,20.58,0,0,1-1.18,3.06,33.18,33.18,0,0,1-1.94,3.57c-.36.59-.73,1.21-1.12,1.81A7.34,7.34,0,0,0,202.15,51Zm-1.74-2.65c.26-.48.47-1,.77-1.53a7.63,7.63,0,0,0-2.05-2.26,14.15,14.15,0,0,1-.79,1.72c-.51,1.06-1.07,2.09-1.64,3.12l-1.22,2.15c.17,1.48.35,3,.53,4.43.41-.57.82-1.15,1.19-1.74.63-1,1.22-2.09,1.79-3.16C199.47,50.2,199.93,49.28,200.41,48.37Zm-3.32-2.93a13.69,13.69,0,0,1,1-1.48,7.81,7.81,0,0,0-3-.87,6.91,6.91,0,0,0-.91,0,13.48,13.48,0,0,1,.43,2c.21,1.16.36,2.33.5,3.5a.41.41,0,0,0,.05-.09C195.79,47.49,196.41,46.45,197.09,45.44Zm-2.76,12.31h.11c-.15-1.21-.29-2.41-.44-3.62-.6,1-1.2,2.09-1.81,3.13A7.25,7.25,0,0,0,194.33,57.75Zm-.67-6.57-.27-2.42c-.13-1.17-.23-2.35-.29-3.53a14.43,14.43,0,0,1,0-2,6.81,6.81,0,0,0-1.08.35,6.72,6.72,0,0,0-1.54.93l-.14.12c.06.5.05,1,.09,1.5.08,1,.15,2.08.25,3.12.11,1.25.25,2.49.44,3.73.1.65.25,1.31.39,2C192.2,53.71,192.93,52.44,193.66,51.18Zm-4,4.33c-.14-.78-.24-1.58-.35-2.32a34.5,34.5,0,0,1-.38-3.79,19.6,19.6,0,0,1,.13-3.25V46A7.61,7.61,0,0,0,187.55,50,7.31,7.31,0,0,0,189.61,55.51Z" transform="translate(-5.05 -2.07)"/><path d="M203.51,33.71c.06.08,0,.17-.12.13-.38-.22-.73-.59-1.06.06a3.35,3.35,0,0,0-.13.84c-.09.58-.19,1.16-.33,1.74-.09.36-.6.2-.55-.15.1-.58.23-1.16.37-1.73a2.93,2.93,0,0,1,.39-1.2C202.53,32.88,203.19,33.28,203.51,33.71Z" transform="translate(-5.05 -2.07)"/><path class="cls-4" d="M201.86,48.38a7,7,0,0,1,.29,2.64,7.34,7.34,0,0,1-4.65,6.23c.39-.6.76-1.22,1.12-1.81a33.18,33.18,0,0,0,1.94-3.57,20.58,20.58,0,0,0,1.18-3.06Z" transform="translate(-5.05 -2.07)"/><path class="cls-4" d="M201.18,46.84c-.3.49-.51,1-.77,1.53-.48.91-.94,1.83-1.42,2.73-.57,1.07-1.16,2.13-1.79,3.16-.37.59-.78,1.17-1.19,1.74-.18-1.47-.36-3-.53-4.43l1.22-2.15c.57-1,1.13-2.06,1.64-3.12a14.15,14.15,0,0,0,.79-1.72A7.63,7.63,0,0,1,201.18,46.84Z" transform="translate(-5.05 -2.07)"/><path d="M198.38,17.32s.08,0,.05.05c-1.12,1.32-3.05,1.67-4.55,2.4-2.25,1.11-4.43,2.39-6.73,3.4a.09.09,0,1,1-.09-.16,65.21,65.21,0,0,1,6.49-3.35C195.17,18.89,197,18.56,198.38,17.32Z" transform="translate(-5.05 -2.07)"/><path d="M197.86,71.27a.26.26,0,0,1,0,.15c0,.09-.17.25-.44.46a3.07,3.07,0,0,1-.77.44,2.09,2.09,0,0,1-1.16.14,1,1,0,0,1-.63-.38,1,1,0,0,1-.16-.36l-.25.17a1.25,1.25,0,0,1-.87.17.9.9,0,0,1-.45-.24.88.88,0,0,1-.12-.17.63.63,0,0,1-.05-.45,1.06,1.06,0,0,1,.09-.25l.33-.55.08-.13a2.36,2.36,0,0,1-.71,0h-.05a4.61,4.61,0,0,1-.95.85,3.58,3.58,0,0,1-.44.25,1.61,1.61,0,0,1-.52.15l0-.51a1.25,1.25,0,0,0,.51-.2,2.32,2.32,0,0,0,.44-.31,3.09,3.09,0,0,0,.49-.46h0a1.17,1.17,0,0,1-.15-.16.77.77,0,0,1-.15-.61.65.65,0,0,1,.21-.34.71.71,0,0,1,.56-.12.54.54,0,0,1,.3.15.6.6,0,0,1,.16.6,1.13,1.13,0,0,1-.08.24,2.91,2.91,0,0,0,.74-.07.43.43,0,0,1,0-.07l.28-.46a2,2,0,0,1,.19-.3.23.23,0,0,1,.22-.06.24.24,0,0,1,.15.09.3.3,0,0,1,.06.22s-.08.15-.2.35l-.94,1.58a1.15,1.15,0,0,0-.13.25.25.25,0,0,0,0,.15.31.31,0,0,0,.19.1.64.64,0,0,0,.46-.08.75.75,0,0,0,.23-.15,3.27,3.27,0,0,0,.48-.54l0,0,0,0a1.67,1.67,0,0,1,.13-.2,2.67,2.67,0,0,1,.58-.63,1.23,1.23,0,0,1,1-.32.78.78,0,0,1,.43.25.44.44,0,0,1,.1.15.68.68,0,0,1,.05.44v0a.87.87,0,0,1-.29.49,1.31,1.31,0,0,1-.37.24,2.53,2.53,0,0,1-.55.19,1.7,1.7,0,0,1-.7,0l-.08,0a1,1,0,0,0,0,.19.44.44,0,0,0,.41.4,1.63,1.63,0,0,0,1.1-.22,2.65,2.65,0,0,0,.73-.55.23.23,0,0,1,.22-.06A.28.28,0,0,1,197.86,71.27Zm-1.15-1a.21.21,0,0,0,0-.17.36.36,0,0,0-.15-.08.81.81,0,0,0-.6.25,2.85,2.85,0,0,0-.49.56.84.84,0,0,0,.23,0,1.85,1.85,0,0,0,.8-.26A.5.5,0,0,0,196.71,70.32Zm-4.05-.89c0-.09,0-.13-.06-.15a.25.25,0,0,0-.12,0,.07.07,0,0,0,0,.06.17.17,0,0,0,0,.13.35.35,0,0,0,.11.13A.71.71,0,0,0,192.66,69.43Z" transform="translate(-5.05 -2.07)"/><path class="cls-4" d="M198.14,44a13.69,13.69,0,0,0-1,1.48c-.68,1-1.3,2.05-1.91,3.1a.41.41,0,0,1-.05.09c-.14-1.17-.29-2.34-.5-3.5a13.48,13.48,0,0,0-.43-2,6.91,6.91,0,0,1,.91,0A7.81,7.81,0,0,1,198.14,44Z" transform="translate(-5.05 -2.07)"/><path d="M195.23,68.11a.27.27,0,0,1,0,.19.34.34,0,0,1-.06.12,1,1,0,0,1-.17.24.25.25,0,0,1-.37-.06.22.22,0,0,1,0-.19.21.21,0,0,1,.05-.12l.13-.2a.1.1,0,0,1,.06,0,.28.28,0,0,1,.2,0A.25.25,0,0,1,195.23,68.11Z" transform="translate(-5.05 -2.07)"/><path d="M194.92,32a3.05,3.05,0,0,1-.08,1.31c-.09.59-.19,1.18-.32,1.75-.08.37-.61.2-.55-.15.1-.6.23-1.19.37-1.79a2.67,2.67,0,0,0,.19-.87c-.09-.56-.65-.36-1-.32a.09.09,0,0,1-.07-.16C194,31.45,194.69,31.35,194.92,32Z" transform="translate(-5.05 -2.07)"/><path class="cls-4" d="M194.44,57.76h-.11a7.25,7.25,0,0,1-2.14-.48c.61-1,1.21-2.08,1.81-3.13C194.15,55.35,194.29,56.55,194.44,57.76Z" transform="translate(-5.05 -2.07)"/><path d="M194.27,9.65c.06,0,.07.09,0,.1a67.88,67.88,0,0,0-9.23,3.76,85.08,85.08,0,0,0-8.48,4s0,0,0,0A74.24,74.24,0,0,1,185.31,13C188.17,11.67,191.1,10.06,194.27,9.65Z" transform="translate(-5.05 -2.07)"/><path class="cls-4" d="M193.39,48.76l.27,2.42c-.73,1.26-1.46,2.53-2.2,3.79-.14-.66-.29-1.32-.39-2-.19-1.24-.33-2.48-.44-3.73-.1-1-.17-2.08-.25-3.12,0-.48,0-1-.09-1.5l.14-.12A6.72,6.72,0,0,1,192,43.6a6.81,6.81,0,0,1,1.08-.35,14.43,14.43,0,0,0,0,2C193.16,46.41,193.26,47.59,193.39,48.76Z" transform="translate(-5.05 -2.07)"/><path d="M193.27,21.75c.09-.08.22.05.14.13a5.16,5.16,0,0,1-2.19,1.19c-.08,0-.13-.1-.06-.13A9.49,9.49,0,0,0,193.27,21.75Z" transform="translate(-5.05 -2.07)"/><path class="cls-2" d="M192.6,69.28c.05,0,.07.06.06.15a.71.71,0,0,1-.08.19.35.35,0,0,1-.11-.13.17.17,0,0,1,0-.13.07.07,0,0,1,0-.06A.25.25,0,0,1,192.6,69.28Z" transform="translate(-5.05 -2.07)"/><path d="M191.71,68.76a.24.24,0,0,1,0,.21.23.23,0,0,1-.12.17,2,2,0,0,0-.59.69,2.26,2.26,0,0,0-.25.67,1.15,1.15,0,0,0,0,.48h0l0,.51h-.17a.5.5,0,0,1-.37-.47,1.63,1.63,0,0,1,0-.39,2.41,2.41,0,0,1-.53.27,2,2,0,0,1-1.16.14,1.07,1.07,0,0,1-.64-.37,1.14,1.14,0,0,1-.15-.34l-.11.09a1.32,1.32,0,0,1-1,.24.84.84,0,0,1-.5-.31.68.68,0,0,1-.12-.55.85.85,0,0,1,.09-.24l.1-.17.89-1.56a1.42,1.42,0,0,0-.41,0h-.14a.22.22,0,0,1-.15-.1.28.28,0,0,1-.05-.21.25.25,0,0,1,.1-.15.24.24,0,0,1,.1,0,2.19,2.19,0,0,1,.67,0l.14,0,.47-.83a.28.28,0,0,1,.13-.11.26.26,0,0,1,.15,0,.23.23,0,0,1,.16.11.25.25,0,0,1,0,.2.26.26,0,0,1,0,.1l-.4.72.21.06h.18a.25.25,0,0,1,.17.11.28.28,0,0,1,0,.2.27.27,0,0,1-.11.15.22.22,0,0,1-.12,0,.94.94,0,0,1-.27,0l-.36-.11c-.41.73-.76,1.35-1.05,1.85a.13.13,0,0,0,0,.07.19.19,0,0,0,0,.15.39.39,0,0,0,.19.1.83.83,0,0,0,.71-.25,2.57,2.57,0,0,0,.42-.48,2.23,2.23,0,0,1,.19-.32,3.18,3.18,0,0,1,.59-.63,1.23,1.23,0,0,1,1-.31.76.76,0,0,1,.43.25.6.6,0,0,1,.09.15.68.68,0,0,1,.06.44v0a1,1,0,0,1-.3.49,1.69,1.69,0,0,1-.37.24,4.37,4.37,0,0,1-.55.19,1.7,1.7,0,0,1-.7,0l-.08,0a1,1,0,0,0,0,.19.46.46,0,0,0,.41.4,1.7,1.7,0,0,0,1.11-.22,2.65,2.65,0,0,0,.72-.55h0a2.59,2.59,0,0,1,.81-1,.26.26,0,0,1,.23-.06A.24.24,0,0,1,191.71,68.76Zm-2,.14a.18.18,0,0,0,0-.17.29.29,0,0,0-.14-.08.78.78,0,0,0-.6.25,2.17,2.17,0,0,0-.49.56.84.84,0,0,0,.23,0,1.94,1.94,0,0,0,.79-.26A.47.47,0,0,0,189.76,68.9Z" transform="translate(-5.05 -2.07)"/><path d="M191.34,31.45a2.77,2.77,0,0,1-.08,1.31c-.09.59-.19,1.17-.32,1.75-.08.37-.6.2-.55-.15.1-.6.23-1.2.37-1.79a2.67,2.67,0,0,0,.19-.87c-.09-.56-.64-.36-1-.32a.09.09,0,0,1-.07-.16C190.37,30.93,191.11,30.83,191.34,31.45Z" transform="translate(-5.05 -2.07)"/><path class="cls-4" d="M189.26,53.19c.11.74.21,1.54.35,2.32A7.31,7.31,0,0,1,187.55,50,7.61,7.61,0,0,1,189,46v.13a19.6,19.6,0,0,0-.13,3.25A34.5,34.5,0,0,0,189.26,53.19Z" transform="translate(-5.05 -2.07)"/><path d="M188,14.09c.07,0,.12.08.07.12a13,13,0,0,1-2.1,1.24,5.27,5.27,0,0,1-1.92.65s0,0,0-.05C185.49,15.83,186.62,14.62,188,14.09Z" transform="translate(-5.05 -2.07)"/><path d="M187.77,30.79a3,3,0,0,1-.09,1.32c-.09.58-.18,1.17-.31,1.75-.09.36-.61.2-.55-.15.09-.61.23-1.2.37-1.79a3.07,3.07,0,0,0,.18-.88c-.09-.56-.64-.36-1-.31-.1,0-.17-.11-.07-.17C186.79,30.28,187.54,30.18,187.77,30.79Z" transform="translate(-5.05 -2.07)"/><path d="M187.12,64.75a1,1,0,0,1,.2.81.88.88,0,0,1-.52.66,1.43,1.43,0,0,1-.88.06,1,1,0,0,1-.24-.07.33.33,0,0,1-.11-.15.24.24,0,0,1,0-.12.24.24,0,0,1,.3-.2l.16,0a.85.85,0,0,0,.61-.06.37.37,0,0,0,.17-.25.48.48,0,0,0-.12-.42,1.06,1.06,0,0,0-.63-.33,1.1,1.1,0,0,0-.6,0,.68.68,0,0,0-.45.5,1.52,1.52,0,0,0,.11.87,8.49,8.49,0,0,0,.49.92,5.22,5.22,0,0,1,.29.55,2.52,2.52,0,0,1,.17,1.49,2.1,2.1,0,0,1-.89,1.31,2.31,2.31,0,0,1-.79.35,2.12,2.12,0,0,1-.94,0,2,2,0,0,1-1.07-.55,2,2,0,0,1-.25-.33A1.71,1.71,0,0,1,182,68.7a1.88,1.88,0,0,1,.37-.78,1.84,1.84,0,0,1,.35-.33,1.58,1.58,0,0,1,1.24-.25,1.33,1.33,0,0,1,.57.25,1.24,1.24,0,0,1,.46.81,1.53,1.53,0,0,1,0,.52,1.37,1.37,0,0,1-.07.24.18.18,0,0,1-.12.12.18.18,0,0,1-.16,0,.24.24,0,0,1-.18-.13.27.27,0,0,1,0-.17,1.08,1.08,0,0,0,0-.19.88.88,0,0,0-.08-.63.77.77,0,0,0-.52-.33,1,1,0,0,0-.57,0,1.13,1.13,0,0,0-.6.48,1.75,1.75,0,0,0-.17.43,1.26,1.26,0,0,0,0,.64A1.11,1.11,0,0,0,183,70a1.72,1.72,0,0,0,.59.22,1.68,1.68,0,0,0,1-.11,1.88,1.88,0,0,0,.37-.21,1.63,1.63,0,0,0,.6-.94,2.08,2.08,0,0,0-.07-1,5.82,5.82,0,0,0-.44-.87,5.67,5.67,0,0,1-.45-.89,2,2,0,0,1-.09-1.07,1.26,1.26,0,0,1,.12-.34,1.18,1.18,0,0,1,.85-.59,1.79,1.79,0,0,1,.69,0A1.62,1.62,0,0,1,187.12,64.75Z" transform="translate(-5.05 -2.07)"/><path d="M185,10s.09,0,0,.07A7.76,7.76,0,0,1,182,11.69a0,0,0,1,1,0-.09A11.15,11.15,0,0,0,185,10Z" transform="translate(-5.05 -2.07)"/><path d="M184.2,30a3,3,0,0,1-.09,1.32c-.09.58-.18,1.17-.32,1.75-.08.36-.6.2-.54-.15.09-.61.23-1.2.36-1.79a2.78,2.78,0,0,0,.19-.88c-.09-.56-.64-.36-1-.31a.09.09,0,0,1-.07-.17C183.22,29.49,184,29.39,184.2,30Z" transform="translate(-5.05 -2.07)"/><path d="M179.7,28.59c.65.77.12,2.44-.25,3.21-.51,1.06-1.75.56-2.71.44-.8-.11-1.59-.23-2.38-.38a8.87,8.87,0,0,1-2.11-.49,1.13,1.13,0,0,1-.56-.56.12.12,0,0,1-.08-.12v-.11a2.63,2.63,0,0,1,0-1c0-.92.14-2,.78-2.4.9-.57,2.74,0,3.68.22.75.17,1.51.38,2.26.58A2.72,2.72,0,0,1,179.7,28.59Zm-.49,2.08a3,3,0,0,0,.14-1.19c-.17-.76-.91-.83-1.5-1a25,25,0,0,0-2.58-.67c-.94-.18-2.46-.68-3,.47a4.47,4.47,0,0,0-.17,1.17c0,.25-.07.49-.11.74.22,1,1.54.94,2.38,1.1s1.87.32,2.81.43a4.4,4.4,0,0,0,1.38.15C179,31.69,179.11,31.09,179.21,30.67Z" transform="translate(-5.05 -2.07)"/><path class="cls-7" d="M179.35,29.48a3,3,0,0,1-.14,1.19c-.1.42-.21,1-.68,1.2a4.4,4.4,0,0,1-1.38-.15c-.94-.11-1.88-.26-2.81-.43s-2.16-.13-2.38-1.1c0-.25.07-.49.11-.74a4.47,4.47,0,0,1,.17-1.17c.57-1.15,2.09-.65,3-.47a25,25,0,0,1,2.58.67C178.44,28.65,179.18,28.72,179.35,29.48Z" transform="translate(-5.05 -2.07)"/><path d="M176.38,43.19a7.7,7.7,0,0,1-.78,6.23,6.45,6.45,0,0,1-5,3.19,5.74,5.74,0,0,1-4.8-1.66c-3-2.33-3.06-6.78-1.13-9.9a6,6,0,0,1,3.26-2.7,5.38,5.38,0,0,1,2.89-.42,7.18,7.18,0,0,1,4,2.33A8.76,8.76,0,0,1,176.38,43.19Zm-1.45,5.54a6.77,6.77,0,0,0,.7-4.41,8.75,8.75,0,0,1-.41,3.22,7,7,0,0,1-4.49,4.35h0A6.09,6.09,0,0,0,174.93,48.73Zm-4.4-9.56a4.21,4.21,0,0,1,3.06,2.31,4.28,4.28,0,0,0-4.32-2.73,5.18,5.18,0,0,0-4,2.62,7.28,7.28,0,0,0-.58,1.19.88.88,0,0,1-.05.15l0,.08c0,.12-.07.23-.1.34a7.45,7.45,0,0,0-.29,1.89,7.3,7.3,0,0,1,1.2-3.48,4.94,4.94,0,0,1,2.46-2A4.47,4.47,0,0,1,170.53,39.17Zm.3,9.92c2.66-1.59,3.06-6.32.67-8.36a3.64,3.64,0,0,0-4.92.46A5.38,5.38,0,0,0,165.49,43a6.85,6.85,0,0,0-.36,1.62,4.85,4.85,0,0,0,1.43,4.12A3.57,3.57,0,0,0,170.83,49.09Zm-2.72,1.77a4.8,4.8,0,0,0,4.95-2.08A4.92,4.92,0,0,1,166.5,50a5.13,5.13,0,0,1-1.57-1.72A4.62,4.62,0,0,0,168.11,50.86Z" transform="translate(-5.05 -2.07)"/><path class="cls-3" d="M174.63,8.54l-.6.79c-.95,1.26-1.92,2.51-2.83,3.79a46,46,0,0,0-2.57,4,12.23,12.23,0,0,0-1.55,3.31,4.18,4.18,0,0,0-.87,0c.73-1,1.11-2.39,1.73-3.5a32.38,32.38,0,0,1,2.44-3.7c.94-1.24,2.07-2.35,3.11-3.51C173.84,9.32,174.23,8.93,174.63,8.54Z" transform="translate(-5.05 -2.07)"/><path d="M174.58,35.23l-.06.37c-2.21-.4-4.41-.8-6.6-1.22h-.31c-1.51.07-2.22,1-2.82,2.36a49.13,49.13,0,0,0-2,5l-.34-.11c.22-.68.45-1.35.69-2a25.36,25.36,0,0,1,1.75-4.12,2.9,2.9,0,0,1,2.21-1.54c2.11-.29,4.16.63,6.18,1.06Z" transform="translate(-5.05 -2.07)"/><path class="cls-6" d="M171.5,40.73c2.39,2,2,6.77-.67,8.36a3.57,3.57,0,0,1-4.27-.38,4.85,4.85,0,0,1-1.43-4.12,6.85,6.85,0,0,1,.36-1.62,5.38,5.38,0,0,1,1.09-1.78A3.64,3.64,0,0,1,171.5,40.73Zm-2.32,4.16s-.07-.06-.08,0a6.75,6.75,0,0,0-.41,2.47c0,.14.21.08.22,0C169,46.5,169.08,45.69,169.18,44.89Zm-.83-1.32c.07-.14-.14-.27-.21-.13a8.75,8.75,0,0,0-.79,4.76c0,.07.13.1.14,0A15.61,15.61,0,0,1,168.35,43.57Zm-.78-2c0-.07-.09-.08-.11,0-.39,2.07-1.9,3.88-1.61,6.06,0,.07.12.08.12,0C166.1,45.41,167.34,43.63,167.57,41.53Z" transform="translate(-5.05 -2.07)"/><path d="M169.1,44.87s.08,0,.08,0c-.1.8-.17,1.61-.27,2.42,0,.11-.2.17-.22,0A6.75,6.75,0,0,1,169.1,44.87Z" transform="translate(-5.05 -2.07)"/><path d="M168.14,43.44c.07-.14.28,0,.21.13a15.61,15.61,0,0,0-.86,4.65c0,.08-.14.05-.14,0A8.75,8.75,0,0,1,168.14,43.44Z" transform="translate(-5.05 -2.07)"/><path d="M168.16,21.72c.05,0,.07,0,0,.07-.3.23-.65.39-.94.63a3.08,3.08,0,0,0-.71.86c0,.07-.15,0-.11-.06A2.61,2.61,0,0,1,168.16,21.72Z" transform="translate(-5.05 -2.07)"/><path d="M167.46,41.51c0-.06.12,0,.11,0-.23,2.1-1.47,3.88-1.6,6,0,.08-.11.07-.12,0C165.56,45.39,167.07,43.58,167.46,41.51Z" transform="translate(-5.05 -2.07)"/><path class="cls-8" d="M162.61,68.09h0l.1,0,.59.11,1.86.36.62.12a19.73,19.73,0,0,0-.78,3.25c-.13.64-.23,1.31-.41,1.94a3.62,3.62,0,0,1-.36.8c-.14.18-.3.35-.44.52a2.47,2.47,0,0,1-.77.17l-.08-.24a7.51,7.51,0,0,0-.25-1s0,0,0,0a2.2,2.2,0,0,0,0,.95c0,.08,0,.16.05.24h-.16l-.44-.05a3.73,3.73,0,0,1-.44-2.06.08.08,0,0,0-.15,0,3.69,3.69,0,0,0,.18,2c-.24,0-.49-.11-.73-.18a5.32,5.32,0,0,1-.56-2.74s0,0,0,0a6,6,0,0,0,.28,2.65A3.58,3.58,0,0,1,159,74c-.77-.94-.5-2.68-.54-3.81a20,20,0,0,1,0-2,12.69,12.69,0,0,0,.13-1.37c.33.16.66.31,1,.44,0,0,0,0,0,0-.86,1.07-.6,3.06-.36,4.31,0,.07.11,0,.1,0a8.14,8.14,0,0,1,.39-4.18.09.09,0,0,0,0-.07,18.62,18.62,0,0,0,2.56.75l.13,0Zm0,0h0Zm-.92,0c0-.07-.11-.1-.14,0a4.08,4.08,0,0,0-.39,1.85.13.13,0,0,0,.25,0C161.48,69.31,161.67,68.71,161.74,68.1Zm-1.66,2.11c0,.05.09,0,.08,0a12.28,12.28,0,0,1-.13-1.82,0,0,0,0,0-.07,0A4.57,4.57,0,0,0,160.08,70.21Z" transform="translate(-5.05 -2.07)"/><path class="cls-2" d="M165.09,20.75a3.07,3.07,0,0,0-.6.44s0,0,0,0a12.54,12.54,0,0,0-2.39-3.49c.27.24.53.5.79.76C163.59,19.26,164.31,20,165.09,20.75Z" transform="translate(-5.05 -2.07)"/><path d="M162.66,68.1h0Z" transform="translate(-5.05 -2.07)"/><path d="M161.6,68.07c0-.07.15,0,.14,0-.07.61-.26,1.21-.28,1.82a.13.13,0,0,1-.25,0A4.08,4.08,0,0,1,161.6,68.07Z" transform="translate(-5.05 -2.07)"/><path class="cls-2" d="M161.63,15.29a2.17,2.17,0,0,1-.27,1.07,12.53,12.53,0,0,0-1.24-.93.23.23,0,0,0-.32.32,7.3,7.3,0,0,0,.68,1.14.52.52,0,0,0-.24.13c-1.25,1.09-2.75-.65-3-1.8a3.69,3.69,0,0,1,.41-3.09c1.06-1.21,3,.35,3.56,1.32A3.69,3.69,0,0,1,161.63,15.29Z" transform="translate(-5.05 -2.07)"/><path d="M160.16,70.2s-.07.06-.08,0a4.57,4.57,0,0,1-.12-1.84,0,0,0,0,1,.07,0A12.28,12.28,0,0,0,160.16,70.2Z" transform="translate(-5.05 -2.07)"/></svg>